<svg version="1.1" viewBox="0.0 0.0 600.0 371.0" fill="none" stroke="none" stroke-linecap="square" stroke-miterlimit="10" width="600" height="371" xmlns:xlink="http://www.w3.org/1999/xlink" xmlns="http://www.w3.org/2000/svg"><path fill="#ffffff" d="M0 0L600.0 0L600.0 371.0L0 371.0L0 0Z" fill-rule="nonzero"/><path stroke="#333333" stroke-width="1.0" stroke-linecap="butt" d="M77.5 300.5L581.5 300.5" fill-rule="nonzero"/><path stroke="#cccccc" stroke-width="1.0" stroke-linecap="butt" d="M77.5 240.5L581.5 240.5" fill-rule="nonzero"/><path stroke="#cccccc" stroke-width="1.0" stroke-linecap="butt" d="M77.5 181.5L581.5 181.5" fill-rule="nonzero"/><path stroke="#cccccc" stroke-width="1.0" stroke-linecap="butt" d="M77.5 121.5L581.5 121.5" fill-rule="nonzero"/><path stroke="#cccccc" stroke-width="1.0" stroke-linecap="butt" d="M77.5 61.5L581.5 61.5" fill-rule="nonzero"/><clipPath id="id_0"><path d="M77.55 61.916668L581.45 61.916668L581.45 300.45L77.55 300.45L77.55 61.916668Z" clip-rule="nonzero"/></clipPath><path stroke="#4285f4" stroke-width="2.0" stroke-linecap="butt" clip-path="url(#id_0)" d="M119.541664 85.47183L203.525 184.5228L287.50833 106.1646L371.49167 133.05923L455.475 198.2981L539.4583 233.95883" fill-rule="nonzero"/><path fill="#000000" fill-opacity="0.0" clip-path="url(#id_0)" d="M122.541664 85.47183C122.541664 87.128685 121.198524 88.47183 119.541664 88.47183C117.88481 88.47183 116.541664 87.128685 116.541664 85.47183C116.541664 83.81498 117.88481 82.47183 119.541664 82.47183C121.198524 82.47183 122.541664 83.81498 122.541664 85.47183Z" fill-rule="nonzero"/><path fill="#000000" fill-opacity="0.0" clip-path="url(#id_0)" d="M206.525 184.5228C206.525 186.17966 205.18185 187.5228 203.525 187.5228C201.86815 187.5228 200.525 186.17966 200.525 184.5228C200.525 182.86595 201.86815 181.5228 203.525 181.5228C205.18185 181.5228 206.525 182.86595 206.525 184.5228Z" fill-rule="nonzero"/><path fill="#000000" fill-opacity="0.0" clip-path="url(#id_0)" d="M290.50833 106.1646C290.50833 107.82146 289.1652 109.1646 287.50833 109.1646C285.85147 109.1646 284.50833 107.82146 284.50833 106.1646C284.50833 104.507744 285.85147 103.1646 287.50833 103.1646C289.1652 103.1646 290.50833 104.507744 290.50833 106.1646Z" fill-rule="nonzero"/><path fill="#000000" fill-opacity="0.0" clip-path="url(#id_0)" d="M374.49167 133.05923C374.49167 134.7161 373.14853 136.05923 371.49167 136.05923C369.8348 136.05923 368.49167 134.7161 368.49167 133.05923C368.49167 131.40237 369.8348 130.05923 371.49167 130.05923C373.14853 130.05923 374.49167 131.40237 374.49167 133.05923Z" fill-rule="nonzero"/><path fill="#000000" fill-opacity="0.0" clip-path="url(#id_0)" d="M458.475 198.2981C458.475 199.95496 457.13187 201.2981 455.475 201.2981C453.81815 201.2981 452.475 199.95496 452.475 198.2981C452.475 196.64125 453.81815 195.2981 455.475 195.2981C457.13187 195.2981 458.475 196.64125 458.475 198.2981Z" fill-rule="nonzero"/><path fill="#000000" fill-opacity="0.0" clip-path="url(#id_0)" d="M542.4583 233.95883C542.4583 235.61569 541.1152 236.95883 539.4583 236.95883C537.80145 236.95883 536.4583 235.61569 536.4583 233.95883C536.4583 232.30199 537.80145 230.95883 539.4583 230.95883C541.1152 230.95883 542.4583 232.30199 542.4583 233.95883Z" fill-rule="nonzero"/><path fill="#000000" d="M313.89062 349.45L313.89062 340.85626L315.60938 340.85626L317.64062 346.9344Q317.92188 347.79376 318.04688 348.21564Q318.1875 347.7469 318.5 346.84064L320.5625 340.85626L322.09375 340.85626L322.09375 349.45L321.0 349.45L321.0 342.2625L318.5 349.45L317.46875 349.45L314.98438 342.1375L314.98438 349.45L313.89062 349.45ZM322.40625 346.34064Q322.40625 344.60626 323.35938 343.77814Q324.15625 343.09064 325.3125 343.09064Q326.59375 343.09064 327.40625 343.9344Q328.23438 344.7625 328.23438 346.2469Q328.23438 347.45 327.875 348.1375Q327.51562 348.825 326.8125 349.21564Q326.125 349.59064 325.3125 349.59064Q324.01562 349.59064 323.20312 348.7625Q322.40625 347.91876 322.40625 346.34064ZM323.48438 346.34064Q323.48438 347.52814 324.0 348.1219Q324.53125 348.71564 325.3125 348.71564Q326.10938 348.71564 326.625 348.1219Q327.14062 347.52814 327.14062 346.3094Q327.14062 345.15314 326.60938 344.5594Q326.09375 343.96564 325.3125 343.96564Q324.53125 343.96564 324.0 344.5594Q323.48438 345.1375 323.48438 346.34064ZM329.79688 349.45L329.79688 343.23126L330.73438 343.23126L330.73438 344.10626Q331.42188 343.09064 332.71875 343.09064Q333.28125 343.09064 333.75 343.29376Q334.23438 343.4969 334.46875 343.825Q334.70312 344.15314 334.79688 344.59064Q334.84375 344.8875 334.84375 345.6219L334.84375 349.45L333.79688 349.45L333.79688 345.66876Q333.79688 345.0125 333.67188 344.7Q333.54688 344.3875 333.23438 344.2Q332.92188 343.9969 332.5 343.9969Q331.82812 343.9969 331.32812 344.4344Q330.84375 344.85626 330.84375 346.04376L330.84375 349.45L329.79688 349.45ZM339.09375 348.5125L339.25 349.4344Q338.79688 349.52814 338.45312 349.52814Q337.875 349.52814 337.5625 349.35626Q337.25 349.16876 337.10938 348.8719Q336.98438 348.575 336.98438 347.6219L336.98438 344.04376L336.21875 344.04376L336.21875 343.23126L336.98438 343.23126L336.98438 341.6844L338.03125 341.0594L338.03125 343.23126L339.09375 343.23126L339.09375 344.04376L338.03125 344.04376L338.03125 347.6844Q338.03125 348.1375 338.07812 348.2625Q338.14062 348.3875 338.26562 348.46564Q338.39062 348.54376 338.625 348.54376Q338.8125 348.54376 339.09375 348.5125ZM339.79688 349.45L339.79688 340.85626L340.84375 340.85626L340.84375 343.9344Q341.57812 343.09064 342.70312 343.09064Q343.40625 343.09064 343.90625 343.3719Q344.42188 343.6375 344.64062 344.1219Q344.85938 344.59064 344.85938 345.5125L344.85938 349.45L343.8125 349.45L343.8125 345.5125Q343.8125 344.71564 343.46875 344.35626Q343.125 343.9969 342.5 343.9969Q342.03125 343.9969 341.60938 344.2469Q341.20312 344.48126 341.01562 344.90314Q340.84375 345.3094 340.84375 346.04376L340.84375 349.45L339.79688 349.45Z" fill-rule="nonzero"/><path fill="#000000" d="M29.550013 261.19897L20.956263 257.9021L20.956263 256.68335L29.550013 253.16771L29.550013 254.44896L26.940638 255.46458L26.940638 259.04272L29.550013 259.99585L29.550013 261.19897ZM26.018763 258.7146L26.018763 255.80833L23.643763 256.69897Q22.565638 257.12085 21.862513 257.30835Q22.690638 257.48022 23.503138 257.7771L26.018763 258.7146ZM29.550013 251.66771L23.331263 254.02708L23.331263 252.91771L27.050013 251.57396Q27.659388 251.37083 28.300013 251.18333Q27.815638 251.04271 27.128138 250.79271L23.331263 249.40208L23.331263 248.32396L29.550013 250.68333L29.550013 251.66771ZM27.550013 244.13646L27.675013 243.04271Q28.628138 243.29271 29.159388 243.99583Q29.690638 244.69896 29.690638 245.77708Q29.690638 247.13646 28.846888 247.94896Q28.003138 248.74583 26.487513 248.74583Q24.925013 248.74583 24.065638 247.93333Q23.190638 247.12083 23.190638 245.83958Q23.190638 244.58958 24.034388 243.80833Q24.878138 243.01146 26.425013 243.01146Q26.518763 243.01146 26.706263 243.01146L26.706263 247.65208Q27.737513 247.58958 28.284388 247.07396Q28.815638 246.55833 28.815638 245.77708Q28.815638 245.19896 28.518763 244.79271Q28.206263 244.37083 27.550013 244.13646ZM25.846888 247.58958L25.846888 244.12083Q25.050013 244.18333 24.659388 244.51146Q24.050013 245.02708 24.050013 245.82396Q24.050013 246.55833 24.534388 247.05833Q25.018763 247.54271 25.846888 247.58958ZM29.550013 241.40208L23.331263 241.40208L23.331263 240.44896L24.268763 240.44896Q23.612513 240.08958 23.409388 239.79271Q23.190638 239.48021 23.190638 239.10521Q23.190638 238.57396 23.518763 238.02708L24.503138 238.38646Q24.268763 238.77708 24.268763 239.15208Q24.268763 239.51146 24.487513 239.79271Q24.690638 240.05833 25.065638 240.16771Q25.628138 240.35521 26.284388 240.35521L29.550013 240.35521L29.550013 241.40208ZM28.784388 233.32396Q29.284388 233.91771 29.487513 234.46458Q29.690638 234.99583 29.690638 235.62083Q29.690638 236.65208 29.190638 237.19896Q28.690638 237.74583 27.909388 237.74583Q27.456263 237.74583 27.081263 237.54271Q26.690638 237.33958 26.471888 236.99583Q26.237513 236.65208 26.128138 236.23021Q26.034388 235.93333 25.956263 235.29271Q25.815638 234.02708 25.596888 233.41771Q25.378138 233.41771 25.331263 233.41771Q24.675013 233.41771 24.409388 233.71458Q24.065638 234.12083 24.065638 234.91771Q24.065638 235.65208 24.331263 236.01146Q24.581263 236.37083 25.237513 236.54271L25.096888 237.57396Q24.440638 237.43333 24.034388 237.10521Q23.628138 236.77708 23.409388 236.16771Q23.190638 235.55833 23.190638 234.76146Q23.190638 233.96458 23.378138 233.46458Q23.565638 232.96458 23.846888 232.73021Q24.128138 232.49583 24.565638 232.40208Q24.831263 232.35521 25.534388 232.35521L26.940638 232.35521Q28.409388 232.35521 28.800013 232.29271Q29.190638 232.21458 29.550013 232.01146L29.550013 233.12083Q29.221888 233.27708 28.784388 233.32396ZM26.425013 233.41771Q26.659388 233.99583 26.831263 235.13646Q26.925013 235.79271 27.050013 236.05833Q27.159388 236.32396 27.378138 236.48021Q27.596888 236.62083 27.878138 236.62083Q28.300013 236.62083 28.581263 236.30833Q28.862513 235.98021 28.862513 235.37083Q28.862513 234.76146 28.596888 234.29271Q28.331263 233.80833 27.862513 233.58958Q27.503138 233.41771 26.815638 233.41771L26.425013 233.41771ZM30.065638 230.58958L30.221888 229.55833Q30.690638 229.49583 30.909388 229.19896Q31.206263 228.80833 31.206263 228.13646Q31.206263 227.40208 30.909388 227.01146Q30.612513 226.60521 30.096888 226.46458Q29.768763 226.37083 28.737513 226.38646Q29.550013 227.07396 29.550013 228.10521Q29.550013 229.38646 28.628138 230.08958Q27.690638 230.79271 26.409388 230.79271Q25.518763 230.79271 24.768763 230.48021Q24.003138 230.15208 23.596888 229.54271Q23.190638 228.93333 23.190638 228.10521Q23.190638 226.99583 24.081263 226.27708L23.331263 226.27708L23.331263 225.30833L28.706263 225.30833Q30.159388 225.30833 30.768763 225.60521Q31.378138 225.90208 31.721888 226.54271Q32.08126 227.18333 32.08126 228.12083Q32.08126 229.23021 31.581263 229.91771Q31.081263 230.60521 30.065638 230.58958ZM26.331263 229.71458Q27.550013 229.71458 28.112513 229.23021Q28.675013 228.74583 28.675013 228.01146Q28.675013 227.27708 28.112513 226.79271Q27.550013 226.29271 26.362513 226.29271Q25.221888 226.29271 24.643763 226.80833Q24.065638 227.30833 24.065638 228.02708Q24.065638 228.73021 24.643763 229.23021Q25.206263 229.71458 26.331263 229.71458ZM27.550013 219.13646L27.675013 218.04271Q28.628138 218.29271 29.159388 218.99583Q29.690638 219.69896 29.690638 220.77708Q29.690638 222.13646 28.846888 222.94896Q28.003138 223.74583 26.487513 223.74583Q24.925013 223.74583 24.065638 222.93333Q23.190638 222.12083 23.190638 220.83958Q23.190638 219.58958 24.034388 218.80833Q24.878138 218.01146 26.425013 218.01146Q26.518763 218.01146 26.706263 218.01146L26.706263 222.65208Q27.737513 222.58958 28.284388 222.07396Q28.815638 221.55833 28.815638 220.77708Q28.815638 220.19896 28.518763 219.79271Q28.206263 219.37083 27.550013 219.13646ZM25.846888 222.58958L25.846888 219.12083Q25.050013 219.18333 24.659388 219.51146Q24.050013 220.02708 24.050013 220.82396Q24.050013 221.55833 24.534388 222.05833Q25.018763 222.54271 25.846888 222.58958ZM29.550013 211.76146L20.956263 214.04271L20.956263 212.87083L26.596888 211.55833Q27.471888 211.35521 28.346888 211.19896Q26.971888 210.87083 26.753138 210.80833L20.956263 209.18333L20.956263 207.80833L25.300013 206.57396Q26.925013 206.12083 28.346888 205.90208Q27.534388 205.74583 26.471888 205.48021L20.956263 204.13646L20.956263 202.99583L29.550013 205.33958L29.550013 206.44896L23.003138 208.24583Q22.190638 208.48021 22.003138 208.52708Q22.581263 208.65208 23.003138 208.77708L29.550013 210.58958L29.550013 211.76146ZM22.175013 202.38646L20.956263 202.38646L20.956263 201.32396L22.175013 201.32396L22.175013 202.38646ZM29.550013 202.38646L23.331263 202.38646L23.331263 201.32396L29.550013 201.32396L29.550013 202.38646ZM29.550013 199.38646L23.331263 199.38646L23.331263 198.44896L24.206263 198.44896Q23.190638 197.76146 23.190638 196.46458Q23.190638 195.90208 23.393763 195.43333Q23.596888 194.94896 23.925013 194.71458Q24.253138 194.48021 24.690638 194.38646Q24.987513 194.33958 25.721888 194.33958L29.550013 194.33958L29.550013 195.38646L25.768763 195.38646Q25.112513 195.38646 24.800013 195.51146Q24.487513 195.63646 24.300013 195.94896Q24.096888 196.26146 24.096888 196.68333Q24.096888 197.35521 24.534388 197.85521Q24.956263 198.33958 26.143763 198.33958L29.550013 198.33958L29.550013 199.38646ZM29.550013 186.80833L20.956263 190.13646L20.956263 188.90208L27.206263 186.66771Q27.956263 186.40208 28.612513 186.21458Q27.909388 186.01146 27.206263 185.74583L20.956263 183.43333L20.956263 182.27708L29.550013 185.63646L29.550013 186.80833ZM28.784388 178.32396Q29.284388 178.91771 29.487513 179.46458Q29.690638 179.99583 29.690638 180.62083Q29.690638 181.65208 29.190638 182.19896Q28.690638 182.74583 27.909388 182.74583Q27.456263 182.74583 27.081263 182.54271Q26.690638 182.33958 26.471888 181.99583Q26.237513 181.65208 26.128138 181.23021Q26.034388 180.93333 25.956263 180.29271Q25.815638 179.02708 25.596888 178.41771Q25.378138 178.41771 25.331263 178.41771Q24.675013 178.41771 24.409388 178.71458Q24.065638 179.12083 24.065638 179.91771Q24.065638 180.65208 24.331263 181.01146Q24.581263 181.37083 25.237513 181.54271L25.096888 182.57396Q24.440638 182.43333 24.034388 182.10521Q23.628138 181.77708 23.409388 181.16771Q23.190638 180.55833 23.190638 179.76146Q23.190638 178.96458 23.378138 178.46458Q23.565638 177.96458 23.846888 177.73021Q24.128138 177.49583 24.565638 177.40208Q24.831263 177.35521 25.534388 177.35521L26.940638 177.35521Q28.409388 177.35521 28.800013 177.29271Q29.190638 177.21458 29.550013 177.01146L29.550013 178.12083Q29.221888 178.27708 28.784388 178.32396ZM26.425013 178.41771Q26.659388 178.99583 26.831263 180.13646Q26.925013 180.79271 27.050013 181.05833Q27.159388 181.32396 27.378138 181.48021Q27.596888 181.62083 27.878138 181.62083Q28.300013 181.62083 28.581263 181.30833Q28.862513 180.98021 28.862513 180.37083Q28.862513 179.76146 28.596888 179.29271Q28.331263 178.80833 27.862513 178.58958Q27.503138 178.41771 26.815638 178.41771L26.425013 178.41771ZM29.550013 175.41771L20.956263 175.41771L20.956263 174.35521L29.550013 174.35521L29.550013 175.41771ZM29.550013 168.30833L28.628138 168.30833Q29.690638 169.04271 29.690638 170.29271Q29.690638 170.83958 29.487513 171.32396Q29.268763 171.79271 28.956263 172.02708Q28.628138 172.26146 28.159388 172.35521Q27.862513 172.41771 27.175013 172.41771L23.331263 172.41771L23.331263 171.35521L26.784388 171.35521Q27.596888 171.35521 27.893763 171.29271Q28.300013 171.19896 28.550013 170.88646Q28.784388 170.55833 28.784388 170.07396Q28.784388 169.60521 28.550013 169.19896Q28.300013 168.77708 27.878138 168.60521Q27.456263 168.41771 26.659388 168.41771L23.331263 168.41771L23.331263 167.37083L29.550013 167.37083L29.550013 168.30833ZM27.550013 161.13646L27.675013 160.04271Q28.628138 160.29271 29.159388 160.99583Q29.690638 161.69896 29.690638 162.77708Q29.690638 164.13646 28.846888 164.94896Q28.003138 165.74583 26.487513 165.74583Q24.925013 165.74583 24.065638 164.93333Q23.190638 164.12083 23.190638 162.83958Q23.190638 161.58958 24.034388 160.80833Q24.878138 160.01146 26.425013 160.01146Q26.518763 160.01146 26.706263 160.01146L26.706263 164.65208Q27.737513 164.58958 28.284388 164.07396Q28.815638 163.55833 28.815638 162.77708Q28.815638 162.19896 28.518763 161.79271Q28.206263 161.37083 27.550013 161.13646ZM25.846888 164.58958L25.846888 161.12083Q25.050013 161.18333 24.659388 161.51146Q24.050013 162.02708 24.050013 162.82396Q24.050013 163.55833 24.534388 164.05833Q25.018763 164.54271 25.846888 164.58958ZM27.690638 158.80833L27.534388 157.77708Q28.159388 157.68333 28.487513 157.29271Q28.815638 156.88646 28.815638 156.15208Q28.815638 155.43333 28.534388 155.08958Q28.237513 154.73021 27.831263 154.73021Q27.471888 154.73021 27.268763 155.04271Q27.128138 155.26146 26.909388 156.12083Q26.612513 157.27708 26.409388 157.73021Q26.190638 158.16771 25.815638 158.40208Q25.440638 158.63646 24.971888 158.63646Q24.565638 158.63646 24.206263 158.44896Q23.846888 158.26146 23.612513 157.93333Q23.440638 157.68333 23.315638 157.26146Q23.190638 156.83958 23.190638 156.33958Q23.190638 155.62083 23.409388 155.07396Q23.612513 154.51146 23.971888 154.24583Q24.331263 153.98021 24.925013 153.88646L25.065638 154.91771Q24.596888 154.98021 24.331263 155.32396Q24.050013 155.65208 24.050013 156.27708Q24.050013 156.99583 24.300013 157.30833Q24.534388 157.62083 24.862513 157.62083Q25.065638 157.62083 25.221888 157.49583Q25.393763 157.35521 25.503138 157.08958Q25.565638 156.93333 25.768763 156.15208Q26.081263 155.02708 26.268763 154.58958Q26.456263 154.15208 26.815638 153.90208Q27.175013 153.65208 27.721888 153.65208Q28.253138 153.65208 28.721888 153.96458Q29.175013 154.26146 29.440638 154.83958Q29.690638 155.41771 29.690638 156.15208Q29.690638 157.37083 29.190638 158.01146Q28.675013 158.63646 27.690638 158.80833ZM32.08126 146.37083Q30.971888 147.24583 29.503138 147.85521Q28.018763 148.44896 26.440638 148.44896Q25.050013 148.44896 23.768763 148.01146Q22.284388 147.48021 20.815638 146.37083L20.815638 145.62083Q22.034388 146.32396 22.550013 146.55833Q23.362513 146.91771 24.237513 147.12083Q25.331263 147.37083 26.440638 147.37083Q29.268763 147.37083 32.08126 145.62083L32.08126 146.37083ZM29.550013 145.08958L26.315638 142.82396L23.331263 144.91771L23.331263 143.60521L24.784388 142.65208Q25.206263 142.38646 25.487513 142.21458Q25.096888 141.96458 24.800013 141.74583L23.331263 140.69896L23.331263 139.43333L26.253138 141.58958L29.550013 139.27708L29.550013 140.55833L27.612513 141.83958L27.096888 142.18333L29.550013 143.82396L29.550013 145.08958ZM29.550013 139.30833L20.956263 139.30833L20.956263 136.07396Q20.956263 135.08958 21.221888 134.49583Q21.487513 133.90208 22.034388 133.57396Q22.565638 133.23021 23.159388 133.23021Q23.706263 133.23021 24.190638 133.52708Q24.675013 133.82396 24.971888 134.43333Q25.206263 133.65208 25.768763 133.24583Q26.315638 132.82396 27.065638 132.82396Q27.659388 132.82396 28.190638 133.07396Q28.706263 133.32396 28.987513 133.69896Q29.268763 134.07396 29.409388 134.65208Q29.550013 135.21458 29.550013 136.02708L29.550013 139.30833ZM24.565638 138.16771L24.565638 136.30833Q24.565638 135.55833 24.471888 135.23021Q24.346888 134.79271 24.050013 134.57396Q23.737513 134.35521 23.284388 134.35521Q22.862513 134.35521 22.534388 134.55833Q22.206263 134.76146 22.096888 135.15208Q21.971888 135.52708 21.971888 136.44896L21.971888 138.16771L24.565638 138.16771ZM28.534388 138.16771L28.534388 136.02708Q28.534388 135.48021 28.487513 135.26146Q28.425013 134.85521 28.268763 134.60521Q28.096888 134.33958 27.784388 134.16771Q27.471888 133.99583 27.065638 133.99583Q26.581263 133.99583 26.221888 134.24583Q25.862513 134.48021 25.721888 134.91771Q25.581263 135.35521 25.581263 136.18333L25.581263 138.16771L28.534388 138.16771ZM29.550013 131.94896L28.487513 131.94896L22.987513 127.54271Q22.409388 127.07396 21.971888 126.652084L21.971888 131.44896L20.956263 131.44896L20.956263 125.29271L21.971888 125.29271L27.925013 130.12083L28.534388 130.63646L28.534388 125.152084L29.550013 125.152084L29.550013 131.94896ZM29.550013 124.94896L28.487513 124.94896L22.987513 120.54271Q22.409388 120.07396 21.971888 119.652084L21.971888 124.44896L20.956263 124.44896L20.956263 118.29271L21.971888 118.29271L27.925013 123.120834L28.534388 123.63646L28.534388 118.152084L29.550013 118.152084L29.550013 124.94896ZM32.08126 116.69896L32.08126 117.44896Q29.268763 115.69896 26.440638 115.69896Q25.346888 115.69896 24.253138 115.94896Q23.378138 116.152084 22.565638 116.51146Q22.050013 116.745834 20.815638 117.44896L20.815638 116.69896Q22.284388 115.60521 23.768763 115.07396Q25.050013 114.620834 26.440638 114.620834Q28.018763 114.620834 29.503138 115.23021Q30.971888 115.839584 32.08126 116.69896Z" fill-rule="nonzero"/><path fill="#000000" d="M65.05 300.21564Q65.05 298.6844 65.3625 297.7625Q65.675 296.825 66.28438 296.325Q66.90938 295.825 67.84688 295.825Q68.53438 295.825 69.05 296.10626Q69.58125 296.3875 69.925 296.91876Q70.26875 297.4344 70.45625 298.1844Q70.64375 298.9344 70.64375 300.21564Q70.64375 301.73126 70.33125 302.65314Q70.03438 303.575 69.40938 304.09064Q68.8 304.59064 67.84688 304.59064Q66.6125 304.59064 65.89375 303.7Q65.05 302.6375 65.05 300.21564ZM66.12813 300.21564Q66.12813 302.325 66.62813 303.02814Q67.12813 303.73126 67.84688 303.73126Q68.58125 303.73126 69.06563 303.02814Q69.56563 302.325 69.56563 300.21564Q69.56563 298.09064 69.06563 297.40314Q68.58125 296.7 67.83125 296.7Q67.1125 296.7 66.675 297.3094Q66.12813 298.09064 66.12813 300.21564Z" fill-rule="nonzero"/><path fill="#000000" d="M62.01875 244.81667L60.971874 244.81667L60.971874 238.09792Q60.58125 238.45729 59.95625 238.83229Q59.346874 239.19167 58.8625 239.36354L58.8625 238.34792Q59.7375 237.92604 60.39375 237.34792Q61.065624 236.75417 61.346874 236.19167L62.01875 236.19167L62.01875 244.81667ZM65.05 240.58229Q65.05 239.05104 65.3625 238.12917Q65.675 237.19167 66.28438 236.69167Q66.90938 236.19167 67.84688 236.19167Q68.53438 236.19167 69.05 236.47292Q69.58125 236.75417 69.925 237.28542Q70.26875 237.80104 70.45625 238.55104Q70.64375 239.30104 70.64375 240.58229Q70.64375 242.09792 70.33125 243.01979Q70.03438 243.94167 69.40938 244.45729Q68.8 244.95729 67.84688 244.95729Q66.6125 244.95729 65.89375 244.06667Q65.05 243.00417 65.05 240.58229ZM66.12813 240.58229Q66.12813 242.69167 66.62813 243.39479Q67.12813 244.09792 67.84688 244.09792Q68.58125 244.09792 69.06563 243.39479Q69.56563 242.69167 69.56563 240.58229Q69.56563 238.45729 69.06563 237.76979Q68.58125 237.06667 67.83125 237.06667Q67.1125 237.06667 66.675 237.67604Q66.12813 238.45729 66.12813 240.58229Z" fill-rule="nonzero"/><path fill="#000000" d="M63.596874 184.16771L63.596874 185.18333L57.909374 185.18333Q57.909374 184.80833 58.034374 184.44896Q58.253124 183.87083 58.721874 183.30833Q59.20625 182.74583 60.1125 182.01146Q61.51875 180.85521 62.003124 180.18333Q62.503124 179.51146 62.503124 178.91771Q62.503124 178.29271 62.05 177.87083Q61.596874 177.43333 60.878124 177.43333Q60.1125 177.43333 59.659374 177.88646Q59.20625 178.33958 59.190624 179.15208L58.1125 179.04271Q58.221874 177.82396 58.940624 177.19896Q59.675 176.55833 60.909374 176.55833Q62.14375 176.55833 62.8625 177.24583Q63.58125 177.93333 63.58125 178.94896Q63.58125 179.46458 63.3625 179.96458Q63.159374 180.44896 62.659374 181.01146Q62.175 181.55833 61.05 182.51146Q60.096874 183.30833 59.815624 183.60521Q59.55 183.88646 59.378124 184.16771L63.596874 184.16771ZM65.05 180.94896Q65.05 179.41771 65.3625 178.49583Q65.675 177.55833 66.28438 177.05833Q66.90938 176.55833 67.84688 176.55833Q68.53438 176.55833 69.05 176.83958Q69.58125 177.12083 69.925 177.65208Q70.26875 178.16771 70.45625 178.91771Q70.64375 179.66771 70.64375 180.94896Q70.64375 182.46458 70.33125 183.38646Q70.03438 184.30833 69.40938 184.82396Q68.8 185.32396 67.84688 185.32396Q66.6125 185.32396 65.89375 184.43333Q65.05 183.37083 65.05 180.94896ZM66.12813 180.94896Q66.12813 183.05833 66.62813 183.76146Q67.12813 184.46458 67.84688 184.46458Q68.58125 184.46458 69.06563 183.76146Q69.56563 183.05833 69.56563 180.94896Q69.56563 178.82396 69.06563 178.13646Q68.58125 177.43333 67.83125 177.43333Q67.1125 177.43333 66.675 178.04271Q66.12813 178.82396 66.12813 180.94896Z" fill-rule="nonzero"/><path fill="#000000" d="M58.05 123.28438L59.1125 123.14375Q59.284374 124.03438 59.721874 124.44063Q60.159374 124.83125 60.784374 124.83125Q61.534374 124.83125 62.05 124.31563Q62.565624 123.8 62.565624 123.03438Q62.565624 122.31563 62.08125 121.84688Q61.6125 121.3625 60.878124 121.3625Q60.58125 121.3625 60.128124 121.4875L60.253124 120.55Q60.3625 120.56563 60.425 120.56563Q61.096874 120.56563 61.628124 120.22188Q62.175 119.8625 62.175 119.12813Q62.175 118.55 61.784374 118.175Q61.39375 117.78438 60.76875 117.78438Q60.159374 117.78438 59.7375 118.175Q59.33125 118.56563 59.221874 119.33125L58.159374 119.14375Q58.346874 118.09688 59.034374 117.51875Q59.721874 116.925 60.7375 116.925Q61.440624 116.925 62.034374 117.2375Q62.628124 117.53438 62.940624 118.05Q63.253124 118.56563 63.253124 119.15938Q63.253124 119.70625 62.95625 120.175Q62.659374 120.62813 62.08125 120.89375Q62.83125 121.06563 63.253124 121.62813Q63.675 122.175 63.675 123.01875Q63.675 124.14375 62.846874 124.925Q62.034374 125.70625 60.784374 125.70625Q59.659374 125.70625 58.909374 125.03438Q58.159374 124.34688 58.05 123.28438ZM65.05 121.31563Q65.05 119.78438 65.3625 118.8625Q65.675 117.925 66.28438 117.425Q66.90938 116.925 67.84688 116.925Q68.53438 116.925 69.05 117.20625Q69.58125 117.4875 69.925 118.01875Q70.26875 118.53438 70.45625 119.28438Q70.64375 120.03438 70.64375 121.31563Q70.64375 122.83125 70.33125 123.75313Q70.03438 124.675 69.40938 125.19063Q68.8 125.69063 67.84688 125.69063Q66.6125 125.69063 65.89375 124.8Q65.05 123.7375 65.05 121.31563ZM66.12813 121.31563Q66.12813 123.425 66.62813 124.12813Q67.12813 124.83125 67.84688 124.83125Q68.58125 124.83125 69.06563 124.12813Q69.56563 123.425 69.56563 121.31563Q69.56563 119.19063 69.06563 118.50313Q68.58125 117.8 67.83125 117.8Q67.1125 117.8 66.675 118.40938Q66.12813 119.19063 66.12813 121.31563Z" fill-rule="nonzero"/><path fill="#000000" d="M61.425 65.916664L61.425 63.854164L57.70625 63.854164L57.70625 62.885414L61.628124 57.322914L62.4875 57.322914L62.4875 62.885414L63.64375 62.885414L63.64375 63.854164L62.4875 63.854164L62.4875 65.916664L61.425 65.916664ZM61.425 62.885414L61.425 59.02604L58.7375 62.885414L61.425 62.885414ZM65.05 61.68229Q65.05 60.15104 65.3625 59.229164Q65.675 58.291664 66.28438 57.791664Q66.90938 57.291664 67.84688 57.291664Q68.53438 57.291664 69.05 57.572914Q69.58125 57.854164 69.925 58.385414Q70.26875 58.90104 70.45625 59.65104Q70.64375 60.40104 70.64375 61.68229Q70.64375 63.197914 70.33125 64.11979Q70.03438 65.041664 69.40938 65.55729Q68.8 66.05729 67.84688 66.05729Q66.6125 66.05729 65.89375 65.166664Q65.05 64.104164 65.05 61.68229ZM66.12813 61.68229Q66.12813 63.791664 66.62813 64.49479Q67.12813 65.197914 67.84688 65.197914Q68.58125 65.197914 69.06563 64.49479Q69.56563 63.791664 69.56563 61.68229Q69.56563 59.55729 69.06563 58.86979Q68.58125 58.166664 67.83125 58.166664Q67.1125 58.166664 66.675 58.77604Q66.12813 59.55729 66.12813 61.68229Z" fill-rule="nonzero"/><path fill="#000000" d="M109.385414 315.0125L110.416664 314.8719Q110.447914 315.85626 110.77604 316.21564Q111.104164 316.575 111.697914 316.575Q112.11979 316.575 112.43229 316.3875Q112.74479 316.1844 112.854164 315.85626Q112.979164 315.5125 112.979164 314.77814L112.979164 308.85626L114.104164 308.85626L114.104164 314.71564Q114.104164 315.79376 113.83854 316.3875Q113.58854 316.98126 113.02604 317.29376Q112.46354 317.59064 111.697914 317.59064Q110.572914 317.59064 109.96354 316.95Q109.36979 316.29376 109.385414 315.0125ZM119.916664 317.45L119.916664 316.52814Q119.18229 317.59064 117.93229 317.59064Q117.385414 317.59064 116.90104 317.3875Q116.43229 317.16876 116.197914 316.85626Q115.96354 316.52814 115.86979 316.0594Q115.80729 315.7625 115.80729 315.075L115.80729 311.23126L116.86979 311.23126L116.86979 314.6844Q116.86979 315.4969 116.93229 315.79376Q117.02604 316.2 117.33854 316.45Q117.666664 316.6844 118.15104 316.6844Q118.61979 316.6844 119.02604 316.45Q119.447914 316.2 119.61979 315.77814Q119.80729 315.35626 119.80729 314.5594L119.80729 311.23126L120.854164 311.23126L120.854164 317.45L119.916664 317.45ZM122.80729 317.45L122.80729 308.85626L123.86979 308.85626L123.86979 317.45L122.80729 317.45ZM125.791664 319.84064L125.666664 318.85626Q126.010414 318.95 126.27604 318.95Q126.61979 318.95 126.822914 318.825Q127.041664 318.71564 127.18229 318.5125Q127.27604 318.34064 127.510414 317.71564Q127.52604 317.6375 127.604164 317.46564L125.229164 311.23126L126.36979 311.23126L127.666664 314.825Q127.916664 315.5125 128.11978 316.27814Q128.30728 315.54376 128.55728 314.85626L129.8854 311.23126L130.93228 311.23126L128.5729 317.5594Q128.18228 318.575 127.979164 318.96564Q127.697914 319.4969 127.322914 319.73126Q126.96354 319.98126 126.46354 319.98126Q126.166664 319.98126 125.791664 319.84064Z" fill-rule="nonzero"/><path fill="#000000" d="M184.50937 317.45L187.80624 308.85626L189.025 308.85626L192.54062 317.45L191.25937 317.45L190.24374 314.84064L186.66562 314.84064L185.7125 317.45L184.50937 317.45ZM186.99374 313.91876L189.9 313.91876L189.00937 311.54376Q188.5875 310.46564 188.4 309.7625Q188.22812 310.59064 187.93124 311.40314L186.99374 313.91876ZM196.4 317.45L196.4 316.52814Q195.66562 317.59064 194.41562 317.59064Q193.86874 317.59064 193.38437 317.3875Q192.91562 317.16876 192.68124 316.85626Q192.44687 316.52814 192.35312 316.0594Q192.29062 315.7625 192.29062 315.075L192.29062 311.23126L193.35312 311.23126L193.35312 314.6844Q193.35312 315.4969 193.41562 315.79376Q193.50937 316.2 193.82187 316.45Q194.15 316.6844 194.63437 316.6844Q195.10312 316.6844 195.50937 316.45Q195.93124 316.2 196.10312 315.77814Q196.29062 315.35626 196.29062 314.5594L196.29062 311.23126L197.3375 311.23126L197.3375 317.45L196.4 317.45ZM199.11874 317.96564L200.15 318.1219Q200.2125 318.59064 200.50937 318.8094Q200.9 319.10626 201.57187 319.10626Q202.30624 319.10626 202.69687 318.8094Q203.10312 318.5125 203.24374 317.9969Q203.3375 317.66876 203.32187 316.6375Q202.63437 317.45 201.60312 317.45Q200.32187 317.45 199.61874 316.52814Q198.91562 315.59064 198.91562 314.3094Q198.91562 313.41876 199.22812 312.66876Q199.55624 311.90314 200.16562 311.4969Q200.775 311.09064 201.60312 311.09064Q202.7125 311.09064 203.43124 311.98126L203.43124 311.23126L204.4 311.23126L204.4 316.60626Q204.4 318.0594 204.10312 318.66876Q203.80624 319.27814 203.16562 319.6219Q202.525 319.98126 201.5875 319.98126Q200.47812 319.98126 199.79062 319.48126Q199.10312 318.98126 199.11874 317.96564ZM199.99374 314.23126Q199.99374 315.45 200.47812 316.0125Q200.9625 316.575 201.69687 316.575Q202.43124 316.575 202.91562 316.0125Q203.41562 315.45 203.41562 314.2625Q203.41562 313.1219 202.9 312.54376Q202.4 311.96564 201.68124 311.96564Q200.97812 311.96564 200.47812 312.54376Q199.99374 313.10626 199.99374 314.23126ZM210.4 317.45L210.4 316.52814Q209.66562 317.59064 208.41562 317.59064Q207.86874 317.59064 207.38437 317.3875Q206.91562 317.16876 206.68124 316.85626Q206.44687 316.52814 206.35312 316.0594Q206.29062 315.7625 206.29062 315.075L206.29062 311.23126L207.35312 311.23126L207.35312 314.6844Q207.35312 315.4969 207.41562 315.79376Q207.50937 316.2 207.82187 316.45Q208.15 316.6844 208.63437 316.6844Q209.10312 316.6844 209.50937 316.45Q209.93124 316.2 210.10312 315.77814Q210.29062 315.35626 210.29062 314.5594L210.29062 311.23126L211.3375 311.23126L211.3375 317.45L210.4 317.45ZM212.9 315.59064L213.93124 315.4344Q214.025 316.0594 214.41562 316.3875Q214.82187 316.71564 215.55624 316.71564Q216.275 316.71564 216.61874 316.4344Q216.97812 316.1375 216.97812 315.73126Q216.97812 315.3719 216.66562 315.16876Q216.44687 315.02814 215.5875 314.8094Q214.43124 314.5125 213.97812 314.3094Q213.54062 314.09064 213.30624 313.71564Q213.07187 313.34064 213.07187 312.8719Q213.07187 312.46564 213.25937 312.10626Q213.44687 311.7469 213.775 311.5125Q214.025 311.34064 214.44687 311.21564Q214.86874 311.09064 215.36874 311.09064Q216.0875 311.09064 216.63437 311.3094Q217.19687 311.5125 217.4625 311.8719Q217.72812 312.23126 217.82187 312.825L216.79062 312.96564Q216.72812 312.4969 216.38437 312.23126Q216.05624 311.95 215.43124 311.95Q214.7125 311.95 214.4 312.2Q214.0875 312.4344 214.0875 312.7625Q214.0875 312.96564 214.2125 313.1219Q214.35312 313.29376 214.61874 313.40314Q214.775 313.46564 215.55624 313.66876Q216.68124 313.98126 217.11874 314.16876Q217.55624 314.35626 217.80624 314.71564Q218.05624 315.075 218.05624 315.6219Q218.05624 316.15314 217.74374 316.6219Q217.44687 317.075 216.86874 317.34064Q216.29062 317.59064 215.55624 317.59064Q214.3375 317.59064 213.69687 317.09064Q213.07187 316.575 212.9 315.59064ZM222.61874 316.5125L222.775 317.4344Q222.32187 317.52814 221.97812 317.52814Q221.4 317.52814 221.0875 317.35626Q220.775 317.16876 220.63437 316.8719Q220.50937 316.575 220.50937 315.6219L220.50937 312.04376L219.74374 312.04376L219.74374 311.23126L220.50937 311.23126L220.50937 309.6844L221.55624 309.0594L221.55624 311.23126L222.61874 311.23126L222.61874 312.04376L221.55624 312.04376L221.55624 315.6844Q221.55624 316.1375 221.60312 316.2625Q221.66562 316.3875 221.79062 316.46564Q221.91562 316.54376 222.15 316.54376Q222.3375 316.54376 222.61874 316.5125Z" fill-rule="nonzero"/><path fill="#000000" d="M257.5552 314.6844L258.6177 314.59064Q258.69583 315.2469 258.97708 315.65314Q259.25833 316.0594 259.83646 316.325Q260.4302 316.575 261.16458 316.575Q261.8052 316.575 262.3052 316.3875Q262.8052 316.1844 263.03958 315.85626Q263.28958 315.5125 263.28958 315.1219Q263.28958 314.71564 263.0552 314.41876Q262.82083 314.10626 262.28958 313.90314Q261.9302 313.7625 260.7427 313.48126Q259.57083 313.2 259.10208 312.95Q258.47708 312.6219 258.1802 312.15314Q257.88333 311.66876 257.88333 311.075Q257.88333 310.4344 258.2427 309.8719Q258.6177 309.29376 259.32083 309.0125Q260.03958 308.71564 260.89896 308.71564Q261.85208 308.71564 262.58646 309.02814Q263.32083 309.325 263.71146 309.9344Q264.10208 310.52814 264.13333 311.27814L263.03958 311.35626Q262.94583 310.54376 262.4302 310.1375Q261.9302 309.71564 260.94583 309.71564Q259.91458 309.71564 259.44583 310.09064Q258.97708 310.46564 258.97708 310.9969Q258.97708 311.46564 259.3052 311.7625Q259.63333 312.0594 261.00833 312.3719Q262.39896 312.6844 262.91458 312.91876Q263.66458 313.27814 264.02396 313.8094Q264.38333 314.325 264.38333 315.02814Q264.38333 315.71564 263.9927 316.325Q263.60208 316.91876 262.8677 317.2625Q262.13333 317.59064 261.21146 317.59064Q260.03958 317.59064 259.2427 317.2625Q258.46146 316.91876 258.00833 316.23126Q257.57083 315.54376 257.5552 314.6844ZM270.0552 315.45L271.14896 315.575Q270.89896 316.52814 270.19583 317.0594Q269.4927 317.59064 268.41458 317.59064Q267.0552 317.59064 266.2427 316.7469Q265.44583 315.90314 265.44583 314.3875Q265.44583 312.825 266.25833 311.96564Q267.07083 311.09064 268.35208 311.09064Q269.60208 311.09064 270.38333 311.9344Q271.1802 312.77814 271.1802 314.325Q271.1802 314.41876 271.1802 314.60626L266.53958 314.60626Q266.60208 315.6375 267.1177 316.1844Q267.63333 316.71564 268.41458 316.71564Q268.9927 316.71564 269.39896 316.41876Q269.82083 316.10626 270.0552 315.45ZM266.60208 313.7469L270.07083 313.7469Q270.00833 312.95 269.6802 312.5594Q269.16458 311.95 268.3677 311.95Q267.63333 311.95 267.13333 312.4344Q266.64896 312.91876 266.60208 313.7469ZM272.8052 319.84064L272.8052 311.23126L273.75833 311.23126L273.75833 312.02814Q274.10208 311.5594 274.52396 311.325Q274.96146 311.09064 275.57083 311.09064Q276.3677 311.09064 276.97708 311.4969Q277.58646 311.90314 277.88333 312.65314Q278.19583 313.40314 278.19583 314.29376Q278.19583 315.2469 277.85208 316.0125Q277.52396 316.77814 276.8677 317.1844Q276.21146 317.59064 275.4927 317.59064Q274.96146 317.59064 274.53958 317.3719Q274.1177 317.1375 273.85208 316.8094L273.85208 319.84064L272.8052 319.84064ZM273.75833 314.3719Q273.75833 315.575 274.2427 316.15314Q274.72708 316.71564 275.41458 316.71564Q276.1177 316.71564 276.6177 316.1219Q277.1177 315.52814 277.1177 314.27814Q277.1177 313.09064 276.63333 312.5125Q276.14896 311.91876 275.46146 311.91876Q274.78958 311.91876 274.27396 312.54376Q273.75833 313.16876 273.75833 314.3719ZM282.10208 316.5125L282.25833 317.4344Q281.8052 317.52814 281.46146 317.52814Q280.88333 317.52814 280.57083 317.35626Q280.25833 317.16876 280.1177 316.8719Q279.9927 316.575 279.9927 315.6219L279.9927 312.04376L279.22708 312.04376L279.22708 311.23126L279.9927 311.23126L279.9927 309.6844L281.03958 309.0594L281.03958 311.23126L282.10208 311.23126L282.10208 312.04376L281.03958 312.04376L281.03958 315.6844Q281.03958 316.1375 281.08646 316.2625Q281.14896 316.3875 281.27396 316.46564Q281.39896 316.54376 281.63333 316.54376Q281.82083 316.54376 282.10208 316.5125ZM287.0552 315.45L288.14896 315.575Q287.89896 316.52814 287.19583 317.0594Q286.4927 317.59064 285.41458 317.59064Q284.0552 317.59064 283.2427 316.7469Q282.44583 315.90314 282.44583 314.3875Q282.44583 312.825 283.25833 311.96564Q284.07083 311.09064 285.35208 311.09064Q286.60208 311.09064 287.38333 311.9344Q288.1802 312.77814 288.1802 314.325Q288.1802 314.41876 288.1802 314.60626L283.53958 314.60626Q283.60208 315.6375 284.1177 316.1844Q284.63333 316.71564 285.41458 316.71564Q285.9927 316.71564 286.39896 316.41876Q286.82083 316.10626 287.0552 315.45ZM283.60208 313.7469L287.07083 313.7469Q287.00833 312.95 286.6802 312.5594Q286.16458 311.95 285.3677 311.95Q284.63333 311.95 284.13333 312.4344Q283.64896 312.91876 283.60208 313.7469ZM289.8052 317.45L289.8052 311.23126L290.7427 311.23126L290.7427 312.10626Q291.03958 311.6375 291.52396 311.3719Q292.00833 311.09064 292.63333 311.09064Q293.32083 311.09064 293.75833 311.3719Q294.21146 311.65314 294.38333 312.16876Q295.13333 311.09064 296.3052 311.09064Q297.2427 311.09064 297.72708 311.60626Q298.22708 312.10626 298.22708 313.1844L298.22708 317.45L297.1802 317.45L297.1802 313.52814Q297.1802 312.90314 297.07083 312.6219Q296.97708 312.34064 296.71146 312.16876Q296.44583 311.9969 296.07083 311.9969Q295.41458 311.9969 294.97708 312.4344Q294.5552 312.8719 294.5552 313.84064L294.5552 317.45L293.4927 317.45L293.4927 313.40314Q293.4927 312.7 293.22708 312.35626Q292.97708 311.9969 292.39896 311.9969Q291.94583 311.9969 291.57083 312.23126Q291.19583 312.46564 291.02396 312.91876Q290.85208 313.3719 290.85208 314.21564L290.85208 317.45L289.8052 317.45ZM301.77396 317.45L300.78958 317.45L300.78958 308.85626L301.85208 308.85626L301.85208 311.91876Q302.52396 311.09064 303.5552 311.09064Q304.13333 311.09064 304.63333 311.325Q305.14896 311.54376 305.47708 311.96564Q305.82083 312.3875 306.00833 312.98126Q306.19583 313.575 306.19583 314.2469Q306.19583 315.84064 305.39896 316.71564Q304.60208 317.59064 303.50833 317.59064Q302.39896 317.59064 301.77396 316.66876L301.77396 317.45ZM301.75833 314.29376Q301.75833 315.40314 302.07083 315.90314Q302.57083 316.71564 303.41458 316.71564Q304.10208 316.71564 304.60208 316.1219Q305.1177 315.52814 305.1177 314.325Q305.1177 313.10626 304.63333 312.52814Q304.14896 311.95 303.46146 311.95Q302.77396 311.95 302.25833 312.5594Q301.75833 313.15314 301.75833 314.29376ZM312.0552 315.45L313.14896 315.575Q312.89896 316.52814 312.19583 317.0594Q311.4927 317.59064 310.41458 317.59064Q309.0552 317.59064 308.2427 316.7469Q307.44583 315.90314 307.44583 314.3875Q307.44583 312.825 308.25833 311.96564Q309.07083 311.09064 310.35208 311.09064Q311.60208 311.09064 312.38333 311.9344Q313.1802 312.77814 313.1802 314.325Q313.1802 314.41876 313.1802 314.60626L308.53958 314.60626Q308.60208 315.6375 309.1177 316.1844Q309.63333 316.71564 310.41458 316.71564Q310.9927 316.71564 311.39896 316.41876Q311.82083 316.10626 312.0552 315.45ZM308.60208 313.7469L312.07083 313.7469Q312.00833 312.95 311.6802 312.5594Q311.16458 311.95 310.3677 311.95Q309.63333 311.95 309.13333 312.4344Q308.64896 312.91876 308.60208 313.7469ZM314.78958 317.45L314.78958 311.23126L315.7427 311.23126L315.7427 312.16876Q316.10208 311.5125 316.39896 311.3094Q316.71146 311.09064 317.08646 311.09064Q317.6177 311.09064 318.16458 311.41876L317.8052 312.40314Q317.41458 312.16876 317.03958 312.16876Q316.6802 312.16876 316.39896 312.3875Q316.13333 312.59064 316.02396 312.96564Q315.83646 313.52814 315.83646 314.1844L315.83646 317.45L314.78958 317.45Z" fill-rule="nonzero"/><path fill="#000000" d="M350.5698 313.2625Q350.5698 311.1219 351.71042 309.91876Q352.86667 308.7 354.67917 308.7Q355.8823 308.7 356.83542 309.27814Q357.78854 309.84064 358.28854 310.85626Q358.78854 311.8719 358.78854 313.16876Q358.78854 314.46564 358.2573 315.4969Q357.72604 316.52814 356.7573 317.0594Q355.80417 317.59064 354.67917 317.59064Q353.46042 317.59064 352.5073 317.0125Q351.55417 316.41876 351.05417 315.41876Q350.5698 314.40314 350.5698 313.2625ZM351.74167 313.27814Q351.74167 314.84064 352.5698 315.73126Q353.41354 316.6219 354.67917 316.6219Q355.96042 316.6219 356.78854 315.73126Q357.61667 314.825 357.61667 313.15314Q357.61667 312.10626 357.2573 311.325Q356.91354 310.54376 356.22604 310.1219Q355.53854 309.6844 354.6948 309.6844Q353.49167 309.6844 352.61667 310.5125Q351.74167 311.34064 351.74167 313.27814ZM363.85104 315.16876L364.8823 315.3094Q364.71042 316.3719 364.0073 316.98126Q363.30417 317.59064 362.28854 317.59064Q361.0073 317.59064 360.22604 316.7625Q359.46042 315.91876 359.46042 314.35626Q359.46042 313.35626 359.78854 312.60626Q360.1323 311.84064 360.80417 311.46564Q361.49167 311.09064 362.30417 311.09064Q363.30417 311.09064 363.9448 311.60626Q364.60104 312.10626 364.78854 313.0594L363.7573 313.21564Q363.61667 312.59064 363.24167 312.27814Q362.86667 311.95 362.33542 311.95Q361.53854 311.95 361.03854 312.52814Q360.53854 313.09064 360.53854 314.325Q360.53854 315.59064 361.02292 316.15314Q361.5073 316.71564 362.27292 316.71564Q362.89792 316.71564 363.30417 316.34064Q363.72604 315.96564 363.85104 315.16876ZM368.08542 316.5125L368.24167 317.4344Q367.78854 317.52814 367.4448 317.52814Q366.86667 317.52814 366.55417 317.35626Q366.24167 317.16876 366.10104 316.8719Q365.97604 316.575 365.97604 315.6219L365.97604 312.04376L365.21042 312.04376L365.21042 311.23126L365.97604 311.23126L365.97604 309.6844L367.02292 309.0594L367.02292 311.23126L368.08542 311.23126L368.08542 312.04376L367.02292 312.04376L367.02292 315.6844Q367.02292 316.1375 367.0698 316.2625Q367.1323 316.3875 367.2573 316.46564Q367.3823 316.54376 367.61667 316.54376Q367.80417 316.54376 368.08542 316.5125ZM368.39792 314.34064Q368.39792 312.60626 369.35104 311.77814Q370.14792 311.09064 371.30417 311.09064Q372.58542 311.09064 373.39792 311.9344Q374.22604 312.7625 374.22604 314.2469Q374.22604 315.45 373.86667 316.1375Q373.5073 316.825 372.80417 317.21564Q372.11667 317.59064 371.30417 317.59064Q370.0073 317.59064 369.1948 316.7625Q368.39792 315.91876 368.39792 314.34064ZM369.47604 314.34064Q369.47604 315.52814 369.99167 316.1219Q370.52292 316.71564 371.30417 316.71564Q372.10104 316.71564 372.61667 316.1219Q373.1323 315.52814 373.1323 314.3094Q373.1323 313.15314 372.60104 312.5594Q372.08542 311.96564 371.30417 311.96564Q370.52292 311.96564 369.99167 312.5594Q369.47604 313.1375 369.47604 314.34064ZM376.7573 317.45L375.77292 317.45L375.77292 308.85626L376.83542 308.85626L376.83542 311.91876Q377.5073 311.09064 378.53854 311.09064Q379.11667 311.09064 379.61667 311.325Q380.1323 311.54376 380.46042 311.96564Q380.80417 312.3875 380.99167 312.98126Q381.17917 313.575 381.17917 314.2469Q381.17917 315.84064 380.3823 316.71564Q379.58542 317.59064 378.49167 317.59064Q377.3823 317.59064 376.7573 316.66876L376.7573 317.45ZM376.74167 314.29376Q376.74167 315.40314 377.05417 315.90314Q377.55417 316.71564 378.39792 316.71564Q379.08542 316.71564 379.58542 316.1219Q380.10104 315.52814 380.10104 314.325Q380.10104 313.10626 379.61667 312.52814Q379.1323 311.95 378.4448 311.95Q377.7573 311.95 377.24167 312.5594Q376.74167 313.15314 376.74167 314.29376ZM387.03854 315.45L388.1323 315.575Q387.8823 316.52814 387.17917 317.0594Q386.47604 317.59064 385.39792 317.59064Q384.03854 317.59064 383.22604 316.7469Q382.42917 315.90314 382.42917 314.3875Q382.42917 312.825 383.24167 311.96564Q384.05417 311.09064 385.33542 311.09064Q386.58542 311.09064 387.36667 311.9344Q388.16354 312.77814 388.16354 314.325Q388.16354 314.41876 388.16354 314.60626L383.52292 314.60626Q383.58542 315.6375 384.10104 316.1844Q384.61667 316.71564 385.39792 316.71564Q385.97604 316.71564 386.3823 316.41876Q386.80417 316.10626 387.03854 315.45ZM383.58542 313.7469L387.05417 313.7469Q386.99167 312.95 386.66354 312.5594Q386.14792 311.95 385.35104 311.95Q384.61667 311.95 384.11667 312.4344Q383.6323 312.91876 383.58542 313.7469ZM389.77292 317.45L389.77292 311.23126L390.72604 311.23126L390.72604 312.16876Q391.08542 311.5125 391.3823 311.3094Q391.6948 311.09064 392.0698 311.09064Q392.60104 311.09064 393.14792 311.41876L392.78854 312.40314Q392.39792 312.16876 392.02292 312.16876Q391.66354 312.16876 391.3823 312.3875Q391.11667 312.59064 391.0073 312.96564Q390.8198 313.52814 390.8198 314.1844L390.8198 317.45L389.77292 317.45Z" fill-rule="nonzero"/><path fill="#000000" d="M427.89688 317.45L427.89688 308.85626L429.05313 308.85626L433.56876 315.60626L433.56876 308.85626L434.6625 308.85626L434.6625 317.45L433.49063 317.45L428.975 310.7L428.975 317.45L427.89688 317.45ZM436.38126 314.34064Q436.38126 312.60626 437.33438 311.77814Q438.13126 311.09064 439.2875 311.09064Q440.56876 311.09064 441.38126 311.9344Q442.20938 312.7625 442.20938 314.2469Q442.20938 315.45 441.85 316.1375Q441.49063 316.825 440.7875 317.21564Q440.1 317.59064 439.2875 317.59064Q437.99063 317.59064 437.17813 316.7625Q436.38126 315.91876 436.38126 314.34064ZM437.45938 314.34064Q437.45938 315.52814 437.975 316.1219Q438.50626 316.71564 439.2875 316.71564Q440.08438 316.71564 440.6 316.1219Q441.11563 315.52814 441.11563 314.3094Q441.11563 313.15314 440.58438 312.5594Q440.06876 311.96564 439.2875 311.96564Q438.50626 311.96564 437.975 312.5594Q437.45938 313.1375 437.45938 314.34064ZM445.49063 317.45L443.13126 311.23126L444.24063 311.23126L445.58438 314.95Q445.7875 315.5594 445.975 316.2Q446.11563 315.71564 446.36563 315.02814L447.75626 311.23126L448.83438 311.23126L446.475 317.45L445.49063 317.45ZM453.02188 315.45L454.11563 315.575Q453.86563 316.52814 453.1625 317.0594Q452.45938 317.59064 451.38126 317.59064Q450.02188 317.59064 449.20938 316.7469Q448.4125 315.90314 448.4125 314.3875Q448.4125 312.825 449.225 311.96564Q450.0375 311.09064 451.31876 311.09064Q452.56876 311.09064 453.35 311.9344Q454.14688 312.77814 454.14688 314.325Q454.14688 314.41876 454.14688 314.60626L449.50626 314.60626Q449.56876 315.6375 450.08438 316.1844Q450.6 316.71564 451.38126 316.71564Q451.95938 316.71564 452.36563 316.41876Q452.7875 316.10626 453.02188 315.45ZM449.56876 313.7469L453.0375 313.7469Q452.975 312.95 452.64688 312.5594Q452.13126 311.95 451.33438 311.95Q450.6 311.95 450.1 312.4344Q449.61563 312.91876 449.56876 313.7469ZM455.77188 317.45L455.77188 311.23126L456.70938 311.23126L456.70938 312.10626Q457.00626 311.6375 457.49063 311.3719Q457.975 311.09064 458.6 311.09064Q459.2875 311.09064 459.725 311.3719Q460.17813 311.65314 460.35 312.16876Q461.1 311.09064 462.27188 311.09064Q463.20938 311.09064 463.69376 311.60626Q464.19376 312.10626 464.19376 313.1844L464.19376 317.45L463.14688 317.45L463.14688 313.52814Q463.14688 312.90314 463.0375 312.6219Q462.94376 312.34064 462.67813 312.16876Q462.4125 311.9969 462.0375 311.9969Q461.38126 311.9969 460.94376 312.4344Q460.52188 312.8719 460.52188 313.84064L460.52188 317.45L459.45938 317.45L459.45938 313.40314Q459.45938 312.7 459.19376 312.35626Q458.94376 311.9969 458.36563 311.9969Q457.9125 311.9969 457.5375 312.23126Q457.1625 312.46564 456.99063 312.91876Q456.81876 313.3719 456.81876 314.21564L456.81876 317.45L455.77188 317.45ZM467.74063 317.45L466.75626 317.45L466.75626 308.85626L467.81876 308.85626L467.81876 311.91876Q468.49063 311.09064 469.52188 311.09064Q470.1 311.09064 470.6 311.325Q471.11563 311.54376 471.44376 311.96564Q471.7875 312.3875 471.975 312.98126Q472.1625 313.575 472.1625 314.2469Q472.1625 315.84064 471.36563 316.71564Q470.56876 317.59064 469.475 317.59064Q468.36563 317.59064 467.74063 316.66876L467.74063 317.45ZM467.725 314.29376Q467.725 315.40314 468.0375 315.90314Q468.5375 316.71564 469.38126 316.71564Q470.06876 316.71564 470.56876 316.1219Q471.08438 315.52814 471.08438 314.325Q471.08438 313.10626 470.6 312.52814Q470.11563 311.95 469.42813 311.95Q468.74063 311.95 468.225 312.5594Q467.725 313.15314 467.725 314.29376ZM478.02188 315.45L479.11563 315.575Q478.86563 316.52814 478.1625 317.0594Q477.45938 317.59064 476.38126 317.59064Q475.02188 317.59064 474.20938 316.7469Q473.4125 315.90314 473.4125 314.3875Q473.4125 312.825 474.225 311.96564Q475.0375 311.09064 476.31876 311.09064Q477.56876 311.09064 478.35 311.9344Q479.14688 312.77814 479.14688 314.325Q479.14688 314.41876 479.14688 314.60626L474.50626 314.60626Q474.56876 315.6375 475.08438 316.1844Q475.6 316.71564 476.38126 316.71564Q476.95938 316.71564 477.36563 316.41876Q477.7875 316.10626 478.02188 315.45ZM474.56876 313.7469L478.0375 313.7469Q477.975 312.95 477.64688 312.5594Q477.13126 311.95 476.33438 311.95Q475.6 311.95 475.1 312.4344Q474.61563 312.91876 474.56876 313.7469ZM480.75626 317.45L480.75626 311.23126L481.70938 311.23126L481.70938 312.16876Q482.06876 311.5125 482.36563 311.3094Q482.67813 311.09064 483.05313 311.09064Q483.58438 311.09064 484.13126 311.41876L483.77188 312.40314Q483.38126 312.16876 483.00626 312.16876Q482.64688 312.16876 482.36563 312.3875Q482.1 312.59064 481.99063 312.96564Q481.80313 313.52814 481.80313 314.1844L481.80313 317.45L480.75626 317.45Z" fill-rule="nonzero"/><path fill="#000000" d="M511.38022 317.45L511.38022 308.85626L514.349 308.85626Q515.349 308.85626 515.88025 308.98126Q516.6146 309.15314 517.13025 309.59064Q517.81775 310.16876 518.1459 311.075Q518.4896 311.96564 518.4896 313.10626Q518.4896 314.09064 518.25525 314.84064Q518.0365 315.59064 517.6771 316.09064Q517.31775 316.59064 516.88025 316.8719Q516.4584 317.15314 515.8646 317.3094Q515.2709 317.45 514.4896 317.45L511.38022 317.45ZM512.5209 316.4344L514.349 316.4344Q515.2084 316.4344 515.69275 316.27814Q516.1771 316.1219 516.4584 315.825Q516.8646 315.4344 517.0834 314.7469Q517.31775 314.0594 517.31775 313.09064Q517.31775 311.7469 516.8646 311.02814Q516.4271 310.29376 515.8021 310.04376Q515.3334 309.8719 514.3334 309.8719L512.5209 309.8719L512.5209 316.4344ZM524.50525 315.45L525.599 315.575Q525.349 316.52814 524.6459 317.0594Q523.94275 317.59064 522.8646 317.59064Q521.50525 317.59064 520.69275 316.7469Q519.8959 315.90314 519.8959 314.3875Q519.8959 312.825 520.7084 311.96564Q521.5209 311.09064 522.8021 311.09064Q524.0521 311.09064 524.8334 311.9344Q525.63025 312.77814 525.63025 314.325Q525.63025 314.41876 525.63025 314.60626L520.9896 314.60626Q521.0521 315.6375 521.56775 316.1844Q522.0834 316.71564 522.8646 316.71564Q523.44275 316.71564 523.849 316.41876Q524.2709 316.10626 524.50525 315.45ZM521.0521 313.7469L524.5209 313.7469Q524.4584 312.95 524.13025 312.5594Q523.6146 311.95 522.81775 311.95Q522.0834 311.95 521.5834 312.4344Q521.099 312.91876 521.0521 313.7469ZM531.31775 315.16876L532.349 315.3094Q532.1771 316.3719 531.474 316.98126Q530.7709 317.59064 529.75525 317.59064Q528.474 317.59064 527.69275 316.7625Q526.9271 315.91876 526.9271 314.35626Q526.9271 313.35626 527.25525 312.60626Q527.599 311.84064 528.2709 311.46564Q528.9584 311.09064 529.7709 311.09064Q530.7709 311.09064 531.4115 311.60626Q532.06775 312.10626 532.25525 313.0594L531.224 313.21564Q531.0834 312.59064 530.7084 312.27814Q530.3334 311.95 529.8021 311.95Q529.00525 311.95 528.50525 312.52814Q528.00525 313.09064 528.00525 314.325Q528.00525 315.59064 528.4896 316.15314Q528.974 316.71564 529.7396 316.71564Q530.3646 316.71564 530.7709 316.34064Q531.19275 315.96564 531.31775 315.16876ZM537.50525 315.45L538.599 315.575Q538.349 316.52814 537.6459 317.0594Q536.94275 317.59064 535.8646 317.59064Q534.50525 317.59064 533.69275 316.7469Q532.8959 315.90314 532.8959 314.3875Q532.8959 312.825 533.7084 311.96564Q534.5209 311.09064 535.8021 311.09064Q537.0521 311.09064 537.8334 311.9344Q538.63025 312.77814 538.63025 314.325Q538.63025 314.41876 538.63025 314.60626L533.9896 314.60626Q534.0521 315.6375 534.56775 316.1844Q535.0834 316.71564 535.8646 316.71564Q536.44275 316.71564 536.849 316.41876Q537.2709 316.10626 537.50525 315.45ZM534.0521 313.7469L537.5209 313.7469Q537.4584 312.95 537.13025 312.5594Q536.6146 311.95 535.81775 311.95Q535.0834 311.95 534.5834 312.4344Q534.099 312.91876 534.0521 313.7469ZM540.25525 317.45L540.25525 311.23126L541.19275 311.23126L541.19275 312.10626Q541.4896 311.6375 541.974 311.3719Q542.4584 311.09064 543.0834 311.09064Q543.7709 311.09064 544.2084 311.3719Q544.6615 311.65314 544.8334 312.16876Q545.5834 311.09064 546.75525 311.09064Q547.69275 311.09064 548.1771 311.60626Q548.6771 312.10626 548.6771 313.1844L548.6771 317.45L547.63025 317.45L547.63025 313.52814Q547.63025 312.90314 547.5209 312.6219Q547.4271 312.34064 547.1615 312.16876Q546.8959 311.9969 546.5209 311.9969Q545.8646 311.9969 545.4271 312.4344Q545.00525 312.8719 545.00525 313.84064L545.00525 317.45L543.94275 317.45L543.94275 313.40314Q543.94275 312.7 543.6771 312.35626Q543.4271 311.9969 542.849 311.9969Q542.3959 311.9969 542.0209 312.23126Q541.6459 312.46564 541.474 312.91876Q541.3021 313.3719 541.3021 314.21564L541.3021 317.45L540.25525 317.45ZM552.224 317.45L551.2396 317.45L551.2396 308.85626L552.3021 308.85626L552.3021 311.91876Q552.974 311.09064 554.00525 311.09064Q554.5834 311.09064 555.0834 311.325Q555.599 311.54376 555.9271 311.96564Q556.2709 312.3875 556.4584 312.98126Q556.6459 313.575 556.6459 314.2469Q556.6459 315.84064 555.849 316.71564Q555.0521 317.59064 553.9584 317.59064Q552.849 317.59064 552.224 316.66876L552.224 317.45ZM552.2084 314.29376Q552.2084 315.40314 552.5209 315.90314Q553.0209 316.71564 553.8646 316.71564Q554.5521 316.71564 555.0521 316.1219Q555.56775 315.52814 555.56775 314.325Q555.56775 313.10626 555.0834 312.52814Q554.599 311.95 553.9115 311.95Q553.224 311.95 552.7084 312.5594Q552.2084 313.15314 552.2084 314.29376ZM562.50525 315.45L563.599 315.575Q563.349 316.52814 562.6459 317.0594Q561.94275 317.59064 560.8646 317.59064Q559.50525 317.59064 558.69275 316.7469Q557.8959 315.90314 557.8959 314.3875Q557.8959 312.825 558.7084 311.96564Q559.5209 311.09064 560.8021 311.09064Q562.0521 311.09064 562.8334 311.9344Q563.63025 312.77814 563.63025 314.325Q563.63025 314.41876 563.63025 314.60626L558.9896 314.60626Q559.0521 315.6375 559.56775 316.1844Q560.0834 316.71564 560.8646 316.71564Q561.44275 316.71564 561.849 316.41876Q562.2709 316.10626 562.50525 315.45ZM559.0521 313.7469L562.5209 313.7469Q562.4584 312.95 562.13025 312.5594Q561.6146 311.95 560.81775 311.95Q560.0834 311.95 559.5834 312.4344Q559.099 312.91876 559.0521 313.7469ZM565.2396 317.45L565.2396 311.23126L566.19275 311.23126L566.19275 312.16876Q566.5521 311.5125 566.849 311.3094Q567.1615 311.09064 567.5365 311.09064Q568.06775 311.09064 568.6146 311.41876L568.25525 312.40314Q567.8646 312.16876 567.4896 312.16876Q567.13025 312.16876 566.849 312.3875Q566.5834 312.59064 566.474 312.96564Q566.2865 313.52814 566.2865 314.1844L566.2865 317.45L565.2396 317.45Z" fill-rule="nonzero"/><path fill="#757575" d="M18.51875 37.55L24.01875 23.2375L26.065624 23.2375L31.925 37.55L29.76875 37.55L28.096874 33.20625L22.1125 33.20625L20.534374 37.55L18.51875 37.55ZM22.659374 31.675L27.503124 31.675L26.01875 27.70625Q25.33125 25.89375 25.003124 24.7375Q24.721874 26.1125 24.221874 27.471874L22.659374 31.675ZM35.753124 37.55L31.8 27.175L33.659374 27.175L35.89375 33.39375Q36.253124 34.39375 36.55 35.471874Q36.784374 34.659374 37.20625 33.503124L39.503124 27.175L41.315624 27.175L37.39375 37.55L35.753124 37.55ZM48.971874 34.20625L50.784374 34.440624Q50.3625 36.01875 49.190624 36.909374Q48.034374 37.784374 46.221874 37.784374Q43.95625 37.784374 42.6125 36.39375Q41.284374 34.9875 41.284374 32.45625Q41.284374 29.83125 42.628124 28.39375Q43.971874 26.940624 46.128124 26.940624Q48.20625 26.940624 49.51875 28.3625Q50.846874 29.76875 50.846874 32.346874Q50.846874 32.503124 50.83125 32.815624L43.096874 32.815624Q43.190624 34.51875 44.065624 35.425Q44.940624 36.33125 46.2375 36.33125Q47.20625 36.33125 47.878124 35.83125Q48.565624 35.315624 48.971874 34.20625ZM43.190624 31.3625L48.9875 31.3625Q48.878124 30.065624 48.33125 29.409374Q47.4875 28.39375 46.14375 28.39375Q44.940624 28.39375 44.1125 29.20625Q43.284374 30.003124 43.190624 31.3625ZM52.846874 37.55L52.846874 27.175L54.425 27.175L54.425 28.753124Q55.034374 27.64375 55.55 27.3Q56.065624 26.940624 56.675 26.940624Q57.565624 26.940624 58.4875 27.503124L57.878124 29.14375Q57.2375 28.753124 56.596874 28.753124Q56.01875 28.753124 55.55 29.1125Q55.096874 29.45625 54.89375 30.065624Q54.6125 31.003124 54.6125 32.1125L54.6125 37.55L52.846874 37.55ZM66.64375 36.26875Q65.65938 37.096874 64.75313 37.440624Q63.846874 37.784374 62.815624 37.784374Q61.1125 37.784374 60.190624 36.95625Q59.26875 36.1125 59.26875 34.815624Q59.26875 34.05 59.6125 33.425Q59.971874 32.8 60.534374 32.425Q61.096874 32.034374 61.8 31.83125Q62.315624 31.70625 63.3625 31.565624Q65.4875 31.315624 66.4875 30.971874Q66.50313 30.6125 66.50313 30.503124Q66.50313 29.440624 66.00313 28.9875Q65.33125 28.39375 64.00313 28.39375Q62.753124 28.39375 62.159374 28.83125Q61.58125 29.26875 61.3 30.378124L59.58125 30.14375Q59.815624 29.034374 60.346874 28.3625Q60.878124 27.675 61.89375 27.315624Q62.909374 26.940624 64.25313 26.940624Q65.58125 26.940624 66.40938 27.253124Q67.2375 27.565624 67.62813 28.05Q68.01875 28.51875 68.175 29.2375Q68.26875 29.690624 68.26875 30.8625L68.26875 33.20625Q68.26875 35.659374 68.37813 36.315624Q68.4875 36.95625 68.83125 37.55L66.9875 37.55Q66.72188 37.003124 66.64375 36.26875ZM66.4875 32.346874Q65.53438 32.7375 63.6125 33.003124Q62.534374 33.159374 62.08125 33.3625Q61.64375 33.55 61.39375 33.925Q61.14375 34.3 61.14375 34.76875Q61.14375 35.471874 61.675 35.940624Q62.20625 36.409374 63.2375 36.409374Q64.25313 36.409374 65.03438 35.971874Q65.83125 35.51875 66.20625 34.753124Q66.4875 34.14375 66.4875 32.9875L66.4875 32.346874ZM70.55 38.409374L72.25313 38.659374Q72.3625 39.45625 72.84688 39.815624Q73.50313 40.3 74.64375 40.3Q75.8625 40.3 76.51875 39.815624Q77.19063 39.33125 77.425 38.45625Q77.56563 37.909374 77.55 36.190624Q76.39375 37.55 74.675 37.55Q72.53438 37.55 71.3625 36.003124Q70.19063 34.45625 70.19063 32.3Q70.19063 30.815624 70.72188 29.565624Q71.26875 28.315624 72.28438 27.628124Q73.31563 26.940624 74.69063 26.940624Q76.51875 26.940624 77.72188 28.425L77.72188 27.175L79.33125 27.175L79.33125 36.14375Q79.33125 38.565624 78.83125 39.565624Q78.34688 40.58125 77.26875 41.159374Q76.20625 41.753124 74.64375 41.753124Q72.8 41.753124 71.64375 40.925Q70.50313 40.096874 70.55 38.409374ZM72.00313 32.175Q72.00313 34.221874 72.81563 35.159374Q73.62813 36.096874 74.84688 36.096874Q76.05 36.096874 76.8625 35.159374Q77.69063 34.221874 77.69063 32.2375Q77.69063 30.33125 76.84688 29.3625Q76.00313 28.39375 74.81563 28.39375Q73.64375 28.39375 72.81563 29.346874Q72.00313 30.3 72.00313 32.175ZM88.97188 34.20625L90.78438 34.440624Q90.3625 36.01875 89.19063 36.909374Q88.03438 37.784374 86.22188 37.784374Q83.95625 37.784374 82.6125 36.39375Q81.28438 34.9875 81.28438 32.45625Q81.28438 29.83125 82.62813 28.39375Q83.97188 26.940624 86.12813 26.940624Q88.20625 26.940624 89.51875 28.3625Q90.84688 29.76875 90.84688 32.346874Q90.84688 32.503124 90.83125 32.815624L83.09688 32.815624Q83.19063 34.51875 84.06563 35.425Q84.94063 36.33125 86.2375 36.33125Q87.20625 36.33125 87.87813 35.83125Q88.56563 35.315624 88.97188 34.20625ZM83.19063 31.3625L88.9875 31.3625Q88.87813 30.065624 88.33125 29.409374Q87.4875 28.39375 86.14375 28.39375Q84.94063 28.39375 84.1125 29.20625Q83.28438 30.003124 83.19063 31.3625ZM101.59688 37.55L97.8 23.2375L99.7375 23.2375L101.90938 32.6125Q102.26875 34.096874 102.51875 35.55Q103.06563 33.253124 103.15938 32.89375L105.89375 23.2375L108.175 23.2375L110.22188 30.471874Q111.00313 33.175 111.34688 35.55Q111.6125 34.190624 112.05 32.425L114.3 23.2375L116.20625 23.2375L112.28438 37.55L110.45625 37.55L107.44063 26.64375Q107.05 25.26875 106.9875 24.95625Q106.75313 25.940624 106.56563 26.64375L103.53438 37.55L101.59688 37.55ZM117.87813 25.253124L117.87813 23.2375L119.64375 23.2375L119.64375 25.253124L117.87813 25.253124ZM117.87813 37.55L117.87813 27.175L119.64375 27.175L119.64375 37.55L117.87813 37.55ZM121.8625 37.55L121.8625 27.175L123.45625 27.175L123.45625 28.659374Q124.59688 26.940624 126.75313 26.940624Q127.69063 26.940624 128.47188 27.284374Q129.26875 27.6125 129.65938 28.159374Q130.05 28.70625 130.20625 29.45625Q130.3 29.95625 130.3 31.175L130.3 37.55L128.53438 37.55L128.53438 31.2375Q128.53438 30.159374 128.33125 29.628124Q128.12813 29.096874 127.59688 28.784374Q127.08125 28.471874 126.37813 28.471874Q125.25313 28.471874 124.44063 29.190624Q123.62813 29.89375 123.62813 31.878124L123.62813 37.55L121.8625 37.55ZM142.19063 37.55L136.64375 23.2375L138.69063 23.2375L142.40938 33.628124Q142.8625 34.878124 143.15938 35.971874Q143.4875 34.8 143.94063 33.628124L147.8 23.2375L149.7375 23.2375L144.12813 37.55L142.19063 37.55ZM157.64375 36.26875Q156.65938 37.096874 155.75313 37.440624Q154.84688 37.784374 153.81563 37.784374Q152.1125 37.784374 151.19063 36.95625Q150.26875 36.1125 150.26875 34.815624Q150.26875 34.05 150.6125 33.425Q150.97188 32.8 151.53438 32.425Q152.09688 32.034374 152.8 31.83125Q153.31563 31.70625 154.3625 31.565624Q156.4875 31.315624 157.4875 30.971874Q157.50313 30.6125 157.50313 30.503124Q157.50313 29.440624 157.00313 28.9875Q156.33125 28.39375 155.00313 28.39375Q153.75313 28.39375 153.15938 28.83125Q152.58125 29.26875 152.3 30.378124L150.58125 30.14375Q150.81563 29.034374 151.34688 28.3625Q151.87813 27.675 152.89375 27.315624Q153.90938 26.940624 155.25313 26.940624Q156.58125 26.940624 157.40938 27.253124Q158.2375 27.565624 158.62813 28.05Q159.01875 28.51875 159.175 29.2375Q159.26875 29.690624 159.26875 30.8625L159.26875 33.20625Q159.26875 35.659374 159.37813 36.315624Q159.4875 36.95625 159.83125 37.55L157.9875 37.55Q157.72188 37.003124 157.64375 36.26875ZM157.4875 32.346874Q156.53438 32.7375 154.6125 33.003124Q153.53438 33.159374 153.08125 33.3625Q152.64375 33.55 152.39375 33.925Q152.14375 34.3 152.14375 34.76875Q152.14375 35.471874 152.675 35.940624Q153.20625 36.409374 154.2375 36.409374Q155.25313 36.409374 156.03438 35.971874Q156.83125 35.51875 157.20625 34.753124Q157.4875 34.14375 157.4875 32.9875L157.4875 32.346874ZM161.83125 37.55L161.83125 23.2375L163.58125 23.2375L163.58125 37.55L161.83125 37.55ZM172.65938 37.55L172.65938 36.01875Q171.45625 37.784374 169.37813 37.784374Q168.45625 37.784374 167.65938 37.440624Q166.8625 37.08125 166.47188 36.55Q166.09688 36.01875 165.94063 35.2375Q165.83125 34.721874 165.83125 33.596874L165.83125 27.175L167.58125 27.175L167.58125 32.925Q167.58125 34.3 167.69063 34.784374Q167.8625 35.471874 168.39375 35.878124Q168.94063 36.26875 169.72188 36.26875Q170.51875 36.26875 171.20625 35.8625Q171.90938 35.45625 172.19063 34.76875Q172.4875 34.065624 172.4875 32.7375L172.4875 27.175L174.2375 27.175L174.2375 37.55L172.65938 37.55ZM182.97188 34.20625L184.78438 34.440624Q184.3625 36.01875 183.19063 36.909374Q182.03438 37.784374 180.22188 37.784374Q177.95625 37.784374 176.6125 36.39375Q175.28438 34.9875 175.28438 32.45625Q175.28438 29.83125 176.62813 28.39375Q177.97188 26.940624 180.12813 26.940624Q182.20625 26.940624 183.51875 28.3625Q184.84688 29.76875 184.84688 32.346874Q184.84688 32.503124 184.83125 32.815624L177.09688 32.815624Q177.19063 34.51875 178.06563 35.425Q178.94063 36.33125 180.2375 36.33125Q181.20625 36.33125 181.87813 35.83125Q182.56563 35.315624 182.97188 34.20625ZM177.19063 31.3625L182.9875 31.3625Q182.87813 30.065624 182.33125 29.409374Q181.4875 28.39375 180.14375 28.39375Q178.94063 28.39375 178.1125 29.20625Q177.28438 30.003124 177.19063 31.3625ZM186.15938 34.45625L187.90938 34.175Q188.05 35.221874 188.72188 35.784374Q189.39375 36.33125 190.59688 36.33125Q191.8 36.33125 192.37813 35.846874Q192.97188 35.346874 192.97188 34.690624Q192.97188 34.096874 192.45625 33.753124Q192.09688 33.51875 190.65938 33.159374Q188.72188 32.659374 187.97188 32.315624Q187.2375 31.95625 186.84688 31.33125Q186.45625 30.690624 186.45625 29.925Q186.45625 29.2375 186.76875 28.64375Q187.09688 28.05 187.64375 27.659374Q188.05 27.3625 188.75313 27.159374Q189.47188 26.940624 190.28438 26.940624Q191.50313 26.940624 192.425 27.3Q193.34688 27.64375 193.78438 28.253124Q194.22188 28.846874 194.39375 29.846874L192.675 30.08125Q192.55 29.284374 191.9875 28.846874Q191.425 28.39375 190.40938 28.39375Q189.19063 28.39375 188.675 28.8Q188.15938 29.190624 188.15938 29.721874Q188.15938 30.065624 188.37813 30.346874Q188.58125 30.628124 189.05 30.815624Q189.31563 30.909374 190.59688 31.253124Q192.47188 31.753124 193.20625 32.08125Q193.94063 32.39375 194.3625 33.003124Q194.78438 33.596874 194.78438 34.503124Q194.78438 35.378124 194.26875 36.159374Q193.75313 36.940624 192.78438 37.3625Q191.81563 37.784374 190.59688 37.784374Q188.58125 37.784374 187.51875 36.940624Q186.45625 36.096874 186.15938 34.45625ZM206.22188 41.753124Q204.76875 39.925 203.76875 37.471874Q202.76875 35.003124 202.76875 32.3625Q202.76875 30.034374 203.51875 27.909374Q204.39375 25.440624 206.22188 22.9875L207.4875 22.9875Q206.3 25.01875 205.925 25.89375Q205.33125 27.2375 204.9875 28.70625Q204.56563 30.534374 204.56563 32.378124Q204.56563 37.065624 207.4875 41.753124L206.22188 41.753124ZM208.69063 37.55L212.4875 32.159374L208.9875 27.175L211.175 27.175L212.76875 29.6125Q213.22188 30.3 213.4875 30.76875Q213.925 30.128124 214.28438 29.628124L216.03438 27.175L218.12813 27.175L214.55 32.065624L218.40938 37.55L216.25313 37.55L214.1125 34.33125L213.55 33.45625L210.83125 37.55L208.69063 37.55ZM219.01875 37.55L219.01875 23.2375L224.39375 23.2375Q226.03438 23.2375 227.01875 23.675Q228.00313 24.096874 228.56563 25.003124Q229.12813 25.909374 229.12813 26.89375Q229.12813 27.815624 228.62813 28.628124Q228.14375 29.440624 227.12813 29.925Q228.425 30.315624 229.12813 31.2375Q229.83125 32.14375 229.83125 33.39375Q229.83125 34.409374 229.39375 35.26875Q228.97188 36.128124 228.34688 36.596874Q227.72188 37.065624 226.78438 37.315624Q225.84688 37.55 224.47188 37.55L219.01875 37.55ZM220.90938 29.253124L224.00313 29.253124Q225.26875 29.253124 225.81563 29.08125Q226.53438 28.8625 226.89375 28.378124Q227.26875 27.878124 227.26875 27.1125Q227.26875 26.409374 226.925 25.8625Q226.58125 25.315624 225.94063 25.128124Q225.31563 24.925 223.76875 24.925L220.90938 24.925L220.90938 29.253124ZM220.90938 35.8625L224.47188 35.8625Q225.39375 35.8625 225.76875 35.784374Q226.425 35.675 226.8625 35.409374Q227.3 35.128124 227.58125 34.6125Q227.8625 34.08125 227.8625 33.39375Q227.8625 32.596874 227.45625 32.003124Q227.05 31.409374 226.31563 31.175Q225.58125 30.940624 224.22188 30.940624L220.90938 30.940624L220.90938 35.8625ZM230.95625 37.55L230.95625 35.784374L238.28438 26.628124Q239.06563 25.64375 239.76875 24.925L231.78438 24.925L231.78438 23.2375L242.03438 23.2375L242.03438 24.925L234.00313 34.846874L233.12813 35.8625L242.26875 35.8625L242.26875 37.55L230.95625 37.55ZM242.95625 37.55L242.95625 35.784374L250.28438 26.628124Q251.06563 25.64375 251.76875 24.925L243.78438 24.925L243.78438 23.2375L254.03438 23.2375L254.03438 24.925L246.00313 34.846874L245.12813 35.8625L254.26875 35.8625L254.26875 37.55L242.95625 37.55ZM257.01874 41.753124L255.76875 41.753124Q258.675 37.065624 258.675 32.378124Q258.675 30.534374 258.26874 28.7375Q257.925 27.26875 257.33124 25.925Q256.95624 25.034374 255.76875 22.9875L257.01874 22.9875Q258.8625 25.440624 259.7375 27.909374Q260.4875 30.034374 260.4875 32.3625Q260.4875 35.003124 259.47186 37.471874Q258.47186 39.925 257.01874 41.753124ZM271.7531 37.55L267.8 27.175L269.65936 27.175L271.89374 33.39375Q272.2531 34.39375 272.55 35.471874Q272.78436 34.659374 273.20624 33.503124L275.5031 27.175L277.3156 27.175L273.39374 37.55L271.7531 37.55ZM277.15936 34.45625L278.90936 34.175Q279.05 35.221874 279.72186 35.784374Q280.39374 36.33125 281.59686 36.33125Q282.8 36.33125 283.3781 35.846874Q283.97186 35.346874 283.97186 34.690624Q283.97186 34.096874 283.45624 33.753124Q283.09686 33.51875 281.65936 33.159374Q279.72186 32.659374 278.97186 32.315624Q278.2375 31.95625 277.84686 31.33125Q277.45624 30.690624 277.45624 29.925Q277.45624 29.2375 277.76874 28.64375Q278.09686 28.05 278.64374 27.659374Q279.05 27.3625 279.7531 27.159374Q280.47186 26.940624 281.28436 26.940624Q282.5031 26.940624 283.425 27.3Q284.34686 27.64375 284.78436 28.253124Q285.22186 28.846874 285.39374 29.846874L283.675 30.08125Q283.55 29.284374 282.9875 28.846874Q282.425 28.39375 281.40936 28.39375Q280.1906 28.39375 279.675 28.8Q279.15936 29.190624 279.15936 29.721874Q279.15936 30.065624 279.3781 30.346874Q279.58124 30.628124 280.05 30.815624Q280.3156 30.909374 281.59686 31.253124Q283.47186 31.753124 284.20624 32.08125Q284.9406 32.39375 285.3625 33.003124Q285.78436 33.596874 285.78436 34.503124Q285.78436 35.378124 285.26874 36.159374Q284.7531 36.940624 283.78436 37.3625Q282.8156 37.784374 281.59686 37.784374Q279.58124 37.784374 278.51874 36.940624Q277.45624 36.096874 277.15936 34.45625ZM288.3625 37.55L288.3625 35.55L290.3625 35.55L290.3625 37.55L288.3625 37.55ZM300.03436 37.55L300.03436 23.2375L302.89374 23.2375L306.26874 33.3625Q306.7375 34.784374 306.95624 35.4875Q307.20624 34.70625 307.72186 33.190624L311.14374 23.2375L313.6906 23.2375L313.6906 37.55L311.8781 37.55L311.8781 25.565624L307.70624 37.55L306.0031 37.55L301.8625 25.3625L301.8625 37.55L300.03436 37.55ZM316.22186 32.3625Q316.22186 29.4875 317.8156 28.096874Q319.15936 26.940624 321.08124 26.940624Q323.22186 26.940624 324.5656 28.346874Q325.925 29.753124 325.925 32.221874Q325.925 34.221874 325.33124 35.378124Q324.7375 36.51875 323.58124 37.159374Q322.4406 37.784374 321.08124 37.784374Q318.89374 37.784374 317.55 36.39375Q316.22186 34.9875 316.22186 32.3625ZM318.01874 32.3625Q318.01874 34.3625 318.8781 35.346874Q319.7531 36.33125 321.08124 36.33125Q322.39374 36.33125 323.2531 35.346874Q324.1281 34.346874 324.1281 32.3Q324.1281 30.378124 323.2531 29.39375Q322.3781 28.39375 321.08124 28.39375Q319.7531 28.39375 318.8781 29.39375Q318.01874 30.378124 318.01874 32.3625ZM327.8625 37.55L327.8625 27.175L329.45624 27.175L329.45624 28.659374Q330.59686 26.940624 332.7531 26.940624Q333.6906 26.940624 334.47186 27.284374Q335.26874 27.6125 335.65936 28.159374Q336.05 28.70625 336.20624 29.45625Q336.3 29.95625 336.3 31.175L336.3 37.55L334.53436 37.55L334.53436 31.2375Q334.53436 30.159374 334.33124 29.628124Q334.1281 29.096874 333.59686 28.784374Q333.08124 28.471874 332.3781 28.471874Q331.2531 28.471874 330.4406 29.190624Q329.6281 29.89375 329.6281 31.878124L329.6281 37.55L327.8625 37.55ZM341.70624 35.971874L341.95624 37.534374Q341.22186 37.690624 340.6281 37.690624Q339.675 37.690624 339.14374 37.39375Q338.6281 37.08125 338.40936 36.596874Q338.1906 36.096874 338.1906 34.51875L338.1906 28.55L336.90936 28.55L336.90936 27.175L338.1906 27.175L338.1906 24.6125L339.9406 23.55L339.9406 27.175L341.70624 27.175L341.70624 28.55L339.9406 28.55L339.9406 34.6125Q339.9406 35.3625 340.03436 35.58125Q340.1281 35.784374 340.33124 35.925Q340.55 36.05 340.9406 36.05Q341.22186 36.05 341.70624 35.971874ZM343.8625 37.55L343.8625 23.2375L345.6281 23.2375L345.6281 28.3625Q346.8625 26.940624 348.7375 26.940624Q349.8781 26.940624 350.72186 27.39375Q351.58124 27.846874 351.9406 28.659374Q352.3156 29.45625 352.3156 30.971874L352.3156 37.55L350.5656 37.55L350.5656 30.971874Q350.5656 29.659374 349.9875 29.065624Q349.40936 28.45625 348.3781 28.45625Q347.59686 28.45625 346.89374 28.8625Q346.20624 29.26875 345.90936 29.971874Q345.6281 30.659374 345.6281 31.878124L345.6281 37.55L343.8625 37.55Z" fill-rule="nonzero"/></svg>