<svg version="1.1" viewBox="0.0 0.0 600.0 371.0" fill="none" stroke="none" stroke-linecap="square" stroke-miterlimit="10" width="600" height="371" xmlns:xlink="http://www.w3.org/1999/xlink" xmlns="http://www.w3.org/2000/svg"><path fill="#ffffff" d="M0 0L600.0 0L600.0 371.0L0 371.0L0 0Z" fill-rule="nonzero"/><path stroke="#333333" stroke-width="1.0" stroke-linecap="butt" d="M77.5 300.5L581.5 300.5" fill-rule="nonzero"/><path stroke="#cccccc" stroke-width="1.0" stroke-linecap="butt" d="M77.5 240.5L581.5 240.5" fill-rule="nonzero"/><path stroke="#cccccc" stroke-width="1.0" stroke-linecap="butt" d="M77.5 181.5L581.5 181.5" fill-rule="nonzero"/><path stroke="#cccccc" stroke-width="1.0" stroke-linecap="butt" d="M77.5 121.5L581.5 121.5" fill-rule="nonzero"/><path stroke="#cccccc" stroke-width="1.0" stroke-linecap="butt" d="M77.5 61.5L581.5 61.5" fill-rule="nonzero"/><clipPath id="id_0"><path d="M77.55 61.916668L581.45 61.916668L581.45 300.45L77.55 300.45L77.55 61.916668Z" clip-rule="nonzero"/></clipPath><path stroke="#4285f4" stroke-width="2.0" stroke-linecap="butt" clip-path="url(#id_0)" d="M119.541664 202.4128L203.525 201.81647L287.50833 91.8526L371.49167 154.70613L455.475 218.156L539.4583 244.51393" fill-rule="nonzero"/><path fill="#000000" fill-opacity="0.0" clip-path="url(#id_0)" d="M122.541664 202.4128C122.541664 204.06966 121.198524 205.4128 119.541664 205.4128C117.88481 205.4128 116.541664 204.06966 116.541664 202.4128C116.541664 200.75595 117.88481 199.4128 119.541664 199.4128C121.198524 199.4128 122.541664 200.75595 122.541664 202.4128Z" fill-rule="nonzero"/><path fill="#000000" fill-opacity="0.0" clip-path="url(#id_0)" d="M206.525 201.81647C206.525 203.47333 205.18185 204.81647 203.525 204.81647C201.86815 204.81647 200.525 203.47333 200.525 201.81647C200.525 200.1596 201.86815 198.81647 203.525 198.81647C205.18185 198.81647 206.525 200.1596 206.525 201.81647Z" fill-rule="nonzero"/><path fill="#000000" fill-opacity="0.0" clip-path="url(#id_0)" d="M290.50833 91.8526C290.50833 93.50945 289.1652 94.8526 287.50833 94.8526C285.85147 94.8526 284.50833 93.50945 284.50833 91.8526C284.50833 90.19575 285.85147 88.8526 287.50833 88.8526C289.1652 88.8526 290.50833 90.19575 290.50833 91.8526Z" fill-rule="nonzero"/><path fill="#000000" fill-opacity="0.0" clip-path="url(#id_0)" d="M374.49167 154.70613C374.49167 156.36299 373.14853 157.70613 371.49167 157.70613C369.8348 157.70613 368.49167 156.36299 368.49167 154.70613C368.49167 153.04929 369.8348 151.70613 371.49167 151.70613C373.14853 151.70613 374.49167 153.04929 374.49167 154.70613Z" fill-rule="nonzero"/><path fill="#000000" fill-opacity="0.0" clip-path="url(#id_0)" d="M458.475 218.156C458.475 219.81285 457.13187 221.156 455.475 221.156C453.81815 221.156 452.475 219.81285 452.475 218.156C452.475 216.49915 453.81815 215.156 455.475 215.156C457.13187 215.156 458.475 216.49915 458.475 218.156Z" fill-rule="nonzero"/><path fill="#000000" fill-opacity="0.0" clip-path="url(#id_0)" d="M542.4583 244.51393C542.4583 246.17079 541.1152 247.51393 539.4583 247.51393C537.80145 247.51393 536.4583 246.17079 536.4583 244.51393C536.4583 242.85709 537.80145 241.51393 539.4583 241.51393C541.1152 241.51393 542.4583 242.85709 542.4583 244.51393Z" fill-rule="nonzero"/><path fill="#000000" d="M313.89062 349.45L313.89062 340.85626L315.60938 340.85626L317.64062 346.9344Q317.92188 347.79376 318.04688 348.21564Q318.1875 347.7469 318.5 346.84064L320.5625 340.85626L322.09375 340.85626L322.09375 349.45L321.0 349.45L321.0 342.2625L318.5 349.45L317.46875 349.45L314.98438 342.1375L314.98438 349.45L313.89062 349.45ZM322.40625 346.34064Q322.40625 344.60626 323.35938 343.77814Q324.15625 343.09064 325.3125 343.09064Q326.59375 343.09064 327.40625 343.9344Q328.23438 344.7625 328.23438 346.2469Q328.23438 347.45 327.875 348.1375Q327.51562 348.825 326.8125 349.21564Q326.125 349.59064 325.3125 349.59064Q324.01562 349.59064 323.20312 348.7625Q322.40625 347.91876 322.40625 346.34064ZM323.48438 346.34064Q323.48438 347.52814 324.0 348.1219Q324.53125 348.71564 325.3125 348.71564Q326.10938 348.71564 326.625 348.1219Q327.14062 347.52814 327.14062 346.3094Q327.14062 345.15314 326.60938 344.5594Q326.09375 343.96564 325.3125 343.96564Q324.53125 343.96564 324.0 344.5594Q323.48438 345.1375 323.48438 346.34064ZM329.79688 349.45L329.79688 343.23126L330.73438 343.23126L330.73438 344.10626Q331.42188 343.09064 332.71875 343.09064Q333.28125 343.09064 333.75 343.29376Q334.23438 343.4969 334.46875 343.825Q334.70312 344.15314 334.79688 344.59064Q334.84375 344.8875 334.84375 345.6219L334.84375 349.45L333.79688 349.45L333.79688 345.66876Q333.79688 345.0125 333.67188 344.7Q333.54688 344.3875 333.23438 344.2Q332.92188 343.9969 332.5 343.9969Q331.82812 343.9969 331.32812 344.4344Q330.84375 344.85626 330.84375 346.04376L330.84375 349.45L329.79688 349.45ZM339.09375 348.5125L339.25 349.4344Q338.79688 349.52814 338.45312 349.52814Q337.875 349.52814 337.5625 349.35626Q337.25 349.16876 337.10938 348.8719Q336.98438 348.575 336.98438 347.6219L336.98438 344.04376L336.21875 344.04376L336.21875 343.23126L336.98438 343.23126L336.98438 341.6844L338.03125 341.0594L338.03125 343.23126L339.09375 343.23126L339.09375 344.04376L338.03125 344.04376L338.03125 347.6844Q338.03125 348.1375 338.07812 348.2625Q338.14062 348.3875 338.26562 348.46564Q338.39062 348.54376 338.625 348.54376Q338.8125 348.54376 339.09375 348.5125ZM339.79688 349.45L339.79688 340.85626L340.84375 340.85626L340.84375 343.9344Q341.57812 343.09064 342.70312 343.09064Q343.40625 343.09064 343.90625 343.3719Q344.42188 343.6375 344.64062 344.1219Q344.85938 344.59064 344.85938 345.5125L344.85938 349.45L343.8125 349.45L343.8125 345.5125Q343.8125 344.71564 343.46875 344.35626Q343.125 343.9969 342.5 343.9969Q342.03125 343.9969 341.60938 344.2469Q341.20312 344.48126 341.01562 344.90314Q340.84375 345.3094 340.84375 346.04376L340.84375 349.45L339.79688 349.45Z" fill-rule="nonzero"/><path fill="#000000" d="M29.550013 284.69897L20.956263 281.4021L20.956263 280.18335L29.550013 276.66772L29.550013 277.94897L26.940638 278.9646L26.940638 282.54272L29.550013 283.49585L29.550013 284.69897ZM26.018763 282.2146L26.018763 279.30835L23.643763 280.19897Q22.565638 280.62085 21.862513 280.80835Q22.690638 280.98022 23.503138 281.2771L26.018763 282.2146ZM29.550013 275.16772L23.331263 277.5271L23.331263 276.41772L27.050013 275.07397Q27.659388 274.87085 28.300013 274.68335Q27.815638 274.54272 27.128138 274.29272L23.331263 272.9021L23.331263 271.82397L29.550013 274.18335L29.550013 275.16772ZM30.065638 272.0896L30.221888 271.05835Q30.690638 270.99585 30.909388 270.69897Q31.206263 270.30835 31.206263 269.63647Q31.206263 268.9021 30.909388 268.51147Q30.612513 268.10522 30.096888 267.9646Q29.768763 267.87085 28.737513 267.88647Q29.550013 268.57397 29.550013 269.60522Q29.550013 270.88647 28.628138 271.5896Q27.690638 272.29272 26.409388 272.29272Q25.518763 272.29272 24.768763 271.98022Q24.003138 271.6521 23.596888 271.04272Q23.190638 270.43335 23.190638 269.60522Q23.190638 268.49585 24.081263 267.7771L23.331263 267.7771L23.331263 266.80835L28.706263 266.80835Q30.159388 266.80835 30.768763 267.10522Q31.378138 267.4021 31.721888 268.04272Q32.08126 268.68335 32.08126 269.62085Q32.08126 270.73022 31.581263 271.41772Q31.081263 272.10522 30.065638 272.0896ZM26.331263 271.2146Q27.550013 271.2146 28.112513 270.73022Q28.675013 270.24585 28.675013 269.51147Q28.675013 268.7771 28.112513 268.29272Q27.550013 267.79272 26.362513 267.79272Q25.221888 267.79272 24.643763 268.30835Q24.065638 268.80835 24.065638 269.5271Q24.065638 270.23022 24.643763 270.73022Q25.206263 271.2146 26.331263 271.2146ZM29.550013 259.57397L21.971888 259.57397L21.971888 262.4021L20.956263 262.4021L20.956263 255.58958L21.971888 255.58958L21.971888 258.43335L29.550013 258.43335L29.550013 259.57397ZM26.440638 255.27708Q24.706263 255.27708 23.878138 254.32396Q23.190638 253.52708 23.190638 252.37083Q23.190638 251.08958 24.034388 250.27708Q24.862513 249.44896 26.346888 249.44896Q27.550013 249.44896 28.237513 249.80833Q28.925013 250.16771 29.315638 250.87083Q29.690638 251.55833 29.690638 252.37083Q29.690638 253.66771 28.862513 254.48021Q28.018763 255.27708 26.440638 255.27708ZM26.440638 254.19896Q27.628138 254.19896 28.221888 253.68333Q28.815638 253.15208 28.815638 252.37083Q28.815638 251.57396 28.221888 251.05833Q27.628138 250.54271 26.409388 250.54271Q25.253138 250.54271 24.659388 251.07396Q24.065638 251.58958 24.065638 252.37083Q24.065638 253.15208 24.659388 253.68333Q25.237513 254.19896 26.440638 254.19896ZM28.612513 245.58958L29.534388 245.43333Q29.628138 245.88646 29.628138 246.23021Q29.628138 246.80833 29.456263 247.12083Q29.268763 247.43333 28.971888 247.57396Q28.675013 247.69896 27.721888 247.69896L24.143763 247.69896L24.143763 248.46458L23.331263 248.46458L23.331263 247.69896L21.784388 247.69896L21.159388 246.65208L23.331263 246.65208L23.331263 245.58958L24.143763 245.58958L24.143763 246.65208L27.784388 246.65208Q28.237513 246.65208 28.362513 246.60521Q28.487513 246.54271 28.565638 246.41771Q28.643763 246.29271 28.643763 246.05833Q28.643763 245.87083 28.612513 245.58958ZM28.784388 240.82396Q29.284388 241.41771 29.487513 241.96458Q29.690638 242.49583 29.690638 243.12083Q29.690638 244.15208 29.190638 244.69896Q28.690638 245.24583 27.909388 245.24583Q27.456263 245.24583 27.081263 245.04271Q26.690638 244.83958 26.471888 244.49583Q26.237513 244.15208 26.128138 243.73021Q26.034388 243.43333 25.956263 242.79271Q25.815638 241.52708 25.596888 240.91771Q25.378138 240.91771 25.331263 240.91771Q24.675013 240.91771 24.409388 241.21458Q24.065638 241.62083 24.065638 242.41771Q24.065638 243.15208 24.331263 243.51146Q24.581263 243.87083 25.237513 244.04271L25.096888 245.07396Q24.440638 244.93333 24.034388 244.60521Q23.628138 244.27708 23.409388 243.66771Q23.190638 243.05833 23.190638 242.26146Q23.190638 241.46458 23.378138 240.96458Q23.565638 240.46458 23.846888 240.23021Q24.128138 239.99583 24.565638 239.90208Q24.831263 239.85521 25.534388 239.85521L26.940638 239.85521Q28.409388 239.85521 28.800013 239.79271Q29.190638 239.71458 29.550013 239.51146L29.550013 240.62083Q29.221888 240.77708 28.784388 240.82396ZM26.425013 240.91771Q26.659388 241.49583 26.831263 242.63646Q26.925013 243.29271 27.050013 243.55833Q27.159388 243.82396 27.378138 243.98021Q27.596888 244.12083 27.878138 244.12083Q28.300013 244.12083 28.581263 243.80833Q28.862513 243.48021 28.862513 242.87083Q28.862513 242.26146 28.596888 241.79271Q28.331263 241.30833 27.862513 241.08958Q27.503138 240.91771 26.815638 240.91771L26.425013 240.91771ZM29.550013 237.91771L20.956263 237.91771L20.956263 236.85521L29.550013 236.85521L29.550013 237.91771ZM29.550013 231.73021L20.956263 231.73021L20.956263 225.52708L21.971888 225.52708L21.971888 230.58958L24.596888 230.58958L24.596888 225.83958L25.612513 225.83958L25.612513 230.58958L28.534388 230.58958L28.534388 225.32396L29.550013 225.32396L29.550013 231.73021ZM28.784388 219.82396Q29.284388 220.41771 29.487513 220.96458Q29.690638 221.49583 29.690638 222.12083Q29.690638 223.15208 29.190638 223.69896Q28.690638 224.24583 27.909388 224.24583Q27.456263 224.24583 27.081263 224.04271Q26.690638 223.83958 26.471888 223.49583Q26.237513 223.15208 26.128138 222.73021Q26.034388 222.43333 25.956263 221.79271Q25.815638 220.52708 25.596888 219.91771Q25.378138 219.91771 25.331263 219.91771Q24.675013 219.91771 24.409388 220.21458Q24.065638 220.62083 24.065638 221.41771Q24.065638 222.15208 24.331263 222.51146Q24.581263 222.87083 25.237513 223.04271L25.096888 224.07396Q24.440638 223.93333 24.034388 223.60521Q23.628138 223.27708 23.409388 222.66771Q23.190638 222.05833 23.190638 221.26146Q23.190638 220.46458 23.378138 219.96458Q23.565638 219.46458 23.846888 219.23021Q24.128138 218.99583 24.565638 218.90208Q24.831263 218.85521 25.534388 218.85521L26.940638 218.85521Q28.409388 218.85521 28.800013 218.79271Q29.190638 218.71458 29.550013 218.51146L29.550013 219.62083Q29.221888 219.77708 28.784388 219.82396ZM26.425013 219.91771Q26.659388 220.49583 26.831263 221.63646Q26.925013 222.29271 27.050013 222.55833Q27.159388 222.82396 27.378138 222.98021Q27.596888 223.12083 27.878138 223.12083Q28.300013 223.12083 28.581263 222.80833Q28.862513 222.48021 28.862513 221.87083Q28.862513 221.26146 28.596888 220.79271Q28.331263 220.30833 27.862513 220.08958Q27.503138 219.91771 26.815638 219.91771L26.425013 219.91771ZM29.550013 216.90208L23.331263 216.90208L23.331263 215.94896L24.268763 215.94896Q23.612513 215.58958 23.409388 215.29271Q23.190638 214.98021 23.190638 214.60521Q23.190638 214.07396 23.518763 213.52708L24.503138 213.88646Q24.268763 214.27708 24.268763 214.65208Q24.268763 215.01146 24.487513 215.29271Q24.690638 215.55833 25.065638 215.66771Q25.628138 215.85521 26.284388 215.85521L29.550013 215.85521L29.550013 216.90208ZM29.550013 212.88646L23.331263 212.88646L23.331263 211.94896L24.206263 211.94896Q23.190638 211.26146 23.190638 209.96458Q23.190638 209.40208 23.393763 208.93333Q23.596888 208.44896 23.925013 208.21458Q24.253138 207.98021 24.690638 207.88646Q24.987513 207.83958 25.721888 207.83958L29.550013 207.83958L29.550013 208.88646L25.768763 208.88646Q25.112513 208.88646 24.800013 209.01146Q24.487513 209.13646 24.300013 209.44896Q24.096888 209.76146 24.096888 210.18333Q24.096888 210.85521 24.534388 211.35521Q24.956263 211.83958 26.143763 211.83958L29.550013 211.83958L29.550013 212.88646ZM22.175013 205.88646L20.956263 205.88646L20.956263 204.82396L22.175013 204.82396L22.175013 205.88646ZM29.550013 205.88646L23.331263 205.88646L23.331263 204.82396L29.550013 204.82396L29.550013 205.88646ZM29.550013 202.88646L23.331263 202.88646L23.331263 201.94896L24.206263 201.94896Q23.190638 201.26146 23.190638 199.96458Q23.190638 199.40208 23.393763 198.93333Q23.596888 198.44896 23.925013 198.21458Q24.253138 197.98021 24.690638 197.88646Q24.987513 197.83958 25.721888 197.83958L29.550013 197.83958L29.550013 198.88646L25.768763 198.88646Q25.112513 198.88646 24.800013 199.01146Q24.487513 199.13646 24.300013 199.44896Q24.096888 199.76146 24.096888 200.18333Q24.096888 200.85521 24.534388 201.35521Q24.956263 201.83958 26.143763 201.83958L29.550013 201.83958L29.550013 202.88646ZM30.065638 196.08958L30.221888 195.05833Q30.690638 194.99583 30.909388 194.69896Q31.206263 194.30833 31.206263 193.63646Q31.206263 192.90208 30.909388 192.51146Q30.612513 192.10521 30.096888 191.96458Q29.768763 191.87083 28.737513 191.88646Q29.550013 192.57396 29.550013 193.60521Q29.550013 194.88646 28.628138 195.58958Q27.690638 196.29271 26.409388 196.29271Q25.518763 196.29271 24.768763 195.98021Q24.003138 195.65208 23.596888 195.04271Q23.190638 194.43333 23.190638 193.60521Q23.190638 192.49583 24.081263 191.77708L23.331263 191.77708L23.331263 190.80833L28.706263 190.80833Q30.159388 190.80833 30.768763 191.10521Q31.378138 191.40208 31.721888 192.04271Q32.08126 192.68333 32.08126 193.62083Q32.08126 194.73021 31.581263 195.41771Q31.081263 196.10521 30.065638 196.08958ZM26.331263 195.21458Q27.550013 195.21458 28.112513 194.73021Q28.675013 194.24583 28.675013 193.51146Q28.675013 192.77708 28.112513 192.29271Q27.550013 191.79271 26.362513 191.79271Q25.221888 191.79271 24.643763 192.30833Q24.065638 192.80833 24.065638 193.52708Q24.065638 194.23021 24.643763 194.73021Q25.206263 195.21458 26.331263 195.21458ZM27.690638 189.30833L27.534388 188.27708Q28.159388 188.18333 28.487513 187.79271Q28.815638 187.38646 28.815638 186.65208Q28.815638 185.93333 28.534388 185.58958Q28.237513 185.23021 27.831263 185.23021Q27.471888 185.23021 27.268763 185.54271Q27.128138 185.76146 26.909388 186.62083Q26.612513 187.77708 26.409388 188.23021Q26.190638 188.66771 25.815638 188.90208Q25.440638 189.13646 24.971888 189.13646Q24.565638 189.13646 24.206263 188.94896Q23.846888 188.76146 23.612513 188.43333Q23.440638 188.18333 23.315638 187.76146Q23.190638 187.33958 23.190638 186.83958Q23.190638 186.12083 23.409388 185.57396Q23.612513 185.01146 23.971888 184.74583Q24.331263 184.48021 24.925013 184.38646L25.065638 185.41771Q24.596888 185.48021 24.331263 185.82396Q24.050013 186.15208 24.050013 186.77708Q24.050013 187.49583 24.300013 187.80833Q24.534388 188.12083 24.862513 188.12083Q25.065638 188.12083 25.221888 187.99583Q25.393763 187.85521 25.503138 187.58958Q25.565638 187.43333 25.768763 186.65208Q26.081263 185.52708 26.268763 185.08958Q26.456263 184.65208 26.815638 184.40208Q27.175013 184.15208 27.721888 184.15208Q28.253138 184.15208 28.721888 184.46458Q29.175013 184.76146 29.440638 185.33958Q29.690638 185.91771 29.690638 186.65208Q29.690638 187.87083 29.190638 188.51146Q28.675013 189.13646 27.690638 189.30833ZM31.940638 178.88646L23.331263 178.88646L23.331263 177.93333L24.128138 177.93333Q23.659388 177.58958 23.425013 177.16771Q23.190638 176.73021 23.190638 176.12083Q23.190638 175.32396 23.596888 174.71458Q24.003138 174.10521 24.753138 173.80833Q25.503138 173.49583 26.393763 173.49583Q27.346888 173.49583 28.112513 173.83958Q28.878138 174.16771 29.284388 174.82396Q29.690638 175.48021 29.690638 176.19896Q29.690638 176.73021 29.471888 177.15208Q29.237513 177.57396 28.909388 177.83958L31.940638 177.83958L31.940638 178.88646ZM26.471888 177.93333Q27.675013 177.93333 28.253138 177.44896Q28.815638 176.96458 28.815638 176.27708Q28.815638 175.57396 28.221888 175.07396Q27.628138 174.57396 26.378138 174.57396Q25.190638 174.57396 24.612513 175.05833Q24.018763 175.54271 24.018763 176.23021Q24.018763 176.90208 24.643763 177.41771Q25.268763 177.93333 26.471888 177.93333ZM27.550013 167.63646L27.675013 166.54271Q28.628138 166.79271 29.159388 167.49583Q29.690638 168.19896 29.690638 169.27708Q29.690638 170.63646 28.846888 171.44896Q28.003138 172.24583 26.487513 172.24583Q24.925013 172.24583 24.065638 171.43333Q23.190638 170.62083 23.190638 169.33958Q23.190638 168.08958 24.034388 167.30833Q24.878138 166.51146 26.425013 166.51146Q26.518763 166.51146 26.706263 166.51146L26.706263 171.15208Q27.737513 171.08958 28.284388 170.57396Q28.815638 170.05833 28.815638 169.27708Q28.815638 168.69896 28.518763 168.29271Q28.206263 167.87083 27.550013 167.63646ZM25.846888 171.08958L25.846888 167.62083Q25.050013 167.68333 24.659388 168.01146Q24.050013 168.52708 24.050013 169.32396Q24.050013 170.05833 24.534388 170.55833Q25.018763 171.04271 25.846888 171.08958ZM29.550013 164.90208L23.331263 164.90208L23.331263 163.94896L24.268763 163.94896Q23.612513 163.58958 23.409388 163.29271Q23.190638 162.98021 23.190638 162.60521Q23.190638 162.07396 23.518763 161.52708L24.503138 161.88646Q24.268763 162.27708 24.268763 162.65208Q24.268763 163.01146 24.487513 163.29271Q24.690638 163.55833 25.065638 163.66771Q25.628138 163.85521 26.284388 163.85521L29.550013 163.85521L29.550013 164.90208ZM29.550013 157.76146L20.956263 157.76146L20.956263 156.60521L27.706263 152.08958L20.956263 152.08958L20.956263 150.99583L29.550013 150.99583L29.550013 152.16771L22.800013 156.68333L29.550013 156.68333L29.550013 157.76146ZM26.440638 149.27708Q24.706263 149.27708 23.878138 148.32396Q23.190638 147.52708 23.190638 146.37083Q23.190638 145.08958 24.034388 144.27708Q24.862513 143.44896 26.346888 143.44896Q27.550013 143.44896 28.237513 143.80833Q28.925013 144.16771 29.315638 144.87083Q29.690638 145.55833 29.690638 146.37083Q29.690638 147.66771 28.862513 148.48021Q28.018763 149.27708 26.440638 149.27708ZM26.440638 148.19896Q27.628138 148.19896 28.221888 147.68333Q28.815638 147.15208 28.815638 146.37083Q28.815638 145.57396 28.221888 145.05833Q27.628138 144.54271 26.409388 144.54271Q25.253138 144.54271 24.659388 145.07396Q24.065638 145.58958 24.065638 146.37083Q24.065638 147.15208 24.659388 147.68333Q25.237513 148.19896 26.440638 148.19896ZM29.550013 137.85521L28.768763 137.85521Q29.690638 138.44896 29.690638 139.58958Q29.690638 140.33958 29.284388 140.96458Q28.862513 141.58958 28.128138 141.93333Q27.393763 142.27708 26.440638 142.27708Q25.518763 142.27708 24.753138 141.96458Q23.987513 141.65208 23.596888 141.02708Q23.190638 140.40208 23.190638 139.63646Q23.190638 139.07396 23.425013 138.63646Q23.659388 138.19896 24.034388 137.91771L20.956263 137.91771L20.956263 136.87083L29.550013 136.87083L29.550013 137.85521ZM26.440638 141.18333Q27.643763 141.18333 28.237513 140.68333Q28.815638 140.18333 28.815638 139.49583Q28.815638 138.80833 28.253138 138.32396Q27.690638 137.83958 26.534388 137.83958Q25.253138 137.83958 24.659388 138.33958Q24.065638 138.82396 24.065638 139.54271Q24.065638 140.24583 24.643763 140.71458Q25.206263 141.18333 26.440638 141.18333ZM27.550013 130.63646L27.675013 129.54271Q28.628138 129.79271 29.159388 130.49583Q29.690638 131.19896 29.690638 132.27708Q29.690638 133.63646 28.846888 134.44896Q28.003138 135.24583 26.487513 135.24583Q24.925013 135.24583 24.065638 134.43333Q23.190638 133.62083 23.190638 132.33958Q23.190638 131.08958 24.034388 130.30833Q24.878138 129.51146 26.425013 129.51146Q26.518763 129.51146 26.706263 129.51146L26.706263 134.15208Q27.737513 134.08958 28.284388 133.57396Q28.815638 133.05833 28.815638 132.27708Q28.815638 131.69896 28.518763 131.29271Q28.206263 130.87083 27.550013 130.63646ZM25.846888 134.08958L25.846888 130.62083Q25.050013 130.68333 24.659388 131.01146Q24.050013 131.52708 24.050013 132.32396Q24.050013 133.05833 24.534388 133.55833Q25.018763 134.04271 25.846888 134.08958ZM32.08126 122.870834Q30.971888 123.745834 29.503138 124.35521Q28.018763 124.94896 26.440638 124.94896Q25.050013 124.94896 23.768763 124.51146Q22.284388 123.98021 20.815638 122.870834L20.815638 122.120834Q22.034388 122.82396 22.550013 123.058334Q23.362513 123.41771 24.237513 123.620834Q25.331263 123.870834 26.440638 123.870834Q29.268763 123.870834 32.08126 122.120834L32.08126 122.870834ZM29.550013 121.589584L26.315638 119.32396L23.331263 121.41771L23.331263 120.10521L24.784388 119.152084Q25.206263 118.88646 25.487513 118.714584Q25.096888 118.464584 24.800013 118.245834L23.331263 117.19896L23.331263 115.933334L26.253138 118.089584L29.550013 115.777084L29.550013 117.058334L27.612513 118.339584L27.096888 118.683334L29.550013 120.32396L29.550013 121.589584ZM29.550013 115.808334L20.956263 115.808334L20.956263 112.57396Q20.956263 111.589584 21.221888 110.995834Q21.487513 110.402084 22.034388 110.07396Q22.565638 109.73021 23.159388 109.73021Q23.706263 109.73021 24.190638 110.027084Q24.675013 110.32396 24.971888 110.933334Q25.206263 110.152084 25.768763 109.745834Q26.315638 109.32396 27.065638 109.32396Q27.659388 109.32396 28.190638 109.57396Q28.706263 109.82396 28.987513 110.19896Q29.268763 110.57396 29.409388 111.152084Q29.550013 111.714584 29.550013 112.527084L29.550013 115.808334ZM24.565638 114.66771L24.565638 112.808334Q24.565638 112.058334 24.471888 111.73021Q24.346888 111.29271 24.050013 111.07396Q23.737513 110.85521 23.284388 110.85521Q22.862513 110.85521 22.534388 111.058334Q22.206263 111.26146 22.096888 111.652084Q21.971888 112.027084 21.971888 112.94896L21.971888 114.66771L24.565638 114.66771ZM28.534388 114.66771L28.534388 112.527084Q28.534388 111.98021 28.487513 111.76146Q28.425013 111.35521 28.268763 111.10521Q28.096888 110.839584 27.784388 110.66771Q27.471888 110.495834 27.065638 110.495834Q26.581263 110.495834 26.221888 110.745834Q25.862513 110.98021 25.721888 111.41771Q25.581263 111.85521 25.581263 112.683334L25.581263 114.66771L28.534388 114.66771ZM29.550013 108.44896L28.487513 108.44896L22.987513 104.04271Q22.409388 103.57396 21.971888 103.152084L21.971888 107.94896L20.956263 107.94896L20.956263 101.79271L21.971888 101.79271L27.925013 106.620834L28.534388 107.13646L28.534388 101.652084L29.550013 101.652084L29.550013 108.44896ZM29.550013 101.44896L28.487513 101.44896L22.987513 97.04271Q22.409388 96.57396 21.971888 96.152084L21.971888 100.94896L20.956263 100.94896L20.956263 94.79271L21.971888 94.79271L27.925013 99.620834L28.534388 100.13646L28.534388 94.652084L29.550013 94.652084L29.550013 101.44896ZM32.08126 93.19896L32.08126 93.94896Q29.268763 92.19896 26.440638 92.19896Q25.346888 92.19896 24.253138 92.44896Q23.378138 92.652084 22.565638 93.01146Q22.050013 93.245834 20.815638 93.94896L20.815638 93.19896Q22.284388 92.10521 23.768763 91.57396Q25.050013 91.120834 26.440638 91.120834Q28.018763 91.120834 29.503138 91.73021Q30.971888 92.339584 32.08126 93.19896Z" fill-rule="nonzero"/><path fill="#000000" d="M65.05 300.21564Q65.05 298.6844 65.3625 297.7625Q65.675 296.825 66.28438 296.325Q66.90938 295.825 67.84688 295.825Q68.53438 295.825 69.05 296.10626Q69.58125 296.3875 69.925 296.91876Q70.26875 297.4344 70.45625 298.1844Q70.64375 298.9344 70.64375 300.21564Q70.64375 301.73126 70.33125 302.65314Q70.03438 303.575 69.40938 304.09064Q68.8 304.59064 67.84688 304.59064Q66.6125 304.59064 65.89375 303.7Q65.05 302.6375 65.05 300.21564ZM66.12813 300.21564Q66.12813 302.325 66.62813 303.02814Q67.12813 303.73126 67.84688 303.73126Q68.58125 303.73126 69.06563 303.02814Q69.56563 302.325 69.56563 300.21564Q69.56563 298.09064 69.06563 297.40314Q68.58125 296.7 67.83125 296.7Q67.1125 296.7 66.675 297.3094Q66.12813 298.09064 66.12813 300.21564Z" fill-rule="nonzero"/><path fill="#000000" d="M65.05 242.56667L66.15938 242.47292Q66.28438 243.28542 66.72188 243.69167Q67.175 244.09792 67.81563 244.09792Q68.56563 244.09792 69.09688 243.51979Q69.62813 242.94167 69.62813 242.00417Q69.62813 241.09792 69.1125 240.58229Q68.6125 240.05104 67.78438 240.05104Q67.28438 240.05104 66.8625 240.28542Q66.45625 240.51979 66.22188 240.87917L65.2375 240.75417L66.06563 236.34792L70.34688 236.34792L70.34688 237.34792L66.90938 237.34792L66.45625 239.66042Q67.22188 239.11354 68.06563 239.11354Q69.19063 239.11354 69.95625 239.89479Q70.7375 240.67604 70.7375 241.91042Q70.7375 243.06667 70.06563 243.92604Q69.2375 244.95729 67.81563 244.95729Q66.64375 244.95729 65.89375 244.30104Q65.15938 243.64479 65.05 242.56667Z" fill-rule="nonzero"/><path fill="#000000" d="M62.01875 185.18333L60.971874 185.18333L60.971874 178.46458Q60.58125 178.82396 59.95625 179.19896Q59.346874 179.55833 58.8625 179.73021L58.8625 178.71458Q59.7375 178.29271 60.39375 177.71458Q61.065624 177.12083 61.346874 176.55833L62.01875 176.55833L62.01875 185.18333ZM65.05 180.94896Q65.05 179.41771 65.3625 178.49583Q65.675 177.55833 66.28438 177.05833Q66.90938 176.55833 67.84688 176.55833Q68.53438 176.55833 69.05 176.83958Q69.58125 177.12083 69.925 177.65208Q70.26875 178.16771 70.45625 178.91771Q70.64375 179.66771 70.64375 180.94896Q70.64375 182.46458 70.33125 183.38646Q70.03438 184.30833 69.40938 184.82396Q68.8 185.32396 67.84688 185.32396Q66.6125 185.32396 65.89375 184.43333Q65.05 183.37083 65.05 180.94896ZM66.12813 180.94896Q66.12813 183.05833 66.62813 183.76146Q67.12813 184.46458 67.84688 184.46458Q68.58125 184.46458 69.06563 183.76146Q69.56563 183.05833 69.56563 180.94896Q69.56563 178.82396 69.06563 178.13646Q68.58125 177.43333 67.83125 177.43333Q67.1125 177.43333 66.675 178.04271Q66.12813 178.82396 66.12813 180.94896Z" fill-rule="nonzero"/><path fill="#000000" d="M62.01875 125.55L60.971874 125.55L60.971874 118.83125Q60.58125 119.19063 59.95625 119.56563Q59.346874 119.925 58.8625 120.09688L58.8625 119.08125Q59.7375 118.65938 60.39375 118.08125Q61.065624 117.4875 61.346874 116.925L62.01875 116.925L62.01875 125.55ZM65.05 123.3L66.15938 123.20625Q66.28438 124.01875 66.72188 124.425Q67.175 124.83125 67.81563 124.83125Q68.56563 124.83125 69.09688 124.25313Q69.62813 123.675 69.62813 122.7375Q69.62813 121.83125 69.1125 121.31563Q68.6125 120.78438 67.78438 120.78438Q67.28438 120.78438 66.8625 121.01875Q66.45625 121.25313 66.22188 121.6125L65.2375 121.4875L66.06563 117.08125L70.34688 117.08125L70.34688 118.08125L66.90938 118.08125L66.45625 120.39375Q67.22188 119.84688 68.06563 119.84688Q69.19063 119.84688 69.95625 120.62813Q70.7375 121.40938 70.7375 122.64375Q70.7375 123.8 70.06563 124.65938Q69.2375 125.69063 67.81563 125.69063Q66.64375 125.69063 65.89375 125.03438Q65.15938 124.37813 65.05 123.3Z" fill-rule="nonzero"/><path fill="#000000" d="M63.596874 64.90104L63.596874 65.916664L57.909374 65.916664Q57.909374 65.541664 58.034374 65.18229Q58.253124 64.604164 58.721874 64.041664Q59.20625 63.479164 60.1125 62.74479Q61.51875 61.58854 62.003124 60.916664Q62.503124 60.24479 62.503124 59.65104Q62.503124 59.02604 62.05 58.604164Q61.596874 58.166664 60.878124 58.166664Q60.1125 58.166664 59.659374 58.61979Q59.20625 59.072914 59.190624 59.885414L58.1125 59.77604Q58.221874 58.55729 58.940624 57.93229Q59.675 57.291664 60.909374 57.291664Q62.14375 57.291664 62.8625 57.979164Q63.58125 58.666664 63.58125 59.68229Q63.58125 60.197914 63.3625 60.697914Q63.159374 61.18229 62.659374 61.74479Q62.175 62.291664 61.05 63.24479Q60.096874 64.041664 59.815624 64.33854Q59.55 64.61979 59.378124 64.90104L63.596874 64.90104ZM65.05 61.68229Q65.05 60.15104 65.3625 59.229164Q65.675 58.291664 66.28438 57.791664Q66.90938 57.291664 67.84688 57.291664Q68.53438 57.291664 69.05 57.572914Q69.58125 57.854164 69.925 58.385414Q70.26875 58.90104 70.45625 59.65104Q70.64375 60.40104 70.64375 61.68229Q70.64375 63.197914 70.33125 64.11979Q70.03438 65.041664 69.40938 65.55729Q68.8 66.05729 67.84688 66.05729Q66.6125 66.05729 65.89375 65.166664Q65.05 64.104164 65.05 61.68229ZM66.12813 61.68229Q66.12813 63.791664 66.62813 64.49479Q67.12813 65.197914 67.84688 65.197914Q68.58125 65.197914 69.06563 64.49479Q69.56563 63.791664 69.56563 61.68229Q69.56563 59.55729 69.06563 58.86979Q68.58125 58.166664 67.83125 58.166664Q67.1125 58.166664 66.675 58.77604Q66.12813 59.55729 66.12813 61.68229Z" fill-rule="nonzero"/><path fill="#000000" d="M109.385414 315.0125L110.416664 314.8719Q110.447914 315.85626 110.77604 316.21564Q111.104164 316.575 111.697914 316.575Q112.11979 316.575 112.43229 316.3875Q112.74479 316.1844 112.854164 315.85626Q112.979164 315.5125 112.979164 314.77814L112.979164 308.85626L114.104164 308.85626L114.104164 314.71564Q114.104164 315.79376 113.83854 316.3875Q113.58854 316.98126 113.02604 317.29376Q112.46354 317.59064 111.697914 317.59064Q110.572914 317.59064 109.96354 316.95Q109.36979 316.29376 109.385414 315.0125ZM119.916664 317.45L119.916664 316.52814Q119.18229 317.59064 117.93229 317.59064Q117.385414 317.59064 116.90104 317.3875Q116.43229 317.16876 116.197914 316.85626Q115.96354 316.52814 115.86979 316.0594Q115.80729 315.7625 115.80729 315.075L115.80729 311.23126L116.86979 311.23126L116.86979 314.6844Q116.86979 315.4969 116.93229 315.79376Q117.02604 316.2 117.33854 316.45Q117.666664 316.6844 118.15104 316.6844Q118.61979 316.6844 119.02604 316.45Q119.447914 316.2 119.61979 315.77814Q119.80729 315.35626 119.80729 314.5594L119.80729 311.23126L120.854164 311.23126L120.854164 317.45L119.916664 317.45ZM122.80729 317.45L122.80729 308.85626L123.86979 308.85626L123.86979 317.45L122.80729 317.45ZM125.791664 319.84064L125.666664 318.85626Q126.010414 318.95 126.27604 318.95Q126.61979 318.95 126.822914 318.825Q127.041664 318.71564 127.18229 318.5125Q127.27604 318.34064 127.510414 317.71564Q127.52604 317.6375 127.604164 317.46564L125.229164 311.23126L126.36979 311.23126L127.666664 314.825Q127.916664 315.5125 128.11978 316.27814Q128.30728 315.54376 128.55728 314.85626L129.8854 311.23126L130.93228 311.23126L128.5729 317.5594Q128.18228 318.575 127.979164 318.96564Q127.697914 319.4969 127.322914 319.73126Q126.96354 319.98126 126.46354 319.98126Q126.166664 319.98126 125.791664 319.84064Z" fill-rule="nonzero"/><path fill="#000000" d="M184.50937 317.45L187.80624 308.85626L189.025 308.85626L192.54062 317.45L191.25937 317.45L190.24374 314.84064L186.66562 314.84064L185.7125 317.45L184.50937 317.45ZM186.99374 313.91876L189.9 313.91876L189.00937 311.54376Q188.5875 310.46564 188.4 309.7625Q188.22812 310.59064 187.93124 311.40314L186.99374 313.91876ZM196.4 317.45L196.4 316.52814Q195.66562 317.59064 194.41562 317.59064Q193.86874 317.59064 193.38437 317.3875Q192.91562 317.16876 192.68124 316.85626Q192.44687 316.52814 192.35312 316.0594Q192.29062 315.7625 192.29062 315.075L192.29062 311.23126L193.35312 311.23126L193.35312 314.6844Q193.35312 315.4969 193.41562 315.79376Q193.50937 316.2 193.82187 316.45Q194.15 316.6844 194.63437 316.6844Q195.10312 316.6844 195.50937 316.45Q195.93124 316.2 196.10312 315.77814Q196.29062 315.35626 196.29062 314.5594L196.29062 311.23126L197.3375 311.23126L197.3375 317.45L196.4 317.45ZM199.11874 317.96564L200.15 318.1219Q200.2125 318.59064 200.50937 318.8094Q200.9 319.10626 201.57187 319.10626Q202.30624 319.10626 202.69687 318.8094Q203.10312 318.5125 203.24374 317.9969Q203.3375 317.66876 203.32187 316.6375Q202.63437 317.45 201.60312 317.45Q200.32187 317.45 199.61874 316.52814Q198.91562 315.59064 198.91562 314.3094Q198.91562 313.41876 199.22812 312.66876Q199.55624 311.90314 200.16562 311.4969Q200.775 311.09064 201.60312 311.09064Q202.7125 311.09064 203.43124 311.98126L203.43124 311.23126L204.4 311.23126L204.4 316.60626Q204.4 318.0594 204.10312 318.66876Q203.80624 319.27814 203.16562 319.6219Q202.525 319.98126 201.5875 319.98126Q200.47812 319.98126 199.79062 319.48126Q199.10312 318.98126 199.11874 317.96564ZM199.99374 314.23126Q199.99374 315.45 200.47812 316.0125Q200.9625 316.575 201.69687 316.575Q202.43124 316.575 202.91562 316.0125Q203.41562 315.45 203.41562 314.2625Q203.41562 313.1219 202.9 312.54376Q202.4 311.96564 201.68124 311.96564Q200.97812 311.96564 200.47812 312.54376Q199.99374 313.10626 199.99374 314.23126ZM210.4 317.45L210.4 316.52814Q209.66562 317.59064 208.41562 317.59064Q207.86874 317.59064 207.38437 317.3875Q206.91562 317.16876 206.68124 316.85626Q206.44687 316.52814 206.35312 316.0594Q206.29062 315.7625 206.29062 315.075L206.29062 311.23126L207.35312 311.23126L207.35312 314.6844Q207.35312 315.4969 207.41562 315.79376Q207.50937 316.2 207.82187 316.45Q208.15 316.6844 208.63437 316.6844Q209.10312 316.6844 209.50937 316.45Q209.93124 316.2 210.10312 315.77814Q210.29062 315.35626 210.29062 314.5594L210.29062 311.23126L211.3375 311.23126L211.3375 317.45L210.4 317.45ZM212.9 315.59064L213.93124 315.4344Q214.025 316.0594 214.41562 316.3875Q214.82187 316.71564 215.55624 316.71564Q216.275 316.71564 216.61874 316.4344Q216.97812 316.1375 216.97812 315.73126Q216.97812 315.3719 216.66562 315.16876Q216.44687 315.02814 215.5875 314.8094Q214.43124 314.5125 213.97812 314.3094Q213.54062 314.09064 213.30624 313.71564Q213.07187 313.34064 213.07187 312.8719Q213.07187 312.46564 213.25937 312.10626Q213.44687 311.7469 213.775 311.5125Q214.025 311.34064 214.44687 311.21564Q214.86874 311.09064 215.36874 311.09064Q216.0875 311.09064 216.63437 311.3094Q217.19687 311.5125 217.4625 311.8719Q217.72812 312.23126 217.82187 312.825L216.79062 312.96564Q216.72812 312.4969 216.38437 312.23126Q216.05624 311.95 215.43124 311.95Q214.7125 311.95 214.4 312.2Q214.0875 312.4344 214.0875 312.7625Q214.0875 312.96564 214.2125 313.1219Q214.35312 313.29376 214.61874 313.40314Q214.775 313.46564 215.55624 313.66876Q216.68124 313.98126 217.11874 314.16876Q217.55624 314.35626 217.80624 314.71564Q218.05624 315.075 218.05624 315.6219Q218.05624 316.15314 217.74374 316.6219Q217.44687 317.075 216.86874 317.34064Q216.29062 317.59064 215.55624 317.59064Q214.3375 317.59064 213.69687 317.09064Q213.07187 316.575 212.9 315.59064ZM222.61874 316.5125L222.775 317.4344Q222.32187 317.52814 221.97812 317.52814Q221.4 317.52814 221.0875 317.35626Q220.775 317.16876 220.63437 316.8719Q220.50937 316.575 220.50937 315.6219L220.50937 312.04376L219.74374 312.04376L219.74374 311.23126L220.50937 311.23126L220.50937 309.6844L221.55624 309.0594L221.55624 311.23126L222.61874 311.23126L222.61874 312.04376L221.55624 312.04376L221.55624 315.6844Q221.55624 316.1375 221.60312 316.2625Q221.66562 316.3875 221.79062 316.46564Q221.91562 316.54376 222.15 316.54376Q222.3375 316.54376 222.61874 316.5125Z" fill-rule="nonzero"/><path fill="#000000" d="M257.5552 314.6844L258.6177 314.59064Q258.69583 315.2469 258.97708 315.65314Q259.25833 316.0594 259.83646 316.325Q260.4302 316.575 261.16458 316.575Q261.8052 316.575 262.3052 316.3875Q262.8052 316.1844 263.03958 315.85626Q263.28958 315.5125 263.28958 315.1219Q263.28958 314.71564 263.0552 314.41876Q262.82083 314.10626 262.28958 313.90314Q261.9302 313.7625 260.7427 313.48126Q259.57083 313.2 259.10208 312.95Q258.47708 312.6219 258.1802 312.15314Q257.88333 311.66876 257.88333 311.075Q257.88333 310.4344 258.2427 309.8719Q258.6177 309.29376 259.32083 309.0125Q260.03958 308.71564 260.89896 308.71564Q261.85208 308.71564 262.58646 309.02814Q263.32083 309.325 263.71146 309.9344Q264.10208 310.52814 264.13333 311.27814L263.03958 311.35626Q262.94583 310.54376 262.4302 310.1375Q261.9302 309.71564 260.94583 309.71564Q259.91458 309.71564 259.44583 310.09064Q258.97708 310.46564 258.97708 310.9969Q258.97708 311.46564 259.3052 311.7625Q259.63333 312.0594 261.00833 312.3719Q262.39896 312.6844 262.91458 312.91876Q263.66458 313.27814 264.02396 313.8094Q264.38333 314.325 264.38333 315.02814Q264.38333 315.71564 263.9927 316.325Q263.60208 316.91876 262.8677 317.2625Q262.13333 317.59064 261.21146 317.59064Q260.03958 317.59064 259.2427 317.2625Q258.46146 316.91876 258.00833 316.23126Q257.57083 315.54376 257.5552 314.6844ZM270.0552 315.45L271.14896 315.575Q270.89896 316.52814 270.19583 317.0594Q269.4927 317.59064 268.41458 317.59064Q267.0552 317.59064 266.2427 316.7469Q265.44583 315.90314 265.44583 314.3875Q265.44583 312.825 266.25833 311.96564Q267.07083 311.09064 268.35208 311.09064Q269.60208 311.09064 270.38333 311.9344Q271.1802 312.77814 271.1802 314.325Q271.1802 314.41876 271.1802 314.60626L266.53958 314.60626Q266.60208 315.6375 267.1177 316.1844Q267.63333 316.71564 268.41458 316.71564Q268.9927 316.71564 269.39896 316.41876Q269.82083 316.10626 270.0552 315.45ZM266.60208 313.7469L270.07083 313.7469Q270.00833 312.95 269.6802 312.5594Q269.16458 311.95 268.3677 311.95Q267.63333 311.95 267.13333 312.4344Q266.64896 312.91876 266.60208 313.7469ZM272.8052 319.84064L272.8052 311.23126L273.75833 311.23126L273.75833 312.02814Q274.10208 311.5594 274.52396 311.325Q274.96146 311.09064 275.57083 311.09064Q276.3677 311.09064 276.97708 311.4969Q277.58646 311.90314 277.88333 312.65314Q278.19583 313.40314 278.19583 314.29376Q278.19583 315.2469 277.85208 316.0125Q277.52396 316.77814 276.8677 317.1844Q276.21146 317.59064 275.4927 317.59064Q274.96146 317.59064 274.53958 317.3719Q274.1177 317.1375 273.85208 316.8094L273.85208 319.84064L272.8052 319.84064ZM273.75833 314.3719Q273.75833 315.575 274.2427 316.15314Q274.72708 316.71564 275.41458 316.71564Q276.1177 316.71564 276.6177 316.1219Q277.1177 315.52814 277.1177 314.27814Q277.1177 313.09064 276.63333 312.5125Q276.14896 311.91876 275.46146 311.91876Q274.78958 311.91876 274.27396 312.54376Q273.75833 313.16876 273.75833 314.3719ZM282.10208 316.5125L282.25833 317.4344Q281.8052 317.52814 281.46146 317.52814Q280.88333 317.52814 280.57083 317.35626Q280.25833 317.16876 280.1177 316.8719Q279.9927 316.575 279.9927 315.6219L279.9927 312.04376L279.22708 312.04376L279.22708 311.23126L279.9927 311.23126L279.9927 309.6844L281.03958 309.0594L281.03958 311.23126L282.10208 311.23126L282.10208 312.04376L281.03958 312.04376L281.03958 315.6844Q281.03958 316.1375 281.08646 316.2625Q281.14896 316.3875 281.27396 316.46564Q281.39896 316.54376 281.63333 316.54376Q281.82083 316.54376 282.10208 316.5125ZM287.0552 315.45L288.14896 315.575Q287.89896 316.52814 287.19583 317.0594Q286.4927 317.59064 285.41458 317.59064Q284.0552 317.59064 283.2427 316.7469Q282.44583 315.90314 282.44583 314.3875Q282.44583 312.825 283.25833 311.96564Q284.07083 311.09064 285.35208 311.09064Q286.60208 311.09064 287.38333 311.9344Q288.1802 312.77814 288.1802 314.325Q288.1802 314.41876 288.1802 314.60626L283.53958 314.60626Q283.60208 315.6375 284.1177 316.1844Q284.63333 316.71564 285.41458 316.71564Q285.9927 316.71564 286.39896 316.41876Q286.82083 316.10626 287.0552 315.45ZM283.60208 313.7469L287.07083 313.7469Q287.00833 312.95 286.6802 312.5594Q286.16458 311.95 285.3677 311.95Q284.63333 311.95 284.13333 312.4344Q283.64896 312.91876 283.60208 313.7469ZM289.8052 317.45L289.8052 311.23126L290.7427 311.23126L290.7427 312.10626Q291.03958 311.6375 291.52396 311.3719Q292.00833 311.09064 292.63333 311.09064Q293.32083 311.09064 293.75833 311.3719Q294.21146 311.65314 294.38333 312.16876Q295.13333 311.09064 296.3052 311.09064Q297.2427 311.09064 297.72708 311.60626Q298.22708 312.10626 298.22708 313.1844L298.22708 317.45L297.1802 317.45L297.1802 313.52814Q297.1802 312.90314 297.07083 312.6219Q296.97708 312.34064 296.71146 312.16876Q296.44583 311.9969 296.07083 311.9969Q295.41458 311.9969 294.97708 312.4344Q294.5552 312.8719 294.5552 313.84064L294.5552 317.45L293.4927 317.45L293.4927 313.40314Q293.4927 312.7 293.22708 312.35626Q292.97708 311.9969 292.39896 311.9969Q291.94583 311.9969 291.57083 312.23126Q291.19583 312.46564 291.02396 312.91876Q290.85208 313.3719 290.85208 314.21564L290.85208 317.45L289.8052 317.45ZM301.77396 317.45L300.78958 317.45L300.78958 308.85626L301.85208 308.85626L301.85208 311.91876Q302.52396 311.09064 303.5552 311.09064Q304.13333 311.09064 304.63333 311.325Q305.14896 311.54376 305.47708 311.96564Q305.82083 312.3875 306.00833 312.98126Q306.19583 313.575 306.19583 314.2469Q306.19583 315.84064 305.39896 316.71564Q304.60208 317.59064 303.50833 317.59064Q302.39896 317.59064 301.77396 316.66876L301.77396 317.45ZM301.75833 314.29376Q301.75833 315.40314 302.07083 315.90314Q302.57083 316.71564 303.41458 316.71564Q304.10208 316.71564 304.60208 316.1219Q305.1177 315.52814 305.1177 314.325Q305.1177 313.10626 304.63333 312.52814Q304.14896 311.95 303.46146 311.95Q302.77396 311.95 302.25833 312.5594Q301.75833 313.15314 301.75833 314.29376ZM312.0552 315.45L313.14896 315.575Q312.89896 316.52814 312.19583 317.0594Q311.4927 317.59064 310.41458 317.59064Q309.0552 317.59064 308.2427 316.7469Q307.44583 315.90314 307.44583 314.3875Q307.44583 312.825 308.25833 311.96564Q309.07083 311.09064 310.35208 311.09064Q311.60208 311.09064 312.38333 311.9344Q313.1802 312.77814 313.1802 314.325Q313.1802 314.41876 313.1802 314.60626L308.53958 314.60626Q308.60208 315.6375 309.1177 316.1844Q309.63333 316.71564 310.41458 316.71564Q310.9927 316.71564 311.39896 316.41876Q311.82083 316.10626 312.0552 315.45ZM308.60208 313.7469L312.07083 313.7469Q312.00833 312.95 311.6802 312.5594Q311.16458 311.95 310.3677 311.95Q309.63333 311.95 309.13333 312.4344Q308.64896 312.91876 308.60208 313.7469ZM314.78958 317.45L314.78958 311.23126L315.7427 311.23126L315.7427 312.16876Q316.10208 311.5125 316.39896 311.3094Q316.71146 311.09064 317.08646 311.09064Q317.6177 311.09064 318.16458 311.41876L317.8052 312.40314Q317.41458 312.16876 317.03958 312.16876Q316.6802 312.16876 316.39896 312.3875Q316.13333 312.59064 316.02396 312.96564Q315.83646 313.52814 315.83646 314.1844L315.83646 317.45L314.78958 317.45Z" fill-rule="nonzero"/><path fill="#000000" d="M350.5698 313.2625Q350.5698 311.1219 351.71042 309.91876Q352.86667 308.7 354.67917 308.7Q355.8823 308.7 356.83542 309.27814Q357.78854 309.84064 358.28854 310.85626Q358.78854 311.8719 358.78854 313.16876Q358.78854 314.46564 358.2573 315.4969Q357.72604 316.52814 356.7573 317.0594Q355.80417 317.59064 354.67917 317.59064Q353.46042 317.59064 352.5073 317.0125Q351.55417 316.41876 351.05417 315.41876Q350.5698 314.40314 350.5698 313.2625ZM351.74167 313.27814Q351.74167 314.84064 352.5698 315.73126Q353.41354 316.6219 354.67917 316.6219Q355.96042 316.6219 356.78854 315.73126Q357.61667 314.825 357.61667 313.15314Q357.61667 312.10626 357.2573 311.325Q356.91354 310.54376 356.22604 310.1219Q355.53854 309.6844 354.6948 309.6844Q353.49167 309.6844 352.61667 310.5125Q351.74167 311.34064 351.74167 313.27814ZM363.85104 315.16876L364.8823 315.3094Q364.71042 316.3719 364.0073 316.98126Q363.30417 317.59064 362.28854 317.59064Q361.0073 317.59064 360.22604 316.7625Q359.46042 315.91876 359.46042 314.35626Q359.46042 313.35626 359.78854 312.60626Q360.1323 311.84064 360.80417 311.46564Q361.49167 311.09064 362.30417 311.09064Q363.30417 311.09064 363.9448 311.60626Q364.60104 312.10626 364.78854 313.0594L363.7573 313.21564Q363.61667 312.59064 363.24167 312.27814Q362.86667 311.95 362.33542 311.95Q361.53854 311.95 361.03854 312.52814Q360.53854 313.09064 360.53854 314.325Q360.53854 315.59064 361.02292 316.15314Q361.5073 316.71564 362.27292 316.71564Q362.89792 316.71564 363.30417 316.34064Q363.72604 315.96564 363.85104 315.16876ZM368.08542 316.5125L368.24167 317.4344Q367.78854 317.52814 367.4448 317.52814Q366.86667 317.52814 366.55417 317.35626Q366.24167 317.16876 366.10104 316.8719Q365.97604 316.575 365.97604 315.6219L365.97604 312.04376L365.21042 312.04376L365.21042 311.23126L365.97604 311.23126L365.97604 309.6844L367.02292 309.0594L367.02292 311.23126L368.08542 311.23126L368.08542 312.04376L367.02292 312.04376L367.02292 315.6844Q367.02292 316.1375 367.0698 316.2625Q367.1323 316.3875 367.2573 316.46564Q367.3823 316.54376 367.61667 316.54376Q367.80417 316.54376 368.08542 316.5125ZM368.39792 314.34064Q368.39792 312.60626 369.35104 311.77814Q370.14792 311.09064 371.30417 311.09064Q372.58542 311.09064 373.39792 311.9344Q374.22604 312.7625 374.22604 314.2469Q374.22604 315.45 373.86667 316.1375Q373.5073 316.825 372.80417 317.21564Q372.11667 317.59064 371.30417 317.59064Q370.0073 317.59064 369.1948 316.7625Q368.39792 315.91876 368.39792 314.34064ZM369.47604 314.34064Q369.47604 315.52814 369.99167 316.1219Q370.52292 316.71564 371.30417 316.71564Q372.10104 316.71564 372.61667 316.1219Q373.1323 315.52814 373.1323 314.3094Q373.1323 313.15314 372.60104 312.5594Q372.08542 311.96564 371.30417 311.96564Q370.52292 311.96564 369.99167 312.5594Q369.47604 313.1375 369.47604 314.34064ZM376.7573 317.45L375.77292 317.45L375.77292 308.85626L376.83542 308.85626L376.83542 311.91876Q377.5073 311.09064 378.53854 311.09064Q379.11667 311.09064 379.61667 311.325Q380.1323 311.54376 380.46042 311.96564Q380.80417 312.3875 380.99167 312.98126Q381.17917 313.575 381.17917 314.2469Q381.17917 315.84064 380.3823 316.71564Q379.58542 317.59064 378.49167 317.59064Q377.3823 317.59064 376.7573 316.66876L376.7573 317.45ZM376.74167 314.29376Q376.74167 315.40314 377.05417 315.90314Q377.55417 316.71564 378.39792 316.71564Q379.08542 316.71564 379.58542 316.1219Q380.10104 315.52814 380.10104 314.325Q380.10104 313.10626 379.61667 312.52814Q379.1323 311.95 378.4448 311.95Q377.7573 311.95 377.24167 312.5594Q376.74167 313.15314 376.74167 314.29376ZM387.03854 315.45L388.1323 315.575Q387.8823 316.52814 387.17917 317.0594Q386.47604 317.59064 385.39792 317.59064Q384.03854 317.59064 383.22604 316.7469Q382.42917 315.90314 382.42917 314.3875Q382.42917 312.825 383.24167 311.96564Q384.05417 311.09064 385.33542 311.09064Q386.58542 311.09064 387.36667 311.9344Q388.16354 312.77814 388.16354 314.325Q388.16354 314.41876 388.16354 314.60626L383.52292 314.60626Q383.58542 315.6375 384.10104 316.1844Q384.61667 316.71564 385.39792 316.71564Q385.97604 316.71564 386.3823 316.41876Q386.80417 316.10626 387.03854 315.45ZM383.58542 313.7469L387.05417 313.7469Q386.99167 312.95 386.66354 312.5594Q386.14792 311.95 385.35104 311.95Q384.61667 311.95 384.11667 312.4344Q383.6323 312.91876 383.58542 313.7469ZM389.77292 317.45L389.77292 311.23126L390.72604 311.23126L390.72604 312.16876Q391.08542 311.5125 391.3823 311.3094Q391.6948 311.09064 392.0698 311.09064Q392.60104 311.09064 393.14792 311.41876L392.78854 312.40314Q392.39792 312.16876 392.02292 312.16876Q391.66354 312.16876 391.3823 312.3875Q391.11667 312.59064 391.0073 312.96564Q390.8198 313.52814 390.8198 314.1844L390.8198 317.45L389.77292 317.45Z" fill-rule="nonzero"/><path fill="#000000" d="M427.89688 317.45L427.89688 308.85626L429.05313 308.85626L433.56876 315.60626L433.56876 308.85626L434.6625 308.85626L434.6625 317.45L433.49063 317.45L428.975 310.7L428.975 317.45L427.89688 317.45ZM436.38126 314.34064Q436.38126 312.60626 437.33438 311.77814Q438.13126 311.09064 439.2875 311.09064Q440.56876 311.09064 441.38126 311.9344Q442.20938 312.7625 442.20938 314.2469Q442.20938 315.45 441.85 316.1375Q441.49063 316.825 440.7875 317.21564Q440.1 317.59064 439.2875 317.59064Q437.99063 317.59064 437.17813 316.7625Q436.38126 315.91876 436.38126 314.34064ZM437.45938 314.34064Q437.45938 315.52814 437.975 316.1219Q438.50626 316.71564 439.2875 316.71564Q440.08438 316.71564 440.6 316.1219Q441.11563 315.52814 441.11563 314.3094Q441.11563 313.15314 440.58438 312.5594Q440.06876 311.96564 439.2875 311.96564Q438.50626 311.96564 437.975 312.5594Q437.45938 313.1375 437.45938 314.34064ZM445.49063 317.45L443.13126 311.23126L444.24063 311.23126L445.58438 314.95Q445.7875 315.5594 445.975 316.2Q446.11563 315.71564 446.36563 315.02814L447.75626 311.23126L448.83438 311.23126L446.475 317.45L445.49063 317.45ZM453.02188 315.45L454.11563 315.575Q453.86563 316.52814 453.1625 317.0594Q452.45938 317.59064 451.38126 317.59064Q450.02188 317.59064 449.20938 316.7469Q448.4125 315.90314 448.4125 314.3875Q448.4125 312.825 449.225 311.96564Q450.0375 311.09064 451.31876 311.09064Q452.56876 311.09064 453.35 311.9344Q454.14688 312.77814 454.14688 314.325Q454.14688 314.41876 454.14688 314.60626L449.50626 314.60626Q449.56876 315.6375 450.08438 316.1844Q450.6 316.71564 451.38126 316.71564Q451.95938 316.71564 452.36563 316.41876Q452.7875 316.10626 453.02188 315.45ZM449.56876 313.7469L453.0375 313.7469Q452.975 312.95 452.64688 312.5594Q452.13126 311.95 451.33438 311.95Q450.6 311.95 450.1 312.4344Q449.61563 312.91876 449.56876 313.7469ZM455.77188 317.45L455.77188 311.23126L456.70938 311.23126L456.70938 312.10626Q457.00626 311.6375 457.49063 311.3719Q457.975 311.09064 458.6 311.09064Q459.2875 311.09064 459.725 311.3719Q460.17813 311.65314 460.35 312.16876Q461.1 311.09064 462.27188 311.09064Q463.20938 311.09064 463.69376 311.60626Q464.19376 312.10626 464.19376 313.1844L464.19376 317.45L463.14688 317.45L463.14688 313.52814Q463.14688 312.90314 463.0375 312.6219Q462.94376 312.34064 462.67813 312.16876Q462.4125 311.9969 462.0375 311.9969Q461.38126 311.9969 460.94376 312.4344Q460.52188 312.8719 460.52188 313.84064L460.52188 317.45L459.45938 317.45L459.45938 313.40314Q459.45938 312.7 459.19376 312.35626Q458.94376 311.9969 458.36563 311.9969Q457.9125 311.9969 457.5375 312.23126Q457.1625 312.46564 456.99063 312.91876Q456.81876 313.3719 456.81876 314.21564L456.81876 317.45L455.77188 317.45ZM467.74063 317.45L466.75626 317.45L466.75626 308.85626L467.81876 308.85626L467.81876 311.91876Q468.49063 311.09064 469.52188 311.09064Q470.1 311.09064 470.6 311.325Q471.11563 311.54376 471.44376 311.96564Q471.7875 312.3875 471.975 312.98126Q472.1625 313.575 472.1625 314.2469Q472.1625 315.84064 471.36563 316.71564Q470.56876 317.59064 469.475 317.59064Q468.36563 317.59064 467.74063 316.66876L467.74063 317.45ZM467.725 314.29376Q467.725 315.40314 468.0375 315.90314Q468.5375 316.71564 469.38126 316.71564Q470.06876 316.71564 470.56876 316.1219Q471.08438 315.52814 471.08438 314.325Q471.08438 313.10626 470.6 312.52814Q470.11563 311.95 469.42813 311.95Q468.74063 311.95 468.225 312.5594Q467.725 313.15314 467.725 314.29376ZM478.02188 315.45L479.11563 315.575Q478.86563 316.52814 478.1625 317.0594Q477.45938 317.59064 476.38126 317.59064Q475.02188 317.59064 474.20938 316.7469Q473.4125 315.90314 473.4125 314.3875Q473.4125 312.825 474.225 311.96564Q475.0375 311.09064 476.31876 311.09064Q477.56876 311.09064 478.35 311.9344Q479.14688 312.77814 479.14688 314.325Q479.14688 314.41876 479.14688 314.60626L474.50626 314.60626Q474.56876 315.6375 475.08438 316.1844Q475.6 316.71564 476.38126 316.71564Q476.95938 316.71564 477.36563 316.41876Q477.7875 316.10626 478.02188 315.45ZM474.56876 313.7469L478.0375 313.7469Q477.975 312.95 477.64688 312.5594Q477.13126 311.95 476.33438 311.95Q475.6 311.95 475.1 312.4344Q474.61563 312.91876 474.56876 313.7469ZM480.75626 317.45L480.75626 311.23126L481.70938 311.23126L481.70938 312.16876Q482.06876 311.5125 482.36563 311.3094Q482.67813 311.09064 483.05313 311.09064Q483.58438 311.09064 484.13126 311.41876L483.77188 312.40314Q483.38126 312.16876 483.00626 312.16876Q482.64688 312.16876 482.36563 312.3875Q482.1 312.59064 481.99063 312.96564Q481.80313 313.52814 481.80313 314.1844L481.80313 317.45L480.75626 317.45Z" fill-rule="nonzero"/><path fill="#000000" d="M511.38022 317.45L511.38022 308.85626L514.349 308.85626Q515.349 308.85626 515.88025 308.98126Q516.6146 309.15314 517.13025 309.59064Q517.81775 310.16876 518.1459 311.075Q518.4896 311.96564 518.4896 313.10626Q518.4896 314.09064 518.25525 314.84064Q518.0365 315.59064 517.6771 316.09064Q517.31775 316.59064 516.88025 316.8719Q516.4584 317.15314 515.8646 317.3094Q515.2709 317.45 514.4896 317.45L511.38022 317.45ZM512.5209 316.4344L514.349 316.4344Q515.2084 316.4344 515.69275 316.27814Q516.1771 316.1219 516.4584 315.825Q516.8646 315.4344 517.0834 314.7469Q517.31775 314.0594 517.31775 313.09064Q517.31775 311.7469 516.8646 311.02814Q516.4271 310.29376 515.8021 310.04376Q515.3334 309.8719 514.3334 309.8719L512.5209 309.8719L512.5209 316.4344ZM524.50525 315.45L525.599 315.575Q525.349 316.52814 524.6459 317.0594Q523.94275 317.59064 522.8646 317.59064Q521.50525 317.59064 520.69275 316.7469Q519.8959 315.90314 519.8959 314.3875Q519.8959 312.825 520.7084 311.96564Q521.5209 311.09064 522.8021 311.09064Q524.0521 311.09064 524.8334 311.9344Q525.63025 312.77814 525.63025 314.325Q525.63025 314.41876 525.63025 314.60626L520.9896 314.60626Q521.0521 315.6375 521.56775 316.1844Q522.0834 316.71564 522.8646 316.71564Q523.44275 316.71564 523.849 316.41876Q524.2709 316.10626 524.50525 315.45ZM521.0521 313.7469L524.5209 313.7469Q524.4584 312.95 524.13025 312.5594Q523.6146 311.95 522.81775 311.95Q522.0834 311.95 521.5834 312.4344Q521.099 312.91876 521.0521 313.7469ZM531.31775 315.16876L532.349 315.3094Q532.1771 316.3719 531.474 316.98126Q530.7709 317.59064 529.75525 317.59064Q528.474 317.59064 527.69275 316.7625Q526.9271 315.91876 526.9271 314.35626Q526.9271 313.35626 527.25525 312.60626Q527.599 311.84064 528.2709 311.46564Q528.9584 311.09064 529.7709 311.09064Q530.7709 311.09064 531.4115 311.60626Q532.06775 312.10626 532.25525 313.0594L531.224 313.21564Q531.0834 312.59064 530.7084 312.27814Q530.3334 311.95 529.8021 311.95Q529.00525 311.95 528.50525 312.52814Q528.00525 313.09064 528.00525 314.325Q528.00525 315.59064 528.4896 316.15314Q528.974 316.71564 529.7396 316.71564Q530.3646 316.71564 530.7709 316.34064Q531.19275 315.96564 531.31775 315.16876ZM537.50525 315.45L538.599 315.575Q538.349 316.52814 537.6459 317.0594Q536.94275 317.59064 535.8646 317.59064Q534.50525 317.59064 533.69275 316.7469Q532.8959 315.90314 532.8959 314.3875Q532.8959 312.825 533.7084 311.96564Q534.5209 311.09064 535.8021 311.09064Q537.0521 311.09064 537.8334 311.9344Q538.63025 312.77814 538.63025 314.325Q538.63025 314.41876 538.63025 314.60626L533.9896 314.60626Q534.0521 315.6375 534.56775 316.1844Q535.0834 316.71564 535.8646 316.71564Q536.44275 316.71564 536.849 316.41876Q537.2709 316.10626 537.50525 315.45ZM534.0521 313.7469L537.5209 313.7469Q537.4584 312.95 537.13025 312.5594Q536.6146 311.95 535.81775 311.95Q535.0834 311.95 534.5834 312.4344Q534.099 312.91876 534.0521 313.7469ZM540.25525 317.45L540.25525 311.23126L541.19275 311.23126L541.19275 312.10626Q541.4896 311.6375 541.974 311.3719Q542.4584 311.09064 543.0834 311.09064Q543.7709 311.09064 544.2084 311.3719Q544.6615 311.65314 544.8334 312.16876Q545.5834 311.09064 546.75525 311.09064Q547.69275 311.09064 548.1771 311.60626Q548.6771 312.10626 548.6771 313.1844L548.6771 317.45L547.63025 317.45L547.63025 313.52814Q547.63025 312.90314 547.5209 312.6219Q547.4271 312.34064 547.1615 312.16876Q546.8959 311.9969 546.5209 311.9969Q545.8646 311.9969 545.4271 312.4344Q545.00525 312.8719 545.00525 313.84064L545.00525 317.45L543.94275 317.45L543.94275 313.40314Q543.94275 312.7 543.6771 312.35626Q543.4271 311.9969 542.849 311.9969Q542.3959 311.9969 542.0209 312.23126Q541.6459 312.46564 541.474 312.91876Q541.3021 313.3719 541.3021 314.21564L541.3021 317.45L540.25525 317.45ZM552.224 317.45L551.2396 317.45L551.2396 308.85626L552.3021 308.85626L552.3021 311.91876Q552.974 311.09064 554.00525 311.09064Q554.5834 311.09064 555.0834 311.325Q555.599 311.54376 555.9271 311.96564Q556.2709 312.3875 556.4584 312.98126Q556.6459 313.575 556.6459 314.2469Q556.6459 315.84064 555.849 316.71564Q555.0521 317.59064 553.9584 317.59064Q552.849 317.59064 552.224 316.66876L552.224 317.45ZM552.2084 314.29376Q552.2084 315.40314 552.5209 315.90314Q553.0209 316.71564 553.8646 316.71564Q554.5521 316.71564 555.0521 316.1219Q555.56775 315.52814 555.56775 314.325Q555.56775 313.10626 555.0834 312.52814Q554.599 311.95 553.9115 311.95Q553.224 311.95 552.7084 312.5594Q552.2084 313.15314 552.2084 314.29376ZM562.50525 315.45L563.599 315.575Q563.349 316.52814 562.6459 317.0594Q561.94275 317.59064 560.8646 317.59064Q559.50525 317.59064 558.69275 316.7469Q557.8959 315.90314 557.8959 314.3875Q557.8959 312.825 558.7084 311.96564Q559.5209 311.09064 560.8021 311.09064Q562.0521 311.09064 562.8334 311.9344Q563.63025 312.77814 563.63025 314.325Q563.63025 314.41876 563.63025 314.60626L558.9896 314.60626Q559.0521 315.6375 559.56775 316.1844Q560.0834 316.71564 560.8646 316.71564Q561.44275 316.71564 561.849 316.41876Q562.2709 316.10626 562.50525 315.45ZM559.0521 313.7469L562.5209 313.7469Q562.4584 312.95 562.13025 312.5594Q561.6146 311.95 560.81775 311.95Q560.0834 311.95 559.5834 312.4344Q559.099 312.91876 559.0521 313.7469ZM565.2396 317.45L565.2396 311.23126L566.19275 311.23126L566.19275 312.16876Q566.5521 311.5125 566.849 311.3094Q567.1615 311.09064 567.5365 311.09064Q568.06775 311.09064 568.6146 311.41876L568.25525 312.40314Q567.8646 312.16876 567.4896 312.16876Q567.13025 312.16876 566.849 312.3875Q566.5834 312.59064 566.474 312.96564Q566.2865 313.52814 566.2865 314.1844L566.2865 317.45L565.2396 317.45Z" fill-rule="nonzero"/><path fill="#757575" d="M18.51875 37.55L24.01875 23.2375L26.065624 23.2375L31.925 37.55L29.76875 37.55L28.096874 33.20625L22.1125 33.20625L20.534374 37.55L18.51875 37.55ZM22.659374 31.675L27.503124 31.675L26.01875 27.70625Q25.33125 25.89375 25.003124 24.7375Q24.721874 26.1125 24.221874 27.471874L22.659374 31.675ZM35.753124 37.55L31.8 27.175L33.659374 27.175L35.89375 33.39375Q36.253124 34.39375 36.55 35.471874Q36.784374 34.659374 37.20625 33.503124L39.503124 27.175L41.315624 27.175L37.39375 37.55L35.753124 37.55ZM41.55 38.409374L43.253124 38.659374Q43.3625 39.45625 43.846874 39.815624Q44.503124 40.3 45.64375 40.3Q46.8625 40.3 47.51875 39.815624Q48.190624 39.33125 48.425 38.45625Q48.565624 37.909374 48.55 36.190624Q47.39375 37.55 45.675 37.55Q43.534374 37.55 42.3625 36.003124Q41.190624 34.45625 41.190624 32.3Q41.190624 30.815624 41.721874 29.565624Q42.26875 28.315624 43.284374 27.628124Q44.315624 26.940624 45.690624 26.940624Q47.51875 26.940624 48.721874 28.425L48.721874 27.175L50.33125 27.175L50.33125 36.14375Q50.33125 38.565624 49.83125 39.565624Q49.346874 40.58125 48.26875 41.159374Q47.20625 41.753124 45.64375 41.753124Q43.8 41.753124 42.64375 40.925Q41.503124 40.096874 41.55 38.409374ZM43.003124 32.175Q43.003124 34.221874 43.815624 35.159374Q44.628124 36.096874 45.846874 36.096874Q47.05 36.096874 47.8625 35.159374Q48.690624 34.221874 48.690624 32.2375Q48.690624 30.33125 47.846874 29.3625Q47.003124 28.39375 45.815624 28.39375Q44.64375 28.39375 43.815624 29.346874Q43.003124 30.3 43.003124 32.175ZM62.7375 37.55L62.7375 24.925L58.01875 24.925L58.01875 23.2375L69.3625 23.2375L69.3625 24.925L64.62813 24.925L64.62813 37.55L62.7375 37.55ZM70.22188 32.3625Q70.22188 29.4875 71.81563 28.096874Q73.15938 26.940624 75.08125 26.940624Q77.22188 26.940624 78.56563 28.346874Q79.925 29.753124 79.925 32.221874Q79.925 34.221874 79.33125 35.378124Q78.7375 36.51875 77.58125 37.159374Q76.44063 37.784374 75.08125 37.784374Q72.89375 37.784374 71.55 36.39375Q70.22188 34.9875 70.22188 32.3625ZM72.01875 32.3625Q72.01875 34.3625 72.87813 35.346874Q73.75313 36.33125 75.08125 36.33125Q76.39375 36.33125 77.25313 35.346874Q78.12813 34.346874 78.12813 32.3Q78.12813 30.378124 77.25313 29.39375Q76.37813 28.39375 75.08125 28.39375Q73.75313 28.39375 72.87813 29.39375Q72.01875 30.378124 72.01875 32.3625ZM85.70625 35.971874L85.95625 37.534374Q85.22188 37.690624 84.62813 37.690624Q83.675 37.690624 83.14375 37.39375Q82.62813 37.08125 82.40938 36.596874Q82.19063 36.096874 82.19063 34.51875L82.19063 28.55L80.90938 28.55L80.90938 27.175L82.19063 27.175L82.19063 24.6125L83.94063 23.55L83.94063 27.175L85.70625 27.175L85.70625 28.55L83.94063 28.55L83.94063 34.6125Q83.94063 35.3625 84.03438 35.58125Q84.12813 35.784374 84.33125 35.925Q84.55 36.05 84.94063 36.05Q85.22188 36.05 85.70625 35.971874ZM94.64375 36.26875Q93.65938 37.096874 92.75313 37.440624Q91.84688 37.784374 90.81563 37.784374Q89.1125 37.784374 88.19063 36.95625Q87.26875 36.1125 87.26875 34.815624Q87.26875 34.05 87.6125 33.425Q87.97188 32.8 88.53438 32.425Q89.09688 32.034374 89.8 31.83125Q90.31563 31.70625 91.3625 31.565624Q93.4875 31.315624 94.4875 30.971874Q94.50313 30.6125 94.50313 30.503124Q94.50313 29.440624 94.00313 28.9875Q93.33125 28.39375 92.00313 28.39375Q90.75313 28.39375 90.15938 28.83125Q89.58125 29.26875 89.3 30.378124L87.58125 30.14375Q87.81563 29.034374 88.34688 28.3625Q88.87813 27.675 89.89375 27.315624Q90.90938 26.940624 92.25313 26.940624Q93.58125 26.940624 94.40938 27.253124Q95.2375 27.565624 95.62813 28.05Q96.01875 28.51875 96.175 29.2375Q96.26875 29.690624 96.26875 30.8625L96.26875 33.20625Q96.26875 35.659374 96.37813 36.315624Q96.4875 36.95625 96.83125 37.55L94.9875 37.55Q94.72188 37.003124 94.64375 36.26875ZM94.4875 32.346874Q93.53438 32.7375 91.6125 33.003124Q90.53438 33.159374 90.08125 33.3625Q89.64375 33.55 89.39375 33.925Q89.14375 34.3 89.14375 34.76875Q89.14375 35.471874 89.675 35.940624Q90.20625 36.409374 91.2375 36.409374Q92.25313 36.409374 93.03438 35.971874Q93.83125 35.51875 94.20625 34.753124Q94.4875 34.14375 94.4875 32.9875L94.4875 32.346874ZM98.83125 37.55L98.83125 23.2375L100.58125 23.2375L100.58125 37.55L98.83125 37.55ZM109.12813 37.55L109.12813 23.2375L119.4875 23.2375L119.4875 24.925L111.03438 24.925L111.03438 29.3L118.94063 29.3L118.94063 30.9875L111.03438 30.9875L111.03438 35.8625L119.81563 35.8625L119.81563 37.55L109.12813 37.55ZM128.64375 36.26875Q127.65938 37.096874 126.75313 37.440624Q125.84688 37.784374 124.81563 37.784374Q123.1125 37.784374 122.19063 36.95625Q121.26875 36.1125 121.26875 34.815624Q121.26875 34.05 121.6125 33.425Q121.97188 32.8 122.53438 32.425Q123.09688 32.034374 123.8 31.83125Q124.31563 31.70625 125.3625 31.565624Q127.4875 31.315624 128.4875 30.971874Q128.50313 30.6125 128.50313 30.503124Q128.50313 29.440624 128.00313 28.9875Q127.33125 28.39375 126.00313 28.39375Q124.75313 28.39375 124.15938 28.83125Q123.58125 29.26875 123.3 30.378124L121.58125 30.14375Q121.81563 29.034374 122.34688 28.3625Q122.87813 27.675 123.89375 27.315624Q124.90938 26.940624 126.25313 26.940624Q127.58125 26.940624 128.40938 27.253124Q129.2375 27.565624 129.62813 28.05Q130.01875 28.51875 130.175 29.2375Q130.26875 29.690624 130.26875 30.8625L130.26875 33.20625Q130.26875 35.659374 130.37813 36.315624Q130.4875 36.95625 130.83125 37.55L128.9875 37.55Q128.72188 37.003124 128.64375 36.26875ZM128.4875 32.346874Q127.53438 32.7375 125.6125 33.003124Q124.53438 33.159374 124.08125 33.3625Q123.64375 33.55 123.39375 33.925Q123.14375 34.3 123.14375 34.76875Q123.14375 35.471874 123.675 35.940624Q124.20625 36.409374 125.2375 36.409374Q126.25313 36.409374 127.03438 35.971874Q127.83125 35.51875 128.20625 34.753124Q128.4875 34.14375 128.4875 32.9875L128.4875 32.346874ZM132.84688 37.55L132.84688 27.175L134.425 27.175L134.425 28.753124Q135.03438 27.64375 135.55 27.3Q136.06563 26.940624 136.675 26.940624Q137.56563 26.940624 138.4875 27.503124L137.87813 29.14375Q137.2375 28.753124 136.59688 28.753124Q136.01875 28.753124 135.55 29.1125Q135.09688 29.45625 134.89375 30.065624Q134.6125 31.003124 134.6125 32.1125L134.6125 37.55L132.84688 37.55ZM139.8625 37.55L139.8625 27.175L141.45625 27.175L141.45625 28.659374Q142.59688 26.940624 144.75313 26.940624Q145.69063 26.940624 146.47188 27.284374Q147.26875 27.6125 147.65938 28.159374Q148.05 28.70625 148.20625 29.45625Q148.3 29.95625 148.3 31.175L148.3 37.55L146.53438 37.55L146.53438 31.2375Q146.53438 30.159374 146.33125 29.628124Q146.12813 29.096874 145.59688 28.784374Q145.08125 28.471874 144.37813 28.471874Q143.25313 28.471874 142.44063 29.190624Q141.62813 29.89375 141.62813 31.878124L141.62813 37.55L139.8625 37.55ZM149.87813 25.253124L149.87813 23.2375L151.64375 23.2375L151.64375 25.253124L149.87813 25.253124ZM149.87813 37.55L149.87813 27.175L151.64375 27.175L151.64375 37.55L149.87813 37.55ZM153.8625 37.55L153.8625 27.175L155.45625 27.175L155.45625 28.659374Q156.59688 26.940624 158.75313 26.940624Q159.69063 26.940624 160.47188 27.284374Q161.26875 27.6125 161.65938 28.159374Q162.05 28.70625 162.20625 29.45625Q162.3 29.95625 162.3 31.175L162.3 37.55L160.53438 37.55L160.53438 31.2375Q160.53438 30.159374 160.33125 29.628124Q160.12813 29.096874 159.59688 28.784374Q159.08125 28.471874 158.37813 28.471874Q157.25313 28.471874 156.44063 29.190624Q155.62813 29.89375 155.62813 31.878124L155.62813 37.55L153.8625 37.55ZM163.55 38.409374L165.25313 38.659374Q165.3625 39.45625 165.84688 39.815624Q166.50313 40.3 167.64375 40.3Q168.8625 40.3 169.51875 39.815624Q170.19063 39.33125 170.425 38.45625Q170.56563 37.909374 170.55 36.190624Q169.39375 37.55 167.675 37.55Q165.53438 37.55 164.3625 36.003124Q163.19063 34.45625 163.19063 32.3Q163.19063 30.815624 163.72188 29.565624Q164.26875 28.315624 165.28438 27.628124Q166.31563 26.940624 167.69063 26.940624Q169.51875 26.940624 170.72188 28.425L170.72188 27.175L172.33125 27.175L172.33125 36.14375Q172.33125 38.565624 171.83125 39.565624Q171.34688 40.58125 170.26875 41.159374Q169.20625 41.753124 167.64375 41.753124Q165.8 41.753124 164.64375 40.925Q163.50313 40.096874 163.55 38.409374ZM165.00313 32.175Q165.00313 34.221874 165.81563 35.159374Q166.62813 36.096874 167.84688 36.096874Q169.05 36.096874 169.8625 35.159374Q170.69063 34.221874 170.69063 32.2375Q170.69063 30.33125 169.84688 29.3625Q169.00313 28.39375 167.81563 28.39375Q166.64375 28.39375 165.81563 29.346874Q165.00313 30.3 165.00313 32.175ZM174.15938 34.45625L175.90938 34.175Q176.05 35.221874 176.72188 35.784374Q177.39375 36.33125 178.59688 36.33125Q179.8 36.33125 180.37813 35.846874Q180.97188 35.346874 180.97188 34.690624Q180.97188 34.096874 180.45625 33.753124Q180.09688 33.51875 178.65938 33.159374Q176.72188 32.659374 175.97188 32.315624Q175.2375 31.95625 174.84688 31.33125Q174.45625 30.690624 174.45625 29.925Q174.45625 29.2375 174.76875 28.64375Q175.09688 28.05 175.64375 27.659374Q176.05 27.3625 176.75313 27.159374Q177.47188 26.940624 178.28438 26.940624Q179.50313 26.940624 180.425 27.3Q181.34688 27.64375 181.78438 28.253124Q182.22188 28.846874 182.39375 29.846874L180.675 30.08125Q180.55 29.284374 179.9875 28.846874Q179.425 28.39375 178.40938 28.39375Q177.19063 28.39375 176.675 28.8Q176.15938 29.190624 176.15938 29.721874Q176.15938 30.065624 176.37813 30.346874Q176.58125 30.628124 177.05 30.815624Q177.31563 30.909374 178.59688 31.253124Q180.47188 31.753124 181.20625 32.08125Q181.94063 32.39375 182.3625 33.003124Q182.78438 33.596874 182.78438 34.503124Q182.78438 35.378124 182.26875 36.159374Q181.75313 36.940624 180.78438 37.3625Q179.81563 37.784374 178.59688 37.784374Q176.58125 37.784374 175.51875 36.940624Q174.45625 36.096874 174.15938 34.45625ZM190.8625 41.51875L190.8625 27.175L192.47188 27.175L192.47188 28.51875Q193.03438 27.7375 193.7375 27.346874Q194.45625 26.940624 195.47188 26.940624Q196.8 26.940624 197.81563 27.628124Q198.83125 28.315624 199.34688 29.565624Q199.87813 30.8 199.87813 32.284374Q199.87813 33.878124 199.3 35.159374Q198.7375 36.425 197.64375 37.1125Q196.55 37.784374 195.34688 37.784374Q194.47188 37.784374 193.76875 37.409374Q193.08125 37.034374 192.62813 36.471874L192.62813 41.51875L190.8625 41.51875ZM192.45625 32.425Q192.45625 34.425 193.26875 35.378124Q194.08125 36.33125 195.2375 36.33125Q196.40938 36.33125 197.2375 35.346874Q198.08125 34.3625 198.08125 32.26875Q198.08125 30.3 197.25313 29.315624Q196.44063 28.315624 195.31563 28.315624Q194.19063 28.315624 193.31563 29.378124Q192.45625 30.425 192.45625 32.425ZM208.97188 34.20625L210.78438 34.440624Q210.3625 36.01875 209.19063 36.909374Q208.03438 37.784374 206.22188 37.784374Q203.95625 37.784374 202.6125 36.39375Q201.28438 34.9875 201.28438 32.45625Q201.28438 29.83125 202.62813 28.39375Q203.97188 26.940624 206.12813 26.940624Q208.20625 26.940624 209.51875 28.3625Q210.84688 29.76875 210.84688 32.346874Q210.84688 32.503124 210.83125 32.815624L203.09688 32.815624Q203.19063 34.51875 204.06563 35.425Q204.94063 36.33125 206.2375 36.33125Q207.20625 36.33125 207.87813 35.83125Q208.56563 35.315624 208.97188 34.20625ZM203.19063 31.3625L208.9875 31.3625Q208.87813 30.065624 208.33125 29.409374Q207.4875 28.39375 206.14375 28.39375Q204.94063 28.39375 204.1125 29.20625Q203.28438 30.003124 203.19063 31.3625ZM212.84688 37.55L212.84688 27.175L214.425 27.175L214.425 28.753124Q215.03438 27.64375 215.55 27.3Q216.06563 26.940624 216.675 26.940624Q217.56563 26.940624 218.4875 27.503124L217.87813 29.14375Q217.2375 28.753124 216.59688 28.753124Q216.01875 28.753124 215.55 29.1125Q215.09688 29.45625 214.89375 30.065624Q214.6125 31.003124 214.6125 32.1125L214.6125 37.55L212.84688 37.55ZM226.08125 37.55L226.08125 23.2375L228.01875 23.2375L235.53438 34.471874L235.53438 23.2375L237.34688 23.2375L237.34688 37.55L235.40938 37.55L227.89375 26.3L227.89375 37.55L226.08125 37.55ZM238.22188 32.3625Q238.22188 29.4875 239.81563 28.096874Q241.15938 26.940624 243.08125 26.940624Q245.22188 26.940624 246.56563 28.346874Q247.925 29.753124 247.925 32.221874Q247.925 34.221874 247.33125 35.378124Q246.7375 36.51875 245.58125 37.159374Q244.44063 37.784374 243.08125 37.784374Q240.89375 37.784374 239.55 36.39375Q238.22188 34.9875 238.22188 32.3625ZM240.01875 32.3625Q240.01875 34.3625 240.87813 35.346874Q241.75313 36.33125 243.08125 36.33125Q244.39375 36.33125 245.25313 35.346874Q246.12813 34.346874 246.12813 32.3Q246.12813 30.378124 245.25313 29.39375Q244.37813 28.39375 243.08125 28.39375Q241.75313 28.39375 240.87813 29.39375Q240.01875 30.378124 240.01875 32.3625ZM256.59686 37.55L256.59686 36.2375Q255.6125 37.784374 253.69063 37.784374Q252.45625 37.784374 251.40938 37.096874Q250.37813 36.409374 249.8 35.190624Q249.2375 33.971874 249.2375 32.378124Q249.2375 30.815624 249.75313 29.55Q250.26875 28.284374 251.3 27.6125Q252.34688 26.940624 253.6125 26.940624Q254.55 26.940624 255.28438 27.346874Q256.01874 27.7375 256.4875 28.3625L256.4875 23.2375L258.22186 23.2375L258.22186 37.55L256.59686 37.55ZM251.03438 32.378124Q251.03438 34.3625 251.87813 35.346874Q252.72188 36.33125 253.8625 36.33125Q255.01875 36.33125 255.81563 35.39375Q256.6281 34.45625 256.6281 32.51875Q256.6281 30.39375 255.8 29.39375Q254.9875 28.39375 253.78438 28.39375Q252.6125 28.39375 251.81563 29.3625Q251.03438 30.315624 251.03438 32.378124ZM267.97186 34.20625L269.78436 34.440624Q269.3625 36.01875 268.1906 36.909374Q267.03436 37.784374 265.22186 37.784374Q262.95624 37.784374 261.6125 36.39375Q260.28436 34.9875 260.28436 32.45625Q260.28436 29.83125 261.6281 28.39375Q262.97186 26.940624 265.1281 26.940624Q267.20624 26.940624 268.51874 28.3625Q269.84686 29.76875 269.84686 32.346874Q269.84686 32.503124 269.83124 32.815624L262.09686 32.815624Q262.1906 34.51875 263.0656 35.425Q263.9406 36.33125 265.2375 36.33125Q266.20624 36.33125 266.8781 35.83125Q267.5656 35.315624 267.97186 34.20625ZM262.1906 31.3625L267.9875 31.3625Q267.8781 30.065624 267.33124 29.409374Q266.4875 28.39375 265.14374 28.39375Q263.9406 28.39375 263.1125 29.20625Q262.28436 30.003124 262.1906 31.3625ZM281.22186 41.753124Q279.76874 39.925 278.76874 37.471874Q277.76874 35.003124 277.76874 32.3625Q277.76874 30.034374 278.51874 27.909374Q279.39374 25.440624 281.22186 22.9875L282.4875 22.9875Q281.3 25.01875 280.925 25.89375Q280.33124 27.2375 279.9875 28.70625Q279.5656 30.534374 279.5656 32.378124Q279.5656 37.065624 282.4875 41.753124L281.22186 41.753124ZM283.6906 37.55L287.4875 32.159374L283.9875 27.175L286.175 27.175L287.76874 29.6125Q288.22186 30.3 288.4875 30.76875Q288.925 30.128124 289.28436 29.628124L291.03436 27.175L293.1281 27.175L289.55 32.065624L293.40936 37.55L291.2531 37.55L289.1125 34.33125L288.55 33.45625L285.83124 37.55L283.6906 37.55ZM294.01874 37.55L294.01874 23.2375L299.39374 23.2375Q301.03436 23.2375 302.01874 23.675Q303.0031 24.096874 303.5656 25.003124Q304.1281 25.909374 304.1281 26.89375Q304.1281 27.815624 303.6281 28.628124Q303.14374 29.440624 302.1281 29.925Q303.425 30.315624 304.1281 31.2375Q304.83124 32.14375 304.83124 33.39375Q304.83124 34.409374 304.39374 35.26875Q303.97186 36.128124 303.34686 36.596874Q302.72186 37.065624 301.78436 37.315624Q300.84686 37.55 299.47186 37.55L294.01874 37.55ZM295.90936 29.253124L299.0031 29.253124Q300.26874 29.253124 300.8156 29.08125Q301.53436 28.8625 301.89374 28.378124Q302.26874 27.878124 302.26874 27.1125Q302.26874 26.409374 301.925 25.8625Q301.58124 25.315624 300.9406 25.128124Q300.3156 24.925 298.76874 24.925L295.90936 24.925L295.90936 29.253124ZM295.90936 35.8625L299.47186 35.8625Q300.39374 35.8625 300.76874 35.784374Q301.425 35.675 301.8625 35.409374Q302.3 35.128124 302.58124 34.6125Q302.8625 34.08125 302.8625 33.39375Q302.8625 32.596874 302.45624 32.003124Q302.05 31.409374 301.3156 31.175Q300.58124 30.940624 299.22186 30.940624L295.90936 30.940624L295.90936 35.8625ZM305.95624 37.55L305.95624 35.784374L313.28436 26.628124Q314.0656 25.64375 314.76874 24.925L306.78436 24.925L306.78436 23.2375L317.03436 23.2375L317.03436 24.925L309.0031 34.846874L308.1281 35.8625L317.26874 35.8625L317.26874 37.55L305.95624 37.55ZM317.95624 37.55L317.95624 35.784374L325.28436 26.628124Q326.0656 25.64375 326.76874 24.925L318.78436 24.925L318.78436 23.2375L329.03436 23.2375L329.03436 24.925L321.0031 34.846874L320.1281 35.8625L329.26874 35.8625L329.26874 37.55L317.95624 37.55ZM332.01874 41.753124L330.76874 41.753124Q333.675 37.065624 333.675 32.378124Q333.675 30.534374 333.26874 28.7375Q332.925 27.26875 332.33124 25.925Q331.95624 25.034374 330.76874 22.9875L332.01874 22.9875Q333.8625 25.440624 334.7375 27.909374Q335.4875 30.034374 335.4875 32.3625Q335.4875 35.003124 334.47186 37.471874Q333.47186 39.925 332.01874 41.753124ZM346.7531 37.55L342.8 27.175L344.65936 27.175L346.89374 33.39375Q347.2531 34.39375 347.55 35.471874Q347.78436 34.659374 348.20624 33.503124L350.5031 27.175L352.3156 27.175L348.39374 37.55L346.7531 37.55ZM352.15936 34.45625L353.90936 34.175Q354.05 35.221874 354.72186 35.784374Q355.39374 36.33125 356.59686 36.33125Q357.8 36.33125 358.3781 35.846874Q358.97186 35.346874 358.97186 34.690624Q358.97186 34.096874 358.45624 33.753124Q358.09686 33.51875 356.65936 33.159374Q354.72186 32.659374 353.97186 32.315624Q353.2375 31.95625 352.84686 31.33125Q352.45624 30.690624 352.45624 29.925Q352.45624 29.2375 352.76874 28.64375Q353.09686 28.05 353.64374 27.659374Q354.05 27.3625 354.7531 27.159374Q355.47186 26.940624 356.28436 26.940624Q357.5031 26.940624 358.425 27.3Q359.34686 27.64375 359.78436 28.253124Q360.22186 28.846874 360.39374 29.846874L358.675 30.08125Q358.55 29.284374 357.9875 28.846874Q357.425 28.39375 356.40936 28.39375Q355.1906 28.39375 354.675 28.8Q354.15936 29.190624 354.15936 29.721874Q354.15936 30.065624 354.3781 30.346874Q354.58124 30.628124 355.05 30.815624Q355.3156 30.909374 356.59686 31.253124Q358.47186 31.753124 359.20624 32.08125Q359.9406 32.39375 360.3625 33.003124Q360.78436 33.596874 360.78436 34.503124Q360.78436 35.378124 360.26874 36.159374Q359.7531 36.940624 358.78436 37.3625Q357.8156 37.784374 356.59686 37.784374Q354.58124 37.784374 353.51874 36.940624Q352.45624 36.096874 352.15936 34.45625ZM363.3625 37.55L363.3625 35.55L365.3625 35.55L365.3625 37.55L363.3625 37.55ZM375.03436 37.55L375.03436 23.2375L377.89374 23.2375L381.26874 33.3625Q381.7375 34.784374 381.95624 35.4875Q382.20624 34.70625 382.72186 33.190624L386.14374 23.2375L388.6906 23.2375L388.6906 37.55L386.8781 37.55L386.8781 25.565624L382.70624 37.55L381.0031 37.55L376.8625 25.3625L376.8625 37.55L375.03436 37.55ZM391.22186 32.3625Q391.22186 29.4875 392.8156 28.096874Q394.15936 26.940624 396.08124 26.940624Q398.22186 26.940624 399.5656 28.346874Q400.925 29.753124 400.925 32.221874Q400.925 34.221874 400.33124 35.378124Q399.7375 36.51875 398.58124 37.159374Q397.4406 37.784374 396.08124 37.784374Q393.89374 37.784374 392.55 36.39375Q391.22186 34.9875 391.22186 32.3625ZM393.01874 32.3625Q393.01874 34.3625 393.8781 35.346874Q394.7531 36.33125 396.08124 36.33125Q397.39374 36.33125 398.2531 35.346874Q399.1281 34.346874 399.1281 32.3Q399.1281 30.378124 398.2531 29.39375Q397.3781 28.39375 396.08124 28.39375Q394.7531 28.39375 393.8781 29.39375Q393.01874 30.378124 393.01874 32.3625ZM402.8625 37.55L402.8625 27.175L404.45624 27.175L404.45624 28.659374Q405.59686 26.940624 407.7531 26.940624Q408.6906 26.940624 409.47186 27.284374Q410.26874 27.6125 410.65936 28.159374Q411.05 28.70625 411.20624 29.45625Q411.3 29.95625 411.3 31.175L411.3 37.55L409.53436 37.55L409.53436 31.2375Q409.53436 30.159374 409.33124 29.628124Q409.1281 29.096874 408.59686 28.784374Q408.08124 28.471874 407.3781 28.471874Q406.2531 28.471874 405.4406 29.190624Q404.6281 29.89375 404.6281 31.878124L404.6281 37.55L402.8625 37.55ZM416.70624 35.971874L416.95624 37.534374Q416.22186 37.690624 415.6281 37.690624Q414.675 37.690624 414.14374 37.39375Q413.6281 37.08125 413.40936 36.596874Q413.1906 36.096874 413.1906 34.51875L413.1906 28.55L411.90936 28.55L411.90936 27.175L413.1906 27.175L413.1906 24.6125L414.9406 23.55L414.9406 27.175L416.70624 27.175L416.70624 28.55L414.9406 28.55L414.9406 34.6125Q414.9406 35.3625 415.03436 35.58125Q415.1281 35.784374 415.33124 35.925Q415.55 36.05 415.9406 36.05Q416.22186 36.05 416.70624 35.971874ZM418.8625 37.55L418.8625 23.2375L420.6281 23.2375L420.6281 28.3625Q421.8625 26.940624 423.7375 26.940624Q424.8781 26.940624 425.72186 27.39375Q426.58124 27.846874 426.9406 28.659374Q427.3156 29.45625 427.3156 30.971874L427.3156 37.55L425.5656 37.55L425.5656 30.971874Q425.5656 29.659374 424.9875 29.065624Q424.40936 28.45625 423.3781 28.45625Q422.59686 28.45625 421.89374 28.8625Q421.20624 29.26875 420.90936 29.971874Q420.6281 30.659374 420.6281 31.878124L420.6281 37.55L418.8625 37.55Z" fill-rule="nonzero"/></svg>