<svg version="1.1" viewBox="0.0 0.0 600.0 371.0" fill="none" stroke="none" stroke-linecap="square" stroke-miterlimit="10" width="600" height="371" xmlns:xlink="http://www.w3.org/1999/xlink" xmlns="http://www.w3.org/2000/svg"><path fill="#ffffff" d="M0 0L600.0 0L600.0 371.0L0 371.0L0 0Z" fill-rule="nonzero"/><path stroke="#333333" stroke-width="1.0" stroke-linecap="butt" d="M87.5 300.5L581.5 300.5" fill-rule="nonzero"/><path stroke="#cccccc" stroke-width="1.0" stroke-linecap="butt" d="M87.5 220.5L581.5 220.5" fill-rule="nonzero"/><path stroke="#cccccc" stroke-width="1.0" stroke-linecap="butt" d="M87.5 141.5L581.5 141.5" fill-rule="nonzero"/><path stroke="#cccccc" stroke-width="1.0" stroke-linecap="butt" d="M87.5 61.5L581.5 61.5" fill-rule="nonzero"/><clipPath id="id_0"><path d="M87.55 61.916668L581.45 61.916668L581.45 300.45L87.55 300.45L87.55 61.916668Z" clip-rule="nonzero"/></clipPath><path stroke="#4285f4" stroke-width="2.0" stroke-linecap="butt" clip-path="url(#id_0)" d="M128.70833 91.97187L211.025 80.28373L293.34167 111.29307L375.65833 94.67525L457.975 94.67525L540.2917 92.84649" fill-rule="nonzero"/><path fill="#000000" fill-opacity="0.0" clip-path="url(#id_0)" d="M131.70833 91.97187C131.70833 93.62872 130.36519 94.97187 128.70833 94.97187C127.051476 94.97187 125.708336 93.62872 125.708336 91.97187C125.708336 90.31501 127.051476 88.97187 128.70833 88.97187C130.36519 88.97187 131.70833 90.31501 131.70833 91.97187Z" fill-rule="nonzero"/><path fill="#000000" fill-opacity="0.0" clip-path="url(#id_0)" d="M214.025 80.28373C214.025 81.94059 212.68185 83.28373 211.025 83.28373C209.36815 83.28373 208.025 81.94059 208.025 80.28373C208.025 78.62688 209.36815 77.28373 211.025 77.28373C212.68185 77.28373 214.025 78.62688 214.025 80.28373Z" fill-rule="nonzero"/><path fill="#000000" fill-opacity="0.0" clip-path="url(#id_0)" d="M296.34167 111.29307C296.34167 112.94992 294.99854 114.29307 293.34167 114.29307C291.6848 114.29307 290.34167 112.94992 290.34167 111.29307C290.34167 109.636215 291.6848 108.29307 293.34167 108.29307C294.99854 108.29307 296.34167 109.636215 296.34167 111.29307Z" fill-rule="nonzero"/><path fill="#000000" fill-opacity="0.0" clip-path="url(#id_0)" d="M378.65833 94.67525C378.65833 96.3321 377.3152 97.67525 375.65833 97.67525C374.00146 97.67525 372.65833 96.3321 372.65833 94.67525C372.65833 93.01839 374.00146 91.67525 375.65833 91.67525C377.3152 91.67525 378.65833 93.01839 378.65833 94.67525Z" fill-rule="nonzero"/><path fill="#000000" fill-opacity="0.0" clip-path="url(#id_0)" d="M460.975 94.67525C460.975 96.3321 459.63187 97.67525 457.975 97.67525C456.31815 97.67525 454.975 96.3321 454.975 94.67525C454.975 93.01839 456.31815 91.67525 457.975 91.67525C459.63187 91.67525 460.975 93.01839 460.975 94.67525Z" fill-rule="nonzero"/><path fill="#000000" fill-opacity="0.0" clip-path="url(#id_0)" d="M543.2917 92.84649C543.2917 94.50334 541.94855 95.84649 540.2917 95.84649C538.6348 95.84649 537.2917 94.50334 537.2917 92.84649C537.2917 91.18964 538.6348 89.84649 540.2917 89.84649C541.94855 89.84649 543.2917 91.18964 543.2917 92.84649Z" fill-rule="nonzero"/><path fill="#000000" d="M318.89062 349.45L318.89062 340.85626L320.60938 340.85626L322.64062 346.9344Q322.92188 347.79376 323.04688 348.21564Q323.1875 347.7469 323.5 346.84064L325.5625 340.85626L327.09375 340.85626L327.09375 349.45L326.0 349.45L326.0 342.2625L323.5 349.45L322.46875 349.45L319.98438 342.1375L319.98438 349.45L318.89062 349.45ZM327.40625 346.34064Q327.40625 344.60626 328.35938 343.77814Q329.15625 343.09064 330.3125 343.09064Q331.59375 343.09064 332.40625 343.9344Q333.23438 344.7625 333.23438 346.2469Q333.23438 347.45 332.875 348.1375Q332.51562 348.825 331.8125 349.21564Q331.125 349.59064 330.3125 349.59064Q329.01562 349.59064 328.20312 348.7625Q327.40625 347.91876 327.40625 346.34064ZM328.48438 346.34064Q328.48438 347.52814 329.0 348.1219Q329.53125 348.71564 330.3125 348.71564Q331.10938 348.71564 331.625 348.1219Q332.14062 347.52814 332.14062 346.3094Q332.14062 345.15314 331.60938 344.5594Q331.09375 343.96564 330.3125 343.96564Q329.53125 343.96564 329.0 344.5594Q328.48438 345.1375 328.48438 346.34064ZM334.79688 349.45L334.79688 343.23126L335.73438 343.23126L335.73438 344.10626Q336.42188 343.09064 337.71875 343.09064Q338.28125 343.09064 338.75 343.29376Q339.23438 343.4969 339.46875 343.825Q339.70312 344.15314 339.79688 344.59064Q339.84375 344.8875 339.84375 345.6219L339.84375 349.45L338.79688 349.45L338.79688 345.66876Q338.79688 345.0125 338.67188 344.7Q338.54688 344.3875 338.23438 344.2Q337.92188 343.9969 337.5 343.9969Q336.82812 343.9969 336.32812 344.4344Q335.84375 344.85626 335.84375 346.04376L335.84375 349.45L334.79688 349.45ZM344.09375 348.5125L344.25 349.4344Q343.79688 349.52814 343.45312 349.52814Q342.875 349.52814 342.5625 349.35626Q342.25 349.16876 342.10938 348.8719Q341.98438 348.575 341.98438 347.6219L341.98438 344.04376L341.21875 344.04376L341.21875 343.23126L341.98438 343.23126L341.98438 341.6844L343.03125 341.0594L343.03125 343.23126L344.09375 343.23126L344.09375 344.04376L343.03125 344.04376L343.03125 347.6844Q343.03125 348.1375 343.07812 348.2625Q343.14062 348.3875 343.26562 348.46564Q343.39062 348.54376 343.625 348.54376Q343.8125 348.54376 344.09375 348.5125ZM344.79688 349.45L344.79688 340.85626L345.84375 340.85626L345.84375 343.9344Q346.57812 343.09064 347.70312 343.09064Q348.40625 343.09064 348.90625 343.3719Q349.42188 343.6375 349.64062 344.1219Q349.85938 344.59064 349.85938 345.5125L349.85938 349.45L348.8125 349.45L348.8125 345.5125Q348.8125 344.71564 348.46875 344.35626Q348.125 343.9969 347.5 343.9969Q347.03125 343.9969 346.60938 344.2469Q346.20312 344.48126 346.01562 344.90314Q345.84375 345.3094 345.84375 346.04376L345.84375 349.45L344.79688 349.45Z" fill-rule="nonzero"/><path fill="#000000" d="M29.550013 242.07396L21.971888 242.07396L21.971888 244.90208L20.956263 244.90208L20.956263 238.08958L21.971888 238.08958L21.971888 240.93333L29.550013 240.93333L29.550013 242.07396ZM26.440638 237.77708Q24.706263 237.77708 23.878138 236.82396Q23.190638 236.02708 23.190638 234.87083Q23.190638 233.58958 24.034388 232.77708Q24.862513 231.94896 26.346888 231.94896Q27.550013 231.94896 28.237513 232.30833Q28.925013 232.66771 29.315638 233.37083Q29.690638 234.05833 29.690638 234.87083Q29.690638 236.16771 28.862513 236.98021Q28.018763 237.77708 26.440638 237.77708ZM26.440638 236.69896Q27.628138 236.69896 28.221888 236.18333Q28.815638 235.65208 28.815638 234.87083Q28.815638 234.07396 28.221888 233.55833Q27.628138 233.04271 26.409388 233.04271Q25.253138 233.04271 24.659388 233.57396Q24.065638 234.08958 24.065638 234.87083Q24.065638 235.65208 24.659388 236.18333Q25.237513 236.69896 26.440638 236.69896ZM28.612513 228.08958L29.534388 227.93333Q29.628138 228.38646 29.628138 228.73021Q29.628138 229.30833 29.456263 229.62083Q29.268763 229.93333 28.971888 230.07396Q28.675013 230.19896 27.721888 230.19896L24.143763 230.19896L24.143763 230.96458L23.331263 230.96458L23.331263 230.19896L21.784388 230.19896L21.159388 229.15208L23.331263 229.15208L23.331263 228.08958L24.143763 228.08958L24.143763 229.15208L27.784388 229.15208Q28.237513 229.15208 28.362513 229.10521Q28.487513 229.04271 28.565638 228.91771Q28.643763 228.79271 28.643763 228.55833Q28.643763 228.37083 28.612513 228.08958ZM28.784388 223.32396Q29.284388 223.91771 29.487513 224.46458Q29.690638 224.99583 29.690638 225.62083Q29.690638 226.65208 29.190638 227.19896Q28.690638 227.74583 27.909388 227.74583Q27.456263 227.74583 27.081263 227.54271Q26.690638 227.33958 26.471888 226.99583Q26.237513 226.65208 26.128138 226.23021Q26.034388 225.93333 25.956263 225.29271Q25.815638 224.02708 25.596888 223.41771Q25.378138 223.41771 25.331263 223.41771Q24.675013 223.41771 24.409388 223.71458Q24.065638 224.12083 24.065638 224.91771Q24.065638 225.65208 24.331263 226.01146Q24.581263 226.37083 25.237513 226.54271L25.096888 227.57396Q24.440638 227.43333 24.034388 227.10521Q23.628138 226.77708 23.409388 226.16771Q23.190638 225.55833 23.190638 224.76146Q23.190638 223.96458 23.378138 223.46458Q23.565638 222.96458 23.846888 222.73021Q24.128138 222.49583 24.565638 222.40208Q24.831263 222.35521 25.534388 222.35521L26.940638 222.35521Q28.409388 222.35521 28.800013 222.29271Q29.190638 222.21458 29.550013 222.01146L29.550013 223.12083Q29.221888 223.27708 28.784388 223.32396ZM26.425013 223.41771Q26.659388 223.99583 26.831263 225.13646Q26.925013 225.79271 27.050013 226.05833Q27.159388 226.32396 27.378138 226.48021Q27.596888 226.62083 27.878138 226.62083Q28.300013 226.62083 28.581263 226.30833Q28.862513 225.98021 28.862513 225.37083Q28.862513 224.76146 28.596888 224.29271Q28.331263 223.80833 27.862513 223.58958Q27.503138 223.41771 26.815638 223.41771L26.425013 223.41771ZM29.550013 220.41771L20.956263 220.41771L20.956263 219.35521L29.550013 219.35521L29.550013 220.41771ZM29.550013 212.76146L20.956263 215.04271L20.956263 213.87083L26.596888 212.55833Q27.471888 212.35521 28.346888 212.19896Q26.971888 211.87083 26.753138 211.80833L20.956263 210.18333L20.956263 208.80833L25.300013 207.57396Q26.925013 207.12083 28.346888 206.90208Q27.534388 206.74583 26.471888 206.48021L20.956263 205.13646L20.956263 203.99583L29.550013 206.33958L29.550013 207.44896L23.003138 209.24583Q22.190638 209.48021 22.003138 209.52708Q22.581263 209.65208 23.003138 209.77708L29.550013 211.58958L29.550013 212.76146ZM22.175013 203.38646L20.956263 203.38646L20.956263 202.32396L22.175013 202.32396L22.175013 203.38646ZM29.550013 203.38646L23.331263 203.38646L23.331263 202.32396L29.550013 202.32396L29.550013 203.38646ZM29.550013 200.38646L23.331263 200.38646L23.331263 199.44896L24.206263 199.44896Q23.190638 198.76146 23.190638 197.46458Q23.190638 196.90208 23.393763 196.43333Q23.596888 195.94896 23.925013 195.71458Q24.253138 195.48021 24.690638 195.38646Q24.987513 195.33958 25.721888 195.33958L29.550013 195.33958L29.550013 196.38646L25.768763 196.38646Q25.112513 196.38646 24.800013 196.51146Q24.487513 196.63646 24.300013 196.94896Q24.096888 197.26146 24.096888 197.68333Q24.096888 198.35521 24.534388 198.85521Q24.956263 199.33958 26.143763 199.33958L29.550013 199.33958L29.550013 200.38646ZM29.550013 193.38646L23.331263 193.38646L23.331263 192.44896L24.206263 192.44896Q23.190638 191.76146 23.190638 190.46458Q23.190638 189.90208 23.393763 189.43333Q23.596888 188.94896 23.925013 188.71458Q24.253138 188.48021 24.690638 188.38646Q24.987513 188.33958 25.721888 188.33958L29.550013 188.33958L29.550013 189.38646L25.768763 189.38646Q25.112513 189.38646 24.800013 189.51146Q24.487513 189.63646 24.300013 189.94896Q24.096888 190.26146 24.096888 190.68333Q24.096888 191.35521 24.534388 191.85521Q24.956263 192.33958 26.143763 192.33958L29.550013 192.33958L29.550013 193.38646ZM22.175013 186.38646L20.956263 186.38646L20.956263 185.32396L22.175013 185.32396L22.175013 186.38646ZM29.550013 186.38646L23.331263 186.38646L23.331263 185.32396L29.550013 185.32396L29.550013 186.38646ZM29.550013 183.38646L23.331263 183.38646L23.331263 182.44896L24.206263 182.44896Q23.190638 181.76146 23.190638 180.46458Q23.190638 179.90208 23.393763 179.43333Q23.596888 178.94896 23.925013 178.71458Q24.253138 178.48021 24.690638 178.38646Q24.987513 178.33958 25.721888 178.33958L29.550013 178.33958L29.550013 179.38646L25.768763 179.38646Q25.112513 179.38646 24.800013 179.51146Q24.487513 179.63646 24.300013 179.94896Q24.096888 180.26146 24.096888 180.68333Q24.096888 181.35521 24.534388 181.85521Q24.956263 182.33958 26.143763 182.33958L29.550013 182.33958L29.550013 183.38646ZM30.065638 176.58958L30.221888 175.55833Q30.690638 175.49583 30.909388 175.19896Q31.206263 174.80833 31.206263 174.13646Q31.206263 173.40208 30.909388 173.01146Q30.612513 172.60521 30.096888 172.46458Q29.768763 172.37083 28.737513 172.38646Q29.550013 173.07396 29.550013 174.10521Q29.550013 175.38646 28.628138 176.08958Q27.690638 176.79271 26.409388 176.79271Q25.518763 176.79271 24.768763 176.48021Q24.003138 176.15208 23.596888 175.54271Q23.190638 174.93333 23.190638 174.10521Q23.190638 172.99583 24.081263 172.27708L23.331263 172.27708L23.331263 171.30833L28.706263 171.30833Q30.159388 171.30833 30.768763 171.60521Q31.378138 171.90208 31.721888 172.54271Q32.08126 173.18333 32.08126 174.12083Q32.08126 175.23021 31.581263 175.91771Q31.081263 176.60521 30.065638 176.58958ZM26.331263 175.71458Q27.550013 175.71458 28.112513 175.23021Q28.675013 174.74583 28.675013 174.01146Q28.675013 173.27708 28.112513 172.79271Q27.550013 172.29271 26.362513 172.29271Q25.221888 172.29271 24.643763 172.80833Q24.065638 173.30833 24.065638 174.02708Q24.065638 174.73021 24.643763 175.23021Q25.206263 175.71458 26.331263 175.71458ZM29.550013 166.26146L20.956263 166.26146L20.956263 165.10521L27.706263 160.58958L20.956263 160.58958L20.956263 159.49583L29.550013 159.49583L29.550013 160.66771L22.800013 165.18333L29.550013 165.18333L29.550013 166.26146ZM26.440638 157.77708Q24.706263 157.77708 23.878138 156.82396Q23.190638 156.02708 23.190638 154.87083Q23.190638 153.58958 24.034388 152.77708Q24.862513 151.94896 26.346888 151.94896Q27.550013 151.94896 28.237513 152.30833Q28.925013 152.66771 29.315638 153.37083Q29.690638 154.05833 29.690638 154.87083Q29.690638 156.16771 28.862513 156.98021Q28.018763 157.77708 26.440638 157.77708ZM26.440638 156.69896Q27.628138 156.69896 28.221888 156.18333Q28.815638 155.65208 28.815638 154.87083Q28.815638 154.07396 28.221888 153.55833Q27.628138 153.04271 26.409388 153.04271Q25.253138 153.04271 24.659388 153.57396Q24.065638 154.08958 24.065638 154.87083Q24.065638 155.65208 24.659388 156.18333Q25.237513 156.69896 26.440638 156.69896ZM29.550013 146.35521L28.768763 146.35521Q29.690638 146.94896 29.690638 148.08958Q29.690638 148.83958 29.284388 149.46458Q28.862513 150.08958 28.128138 150.43333Q27.393763 150.77708 26.440638 150.77708Q25.518763 150.77708 24.753138 150.46458Q23.987513 150.15208 23.596888 149.52708Q23.190638 148.90208 23.190638 148.13646Q23.190638 147.57396 23.425013 147.13646Q23.659388 146.69896 24.034388 146.41771L20.956263 146.41771L20.956263 145.37083L29.550013 145.37083L29.550013 146.35521ZM26.440638 149.68333Q27.643763 149.68333 28.237513 149.18333Q28.815638 148.68333 28.815638 147.99583Q28.815638 147.30833 28.253138 146.82396Q27.690638 146.33958 26.534388 146.33958Q25.253138 146.33958 24.659388 146.83958Q24.065638 147.32396 24.065638 148.04271Q24.065638 148.74583 24.643763 149.21458Q25.206263 149.68333 26.440638 149.68333ZM27.550013 139.13646L27.675013 138.04271Q28.628138 138.29271 29.159388 138.99583Q29.690638 139.69896 29.690638 140.77708Q29.690638 142.13646 28.846888 142.94896Q28.003138 143.74583 26.487513 143.74583Q24.925013 143.74583 24.065638 142.93333Q23.190638 142.12083 23.190638 140.83958Q23.190638 139.58958 24.034388 138.80833Q24.878138 138.01146 26.425013 138.01146Q26.518763 138.01146 26.706263 138.01146L26.706263 142.65208Q27.737513 142.58958 28.284388 142.07396Q28.815638 141.55833 28.815638 140.77708Q28.815638 140.19896 28.518763 139.79271Q28.206263 139.37083 27.550013 139.13646ZM25.846888 142.58958L25.846888 139.12083Q25.050013 139.18333 24.659388 139.51146Q24.050013 140.02708 24.050013 140.82396Q24.050013 141.55833 24.534388 142.05833Q25.018763 142.54271 25.846888 142.58958ZM27.690638 136.80833L27.534388 135.77708Q28.159388 135.68333 28.487513 135.29271Q28.815638 134.88646 28.815638 134.15208Q28.815638 133.43333 28.534388 133.08958Q28.237513 132.73021 27.831263 132.73021Q27.471888 132.73021 27.268763 133.04271Q27.128138 133.26146 26.909388 134.12083Q26.612513 135.27708 26.409388 135.73021Q26.190638 136.16771 25.815638 136.40208Q25.440638 136.63646 24.971888 136.63646Q24.565638 136.63646 24.206263 136.44896Q23.846888 136.26146 23.612513 135.93333Q23.440638 135.68333 23.315638 135.26146Q23.190638 134.83958 23.190638 134.33958Q23.190638 133.62083 23.409388 133.07396Q23.612513 132.51146 23.971888 132.24583Q24.331263 131.98021 24.925013 131.88646L25.065638 132.91771Q24.596888 132.98021 24.331263 133.32396Q24.050013 133.65208 24.050013 134.27708Q24.050013 134.99583 24.300013 135.30833Q24.534388 135.62083 24.862513 135.62083Q25.065638 135.62083 25.221888 135.49583Q25.393763 135.35521 25.503138 135.08958Q25.565638 134.93333 25.768763 134.15208Q26.081263 133.02708 26.268763 132.58958Q26.456263 132.15208 26.815638 131.90208Q27.175013 131.65208 27.721888 131.65208Q28.253138 131.65208 28.721888 131.96458Q29.175013 132.26146 29.440638 132.83958Q29.690638 133.41771 29.690638 134.15208Q29.690638 135.37083 29.190638 136.01146Q28.675013 136.63646 27.690638 136.80833Z" fill-rule="nonzero"/><path fill="#000000" d="M75.05 300.21564Q75.05 298.6844 75.3625 297.7625Q75.675 296.825 76.28438 296.325Q76.90938 295.825 77.84688 295.825Q78.53438 295.825 79.05 296.10626Q79.58125 296.3875 79.925 296.91876Q80.26875 297.4344 80.45625 298.1844Q80.64375 298.9344 80.64375 300.21564Q80.64375 301.73126 80.33125 302.65314Q80.03438 303.575 79.40938 304.09064Q78.8 304.59064 77.84688 304.59064Q76.6125 304.59064 75.89375 303.7Q75.05 302.6375 75.05 300.21564ZM76.12813 300.21564Q76.12813 302.325 76.62813 303.02814Q77.12813 303.73126 77.84688 303.73126Q78.58125 303.73126 79.06563 303.02814Q79.56563 302.325 79.56563 300.21564Q79.56563 298.09064 79.06563 297.40314Q78.58125 296.7 77.83125 296.7Q77.1125 296.7 76.675 297.3094Q76.12813 298.09064 76.12813 300.21564Z" fill-rule="nonzero"/><path fill="#000000" d="M55.01875 224.93889L53.971874 224.93889L53.971874 218.22014Q53.58125 218.57951 52.95625 218.95451Q52.346874 219.31389 51.8625 219.48576L51.8625 218.47014Q52.7375 218.04826 53.39375 217.47014Q54.065624 216.87639 54.346874 216.31389L55.01875 216.31389L55.01875 224.93889ZM58.6125 224.93889L58.6125 223.73576L59.815624 223.73576L59.815624 224.93889Q59.815624 225.59514 59.58125 226.00139Q59.346874 226.42326 58.846874 226.64201L58.55 226.18889Q58.878124 226.04826 59.034374 225.75139Q59.190624 225.47014 59.221874 224.93889L58.6125 224.93889ZM61.05 220.70451Q61.05 219.17326 61.3625 218.25139Q61.675 217.31389 62.284374 216.81389Q62.909374 216.31389 63.846874 216.31389Q64.53438 216.31389 65.05 216.59514Q65.58125 216.87639 65.925 217.40764Q66.26875 217.92326 66.45625 218.67326Q66.64375 219.42326 66.64375 220.70451Q66.64375 222.22014 66.33125 223.14201Q66.03438 224.06389 65.40938 224.57951Q64.8 225.07951 63.846874 225.07951Q62.6125 225.07951 61.89375 224.18889Q61.05 223.12639 61.05 220.70451ZM62.128124 220.70451Q62.128124 222.81389 62.628124 223.51701Q63.128124 224.22014 63.846874 224.22014Q64.58125 224.22014 65.06563 223.51701Q65.56563 222.81389 65.56563 220.70451Q65.56563 218.57951 65.06563 217.89201Q64.58125 217.18889 63.83125 217.18889Q63.1125 217.18889 62.675 217.79826Q62.128124 218.57951 62.128124 220.70451ZM68.05 220.70451Q68.05 219.17326 68.3625 218.25139Q68.675 217.31389 69.28438 216.81389Q69.90938 216.31389 70.84688 216.31389Q71.53438 216.31389 72.05 216.59514Q72.58125 216.87639 72.925 217.40764Q73.26875 217.92326 73.45625 218.67326Q73.64375 219.42326 73.64375 220.70451Q73.64375 222.22014 73.33125 223.14201Q73.03438 224.06389 72.40938 224.57951Q71.8 225.07951 70.84688 225.07951Q69.6125 225.07951 68.89375 224.18889Q68.05 223.12639 68.05 220.70451ZM69.12813 220.70451Q69.12813 222.81389 69.62813 223.51701Q70.12813 224.22014 70.84688 224.22014Q71.58125 224.22014 72.06563 223.51701Q72.56563 222.81389 72.56563 220.70451Q72.56563 218.57951 72.06563 217.89201Q71.58125 217.18889 70.83125 217.18889Q70.1125 217.18889 69.675 217.79826Q69.12813 218.57951 69.12813 220.70451ZM75.05 220.70451Q75.05 219.17326 75.3625 218.25139Q75.675 217.31389 76.28438 216.81389Q76.90938 216.31389 77.84688 216.31389Q78.53438 216.31389 79.05 216.59514Q79.58125 216.87639 79.925 217.40764Q80.26875 217.92326 80.45625 218.67326Q80.64375 219.42326 80.64375 220.70451Q80.64375 222.22014 80.33125 223.14201Q80.03438 224.06389 79.40938 224.57951Q78.8 225.07951 77.84688 225.07951Q76.6125 225.07951 75.89375 224.18889Q75.05 223.12639 75.05 220.70451ZM76.12813 220.70451Q76.12813 222.81389 76.62813 223.51701Q77.12813 224.22014 77.84688 224.22014Q78.58125 224.22014 79.06563 223.51701Q79.56563 222.81389 79.56563 220.70451Q79.56563 218.57951 79.06563 217.89201Q78.58125 217.18889 77.83125 217.18889Q77.1125 217.18889 76.675 217.79826Q76.12813 218.57951 76.12813 220.70451Z" fill-rule="nonzero"/><path fill="#000000" d="M56.596874 144.41216L56.596874 145.42778L50.909374 145.42778Q50.909374 145.05278 51.034374 144.6934Q51.253124 144.11528 51.721874 143.55278Q52.20625 142.99028 53.1125 142.2559Q54.51875 141.09966 55.003124 140.42778Q55.503124 139.7559 55.503124 139.16216Q55.503124 138.53716 55.05 138.11528Q54.596874 137.67778 53.878124 137.67778Q53.1125 137.67778 52.659374 138.1309Q52.20625 138.58403 52.190624 139.39653L51.1125 139.28716Q51.221874 138.0684 51.940624 137.4434Q52.675 136.80278 53.909374 136.80278Q55.14375 136.80278 55.8625 137.49028Q56.58125 138.17778 56.58125 139.1934Q56.58125 139.70903 56.3625 140.20903Q56.159374 140.6934 55.659374 141.2559Q55.175 141.80278 54.05 142.7559Q53.096874 143.55278 52.815624 143.84966Q52.55 144.1309 52.378124 144.41216L56.596874 144.41216ZM58.6125 145.42778L58.6125 144.22466L59.815624 144.22466L59.815624 145.42778Q59.815624 146.08403 59.58125 146.49028Q59.346874 146.91216 58.846874 147.1309L58.55 146.67778Q58.878124 146.53716 59.034374 146.24028Q59.190624 145.95903 59.221874 145.42778L58.6125 145.42778ZM61.05 141.1934Q61.05 139.66216 61.3625 138.74028Q61.675 137.80278 62.284374 137.30278Q62.909374 136.80278 63.846874 136.80278Q64.53438 136.80278 65.05 137.08403Q65.58125 137.36528 65.925 137.89653Q66.26875 138.41216 66.45625 139.16216Q66.64375 139.91216 66.64375 141.1934Q66.64375 142.70903 66.33125 143.6309Q66.03438 144.55278 65.40938 145.0684Q64.8 145.5684 63.846874 145.5684Q62.6125 145.5684 61.89375 144.67778Q61.05 143.61528 61.05 141.1934ZM62.128124 141.1934Q62.128124 143.30278 62.628124 144.0059Q63.128124 144.70903 63.846874 144.70903Q64.58125 144.70903 65.06563 144.0059Q65.56563 143.30278 65.56563 141.1934Q65.56563 139.0684 65.06563 138.3809Q64.58125 137.67778 63.83125 137.67778Q63.1125 137.67778 62.675 138.28716Q62.128124 139.0684 62.128124 141.1934ZM68.05 141.1934Q68.05 139.66216 68.3625 138.74028Q68.675 137.80278 69.28438 137.30278Q69.90938 136.80278 70.84688 136.80278Q71.53438 136.80278 72.05 137.08403Q72.58125 137.36528 72.925 137.89653Q73.26875 138.41216 73.45625 139.16216Q73.64375 139.91216 73.64375 141.1934Q73.64375 142.70903 73.33125 143.6309Q73.03438 144.55278 72.40938 145.0684Q71.8 145.5684 70.84688 145.5684Q69.6125 145.5684 68.89375 144.67778Q68.05 143.61528 68.05 141.1934ZM69.12813 141.1934Q69.12813 143.30278 69.62813 144.0059Q70.12813 144.70903 70.84688 144.70903Q71.58125 144.70903 72.06563 144.0059Q72.56563 143.30278 72.56563 141.1934Q72.56563 139.0684 72.06563 138.3809Q71.58125 137.67778 70.83125 137.67778Q70.1125 137.67778 69.675 138.28716Q69.12813 139.0684 69.12813 141.1934ZM75.05 141.1934Q75.05 139.66216 75.3625 138.74028Q75.675 137.80278 76.28438 137.30278Q76.90938 136.80278 77.84688 136.80278Q78.53438 136.80278 79.05 137.08403Q79.58125 137.36528 79.925 137.89653Q80.26875 138.41216 80.45625 139.16216Q80.64375 139.91216 80.64375 141.1934Q80.64375 142.70903 80.33125 143.6309Q80.03438 144.55278 79.40938 145.0684Q78.8 145.5684 77.84688 145.5684Q76.6125 145.5684 75.89375 144.67778Q75.05 143.61528 75.05 141.1934ZM76.12813 141.1934Q76.12813 143.30278 76.62813 144.0059Q77.12813 144.70903 77.84688 144.70903Q78.58125 144.70903 79.06563 144.0059Q79.56563 143.30278 79.56563 141.1934Q79.56563 139.0684 79.06563 138.3809Q78.58125 137.67778 77.83125 137.67778Q77.1125 137.67778 76.675 138.28716Q76.12813 139.0684 76.12813 141.1934Z" fill-rule="nonzero"/><path fill="#000000" d="M51.05 63.65104L52.1125 63.510414Q52.284374 64.40104 52.721874 64.80729Q53.159374 65.197914 53.784374 65.197914Q54.534374 65.197914 55.05 64.68229Q55.565624 64.166664 55.565624 63.40104Q55.565624 62.68229 55.08125 62.21354Q54.6125 61.729164 53.878124 61.729164Q53.58125 61.729164 53.128124 61.854164L53.253124 60.916664Q53.3625 60.93229 53.425 60.93229Q54.096874 60.93229 54.628124 60.58854Q55.175 60.229164 55.175 59.49479Q55.175 58.916664 54.784374 58.541664Q54.39375 58.15104 53.76875 58.15104Q53.159374 58.15104 52.7375 58.541664Q52.33125 58.93229 52.221874 59.697914L51.159374 59.510414Q51.346874 58.46354 52.034374 57.885414Q52.721874 57.291664 53.7375 57.291664Q54.440624 57.291664 55.034374 57.604164Q55.628124 57.90104 55.940624 58.416664Q56.253124 58.93229 56.253124 59.52604Q56.253124 60.072914 55.95625 60.541664Q55.659374 60.99479 55.08125 61.260414Q55.83125 61.43229 56.253124 61.99479Q56.675 62.541664 56.675 63.385414Q56.675 64.510414 55.846874 65.291664Q55.034374 66.072914 53.784374 66.072914Q52.659374 66.072914 51.909374 65.40104Q51.159374 64.71354 51.05 63.65104ZM58.6125 65.916664L58.6125 64.71354L59.815624 64.71354L59.815624 65.916664Q59.815624 66.572914 59.58125 66.979164Q59.346874 67.40104 58.846874 67.61979L58.55 67.166664Q58.878124 67.02604 59.034374 66.729164Q59.190624 66.447914 59.221874 65.916664L58.6125 65.916664ZM61.05 61.68229Q61.05 60.15104 61.3625 59.229164Q61.675 58.291664 62.284374 57.791664Q62.909374 57.291664 63.846874 57.291664Q64.53438 57.291664 65.05 57.572914Q65.58125 57.854164 65.925 58.385414Q66.26875 58.90104 66.45625 59.65104Q66.64375 60.40104 66.64375 61.68229Q66.64375 63.197914 66.33125 64.11979Q66.03438 65.041664 65.40938 65.55729Q64.8 66.05729 63.846874 66.05729Q62.6125 66.05729 61.89375 65.166664Q61.05 64.104164 61.05 61.68229ZM62.128124 61.68229Q62.128124 63.791664 62.628124 64.49479Q63.128124 65.197914 63.846874 65.197914Q64.58125 65.197914 65.06563 64.49479Q65.56563 63.791664 65.56563 61.68229Q65.56563 59.55729 65.06563 58.86979Q64.58125 58.166664 63.83125 58.166664Q63.1125 58.166664 62.675 58.77604Q62.128124 59.55729 62.128124 61.68229ZM68.05 61.68229Q68.05 60.15104 68.3625 59.229164Q68.675 58.291664 69.28438 57.791664Q69.90938 57.291664 70.84688 57.291664Q71.53438 57.291664 72.05 57.572914Q72.58125 57.854164 72.925 58.385414Q73.26875 58.90104 73.45625 59.65104Q73.64375 60.40104 73.64375 61.68229Q73.64375 63.197914 73.33125 64.11979Q73.03438 65.041664 72.40938 65.55729Q71.8 66.05729 70.84688 66.05729Q69.6125 66.05729 68.89375 65.166664Q68.05 64.104164 68.05 61.68229ZM69.12813 61.68229Q69.12813 63.791664 69.62813 64.49479Q70.12813 65.197914 70.84688 65.197914Q71.58125 65.197914 72.06563 64.49479Q72.56563 63.791664 72.56563 61.68229Q72.56563 59.55729 72.06563 58.86979Q71.58125 58.166664 70.83125 58.166664Q70.1125 58.166664 69.675 58.77604Q69.12813 59.55729 69.12813 61.68229ZM75.05 61.68229Q75.05 60.15104 75.3625 59.229164Q75.675 58.291664 76.28438 57.791664Q76.90938 57.291664 77.84688 57.291664Q78.53438 57.291664 79.05 57.572914Q79.58125 57.854164 79.925 58.385414Q80.26875 58.90104 80.45625 59.65104Q80.64375 60.40104 80.64375 61.68229Q80.64375 63.197914 80.33125 64.11979Q80.03438 65.041664 79.40938 65.55729Q78.8 66.05729 77.84688 66.05729Q76.6125 66.05729 75.89375 65.166664Q75.05 64.104164 75.05 61.68229ZM76.12813 61.68229Q76.12813 63.791664 76.62813 64.49479Q77.12813 65.197914 77.84688 65.197914Q78.58125 65.197914 79.06563 64.49479Q79.56563 63.791664 79.56563 61.68229Q79.56563 59.55729 79.06563 58.86979Q78.58125 58.166664 77.83125 58.166664Q77.1125 58.166664 76.675 58.77604Q76.12813 59.55729 76.12813 61.68229Z" fill-rule="nonzero"/><path fill="#000000" d="M118.552086 315.0125L119.583336 314.8719Q119.614586 315.85626 119.94271 316.21564Q120.270836 316.575 120.864586 316.575Q121.28646 316.575 121.59896 316.3875Q121.91146 316.1844 122.020836 315.85626Q122.145836 315.5125 122.145836 314.77814L122.145836 308.85626L123.270836 308.85626L123.270836 314.71564Q123.270836 315.79376 123.00521 316.3875Q122.75521 316.98126 122.19271 317.29376Q121.63021 317.59064 120.864586 317.59064Q119.739586 317.59064 119.13021 316.95Q118.53646 316.29376 118.552086 315.0125ZM129.08334 317.45L129.08334 316.52814Q128.34897 317.59064 127.09896 317.59064Q126.552086 317.59064 126.06771 317.3875Q125.59896 317.16876 125.364586 316.85626Q125.13021 316.52814 125.03646 316.0594Q124.97396 315.7625 124.97396 315.075L124.97396 311.23126L126.03646 311.23126L126.03646 314.6844Q126.03646 315.4969 126.09896 315.79376Q126.19271 316.2 126.50521 316.45Q126.833336 316.6844 127.31771 316.6844Q127.78646 316.6844 128.19272 316.45Q128.6146 316.2 128.78647 315.77814Q128.97397 315.35626 128.97397 314.5594L128.97397 311.23126L130.02084 311.23126L130.02084 317.45L129.08334 317.45ZM131.97397 317.45L131.97397 308.85626L133.03647 308.85626L133.03647 317.45L131.97397 317.45ZM134.95834 319.84064L134.83334 318.85626Q135.1771 318.95 135.44272 318.95Q135.78647 318.95 135.9896 318.825Q136.20834 318.71564 136.34897 318.5125Q136.44272 318.34064 136.6771 317.71564Q136.69272 317.6375 136.77084 317.46564L134.39584 311.23126L135.53647 311.23126L136.83334 314.825Q137.08334 315.5125 137.28647 316.27814Q137.47397 315.54376 137.72397 314.85626L139.0521 311.23126L140.09897 311.23126L137.7396 317.5594Q137.34897 318.575 137.14584 318.96564Q136.8646 319.4969 136.4896 319.73126Q136.13022 319.98126 135.63022 319.98126Q135.33334 319.98126 134.95834 319.84064Z" fill-rule="nonzero"/><path fill="#000000" d="M192.00937 317.45L195.30624 308.85626L196.525 308.85626L200.04062 317.45L198.75937 317.45L197.74374 314.84064L194.16562 314.84064L193.2125 317.45L192.00937 317.45ZM194.49374 313.91876L197.4 313.91876L196.50937 311.54376Q196.0875 310.46564 195.9 309.7625Q195.72812 310.59064 195.43124 311.40314L194.49374 313.91876ZM203.9 317.45L203.9 316.52814Q203.16562 317.59064 201.91562 317.59064Q201.36874 317.59064 200.88437 317.3875Q200.41562 317.16876 200.18124 316.85626Q199.94687 316.52814 199.85312 316.0594Q199.79062 315.7625 199.79062 315.075L199.79062 311.23126L200.85312 311.23126L200.85312 314.6844Q200.85312 315.4969 200.91562 315.79376Q201.00937 316.2 201.32187 316.45Q201.65 316.6844 202.13437 316.6844Q202.60312 316.6844 203.00937 316.45Q203.43124 316.2 203.60312 315.77814Q203.79062 315.35626 203.79062 314.5594L203.79062 311.23126L204.8375 311.23126L204.8375 317.45L203.9 317.45ZM206.61874 317.96564L207.65 318.1219Q207.7125 318.59064 208.00937 318.8094Q208.4 319.10626 209.07187 319.10626Q209.80624 319.10626 210.19687 318.8094Q210.60312 318.5125 210.74374 317.9969Q210.8375 317.66876 210.82187 316.6375Q210.13437 317.45 209.10312 317.45Q207.82187 317.45 207.11874 316.52814Q206.41562 315.59064 206.41562 314.3094Q206.41562 313.41876 206.72812 312.66876Q207.05624 311.90314 207.66562 311.4969Q208.275 311.09064 209.10312 311.09064Q210.2125 311.09064 210.93124 311.98126L210.93124 311.23126L211.9 311.23126L211.9 316.60626Q211.9 318.0594 211.60312 318.66876Q211.30624 319.27814 210.66562 319.6219Q210.025 319.98126 209.0875 319.98126Q207.97812 319.98126 207.29062 319.48126Q206.60312 318.98126 206.61874 317.96564ZM207.49374 314.23126Q207.49374 315.45 207.97812 316.0125Q208.4625 316.575 209.19687 316.575Q209.93124 316.575 210.41562 316.0125Q210.91562 315.45 210.91562 314.2625Q210.91562 313.1219 210.4 312.54376Q209.9 311.96564 209.18124 311.96564Q208.47812 311.96564 207.97812 312.54376Q207.49374 313.10626 207.49374 314.23126ZM217.9 317.45L217.9 316.52814Q217.16562 317.59064 215.91562 317.59064Q215.36874 317.59064 214.88437 317.3875Q214.41562 317.16876 214.18124 316.85626Q213.94687 316.52814 213.85312 316.0594Q213.79062 315.7625 213.79062 315.075L213.79062 311.23126L214.85312 311.23126L214.85312 314.6844Q214.85312 315.4969 214.91562 315.79376Q215.00937 316.2 215.32187 316.45Q215.65 316.6844 216.13437 316.6844Q216.60312 316.6844 217.00937 316.45Q217.43124 316.2 217.60312 315.77814Q217.79062 315.35626 217.79062 314.5594L217.79062 311.23126L218.8375 311.23126L218.8375 317.45L217.9 317.45ZM220.4 315.59064L221.43124 315.4344Q221.525 316.0594 221.91562 316.3875Q222.32187 316.71564 223.05624 316.71564Q223.775 316.71564 224.11874 316.4344Q224.47812 316.1375 224.47812 315.73126Q224.47812 315.3719 224.16562 315.16876Q223.94687 315.02814 223.0875 314.8094Q221.93124 314.5125 221.47812 314.3094Q221.04062 314.09064 220.80624 313.71564Q220.57187 313.34064 220.57187 312.8719Q220.57187 312.46564 220.75937 312.10626Q220.94687 311.7469 221.275 311.5125Q221.525 311.34064 221.94687 311.21564Q222.36874 311.09064 222.86874 311.09064Q223.5875 311.09064 224.13437 311.3094Q224.69687 311.5125 224.9625 311.8719Q225.22812 312.23126 225.32187 312.825L224.29062 312.96564Q224.22812 312.4969 223.88437 312.23126Q223.55624 311.95 222.93124 311.95Q222.2125 311.95 221.9 312.2Q221.5875 312.4344 221.5875 312.7625Q221.5875 312.96564 221.7125 313.1219Q221.85312 313.29376 222.11874 313.40314Q222.275 313.46564 223.05624 313.66876Q224.18124 313.98126 224.61874 314.16876Q225.05624 314.35626 225.30624 314.71564Q225.55624 315.075 225.55624 315.6219Q225.55624 316.15314 225.24374 316.6219Q224.94687 317.075 224.36874 317.34064Q223.79062 317.59064 223.05624 317.59064Q221.8375 317.59064 221.19687 317.09064Q220.57187 316.575 220.4 315.59064ZM230.11874 316.5125L230.275 317.4344Q229.82187 317.52814 229.47812 317.52814Q228.9 317.52814 228.5875 317.35626Q228.275 317.16876 228.13437 316.8719Q228.00937 316.575 228.00937 315.6219L228.00937 312.04376L227.24374 312.04376L227.24374 311.23126L228.00937 311.23126L228.00937 309.6844L229.05624 309.0594L229.05624 311.23126L230.11874 311.23126L230.11874 312.04376L229.05624 312.04376L229.05624 315.6844Q229.05624 316.1375 229.10312 316.2625Q229.16562 316.3875 229.29062 316.46564Q229.41562 316.54376 229.65 316.54376Q229.8375 316.54376 230.11874 316.5125Z" fill-rule="nonzero"/><path fill="#000000" d="M263.38855 314.6844L264.45105 314.59064Q264.52917 315.2469 264.81042 315.65314Q265.09167 316.0594 265.6698 316.325Q266.26355 316.575 266.99792 316.575Q267.63855 316.575 268.13855 316.3875Q268.63855 316.1844 268.87292 315.85626Q269.12292 315.5125 269.12292 315.1219Q269.12292 314.71564 268.88855 314.41876Q268.65417 314.10626 268.12292 313.90314Q267.76355 313.7625 266.57605 313.48126Q265.40417 313.2 264.93542 312.95Q264.31042 312.6219 264.01355 312.15314Q263.71667 311.66876 263.71667 311.075Q263.71667 310.4344 264.07605 309.8719Q264.45105 309.29376 265.15417 309.0125Q265.87292 308.71564 266.7323 308.71564Q267.68542 308.71564 268.4198 309.02814Q269.15417 309.325 269.5448 309.9344Q269.93542 310.52814 269.96667 311.27814L268.87292 311.35626Q268.77917 310.54376 268.26355 310.1375Q267.76355 309.71564 266.77917 309.71564Q265.74792 309.71564 265.27917 310.09064Q264.81042 310.46564 264.81042 310.9969Q264.81042 311.46564 265.13855 311.7625Q265.46667 312.0594 266.84167 312.3719Q268.2323 312.6844 268.74792 312.91876Q269.49792 313.27814 269.8573 313.8094Q270.21667 314.325 270.21667 315.02814Q270.21667 315.71564 269.82605 316.325Q269.43542 316.91876 268.70105 317.2625Q267.96667 317.59064 267.0448 317.59064Q265.87292 317.59064 265.07605 317.2625Q264.2948 316.91876 263.84167 316.23126Q263.40417 315.54376 263.38855 314.6844ZM275.88855 315.45L276.9823 315.575Q276.7323 316.52814 276.02917 317.0594Q275.32605 317.59064 274.24792 317.59064Q272.88855 317.59064 272.07605 316.7469Q271.27917 315.90314 271.27917 314.3875Q271.27917 312.825 272.09167 311.96564Q272.90417 311.09064 274.18542 311.09064Q275.43542 311.09064 276.21667 311.9344Q277.01355 312.77814 277.01355 314.325Q277.01355 314.41876 277.01355 314.60626L272.37292 314.60626Q272.43542 315.6375 272.95105 316.1844Q273.46667 316.71564 274.24792 316.71564Q274.82605 316.71564 275.2323 316.41876Q275.65417 316.10626 275.88855 315.45ZM272.43542 313.7469L275.90417 313.7469Q275.84167 312.95 275.51355 312.5594Q274.99792 311.95 274.20105 311.95Q273.46667 311.95 272.96667 312.4344Q272.4823 312.91876 272.43542 313.7469ZM278.63855 319.84064L278.63855 311.23126L279.59167 311.23126L279.59167 312.02814Q279.93542 311.5594 280.3573 311.325Q280.7948 311.09064 281.40417 311.09064Q282.20105 311.09064 282.81042 311.4969Q283.4198 311.90314 283.71667 312.65314Q284.02917 313.40314 284.02917 314.29376Q284.02917 315.2469 283.68542 316.0125Q283.3573 316.77814 282.70105 317.1844Q282.0448 317.59064 281.32605 317.59064Q280.7948 317.59064 280.37292 317.3719Q279.95105 317.1375 279.68542 316.8094L279.68542 319.84064L278.63855 319.84064ZM279.59167 314.3719Q279.59167 315.575 280.07605 316.15314Q280.56042 316.71564 281.24792 316.71564Q281.95105 316.71564 282.45105 316.1219Q282.95105 315.52814 282.95105 314.27814Q282.95105 313.09064 282.46667 312.5125Q281.9823 311.91876 281.2948 311.91876Q280.62292 311.91876 280.1073 312.54376Q279.59167 313.16876 279.59167 314.3719ZM287.93542 316.5125L288.09167 317.4344Q287.63855 317.52814 287.2948 317.52814Q286.71667 317.52814 286.40417 317.35626Q286.09167 317.16876 285.95105 316.8719Q285.82605 316.575 285.82605 315.6219L285.82605 312.04376L285.06042 312.04376L285.06042 311.23126L285.82605 311.23126L285.82605 309.6844L286.87292 309.0594L286.87292 311.23126L287.93542 311.23126L287.93542 312.04376L286.87292 312.04376L286.87292 315.6844Q286.87292 316.1375 286.9198 316.2625Q286.9823 316.3875 287.1073 316.46564Q287.2323 316.54376 287.46667 316.54376Q287.65417 316.54376 287.93542 316.5125ZM292.88855 315.45L293.9823 315.575Q293.7323 316.52814 293.02917 317.0594Q292.32605 317.59064 291.24792 317.59064Q289.88855 317.59064 289.07605 316.7469Q288.27917 315.90314 288.27917 314.3875Q288.27917 312.825 289.09167 311.96564Q289.90417 311.09064 291.18542 311.09064Q292.43542 311.09064 293.21667 311.9344Q294.01355 312.77814 294.01355 314.325Q294.01355 314.41876 294.01355 314.60626L289.37292 314.60626Q289.43542 315.6375 289.95105 316.1844Q290.46667 316.71564 291.24792 316.71564Q291.82605 316.71564 292.2323 316.41876Q292.65417 316.10626 292.88855 315.45ZM289.43542 313.7469L292.90417 313.7469Q292.84167 312.95 292.51355 312.5594Q291.99792 311.95 291.20105 311.95Q290.46667 311.95 289.96667 312.4344Q289.4823 312.91876 289.43542 313.7469ZM295.63855 317.45L295.63855 311.23126L296.57605 311.23126L296.57605 312.10626Q296.87292 311.6375 297.3573 311.3719Q297.84167 311.09064 298.46667 311.09064Q299.15417 311.09064 299.59167 311.3719Q300.0448 311.65314 300.21667 312.16876Q300.96667 311.09064 302.13855 311.09064Q303.07605 311.09064 303.56042 311.60626Q304.06042 312.10626 304.06042 313.1844L304.06042 317.45L303.01355 317.45L303.01355 313.52814Q303.01355 312.90314 302.90417 312.6219Q302.81042 312.34064 302.5448 312.16876Q302.27917 311.9969 301.90417 311.9969Q301.24792 311.9969 300.81042 312.4344Q300.38855 312.8719 300.38855 313.84064L300.38855 317.45L299.32605 317.45L299.32605 313.40314Q299.32605 312.7 299.06042 312.35626Q298.81042 311.9969 298.2323 311.9969Q297.77917 311.9969 297.40417 312.23126Q297.02917 312.46564 296.8573 312.91876Q296.68542 313.3719 296.68542 314.21564L296.68542 317.45L295.63855 317.45ZM307.6073 317.45L306.62292 317.45L306.62292 308.85626L307.68542 308.85626L307.68542 311.91876Q308.3573 311.09064 309.38855 311.09064Q309.96667 311.09064 310.46667 311.325Q310.9823 311.54376 311.31042 311.96564Q311.65417 312.3875 311.84167 312.98126Q312.02917 313.575 312.02917 314.2469Q312.02917 315.84064 311.2323 316.71564Q310.43542 317.59064 309.34167 317.59064Q308.2323 317.59064 307.6073 316.66876L307.6073 317.45ZM307.59167 314.29376Q307.59167 315.40314 307.90417 315.90314Q308.40417 316.71564 309.24792 316.71564Q309.93542 316.71564 310.43542 316.1219Q310.95105 315.52814 310.95105 314.325Q310.95105 313.10626 310.46667 312.52814Q309.9823 311.95 309.2948 311.95Q308.6073 311.95 308.09167 312.5594Q307.59167 313.15314 307.59167 314.29376ZM317.88855 315.45L318.9823 315.575Q318.7323 316.52814 318.02917 317.0594Q317.32605 317.59064 316.24792 317.59064Q314.88855 317.59064 314.07605 316.7469Q313.27917 315.90314 313.27917 314.3875Q313.27917 312.825 314.09167 311.96564Q314.90417 311.09064 316.18542 311.09064Q317.43542 311.09064 318.21667 311.9344Q319.01355 312.77814 319.01355 314.325Q319.01355 314.41876 319.01355 314.60626L314.37292 314.60626Q314.43542 315.6375 314.95105 316.1844Q315.46667 316.71564 316.24792 316.71564Q316.82605 316.71564 317.2323 316.41876Q317.65417 316.10626 317.88855 315.45ZM314.43542 313.7469L317.90417 313.7469Q317.84167 312.95 317.51355 312.5594Q316.99792 311.95 316.20105 311.95Q315.46667 311.95 314.96667 312.4344Q314.4823 312.91876 314.43542 313.7469ZM320.62292 317.45L320.62292 311.23126L321.57605 311.23126L321.57605 312.16876Q321.93542 311.5125 322.2323 311.3094Q322.5448 311.09064 322.9198 311.09064Q323.45105 311.09064 323.99792 311.41876L323.63855 312.40314Q323.24792 312.16876 322.87292 312.16876Q322.51355 312.16876 322.2323 312.3875Q321.96667 312.59064 321.8573 312.96564Q321.6698 313.52814 321.6698 314.1844L321.6698 317.45L320.62292 317.45Z" fill-rule="nonzero"/><path fill="#000000" d="M354.73645 313.2625Q354.73645 311.1219 355.87708 309.91876Q357.03333 308.7 358.84583 308.7Q360.04895 308.7 361.00208 309.27814Q361.9552 309.84064 362.4552 310.85626Q362.9552 311.8719 362.9552 313.16876Q362.9552 314.46564 362.42395 315.4969Q361.8927 316.52814 360.92395 317.0594Q359.97083 317.59064 358.84583 317.59064Q357.62708 317.59064 356.67395 317.0125Q355.72083 316.41876 355.22083 315.41876Q354.73645 314.40314 354.73645 313.2625ZM355.90833 313.27814Q355.90833 314.84064 356.73645 315.73126Q357.5802 316.6219 358.84583 316.6219Q360.12708 316.6219 360.9552 315.73126Q361.78333 314.825 361.78333 313.15314Q361.78333 312.10626 361.42395 311.325Q361.0802 310.54376 360.3927 310.1219Q359.7052 309.6844 358.86145 309.6844Q357.65833 309.6844 356.78333 310.5125Q355.90833 311.34064 355.90833 313.27814ZM368.0177 315.16876L369.04895 315.3094Q368.87708 316.3719 368.17395 316.98126Q367.47083 317.59064 366.4552 317.59064Q365.17395 317.59064 364.3927 316.7625Q363.62708 315.91876 363.62708 314.35626Q363.62708 313.35626 363.9552 312.60626Q364.29895 311.84064 364.97083 311.46564Q365.65833 311.09064 366.47083 311.09064Q367.47083 311.09064 368.11145 311.60626Q368.7677 312.10626 368.9552 313.0594L367.92395 313.21564Q367.78333 312.59064 367.40833 312.27814Q367.03333 311.95 366.50208 311.95Q365.7052 311.95 365.2052 312.52814Q364.7052 313.09064 364.7052 314.325Q364.7052 315.59064 365.18958 316.15314Q365.67395 316.71564 366.43958 316.71564Q367.06458 316.71564 367.47083 316.34064Q367.8927 315.96564 368.0177 315.16876ZM372.25208 316.5125L372.40833 317.4344Q371.9552 317.52814 371.61145 317.52814Q371.03333 317.52814 370.72083 317.35626Q370.40833 317.16876 370.2677 316.8719Q370.1427 316.575 370.1427 315.6219L370.1427 312.04376L369.37708 312.04376L369.37708 311.23126L370.1427 311.23126L370.1427 309.6844L371.18958 309.0594L371.18958 311.23126L372.25208 311.23126L372.25208 312.04376L371.18958 312.04376L371.18958 315.6844Q371.18958 316.1375 371.23645 316.2625Q371.29895 316.3875 371.42395 316.46564Q371.54895 316.54376 371.78333 316.54376Q371.97083 316.54376 372.25208 316.5125ZM372.56458 314.34064Q372.56458 312.60626 373.5177 311.77814Q374.31458 311.09064 375.47083 311.09064Q376.75208 311.09064 377.56458 311.9344Q378.3927 312.7625 378.3927 314.2469Q378.3927 315.45 378.03333 316.1375Q377.67395 316.825 376.97083 317.21564Q376.28333 317.59064 375.47083 317.59064Q374.17395 317.59064 373.36145 316.7625Q372.56458 315.91876 372.56458 314.34064ZM373.6427 314.34064Q373.6427 315.52814 374.15833 316.1219Q374.68958 316.71564 375.47083 316.71564Q376.2677 316.71564 376.78333 316.1219Q377.29895 315.52814 377.29895 314.3094Q377.29895 313.15314 376.7677 312.5594Q376.25208 311.96564 375.47083 311.96564Q374.68958 311.96564 374.15833 312.5594Q373.6427 313.1375 373.6427 314.34064ZM380.92395 317.45L379.93958 317.45L379.93958 308.85626L381.00208 308.85626L381.00208 311.91876Q381.67395 311.09064 382.7052 311.09064Q383.28333 311.09064 383.78333 311.325Q384.29895 311.54376 384.62708 311.96564Q384.97083 312.3875 385.15833 312.98126Q385.34583 313.575 385.34583 314.2469Q385.34583 315.84064 384.54895 316.71564Q383.75208 317.59064 382.65833 317.59064Q381.54895 317.59064 380.92395 316.66876L380.92395 317.45ZM380.90833 314.29376Q380.90833 315.40314 381.22083 315.90314Q381.72083 316.71564 382.56458 316.71564Q383.25208 316.71564 383.75208 316.1219Q384.2677 315.52814 384.2677 314.325Q384.2677 313.10626 383.78333 312.52814Q383.29895 311.95 382.61145 311.95Q381.92395 311.95 381.40833 312.5594Q380.90833 313.15314 380.90833 314.29376ZM391.2052 315.45L392.29895 315.575Q392.04895 316.52814 391.34583 317.0594Q390.6427 317.59064 389.56458 317.59064Q388.2052 317.59064 387.3927 316.7469Q386.59583 315.90314 386.59583 314.3875Q386.59583 312.825 387.40833 311.96564Q388.22083 311.09064 389.50208 311.09064Q390.75208 311.09064 391.53333 311.9344Q392.3302 312.77814 392.3302 314.325Q392.3302 314.41876 392.3302 314.60626L387.68958 314.60626Q387.75208 315.6375 388.2677 316.1844Q388.78333 316.71564 389.56458 316.71564Q390.1427 316.71564 390.54895 316.41876Q390.97083 316.10626 391.2052 315.45ZM387.75208 313.7469L391.22083 313.7469Q391.15833 312.95 390.8302 312.5594Q390.31458 311.95 389.5177 311.95Q388.78333 311.95 388.28333 312.4344Q387.79895 312.91876 387.75208 313.7469ZM393.93958 317.45L393.93958 311.23126L394.8927 311.23126L394.8927 312.16876Q395.25208 311.5125 395.54895 311.3094Q395.86145 311.09064 396.23645 311.09064Q396.7677 311.09064 397.31458 311.41876L396.9552 312.40314Q396.56458 312.16876 396.18958 312.16876Q395.8302 312.16876 395.54895 312.3875Q395.28333 312.59064 395.17395 312.96564Q394.98645 313.52814 394.98645 314.1844L394.98645 317.45L393.93958 317.45Z" fill-rule="nonzero"/><path fill="#000000" d="M430.39688 317.45L430.39688 308.85626L431.55313 308.85626L436.06876 315.60626L436.06876 308.85626L437.1625 308.85626L437.1625 317.45L435.99063 317.45L431.475 310.7L431.475 317.45L430.39688 317.45ZM438.88126 314.34064Q438.88126 312.60626 439.83438 311.77814Q440.63126 311.09064 441.7875 311.09064Q443.06876 311.09064 443.88126 311.9344Q444.70938 312.7625 444.70938 314.2469Q444.70938 315.45 444.35 316.1375Q443.99063 316.825 443.2875 317.21564Q442.6 317.59064 441.7875 317.59064Q440.49063 317.59064 439.67813 316.7625Q438.88126 315.91876 438.88126 314.34064ZM439.95938 314.34064Q439.95938 315.52814 440.475 316.1219Q441.00626 316.71564 441.7875 316.71564Q442.58438 316.71564 443.1 316.1219Q443.61563 315.52814 443.61563 314.3094Q443.61563 313.15314 443.08438 312.5594Q442.56876 311.96564 441.7875 311.96564Q441.00626 311.96564 440.475 312.5594Q439.95938 313.1375 439.95938 314.34064ZM447.99063 317.45L445.63126 311.23126L446.74063 311.23126L448.08438 314.95Q448.2875 315.5594 448.475 316.2Q448.61563 315.71564 448.86563 315.02814L450.25626 311.23126L451.33438 311.23126L448.975 317.45L447.99063 317.45ZM455.52188 315.45L456.61563 315.575Q456.36563 316.52814 455.6625 317.0594Q454.95938 317.59064 453.88126 317.59064Q452.52188 317.59064 451.70938 316.7469Q450.9125 315.90314 450.9125 314.3875Q450.9125 312.825 451.725 311.96564Q452.5375 311.09064 453.81876 311.09064Q455.06876 311.09064 455.85 311.9344Q456.64688 312.77814 456.64688 314.325Q456.64688 314.41876 456.64688 314.60626L452.00626 314.60626Q452.06876 315.6375 452.58438 316.1844Q453.1 316.71564 453.88126 316.71564Q454.45938 316.71564 454.86563 316.41876Q455.2875 316.10626 455.52188 315.45ZM452.06876 313.7469L455.5375 313.7469Q455.475 312.95 455.14688 312.5594Q454.63126 311.95 453.83438 311.95Q453.1 311.95 452.6 312.4344Q452.11563 312.91876 452.06876 313.7469ZM458.27188 317.45L458.27188 311.23126L459.20938 311.23126L459.20938 312.10626Q459.50626 311.6375 459.99063 311.3719Q460.475 311.09064 461.1 311.09064Q461.7875 311.09064 462.225 311.3719Q462.67813 311.65314 462.85 312.16876Q463.6 311.09064 464.77188 311.09064Q465.70938 311.09064 466.19376 311.60626Q466.69376 312.10626 466.69376 313.1844L466.69376 317.45L465.64688 317.45L465.64688 313.52814Q465.64688 312.90314 465.5375 312.6219Q465.44376 312.34064 465.17813 312.16876Q464.9125 311.9969 464.5375 311.9969Q463.88126 311.9969 463.44376 312.4344Q463.02188 312.8719 463.02188 313.84064L463.02188 317.45L461.95938 317.45L461.95938 313.40314Q461.95938 312.7 461.69376 312.35626Q461.44376 311.9969 460.86563 311.9969Q460.4125 311.9969 460.0375 312.23126Q459.6625 312.46564 459.49063 312.91876Q459.31876 313.3719 459.31876 314.21564L459.31876 317.45L458.27188 317.45ZM470.24063 317.45L469.25626 317.45L469.25626 308.85626L470.31876 308.85626L470.31876 311.91876Q470.99063 311.09064 472.02188 311.09064Q472.6 311.09064 473.1 311.325Q473.61563 311.54376 473.94376 311.96564Q474.2875 312.3875 474.475 312.98126Q474.6625 313.575 474.6625 314.2469Q474.6625 315.84064 473.86563 316.71564Q473.06876 317.59064 471.975 317.59064Q470.86563 317.59064 470.24063 316.66876L470.24063 317.45ZM470.225 314.29376Q470.225 315.40314 470.5375 315.90314Q471.0375 316.71564 471.88126 316.71564Q472.56876 316.71564 473.06876 316.1219Q473.58438 315.52814 473.58438 314.325Q473.58438 313.10626 473.1 312.52814Q472.61563 311.95 471.92813 311.95Q471.24063 311.95 470.725 312.5594Q470.225 313.15314 470.225 314.29376ZM480.52188 315.45L481.61563 315.575Q481.36563 316.52814 480.6625 317.0594Q479.95938 317.59064 478.88126 317.59064Q477.52188 317.59064 476.70938 316.7469Q475.9125 315.90314 475.9125 314.3875Q475.9125 312.825 476.725 311.96564Q477.5375 311.09064 478.81876 311.09064Q480.06876 311.09064 480.85 311.9344Q481.64688 312.77814 481.64688 314.325Q481.64688 314.41876 481.64688 314.60626L477.00626 314.60626Q477.06876 315.6375 477.58438 316.1844Q478.1 316.71564 478.88126 316.71564Q479.45938 316.71564 479.86563 316.41876Q480.2875 316.10626 480.52188 315.45ZM477.06876 313.7469L480.5375 313.7469Q480.475 312.95 480.14688 312.5594Q479.63126 311.95 478.83438 311.95Q478.1 311.95 477.6 312.4344Q477.11563 312.91876 477.06876 313.7469ZM483.25626 317.45L483.25626 311.23126L484.20938 311.23126L484.20938 312.16876Q484.56876 311.5125 484.86563 311.3094Q485.17813 311.09064 485.55313 311.09064Q486.08438 311.09064 486.63126 311.41876L486.27188 312.40314Q485.88126 312.16876 485.50626 312.16876Q485.14688 312.16876 484.86563 312.3875Q484.6 312.59064 484.49063 312.96564Q484.30313 313.52814 484.30313 314.1844L484.30313 317.45L483.25626 317.45Z" fill-rule="nonzero"/><path fill="#000000" d="M512.2135 317.45L512.2135 308.85626L515.18225 308.85626Q516.18225 308.85626 516.7135 308.98126Q517.4479 309.15314 517.9635 309.59064Q518.651 310.16876 518.9791 311.075Q519.3229 311.96564 519.3229 313.10626Q519.3229 314.09064 519.0885 314.84064Q518.86975 315.59064 518.5104 316.09064Q518.151 316.59064 517.7135 316.8719Q517.2916 317.15314 516.6979 317.3094Q516.1041 317.45 515.3229 317.45L512.2135 317.45ZM513.3541 316.4344L515.18225 316.4344Q516.0416 316.4344 516.526 316.27814Q517.0104 316.1219 517.2916 315.825Q517.6979 315.4344 517.9166 314.7469Q518.151 314.0594 518.151 313.09064Q518.151 311.7469 517.6979 311.02814Q517.2604 310.29376 516.6354 310.04376Q516.1666 309.8719 515.1666 309.8719L513.3541 309.8719L513.3541 316.4344ZM525.3385 315.45L526.43225 315.575Q526.18225 316.52814 525.4791 317.0594Q524.776 317.59064 523.6979 317.59064Q522.3385 317.59064 521.526 316.7469Q520.7291 315.90314 520.7291 314.3875Q520.7291 312.825 521.5416 311.96564Q522.3541 311.09064 523.6354 311.09064Q524.8854 311.09064 525.6666 311.9344Q526.4635 312.77814 526.4635 314.325Q526.4635 314.41876 526.4635 314.60626L521.8229 314.60626Q521.8854 315.6375 522.401 316.1844Q522.9166 316.71564 523.6979 316.71564Q524.276 316.71564 524.68225 316.41876Q525.1041 316.10626 525.3385 315.45ZM521.8854 313.7469L525.3541 313.7469Q525.2916 312.95 524.9635 312.5594Q524.4479 311.95 523.651 311.95Q522.9166 311.95 522.4166 312.4344Q521.93225 312.91876 521.8854 313.7469ZM532.151 315.16876L533.18225 315.3094Q533.0104 316.3719 532.30725 316.98126Q531.6041 317.59064 530.5885 317.59064Q529.30725 317.59064 528.526 316.7625Q527.7604 315.91876 527.7604 314.35626Q527.7604 313.35626 528.0885 312.60626Q528.43225 311.84064 529.1041 311.46564Q529.7916 311.09064 530.6041 311.09064Q531.6041 311.09064 532.24475 311.60626Q532.901 312.10626 533.0885 313.0594L532.05725 313.21564Q531.9166 312.59064 531.5416 312.27814Q531.1666 311.95 530.6354 311.95Q529.8385 311.95 529.3385 312.52814Q528.8385 313.09064 528.8385 314.325Q528.8385 315.59064 529.3229 316.15314Q529.80725 316.71564 530.5729 316.71564Q531.1979 316.71564 531.6041 316.34064Q532.026 315.96564 532.151 315.16876ZM538.3385 315.45L539.43225 315.575Q539.18225 316.52814 538.4791 317.0594Q537.776 317.59064 536.6979 317.59064Q535.3385 317.59064 534.526 316.7469Q533.7291 315.90314 533.7291 314.3875Q533.7291 312.825 534.5416 311.96564Q535.3541 311.09064 536.6354 311.09064Q537.8854 311.09064 538.6666 311.9344Q539.4635 312.77814 539.4635 314.325Q539.4635 314.41876 539.4635 314.60626L534.8229 314.60626Q534.8854 315.6375 535.401 316.1844Q535.9166 316.71564 536.6979 316.71564Q537.276 316.71564 537.68225 316.41876Q538.1041 316.10626 538.3385 315.45ZM534.8854 313.7469L538.3541 313.7469Q538.2916 312.95 537.9635 312.5594Q537.4479 311.95 536.651 311.95Q535.9166 311.95 535.4166 312.4344Q534.93225 312.91876 534.8854 313.7469ZM541.0885 317.45L541.0885 311.23126L542.026 311.23126L542.026 312.10626Q542.3229 311.6375 542.80725 311.3719Q543.2916 311.09064 543.9166 311.09064Q544.6041 311.09064 545.0416 311.3719Q545.49475 311.65314 545.6666 312.16876Q546.4166 311.09064 547.5885 311.09064Q548.526 311.09064 549.0104 311.60626Q549.5104 312.10626 549.5104 313.1844L549.5104 317.45L548.4635 317.45L548.4635 313.52814Q548.4635 312.90314 548.3541 312.6219Q548.2604 312.34064 547.99475 312.16876Q547.7291 311.9969 547.3541 311.9969Q546.6979 311.9969 546.2604 312.4344Q545.8385 312.8719 545.8385 313.84064L545.8385 317.45L544.776 317.45L544.776 313.40314Q544.776 312.7 544.5104 312.35626Q544.2604 311.9969 543.68225 311.9969Q543.2291 311.9969 542.8541 312.23126Q542.4791 312.46564 542.30725 312.91876Q542.1354 313.3719 542.1354 314.21564L542.1354 317.45L541.0885 317.45ZM553.05725 317.45L552.0729 317.45L552.0729 308.85626L553.1354 308.85626L553.1354 311.91876Q553.80725 311.09064 554.8385 311.09064Q555.4166 311.09064 555.9166 311.325Q556.43225 311.54376 556.7604 311.96564Q557.1041 312.3875 557.2916 312.98126Q557.4791 313.575 557.4791 314.2469Q557.4791 315.84064 556.68225 316.71564Q555.8854 317.59064 554.7916 317.59064Q553.68225 317.59064 553.05725 316.66876L553.05725 317.45ZM553.0416 314.29376Q553.0416 315.40314 553.3541 315.90314Q553.8541 316.71564 554.6979 316.71564Q555.3854 316.71564 555.8854 316.1219Q556.401 315.52814 556.401 314.325Q556.401 313.10626 555.9166 312.52814Q555.43225 311.95 554.74475 311.95Q554.05725 311.95 553.5416 312.5594Q553.0416 313.15314 553.0416 314.29376ZM563.3385 315.45L564.43225 315.575Q564.18225 316.52814 563.4791 317.0594Q562.776 317.59064 561.6979 317.59064Q560.3385 317.59064 559.526 316.7469Q558.7291 315.90314 558.7291 314.3875Q558.7291 312.825 559.5416 311.96564Q560.3541 311.09064 561.6354 311.09064Q562.8854 311.09064 563.6666 311.9344Q564.4635 312.77814 564.4635 314.325Q564.4635 314.41876 564.4635 314.60626L559.8229 314.60626Q559.8854 315.6375 560.401 316.1844Q560.9166 316.71564 561.6979 316.71564Q562.276 316.71564 562.68225 316.41876Q563.1041 316.10626 563.3385 315.45ZM559.8854 313.7469L563.3541 313.7469Q563.2916 312.95 562.9635 312.5594Q562.4479 311.95 561.651 311.95Q560.9166 311.95 560.4166 312.4344Q559.93225 312.91876 559.8854 313.7469ZM566.0729 317.45L566.0729 311.23126L567.026 311.23126L567.026 312.16876Q567.3854 311.5125 567.68225 311.3094Q567.99475 311.09064 568.36975 311.09064Q568.901 311.09064 569.4479 311.41876L569.0885 312.40314Q568.6979 312.16876 568.3229 312.16876Q567.9635 312.16876 567.68225 312.3875Q567.4166 312.59064 567.30725 312.96564Q567.11975 313.52814 567.11975 314.1844L567.11975 317.45L566.0729 317.45Z" fill-rule="nonzero"/><path fill="#757575" d="M23.7375 37.55L23.7375 24.925L19.01875 24.925L19.01875 23.2375L30.3625 23.2375L30.3625 24.925L25.628124 24.925L25.628124 37.55L23.7375 37.55ZM31.221874 32.3625Q31.221874 29.4875 32.815624 28.096874Q34.159374 26.940624 36.08125 26.940624Q38.221874 26.940624 39.565624 28.346874Q40.925 29.753124 40.925 32.221874Q40.925 34.221874 40.33125 35.378124Q39.7375 36.51875 38.58125 37.159374Q37.440624 37.784374 36.08125 37.784374Q33.89375 37.784374 32.55 36.39375Q31.221874 34.9875 31.221874 32.3625ZM33.01875 32.3625Q33.01875 34.3625 33.878124 35.346874Q34.753124 36.33125 36.08125 36.33125Q37.39375 36.33125 38.253124 35.346874Q39.128124 34.346874 39.128124 32.3Q39.128124 30.378124 38.253124 29.39375Q37.378124 28.39375 36.08125 28.39375Q34.753124 28.39375 33.878124 29.39375Q33.01875 30.378124 33.01875 32.3625ZM46.70625 35.971874L46.95625 37.534374Q46.221874 37.690624 45.628124 37.690624Q44.675 37.690624 44.14375 37.39375Q43.628124 37.08125 43.409374 36.596874Q43.190624 36.096874 43.190624 34.51875L43.190624 28.55L41.909374 28.55L41.909374 27.175L43.190624 27.175L43.190624 24.6125L44.940624 23.55L44.940624 27.175L46.70625 27.175L46.70625 28.55L44.940624 28.55L44.940624 34.6125Q44.940624 35.3625 45.034374 35.58125Q45.128124 35.784374 45.33125 35.925Q45.55 36.05 45.940624 36.05Q46.221874 36.05 46.70625 35.971874ZM55.64375 36.26875Q54.659374 37.096874 53.753124 37.440624Q52.846874 37.784374 51.815624 37.784374Q50.1125 37.784374 49.190624 36.95625Q48.26875 36.1125 48.26875 34.815624Q48.26875 34.05 48.6125 33.425Q48.971874 32.8 49.534374 32.425Q50.096874 32.034374 50.8 31.83125Q51.315624 31.70625 52.3625 31.565624Q54.4875 31.315624 55.4875 30.971874Q55.503124 30.6125 55.503124 30.503124Q55.503124 29.440624 55.003124 28.9875Q54.33125 28.39375 53.003124 28.39375Q51.753124 28.39375 51.159374 28.83125Q50.58125 29.26875 50.3 30.378124L48.58125 30.14375Q48.815624 29.034374 49.346874 28.3625Q49.878124 27.675 50.89375 27.315624Q51.909374 26.940624 53.253124 26.940624Q54.58125 26.940624 55.409374 27.253124Q56.2375 27.565624 56.628124 28.05Q57.01875 28.51875 57.175 29.2375Q57.26875 29.690624 57.26875 30.8625L57.26875 33.20625Q57.26875 35.659374 57.378124 36.315624Q57.4875 36.95625 57.83125 37.55L55.9875 37.55Q55.721874 37.003124 55.64375 36.26875ZM55.4875 32.346874Q54.534374 32.7375 52.6125 33.003124Q51.534374 33.159374 51.08125 33.3625Q50.64375 33.55 50.39375 33.925Q50.14375 34.3 50.14375 34.76875Q50.14375 35.471874 50.675 35.940624Q51.20625 36.409374 52.2375 36.409374Q53.253124 36.409374 54.034374 35.971874Q54.83125 35.51875 55.20625 34.753124Q55.4875 34.14375 55.4875 32.9875L55.4875 32.346874ZM59.83125 37.55L59.83125 23.2375L61.58125 23.2375L61.58125 37.55L59.83125 37.55ZM72.59688 37.55L68.8 23.2375L70.7375 23.2375L72.90938 32.6125Q73.26875 34.096874 73.51875 35.55Q74.06563 33.253124 74.15938 32.89375L76.89375 23.2375L79.175 23.2375L81.22188 30.471874Q82.00313 33.175 82.34688 35.55Q82.6125 34.190624 83.05 32.425L85.3 23.2375L87.20625 23.2375L83.28438 37.55L81.45625 37.55L78.44063 26.64375Q78.05 25.26875 77.9875 24.95625Q77.75313 25.940624 77.56563 26.64375L74.53438 37.55L72.59688 37.55ZM88.87813 25.253124L88.87813 23.2375L90.64375 23.2375L90.64375 25.253124L88.87813 25.253124ZM88.87813 37.55L88.87813 27.175L90.64375 27.175L90.64375 37.55L88.87813 37.55ZM92.8625 37.55L92.8625 27.175L94.45625 27.175L94.45625 28.659374Q95.59688 26.940624 97.75313 26.940624Q98.69063 26.940624 99.47188 27.284374Q100.26875 27.6125 100.65938 28.159374Q101.05 28.70625 101.20625 29.45625Q101.3 29.95625 101.3 31.175L101.3 37.55L99.53438 37.55L99.53438 31.2375Q99.53438 30.159374 99.33125 29.628124Q99.12813 29.096874 98.59688 28.784374Q98.08125 28.471874 97.37813 28.471874Q96.25313 28.471874 95.44063 29.190624Q94.62813 29.89375 94.62813 31.878124L94.62813 37.55L92.8625 37.55ZM102.8625 37.55L102.8625 27.175L104.45625 27.175L104.45625 28.659374Q105.59688 26.940624 107.75313 26.940624Q108.69063 26.940624 109.47188 27.284374Q110.26875 27.6125 110.65938 28.159374Q111.05 28.70625 111.20625 29.45625Q111.3 29.95625 111.3 31.175L111.3 37.55L109.53438 37.55L109.53438 31.2375Q109.53438 30.159374 109.33125 29.628124Q109.12813 29.096874 108.59688 28.784374Q108.08125 28.471874 107.37813 28.471874Q106.25313 28.471874 105.44063 29.190624Q104.62813 29.89375 104.62813 31.878124L104.62813 37.55L102.8625 37.55ZM112.87813 25.253124L112.87813 23.2375L114.64375 23.2375L114.64375 25.253124L112.87813 25.253124ZM112.87813 37.55L112.87813 27.175L114.64375 27.175L114.64375 37.55L112.87813 37.55ZM116.8625 37.55L116.8625 27.175L118.45625 27.175L118.45625 28.659374Q119.59688 26.940624 121.75313 26.940624Q122.69063 26.940624 123.47188 27.284374Q124.26875 27.6125 124.65938 28.159374Q125.05 28.70625 125.20625 29.45625Q125.3 29.95625 125.3 31.175L125.3 37.55L123.53438 37.55L123.53438 31.2375Q123.53438 30.159374 123.33125 29.628124Q123.12813 29.096874 122.59688 28.784374Q122.08125 28.471874 121.37813 28.471874Q120.25313 28.471874 119.44063 29.190624Q118.62813 29.89375 118.62813 31.878124L118.62813 37.55L116.8625 37.55ZM126.55 38.409374L128.25313 38.659374Q128.3625 39.45625 128.84688 39.815624Q129.50313 40.3 130.64375 40.3Q131.8625 40.3 132.51875 39.815624Q133.19063 39.33125 133.425 38.45625Q133.56563 37.909374 133.55 36.190624Q132.39375 37.55 130.675 37.55Q128.53438 37.55 127.3625 36.003124Q126.19063 34.45625 126.19063 32.3Q126.19063 30.815624 126.72188 29.565624Q127.26875 28.315624 128.28438 27.628124Q129.31563 26.940624 130.69063 26.940624Q132.51875 26.940624 133.72188 28.425L133.72188 27.175L135.33125 27.175L135.33125 36.14375Q135.33125 38.565624 134.83125 39.565624Q134.34688 40.58125 133.26875 41.159374Q132.20625 41.753124 130.64375 41.753124Q128.8 41.753124 127.64375 40.925Q126.50313 40.096874 126.55 38.409374ZM128.00313 32.175Q128.00313 34.221874 128.81563 35.159374Q129.62813 36.096874 130.84688 36.096874Q132.05 36.096874 132.8625 35.159374Q133.69063 34.221874 133.69063 32.2375Q133.69063 30.33125 132.84688 29.3625Q132.00313 28.39375 130.81563 28.39375Q129.64375 28.39375 128.81563 29.346874Q128.00313 30.3 128.00313 32.175ZM144.08125 37.55L144.08125 23.2375L146.01875 23.2375L153.53438 34.471874L153.53438 23.2375L155.34688 23.2375L155.34688 37.55L153.40938 37.55L145.89375 26.3L145.89375 37.55L144.08125 37.55ZM156.22188 32.3625Q156.22188 29.4875 157.81563 28.096874Q159.15938 26.940624 161.08125 26.940624Q163.22188 26.940624 164.56563 28.346874Q165.925 29.753124 165.925 32.221874Q165.925 34.221874 165.33125 35.378124Q164.7375 36.51875 163.58125 37.159374Q162.44063 37.784374 161.08125 37.784374Q158.89375 37.784374 157.55 36.39375Q156.22188 34.9875 156.22188 32.3625ZM158.01875 32.3625Q158.01875 34.3625 158.87813 35.346874Q159.75313 36.33125 161.08125 36.33125Q162.39375 36.33125 163.25313 35.346874Q164.12813 34.346874 164.12813 32.3Q164.12813 30.378124 163.25313 29.39375Q162.37813 28.39375 161.08125 28.39375Q159.75313 28.39375 158.87813 29.39375Q158.01875 30.378124 158.01875 32.3625ZM174.59688 37.55L174.59688 36.2375Q173.6125 37.784374 171.69063 37.784374Q170.45625 37.784374 169.40938 37.096874Q168.37813 36.409374 167.8 35.190624Q167.2375 33.971874 167.2375 32.378124Q167.2375 30.815624 167.75313 29.55Q168.26875 28.284374 169.3 27.6125Q170.34688 26.940624 171.6125 26.940624Q172.55 26.940624 173.28438 27.346874Q174.01875 27.7375 174.4875 28.3625L174.4875 23.2375L176.22188 23.2375L176.22188 37.55L174.59688 37.55ZM169.03438 32.378124Q169.03438 34.3625 169.87813 35.346874Q170.72188 36.33125 171.8625 36.33125Q173.01875 36.33125 173.81563 35.39375Q174.62813 34.45625 174.62813 32.51875Q174.62813 30.39375 173.8 29.39375Q172.9875 28.39375 171.78438 28.39375Q170.6125 28.39375 169.81563 29.3625Q169.03438 30.315624 169.03438 32.378124ZM185.97188 34.20625L187.78438 34.440624Q187.3625 36.01875 186.19063 36.909374Q185.03438 37.784374 183.22188 37.784374Q180.95625 37.784374 179.6125 36.39375Q178.28438 34.9875 178.28438 32.45625Q178.28438 29.83125 179.62813 28.39375Q180.97188 26.940624 183.12813 26.940624Q185.20625 26.940624 186.51875 28.3625Q187.84688 29.76875 187.84688 32.346874Q187.84688 32.503124 187.83125 32.815624L180.09688 32.815624Q180.19063 34.51875 181.06563 35.425Q181.94063 36.33125 183.2375 36.33125Q184.20625 36.33125 184.87813 35.83125Q185.56563 35.315624 185.97188 34.20625ZM180.19063 31.3625L185.9875 31.3625Q185.87813 30.065624 185.33125 29.409374Q184.4875 28.39375 183.14375 28.39375Q181.94063 28.39375 181.1125 29.20625Q180.28438 30.003124 180.19063 31.3625ZM189.15938 34.45625L190.90938 34.175Q191.05 35.221874 191.72188 35.784374Q192.39375 36.33125 193.59688 36.33125Q194.8 36.33125 195.37813 35.846874Q195.97188 35.346874 195.97188 34.690624Q195.97188 34.096874 195.45625 33.753124Q195.09688 33.51875 193.65938 33.159374Q191.72188 32.659374 190.97188 32.315624Q190.2375 31.95625 189.84688 31.33125Q189.45625 30.690624 189.45625 29.925Q189.45625 29.2375 189.76875 28.64375Q190.09688 28.05 190.64375 27.659374Q191.05 27.3625 191.75313 27.159374Q192.47188 26.940624 193.28438 26.940624Q194.50313 26.940624 195.425 27.3Q196.34688 27.64375 196.78438 28.253124Q197.22188 28.846874 197.39375 29.846874L195.675 30.08125Q195.55 29.284374 194.9875 28.846874Q194.425 28.39375 193.40938 28.39375Q192.19063 28.39375 191.675 28.8Q191.15938 29.190624 191.15938 29.721874Q191.15938 30.065624 191.37813 30.346874Q191.58125 30.628124 192.05 30.815624Q192.31563 30.909374 193.59688 31.253124Q195.47188 31.753124 196.20625 32.08125Q196.94063 32.39375 197.3625 33.003124Q197.78438 33.596874 197.78438 34.503124Q197.78438 35.378124 197.26875 36.159374Q196.75313 36.940624 195.78438 37.3625Q194.81563 37.784374 193.59688 37.784374Q191.58125 37.784374 190.51875 36.940624Q189.45625 36.096874 189.15938 34.45625ZM208.75313 37.55L204.8 27.175L206.65938 27.175L208.89375 33.39375Q209.25313 34.39375 209.55 35.471874Q209.78438 34.659374 210.20625 33.503124L212.50313 27.175L214.31563 27.175L210.39375 37.55L208.75313 37.55ZM214.15938 34.45625L215.90938 34.175Q216.05 35.221874 216.72188 35.784374Q217.39375 36.33125 218.59688 36.33125Q219.8 36.33125 220.37813 35.846874Q220.97188 35.346874 220.97188 34.690624Q220.97188 34.096874 220.45625 33.753124Q220.09688 33.51875 218.65938 33.159374Q216.72188 32.659374 215.97188 32.315624Q215.2375 31.95625 214.84688 31.33125Q214.45625 30.690624 214.45625 29.925Q214.45625 29.2375 214.76875 28.64375Q215.09688 28.05 215.64375 27.659374Q216.05 27.3625 216.75313 27.159374Q217.47188 26.940624 218.28438 26.940624Q219.50313 26.940624 220.425 27.3Q221.34688 27.64375 221.78438 28.253124Q222.22188 28.846874 222.39375 29.846874L220.675 30.08125Q220.55 29.284374 219.9875 28.846874Q219.425 28.39375 218.40938 28.39375Q217.19063 28.39375 216.675 28.8Q216.15938 29.190624 216.15938 29.721874Q216.15938 30.065624 216.37813 30.346874Q216.58125 30.628124 217.05 30.815624Q217.31563 30.909374 218.59688 31.253124Q220.47188 31.753124 221.20625 32.08125Q221.94063 32.39375 222.3625 33.003124Q222.78438 33.596874 222.78438 34.503124Q222.78438 35.378124 222.26875 36.159374Q221.75313 36.940624 220.78438 37.3625Q219.81563 37.784374 218.59688 37.784374Q216.58125 37.784374 215.51875 36.940624Q214.45625 36.096874 214.15938 34.45625ZM225.3625 37.55L225.3625 35.55L227.3625 35.55L227.3625 37.55L225.3625 37.55ZM237.03438 37.55L237.03438 23.2375L239.89375 23.2375L243.26875 33.3625Q243.7375 34.784374 243.95625 35.4875Q244.20625 34.70625 244.72188 33.190624L248.14375 23.2375L250.69063 23.2375L250.69063 37.55L248.87813 37.55L248.87813 25.565624L244.70625 37.55L243.00313 37.55L238.8625 25.3625L238.8625 37.55L237.03438 37.55ZM253.22188 32.3625Q253.22188 29.4875 254.81563 28.096874Q256.15936 26.940624 258.08124 26.940624Q260.22186 26.940624 261.5656 28.346874Q262.925 29.753124 262.925 32.221874Q262.925 34.221874 262.33124 35.378124Q261.7375 36.51875 260.58124 37.159374Q259.4406 37.784374 258.08124 37.784374Q255.89375 37.784374 254.55 36.39375Q253.22188 34.9875 253.22188 32.3625ZM255.01875 32.3625Q255.01875 34.3625 255.87813 35.346874Q256.7531 36.33125 258.08124 36.33125Q259.39374 36.33125 260.2531 35.346874Q261.1281 34.346874 261.1281 32.3Q261.1281 30.378124 260.2531 29.39375Q259.3781 28.39375 258.08124 28.39375Q256.7531 28.39375 255.87813 29.39375Q255.01875 30.378124 255.01875 32.3625ZM264.8625 37.55L264.8625 27.175L266.45624 27.175L266.45624 28.659374Q267.59686 26.940624 269.7531 26.940624Q270.6906 26.940624 271.47186 27.284374Q272.26874 27.6125 272.65936 28.159374Q273.05 28.70625 273.20624 29.45625Q273.3 29.95625 273.3 31.175L273.3 37.55L271.53436 37.55L271.53436 31.2375Q271.53436 30.159374 271.33124 29.628124Q271.1281 29.096874 270.59686 28.784374Q270.08124 28.471874 269.3781 28.471874Q268.2531 28.471874 267.4406 29.190624Q266.6281 29.89375 266.6281 31.878124L266.6281 37.55L264.8625 37.55ZM278.70624 35.971874L278.95624 37.534374Q278.22186 37.690624 277.6281 37.690624Q276.675 37.690624 276.14374 37.39375Q275.6281 37.08125 275.40936 36.596874Q275.1906 36.096874 275.1906 34.51875L275.1906 28.55L273.90936 28.55L273.90936 27.175L275.1906 27.175L275.1906 24.6125L276.9406 23.55L276.9406 27.175L278.70624 27.175L278.70624 28.55L276.9406 28.55L276.9406 34.6125Q276.9406 35.3625 277.03436 35.58125Q277.1281 35.784374 277.33124 35.925Q277.55 36.05 277.9406 36.05Q278.22186 36.05 278.70624 35.971874ZM280.8625 37.55L280.8625 23.2375L282.6281 23.2375L282.6281 28.3625Q283.8625 26.940624 285.7375 26.940624Q286.8781 26.940624 287.72186 27.39375Q288.58124 27.846874 288.9406 28.659374Q289.3156 29.45625 289.3156 30.971874L289.3156 37.55L287.5656 37.55L287.5656 30.971874Q287.5656 29.659374 286.9875 29.065624Q286.40936 28.45625 285.3781 28.45625Q284.59686 28.45625 283.89374 28.8625Q283.20624 29.26875 282.90936 29.971874Q282.6281 30.659374 282.6281 31.878124L282.6281 37.55L280.8625 37.55Z" fill-rule="nonzero"/></svg>