<svg version="1.1" viewBox="0.0 0.0 600.0 371.0" fill="none" stroke="none" stroke-linecap="square" stroke-miterlimit="10" width="600" height="371" xmlns:xlink="http://www.w3.org/1999/xlink" xmlns="http://www.w3.org/2000/svg"><path fill="#ffffff" d="M0 0L600.0 0L600.0 371.0L0 371.0L0 0Z" fill-rule="nonzero"/><path stroke="#333333" stroke-width="1.0" stroke-linecap="butt" d="M94.5 300.5L581.5 300.5" fill-rule="nonzero"/><path stroke="#cccccc" stroke-width="1.0" stroke-linecap="butt" d="M94.5 220.5L581.5 220.5" fill-rule="nonzero"/><path stroke="#cccccc" stroke-width="1.0" stroke-linecap="butt" d="M94.5 141.5L581.5 141.5" fill-rule="nonzero"/><path stroke="#cccccc" stroke-width="1.0" stroke-linecap="butt" d="M94.5 61.5L581.5 61.5" fill-rule="nonzero"/><clipPath id="id_0"><path d="M94.55 61.916668L581.45 61.916668L581.45 300.45L94.55 300.45L94.55 61.916668Z" clip-rule="nonzero"/></clipPath><path stroke="#4285f4" stroke-width="2.0" stroke-linecap="butt" clip-path="url(#id_0)" d="M135.125 95.7725L216.275 181.08792L297.425 210.3321L378.575 184.30017L459.725 175.9356L540.875 176.52399" fill-rule="nonzero"/><path fill="#000000" fill-opacity="0.0" clip-path="url(#id_0)" d="M138.125 95.7725C138.125 97.42935 136.78186 98.7725 135.125 98.7725C133.46814 98.7725 132.125 97.42935 132.125 95.7725C132.125 94.11565 133.46814 92.7725 135.125 92.7725C136.78186 92.7725 138.125 94.11565 138.125 95.7725Z" fill-rule="nonzero"/><path fill="#000000" fill-opacity="0.0" clip-path="url(#id_0)" d="M219.275 181.08792C219.275 182.74478 217.93185 184.08792 216.275 184.08792C214.61815 184.08792 213.275 182.74478 213.275 181.08792C213.275 179.43106 214.61815 178.08792 216.275 178.08792C217.93185 178.08792 219.275 179.43106 219.275 181.08792Z" fill-rule="nonzero"/><path fill="#000000" fill-opacity="0.0" clip-path="url(#id_0)" d="M300.425 210.3321C300.425 211.98897 299.08185 213.3321 297.425 213.3321C295.76816 213.3321 294.425 211.98897 294.425 210.3321C294.425 208.67525 295.76816 207.3321 297.425 207.3321C299.08185 207.3321 300.425 208.67525 300.425 210.3321Z" fill-rule="nonzero"/><path fill="#000000" fill-opacity="0.0" clip-path="url(#id_0)" d="M381.575 184.30017C381.575 185.95702 380.23184 187.30017 378.575 187.30017C376.91815 187.30017 375.575 185.95702 375.575 184.30017C375.575 182.64331 376.91815 181.30017 378.575 181.30017C380.23184 181.30017 381.575 182.64331 381.575 184.30017Z" fill-rule="nonzero"/><path fill="#000000" fill-opacity="0.0" clip-path="url(#id_0)" d="M462.725 175.9356C462.725 177.59245 461.38187 178.9356 459.725 178.9356C458.06815 178.9356 456.725 177.59245 456.725 175.9356C456.725 174.27875 458.06815 172.9356 459.725 172.9356C461.38187 172.9356 462.725 174.27875 462.725 175.9356Z" fill-rule="nonzero"/><path fill="#000000" fill-opacity="0.0" clip-path="url(#id_0)" d="M543.875 176.52399C543.875 178.18083 542.53186 179.52399 540.875 179.52399C539.21814 179.52399 537.875 178.18083 537.875 176.52399C537.875 174.86713 539.21814 173.52399 540.875 173.52399C542.53186 173.52399 543.875 174.86713 543.875 176.52399Z" fill-rule="nonzero"/><path fill="#000000" d="M322.39062 349.45L322.39062 340.85626L324.10938 340.85626L326.14062 346.9344Q326.42188 347.79376 326.54688 348.21564Q326.6875 347.7469 327.0 346.84064L329.0625 340.85626L330.59375 340.85626L330.59375 349.45L329.5 349.45L329.5 342.2625L327.0 349.45L325.96875 349.45L323.48438 342.1375L323.48438 349.45L322.39062 349.45ZM330.90625 346.34064Q330.90625 344.60626 331.85938 343.77814Q332.65625 343.09064 333.8125 343.09064Q335.09375 343.09064 335.90625 343.9344Q336.73438 344.7625 336.73438 346.2469Q336.73438 347.45 336.375 348.1375Q336.01562 348.825 335.3125 349.21564Q334.625 349.59064 333.8125 349.59064Q332.51562 349.59064 331.70312 348.7625Q330.90625 347.91876 330.90625 346.34064ZM331.98438 346.34064Q331.98438 347.52814 332.5 348.1219Q333.03125 348.71564 333.8125 348.71564Q334.60938 348.71564 335.125 348.1219Q335.64062 347.52814 335.64062 346.3094Q335.64062 345.15314 335.10938 344.5594Q334.59375 343.96564 333.8125 343.96564Q333.03125 343.96564 332.5 344.5594Q331.98438 345.1375 331.98438 346.34064ZM338.29688 349.45L338.29688 343.23126L339.23438 343.23126L339.23438 344.10626Q339.92188 343.09064 341.21875 343.09064Q341.78125 343.09064 342.25 343.29376Q342.73438 343.4969 342.96875 343.825Q343.20312 344.15314 343.29688 344.59064Q343.34375 344.8875 343.34375 345.6219L343.34375 349.45L342.29688 349.45L342.29688 345.66876Q342.29688 345.0125 342.17188 344.7Q342.04688 344.3875 341.73438 344.2Q341.42188 343.9969 341.0 343.9969Q340.32812 343.9969 339.82812 344.4344Q339.34375 344.85626 339.34375 346.04376L339.34375 349.45L338.29688 349.45ZM347.59375 348.5125L347.75 349.4344Q347.29688 349.52814 346.95312 349.52814Q346.375 349.52814 346.0625 349.35626Q345.75 349.16876 345.60938 348.8719Q345.48438 348.575 345.48438 347.6219L345.48438 344.04376L344.71875 344.04376L344.71875 343.23126L345.48438 343.23126L345.48438 341.6844L346.53125 341.0594L346.53125 343.23126L347.59375 343.23126L347.59375 344.04376L346.53125 344.04376L346.53125 347.6844Q346.53125 348.1375 346.57812 348.2625Q346.64062 348.3875 346.76562 348.46564Q346.89062 348.54376 347.125 348.54376Q347.3125 348.54376 347.59375 348.5125ZM348.29688 349.45L348.29688 340.85626L349.34375 340.85626L349.34375 343.9344Q350.07812 343.09064 351.20312 343.09064Q351.90625 343.09064 352.40625 343.3719Q352.92188 343.6375 353.14062 344.1219Q353.35938 344.59064 353.35938 345.5125L353.35938 349.45L352.3125 349.45L352.3125 345.5125Q352.3125 344.71564 351.96875 344.35626Q351.625 343.9969 351.0 343.9969Q350.53125 343.9969 350.10938 344.2469Q349.70312 344.48126 349.51562 344.90314Q349.34375 345.3094 349.34375 346.04376L349.34375 349.45L348.29688 349.45Z" fill-rule="nonzero"/><path fill="#000000" d="M29.550013 257.07397L21.971888 257.07397L21.971888 259.9021L20.956263 259.9021L20.956263 253.08958L21.971888 253.08958L21.971888 255.93333L29.550013 255.93333L29.550013 257.07397ZM26.440638 252.77708Q24.706263 252.77708 23.878138 251.82396Q23.190638 251.02708 23.190638 249.87083Q23.190638 248.58958 24.034388 247.77708Q24.862513 246.94896 26.346888 246.94896Q27.550013 246.94896 28.237513 247.30833Q28.925013 247.66771 29.315638 248.37083Q29.690638 249.05833 29.690638 249.87083Q29.690638 251.16771 28.862513 251.98021Q28.018763 252.77708 26.440638 252.77708ZM26.440638 251.69896Q27.628138 251.69896 28.221888 251.18333Q28.815638 250.65208 28.815638 249.87083Q28.815638 249.07396 28.221888 248.55833Q27.628138 248.04271 26.409388 248.04271Q25.253138 248.04271 24.659388 248.57396Q24.065638 249.08958 24.065638 249.87083Q24.065638 250.65208 24.659388 251.18333Q25.237513 251.69896 26.440638 251.69896ZM28.612513 243.08958L29.534388 242.93333Q29.628138 243.38646 29.628138 243.73021Q29.628138 244.30833 29.456263 244.62083Q29.268763 244.93333 28.971888 245.07396Q28.675013 245.19896 27.721888 245.19896L24.143763 245.19896L24.143763 245.96458L23.331263 245.96458L23.331263 245.19896L21.784388 245.19896L21.159388 244.15208L23.331263 244.15208L23.331263 243.08958L24.143763 243.08958L24.143763 244.15208L27.784388 244.15208Q28.237513 244.15208 28.362513 244.10521Q28.487513 244.04271 28.565638 243.91771Q28.643763 243.79271 28.643763 243.55833Q28.643763 243.37083 28.612513 243.08958ZM28.784388 238.32396Q29.284388 238.91771 29.487513 239.46458Q29.690638 239.99583 29.690638 240.62083Q29.690638 241.65208 29.190638 242.19896Q28.690638 242.74583 27.909388 242.74583Q27.456263 242.74583 27.081263 242.54271Q26.690638 242.33958 26.471888 241.99583Q26.237513 241.65208 26.128138 241.23021Q26.034388 240.93333 25.956263 240.29271Q25.815638 239.02708 25.596888 238.41771Q25.378138 238.41771 25.331263 238.41771Q24.675013 238.41771 24.409388 238.71458Q24.065638 239.12083 24.065638 239.91771Q24.065638 240.65208 24.331263 241.01146Q24.581263 241.37083 25.237513 241.54271L25.096888 242.57396Q24.440638 242.43333 24.034388 242.10521Q23.628138 241.77708 23.409388 241.16771Q23.190638 240.55833 23.190638 239.76146Q23.190638 238.96458 23.378138 238.46458Q23.565638 237.96458 23.846888 237.73021Q24.128138 237.49583 24.565638 237.40208Q24.831263 237.35521 25.534388 237.35521L26.940638 237.35521Q28.409388 237.35521 28.800013 237.29271Q29.190638 237.21458 29.550013 237.01146L29.550013 238.12083Q29.221888 238.27708 28.784388 238.32396ZM26.425013 238.41771Q26.659388 238.99583 26.831263 240.13646Q26.925013 240.79271 27.050013 241.05833Q27.159388 241.32396 27.378138 241.48021Q27.596888 241.62083 27.878138 241.62083Q28.300013 241.62083 28.581263 241.30833Q28.862513 240.98021 28.862513 240.37083Q28.862513 239.76146 28.596888 239.29271Q28.331263 238.80833 27.862513 238.58958Q27.503138 238.41771 26.815638 238.41771L26.425013 238.41771ZM29.550013 235.41771L20.956263 235.41771L20.956263 234.35521L29.550013 234.35521L29.550013 235.41771ZM29.550013 230.19896L20.956263 226.90208L20.956263 225.68333L29.550013 222.16771L29.550013 223.44896L26.940638 224.46458L26.940638 228.04271L29.550013 228.99583L29.550013 230.19896ZM26.018763 227.71458L26.018763 224.80833L23.643763 225.69896Q22.565638 226.12083 21.862513 226.30833Q22.690638 226.48021 23.503138 226.77708L26.018763 227.71458ZM27.268763 218.32396L27.409388 217.29271Q28.471888 217.46458 29.081263 218.16771Q29.690638 218.87083 29.690638 219.88646Q29.690638 221.16771 28.862513 221.94896Q28.018763 222.71458 26.456263 222.71458Q25.456263 222.71458 24.706263 222.38646Q23.940638 222.04271 23.565638 221.37083Q23.190638 220.68333 23.190638 219.87083Q23.190638 218.87083 23.706263 218.23021Q24.206263 217.57396 25.159388 217.38646L25.315638 218.41771Q24.690638 218.55833 24.378138 218.93333Q24.050013 219.30833 24.050013 219.83958Q24.050013 220.63646 24.628138 221.13646Q25.190638 221.63646 26.425013 221.63646Q27.690638 221.63646 28.253138 221.15208Q28.815638 220.66771 28.815638 219.90208Q28.815638 219.27708 28.440638 218.87083Q28.065638 218.44896 27.268763 218.32396ZM28.612513 214.08958L29.534388 213.93333Q29.628138 214.38646 29.628138 214.73021Q29.628138 215.30833 29.456263 215.62083Q29.268763 215.93333 28.971888 216.07396Q28.675013 216.19896 27.721888 216.19896L24.143763 216.19896L24.143763 216.96458L23.331263 216.96458L23.331263 216.19896L21.784388 216.19896L21.159388 215.15208L23.331263 215.15208L23.331263 214.08958L24.143763 214.08958L24.143763 215.15208L27.784388 215.15208Q28.237513 215.15208 28.362513 215.10521Q28.487513 215.04271 28.565638 214.91771Q28.643763 214.79271 28.643763 214.55833Q28.643763 214.37083 28.612513 214.08958ZM22.175013 213.38646L20.956263 213.38646L20.956263 212.32396L22.175013 212.32396L22.175013 213.38646ZM29.550013 213.38646L23.331263 213.38646L23.331263 212.32396L29.550013 212.32396L29.550013 213.38646ZM29.550013 208.66771L23.331263 211.02708L23.331263 209.91771L27.050013 208.57396Q27.659388 208.37083 28.300013 208.18333Q27.815638 208.04271 27.128138 207.79271L23.331263 206.40208L23.331263 205.32396L29.550013 207.68333L29.550013 208.66771ZM27.550013 201.13646L27.675013 200.04271Q28.628138 200.29271 29.159388 200.99583Q29.690638 201.69896 29.690638 202.77708Q29.690638 204.13646 28.846888 204.94896Q28.003138 205.74583 26.487513 205.74583Q24.925013 205.74583 24.065638 204.93333Q23.190638 204.12083 23.190638 202.83958Q23.190638 201.58958 24.034388 200.80833Q24.878138 200.01146 26.425013 200.01146Q26.518763 200.01146 26.706263 200.01146L26.706263 204.65208Q27.737513 204.58958 28.284388 204.07396Q28.815638 203.55833 28.815638 202.77708Q28.815638 202.19896 28.518763 201.79271Q28.206263 201.37083 27.550013 201.13646ZM25.846888 204.58958L25.846888 201.12083Q25.050013 201.18333 24.659388 201.51146Q24.050013 202.02708 24.050013 202.82396Q24.050013 203.55833 24.534388 204.05833Q25.018763 204.54271 25.846888 204.58958ZM26.784388 195.63646L26.690638 194.57396Q27.346888 194.49583 27.753138 194.21458Q28.159388 193.93333 28.425013 193.35521Q28.675013 192.76146 28.675013 192.02708Q28.675013 191.38646 28.487513 190.88646Q28.284388 190.38646 27.956263 190.15208Q27.612513 189.90208 27.221888 189.90208Q26.815638 189.90208 26.518763 190.13646Q26.206263 190.37083 26.003138 190.90208Q25.862513 191.26146 25.581263 192.44896Q25.300013 193.62083 25.050013 194.08958Q24.721888 194.71458 24.253138 195.01146Q23.768763 195.30833 23.175013 195.30833Q22.534388 195.30833 21.971888 194.94896Q21.393763 194.57396 21.112513 193.87083Q20.815638 193.15208 20.815638 192.29271Q20.815638 191.33958 21.128138 190.60521Q21.425013 189.87083 22.034388 189.48021Q22.628138 189.08958 23.378138 189.05833L23.456263 190.15208Q22.643763 190.24583 22.237513 190.76146Q21.815638 191.26146 21.815638 192.24583Q21.815638 193.27708 22.190638 193.74583Q22.565638 194.21458 23.096888 194.21458Q23.565638 194.21458 23.862513 193.88646Q24.159388 193.55833 24.471888 192.18333Q24.784388 190.79271 25.018763 190.27708Q25.378138 189.52708 25.909388 189.16771Q26.425013 188.80833 27.128138 188.80833Q27.815638 188.80833 28.425013 189.19896Q29.018763 189.58958 29.362513 190.32396Q29.690638 191.05833 29.690638 191.98021Q29.690638 193.15208 29.362513 193.94896Q29.018763 194.73021 28.331263 195.18333Q27.643763 195.62083 26.784388 195.63646ZM28.612513 185.08958L29.534388 184.93333Q29.628138 185.38646 29.628138 185.73021Q29.628138 186.30833 29.456263 186.62083Q29.268763 186.93333 28.971888 187.07396Q28.675013 187.19896 27.721888 187.19896L24.143763 187.19896L24.143763 187.96458L23.331263 187.96458L23.331263 187.19896L21.784388 187.19896L21.159388 186.15208L23.331263 186.15208L23.331263 185.08958L24.143763 185.08958L24.143763 186.15208L27.784388 186.15208Q28.237513 186.15208 28.362513 186.10521Q28.487513 186.04271 28.565638 185.91771Q28.643763 185.79271 28.643763 185.55833Q28.643763 185.37083 28.612513 185.08958ZM28.784388 180.32396Q29.284388 180.91771 29.487513 181.46458Q29.690638 181.99583 29.690638 182.62083Q29.690638 183.65208 29.190638 184.19896Q28.690638 184.74583 27.909388 184.74583Q27.456263 184.74583 27.081263 184.54271Q26.690638 184.33958 26.471888 183.99583Q26.237513 183.65208 26.128138 183.23021Q26.034388 182.93333 25.956263 182.29271Q25.815638 181.02708 25.596888 180.41771Q25.378138 180.41771 25.331263 180.41771Q24.675013 180.41771 24.409388 180.71458Q24.065638 181.12083 24.065638 181.91771Q24.065638 182.65208 24.331263 183.01146Q24.581263 183.37083 25.237513 183.54271L25.096888 184.57396Q24.440638 184.43333 24.034388 184.10521Q23.628138 183.77708 23.409388 183.16771Q23.190638 182.55833 23.190638 181.76146Q23.190638 180.96458 23.378138 180.46458Q23.565638 179.96458 23.846888 179.73021Q24.128138 179.49583 24.565638 179.40208Q24.831263 179.35521 25.534388 179.35521L26.940638 179.35521Q28.409388 179.35521 28.800013 179.29271Q29.190638 179.21458 29.550013 179.01146L29.550013 180.12083Q29.221888 180.27708 28.784388 180.32396ZM26.425013 180.41771Q26.659388 180.99583 26.831263 182.13646Q26.925013 182.79271 27.050013 183.05833Q27.159388 183.32396 27.378138 183.48021Q27.596888 183.62083 27.878138 183.62083Q28.300013 183.62083 28.581263 183.30833Q28.862513 182.98021 28.862513 182.37083Q28.862513 181.76146 28.596888 181.29271Q28.331263 180.80833 27.862513 180.58958Q27.503138 180.41771 26.815638 180.41771L26.425013 180.41771ZM29.550013 177.38646L20.956263 177.38646L20.956263 176.32396L25.862513 176.32396L23.331263 173.83958L23.331263 172.46458L25.628138 174.85521L29.550013 172.23021L29.550013 173.52708L26.362513 175.58958L27.081263 176.32396L29.550013 176.32396L29.550013 177.38646ZM22.175013 171.38646L20.956263 171.38646L20.956263 170.32396L22.175013 170.32396L22.175013 171.38646ZM29.550013 171.38646L23.331263 171.38646L23.331263 170.32396L29.550013 170.32396L29.550013 171.38646ZM29.550013 168.38646L23.331263 168.38646L23.331263 167.44896L24.206263 167.44896Q23.190638 166.76146 23.190638 165.46458Q23.190638 164.90208 23.393763 164.43333Q23.596888 163.94896 23.925013 163.71458Q24.253138 163.48021 24.690638 163.38646Q24.987513 163.33958 25.721888 163.33958L29.550013 163.33958L29.550013 164.38646L25.768763 164.38646Q25.112513 164.38646 24.800013 164.51146Q24.487513 164.63646 24.300013 164.94896Q24.096888 165.26146 24.096888 165.68333Q24.096888 166.35521 24.534388 166.85521Q24.956263 167.33958 26.143763 167.33958L29.550013 167.33958L29.550013 168.38646ZM30.065638 161.58958L30.221888 160.55833Q30.690638 160.49583 30.909388 160.19896Q31.206263 159.80833 31.206263 159.13646Q31.206263 158.40208 30.909388 158.01146Q30.612513 157.60521 30.096888 157.46458Q29.768763 157.37083 28.737513 157.38646Q29.550013 158.07396 29.550013 159.10521Q29.550013 160.38646 28.628138 161.08958Q27.690638 161.79271 26.409388 161.79271Q25.518763 161.79271 24.768763 161.48021Q24.003138 161.15208 23.596888 160.54271Q23.190638 159.93333 23.190638 159.10521Q23.190638 157.99583 24.081263 157.27708L23.331263 157.27708L23.331263 156.30833L28.706263 156.30833Q30.159388 156.30833 30.768763 156.60521Q31.378138 156.90208 31.721888 157.54271Q32.08126 158.18333 32.08126 159.12083Q32.08126 160.23021 31.581263 160.91771Q31.081263 161.60521 30.065638 161.58958ZM26.331263 160.71458Q27.550013 160.71458 28.112513 160.23021Q28.675013 159.74583 28.675013 159.01146Q28.675013 158.27708 28.112513 157.79271Q27.550013 157.29271 26.362513 157.29271Q25.221888 157.29271 24.643763 157.80833Q24.065638 158.30833 24.065638 159.02708Q24.065638 159.73021 24.643763 160.23021Q25.206263 160.71458 26.331263 160.71458ZM29.550013 151.26146L20.956263 151.26146L20.956263 150.10521L27.706263 145.58958L20.956263 145.58958L20.956263 144.49583L29.550013 144.49583L29.550013 145.66771L22.800013 150.18333L29.550013 150.18333L29.550013 151.26146ZM26.440638 142.77708Q24.706263 142.77708 23.878138 141.82396Q23.190638 141.02708 23.190638 139.87083Q23.190638 138.58958 24.034388 137.77708Q24.862513 136.94896 26.346888 136.94896Q27.550013 136.94896 28.237513 137.30833Q28.925013 137.66771 29.315638 138.37083Q29.690638 139.05833 29.690638 139.87083Q29.690638 141.16771 28.862513 141.98021Q28.018763 142.77708 26.440638 142.77708ZM26.440638 141.69896Q27.628138 141.69896 28.221888 141.18333Q28.815638 140.65208 28.815638 139.87083Q28.815638 139.07396 28.221888 138.55833Q27.628138 138.04271 26.409388 138.04271Q25.253138 138.04271 24.659388 138.57396Q24.065638 139.08958 24.065638 139.87083Q24.065638 140.65208 24.659388 141.18333Q25.237513 141.69896 26.440638 141.69896ZM29.550013 131.35521L28.768763 131.35521Q29.690638 131.94896 29.690638 133.08958Q29.690638 133.83958 29.284388 134.46458Q28.862513 135.08958 28.128138 135.43333Q27.393763 135.77708 26.440638 135.77708Q25.518763 135.77708 24.753138 135.46458Q23.987513 135.15208 23.596888 134.52708Q23.190638 133.90208 23.190638 133.13646Q23.190638 132.57396 23.425013 132.13646Q23.659388 131.69896 24.034388 131.41771L20.956263 131.41771L20.956263 130.37083L29.550013 130.37083L29.550013 131.35521ZM26.440638 134.68333Q27.643763 134.68333 28.237513 134.18333Q28.815638 133.68333 28.815638 132.99583Q28.815638 132.30833 28.253138 131.82396Q27.690638 131.33958 26.534388 131.33958Q25.253138 131.33958 24.659388 131.83958Q24.065638 132.32396 24.065638 133.04271Q24.065638 133.74583 24.643763 134.21458Q25.206263 134.68333 26.440638 134.68333ZM27.550013 124.13646L27.675013 123.04271Q28.628138 123.29271 29.159388 123.995834Q29.690638 124.69896 29.690638 125.777084Q29.690638 127.13646 28.846888 127.94896Q28.003138 128.74583 26.487513 128.74583Q24.925013 128.74583 24.065638 127.933334Q23.190638 127.120834 23.190638 125.839584Q23.190638 124.589584 24.034388 123.808334Q24.878138 123.01146 26.425013 123.01146Q26.518763 123.01146 26.706263 123.01146L26.706263 127.652084Q27.737513 127.589584 28.284388 127.07396Q28.815638 126.558334 28.815638 125.777084Q28.815638 125.19896 28.518763 124.79271Q28.206263 124.370834 27.550013 124.13646ZM25.846888 127.589584L25.846888 124.120834Q25.050013 124.183334 24.659388 124.51146Q24.050013 125.027084 24.050013 125.82396Q24.050013 126.558334 24.534388 127.058334Q25.018763 127.54271 25.846888 127.589584ZM27.690638 121.808334L27.534388 120.777084Q28.159388 120.683334 28.487513 120.29271Q28.815638 119.88646 28.815638 119.152084Q28.815638 118.433334 28.534388 118.089584Q28.237513 117.73021 27.831263 117.73021Q27.471888 117.73021 27.268763 118.04271Q27.128138 118.26146 26.909388 119.120834Q26.612513 120.277084 26.409388 120.73021Q26.190638 121.16771 25.815638 121.402084Q25.440638 121.63646 24.971888 121.63646Q24.565638 121.63646 24.206263 121.44896Q23.846888 121.26146 23.612513 120.933334Q23.440638 120.683334 23.315638 120.26146Q23.190638 119.839584 23.190638 119.339584Q23.190638 118.620834 23.409388 118.07396Q23.612513 117.51146 23.971888 117.245834Q24.331263 116.98021 24.925013 116.88646L25.065638 117.91771Q24.596888 117.98021 24.331263 118.32396Q24.050013 118.652084 24.050013 119.277084Q24.050013 119.995834 24.300013 120.308334Q24.534388 120.620834 24.862513 120.620834Q25.065638 120.620834 25.221888 120.495834Q25.393763 120.35521 25.503138 120.089584Q25.565638 119.933334 25.768763 119.152084Q26.081263 118.027084 26.268763 117.589584Q26.456263 117.152084 26.815638 116.902084Q27.175013 116.652084 27.721888 116.652084Q28.253138 116.652084 28.721888 116.964584Q29.175013 117.26146 29.440638 117.839584Q29.690638 118.41771 29.690638 119.152084Q29.690638 120.370834 29.190638 121.01146Q28.675013 121.63646 27.690638 121.808334Z" fill-rule="nonzero"/><path fill="#000000" d="M82.05 300.21564Q82.05 298.6844 82.3625 297.7625Q82.675 296.825 83.28438 296.325Q83.90938 295.825 84.84688 295.825Q85.53438 295.825 86.05 296.10626Q86.58125 296.3875 86.925 296.91876Q87.26875 297.4344 87.45625 298.1844Q87.64375 298.9344 87.64375 300.21564Q87.64375 301.73126 87.33125 302.65314Q87.03438 303.575 86.40938 304.09064Q85.8 304.59064 84.84688 304.59064Q83.6125 304.59064 82.89375 303.7Q82.05 302.6375 82.05 300.21564ZM83.12813 300.21564Q83.12813 302.325 83.62813 303.02814Q84.12813 303.73126 84.84688 303.73126Q85.58125 303.73126 86.06563 303.02814Q86.56563 302.325 86.56563 300.21564Q86.56563 298.09064 86.06563 297.40314Q85.58125 296.7 84.83125 296.7Q84.1125 296.7 83.675 297.3094Q83.12813 298.09064 83.12813 300.21564Z" fill-rule="nonzero"/><path fill="#000000" d="M58.05 222.68889L59.159374 222.59514Q59.284374 223.40764 59.721874 223.81389Q60.175 224.22014 60.815624 224.22014Q61.565624 224.22014 62.096874 223.64201Q62.628124 223.06389 62.628124 222.12639Q62.628124 221.22014 62.1125 220.70451Q61.6125 220.17326 60.784374 220.17326Q60.284374 220.17326 59.8625 220.40764Q59.45625 220.64201 59.221874 221.00139L58.2375 220.87639L59.065624 216.47014L63.346874 216.47014L63.346874 217.47014L59.909374 217.47014L59.45625 219.78264Q60.221874 219.23576 61.065624 219.23576Q62.190624 219.23576 62.95625 220.01701Q63.7375 220.79826 63.7375 222.03264Q63.7375 223.18889 63.065624 224.04826Q62.2375 225.07951 60.815624 225.07951Q59.64375 225.07951 58.89375 224.42326Q58.159374 223.76701 58.05 222.68889ZM65.6125 224.93889L65.6125 223.73576L66.81563 223.73576L66.81563 224.93889Q66.81563 225.59514 66.58125 226.00139Q66.34688 226.42326 65.84688 226.64201L65.55 226.18889Q65.87813 226.04826 66.03438 225.75139Q66.19063 225.47014 66.22188 224.93889L65.6125 224.93889ZM68.05 220.70451Q68.05 219.17326 68.3625 218.25139Q68.675 217.31389 69.28438 216.81389Q69.90938 216.31389 70.84688 216.31389Q71.53438 216.31389 72.05 216.59514Q72.58125 216.87639 72.925 217.40764Q73.26875 217.92326 73.45625 218.67326Q73.64375 219.42326 73.64375 220.70451Q73.64375 222.22014 73.33125 223.14201Q73.03438 224.06389 72.40938 224.57951Q71.8 225.07951 70.84688 225.07951Q69.6125 225.07951 68.89375 224.18889Q68.05 223.12639 68.05 220.70451ZM69.12813 220.70451Q69.12813 222.81389 69.62813 223.51701Q70.12813 224.22014 70.84688 224.22014Q71.58125 224.22014 72.06563 223.51701Q72.56563 222.81389 72.56563 220.70451Q72.56563 218.57951 72.06563 217.89201Q71.58125 217.18889 70.83125 217.18889Q70.1125 217.18889 69.675 217.79826Q69.12813 218.57951 69.12813 220.70451ZM75.05 220.70451Q75.05 219.17326 75.3625 218.25139Q75.675 217.31389 76.28438 216.81389Q76.90938 216.31389 77.84688 216.31389Q78.53438 216.31389 79.05 216.59514Q79.58125 216.87639 79.925 217.40764Q80.26875 217.92326 80.45625 218.67326Q80.64375 219.42326 80.64375 220.70451Q80.64375 222.22014 80.33125 223.14201Q80.03438 224.06389 79.40938 224.57951Q78.8 225.07951 77.84688 225.07951Q76.6125 225.07951 75.89375 224.18889Q75.05 223.12639 75.05 220.70451ZM76.12813 220.70451Q76.12813 222.81389 76.62813 223.51701Q77.12813 224.22014 77.84688 224.22014Q78.58125 224.22014 79.06563 223.51701Q79.56563 222.81389 79.56563 220.70451Q79.56563 218.57951 79.06563 217.89201Q78.58125 217.18889 77.83125 217.18889Q77.1125 217.18889 76.675 217.79826Q76.12813 218.57951 76.12813 220.70451ZM82.05 220.70451Q82.05 219.17326 82.3625 218.25139Q82.675 217.31389 83.28438 216.81389Q83.90938 216.31389 84.84688 216.31389Q85.53438 216.31389 86.05 216.59514Q86.58125 216.87639 86.925 217.40764Q87.26875 217.92326 87.45625 218.67326Q87.64375 219.42326 87.64375 220.70451Q87.64375 222.22014 87.33125 223.14201Q87.03438 224.06389 86.40938 224.57951Q85.8 225.07951 84.84688 225.07951Q83.6125 225.07951 82.89375 224.18889Q82.05 223.12639 82.05 220.70451ZM83.12813 220.70451Q83.12813 222.81389 83.62813 223.51701Q84.12813 224.22014 84.84688 224.22014Q85.58125 224.22014 86.06563 223.51701Q86.56563 222.81389 86.56563 220.70451Q86.56563 218.57951 86.06563 217.89201Q85.58125 217.18889 84.83125 217.18889Q84.1125 217.18889 83.675 217.79826Q83.12813 218.57951 83.12813 220.70451Z" fill-rule="nonzero"/><path fill="#000000" d="M55.01875 145.42778L53.971874 145.42778L53.971874 138.70903Q53.58125 139.0684 52.95625 139.4434Q52.346874 139.80278 51.8625 139.97466L51.8625 138.95903Q52.7375 138.53716 53.39375 137.95903Q54.065624 137.36528 54.346874 136.80278L55.01875 136.80278L55.01875 145.42778ZM58.05 141.1934Q58.05 139.66216 58.3625 138.74028Q58.675 137.80278 59.284374 137.30278Q59.909374 136.80278 60.846874 136.80278Q61.534374 136.80278 62.05 137.08403Q62.58125 137.36528 62.925 137.89653Q63.26875 138.41216 63.45625 139.16216Q63.64375 139.91216 63.64375 141.1934Q63.64375 142.70903 63.33125 143.6309Q63.034374 144.55278 62.409374 145.0684Q61.8 145.5684 60.846874 145.5684Q59.6125 145.5684 58.89375 144.67778Q58.05 143.61528 58.05 141.1934ZM59.128124 141.1934Q59.128124 143.30278 59.628124 144.0059Q60.128124 144.70903 60.846874 144.70903Q61.58125 144.70903 62.065624 144.0059Q62.565624 143.30278 62.565624 141.1934Q62.565624 139.0684 62.065624 138.3809Q61.58125 137.67778 60.83125 137.67778Q60.1125 137.67778 59.675 138.28716Q59.128124 139.0684 59.128124 141.1934ZM65.6125 145.42778L65.6125 144.22466L66.81563 144.22466L66.81563 145.42778Q66.81563 146.08403 66.58125 146.49028Q66.34688 146.91216 65.84688 147.1309L65.55 146.67778Q65.87813 146.53716 66.03438 146.24028Q66.19063 145.95903 66.22188 145.42778L65.6125 145.42778ZM68.05 141.1934Q68.05 139.66216 68.3625 138.74028Q68.675 137.80278 69.28438 137.30278Q69.90938 136.80278 70.84688 136.80278Q71.53438 136.80278 72.05 137.08403Q72.58125 137.36528 72.925 137.89653Q73.26875 138.41216 73.45625 139.16216Q73.64375 139.91216 73.64375 141.1934Q73.64375 142.70903 73.33125 143.6309Q73.03438 144.55278 72.40938 145.0684Q71.8 145.5684 70.84688 145.5684Q69.6125 145.5684 68.89375 144.67778Q68.05 143.61528 68.05 141.1934ZM69.12813 141.1934Q69.12813 143.30278 69.62813 144.0059Q70.12813 144.70903 70.84688 144.70903Q71.58125 144.70903 72.06563 144.0059Q72.56563 143.30278 72.56563 141.1934Q72.56563 139.0684 72.06563 138.3809Q71.58125 137.67778 70.83125 137.67778Q70.1125 137.67778 69.675 138.28716Q69.12813 139.0684 69.12813 141.1934ZM75.05 141.1934Q75.05 139.66216 75.3625 138.74028Q75.675 137.80278 76.28438 137.30278Q76.90938 136.80278 77.84688 136.80278Q78.53438 136.80278 79.05 137.08403Q79.58125 137.36528 79.925 137.89653Q80.26875 138.41216 80.45625 139.16216Q80.64375 139.91216 80.64375 141.1934Q80.64375 142.70903 80.33125 143.6309Q80.03438 144.55278 79.40938 145.0684Q78.8 145.5684 77.84688 145.5684Q76.6125 145.5684 75.89375 144.67778Q75.05 143.61528 75.05 141.1934ZM76.12813 141.1934Q76.12813 143.30278 76.62813 144.0059Q77.12813 144.70903 77.84688 144.70903Q78.58125 144.70903 79.06563 144.0059Q79.56563 143.30278 79.56563 141.1934Q79.56563 139.0684 79.06563 138.3809Q78.58125 137.67778 77.83125 137.67778Q77.1125 137.67778 76.675 138.28716Q76.12813 139.0684 76.12813 141.1934ZM82.05 141.1934Q82.05 139.66216 82.3625 138.74028Q82.675 137.80278 83.28438 137.30278Q83.90938 136.80278 84.84688 136.80278Q85.53438 136.80278 86.05 137.08403Q86.58125 137.36528 86.925 137.89653Q87.26875 138.41216 87.45625 139.16216Q87.64375 139.91216 87.64375 141.1934Q87.64375 142.70903 87.33125 143.6309Q87.03438 144.55278 86.40938 145.0684Q85.8 145.5684 84.84688 145.5684Q83.6125 145.5684 82.89375 144.67778Q82.05 143.61528 82.05 141.1934ZM83.12813 141.1934Q83.12813 143.30278 83.62813 144.0059Q84.12813 144.70903 84.84688 144.70903Q85.58125 144.70903 86.06563 144.0059Q86.56563 143.30278 86.56563 141.1934Q86.56563 139.0684 86.06563 138.3809Q85.58125 137.67778 84.83125 137.67778Q84.1125 137.67778 83.675 138.28716Q83.12813 139.0684 83.12813 141.1934Z" fill-rule="nonzero"/><path fill="#000000" d="M55.01875 65.916664L53.971874 65.916664L53.971874 59.197914Q53.58125 59.55729 52.95625 59.93229Q52.346874 60.291664 51.8625 60.46354L51.8625 59.447914Q52.7375 59.02604 53.39375 58.447914Q54.065624 57.854164 54.346874 57.291664L55.01875 57.291664L55.01875 65.916664ZM58.05 63.666664L59.159374 63.572914Q59.284374 64.385414 59.721874 64.791664Q60.175 65.197914 60.815624 65.197914Q61.565624 65.197914 62.096874 64.61979Q62.628124 64.041664 62.628124 63.104164Q62.628124 62.197914 62.1125 61.68229Q61.6125 61.15104 60.784374 61.15104Q60.284374 61.15104 59.8625 61.385414Q59.45625 61.61979 59.221874 61.979164L58.2375 61.854164L59.065624 57.447914L63.346874 57.447914L63.346874 58.447914L59.909374 58.447914L59.45625 60.760414Q60.221874 60.21354 61.065624 60.21354Q62.190624 60.21354 62.95625 60.99479Q63.7375 61.77604 63.7375 63.010414Q63.7375 64.166664 63.065624 65.02604Q62.2375 66.05729 60.815624 66.05729Q59.64375 66.05729 58.89375 65.40104Q58.159374 64.74479 58.05 63.666664ZM65.6125 65.916664L65.6125 64.71354L66.81563 64.71354L66.81563 65.916664Q66.81563 66.572914 66.58125 66.979164Q66.34688 67.40104 65.84688 67.61979L65.55 67.166664Q65.87813 67.02604 66.03438 66.729164Q66.19063 66.447914 66.22188 65.916664L65.6125 65.916664ZM68.05 61.68229Q68.05 60.15104 68.3625 59.229164Q68.675 58.291664 69.28438 57.791664Q69.90938 57.291664 70.84688 57.291664Q71.53438 57.291664 72.05 57.572914Q72.58125 57.854164 72.925 58.385414Q73.26875 58.90104 73.45625 59.65104Q73.64375 60.40104 73.64375 61.68229Q73.64375 63.197914 73.33125 64.11979Q73.03438 65.041664 72.40938 65.55729Q71.8 66.05729 70.84688 66.05729Q69.6125 66.05729 68.89375 65.166664Q68.05 64.104164 68.05 61.68229ZM69.12813 61.68229Q69.12813 63.791664 69.62813 64.49479Q70.12813 65.197914 70.84688 65.197914Q71.58125 65.197914 72.06563 64.49479Q72.56563 63.791664 72.56563 61.68229Q72.56563 59.55729 72.06563 58.86979Q71.58125 58.166664 70.83125 58.166664Q70.1125 58.166664 69.675 58.77604Q69.12813 59.55729 69.12813 61.68229ZM75.05 61.68229Q75.05 60.15104 75.3625 59.229164Q75.675 58.291664 76.28438 57.791664Q76.90938 57.291664 77.84688 57.291664Q78.53438 57.291664 79.05 57.572914Q79.58125 57.854164 79.925 58.385414Q80.26875 58.90104 80.45625 59.65104Q80.64375 60.40104 80.64375 61.68229Q80.64375 63.197914 80.33125 64.11979Q80.03438 65.041664 79.40938 65.55729Q78.8 66.05729 77.84688 66.05729Q76.6125 66.05729 75.89375 65.166664Q75.05 64.104164 75.05 61.68229ZM76.12813 61.68229Q76.12813 63.791664 76.62813 64.49479Q77.12813 65.197914 77.84688 65.197914Q78.58125 65.197914 79.06563 64.49479Q79.56563 63.791664 79.56563 61.68229Q79.56563 59.55729 79.06563 58.86979Q78.58125 58.166664 77.83125 58.166664Q77.1125 58.166664 76.675 58.77604Q76.12813 59.55729 76.12813 61.68229ZM82.05 61.68229Q82.05 60.15104 82.3625 59.229164Q82.675 58.291664 83.28438 57.791664Q83.90938 57.291664 84.84688 57.291664Q85.53438 57.291664 86.05 57.572914Q86.58125 57.854164 86.925 58.385414Q87.26875 58.90104 87.45625 59.65104Q87.64375 60.40104 87.64375 61.68229Q87.64375 63.197914 87.33125 64.11979Q87.03438 65.041664 86.40938 65.55729Q85.8 66.05729 84.84688 66.05729Q83.6125 66.05729 82.89375 65.166664Q82.05 64.104164 82.05 61.68229ZM83.12813 61.68229Q83.12813 63.791664 83.62813 64.49479Q84.12813 65.197914 84.84688 65.197914Q85.58125 65.197914 86.06563 64.49479Q86.56563 63.791664 86.56563 61.68229Q86.56563 59.55729 86.06563 58.86979Q85.58125 58.166664 84.83125 58.166664Q84.1125 58.166664 83.675 58.77604Q83.12813 59.55729 83.12813 61.68229Z" fill-rule="nonzero"/><path fill="#000000" d="M124.96875 315.0125L126.0 314.8719Q126.03125 315.85626 126.359375 316.21564Q126.6875 316.575 127.28125 316.575Q127.703125 316.575 128.01562 316.3875Q128.32812 316.1844 128.4375 315.85626Q128.5625 315.5125 128.5625 314.77814L128.5625 308.85626L129.6875 308.85626L129.6875 314.71564Q129.6875 315.79376 129.42188 316.3875Q129.17188 316.98126 128.60938 317.29376Q128.04688 317.59064 127.28125 317.59064Q126.15625 317.59064 125.546875 316.95Q124.953125 316.29376 124.96875 315.0125ZM135.5 317.45L135.5 316.52814Q134.76562 317.59064 133.51562 317.59064Q132.96875 317.59064 132.48438 317.3875Q132.01562 317.16876 131.78125 316.85626Q131.54688 316.52814 131.45312 316.0594Q131.39062 315.7625 131.39062 315.075L131.39062 311.23126L132.45312 311.23126L132.45312 314.6844Q132.45312 315.4969 132.51562 315.79376Q132.60938 316.2 132.92188 316.45Q133.25 316.6844 133.73438 316.6844Q134.20312 316.6844 134.60938 316.45Q135.03125 316.2 135.20312 315.77814Q135.39062 315.35626 135.39062 314.5594L135.39062 311.23126L136.4375 311.23126L136.4375 317.45L135.5 317.45ZM138.39062 317.45L138.39062 308.85626L139.45312 308.85626L139.45312 317.45L138.39062 317.45ZM141.375 319.84064L141.25 318.85626Q141.59375 318.95 141.85938 318.95Q142.20312 318.95 142.40625 318.825Q142.625 318.71564 142.76562 318.5125Q142.85938 318.34064 143.09375 317.71564Q143.10938 317.6375 143.1875 317.46564L140.8125 311.23126L141.95312 311.23126L143.25 314.825Q143.5 315.5125 143.70312 316.27814Q143.89062 315.54376 144.14062 314.85626L145.46875 311.23126L146.51562 311.23126L144.15625 317.5594Q143.76562 318.575 143.5625 318.96564Q143.28125 319.4969 142.90625 319.73126Q142.54688 319.98126 142.04688 319.98126Q141.75 319.98126 141.375 319.84064Z" fill-rule="nonzero"/><path fill="#000000" d="M197.25937 317.45L200.55624 308.85626L201.775 308.85626L205.29062 317.45L204.00937 317.45L202.99374 314.84064L199.41562 314.84064L198.4625 317.45L197.25937 317.45ZM199.74374 313.91876L202.65 313.91876L201.75937 311.54376Q201.3375 310.46564 201.15 309.7625Q200.97812 310.59064 200.68124 311.40314L199.74374 313.91876ZM209.15 317.45L209.15 316.52814Q208.41562 317.59064 207.16562 317.59064Q206.61874 317.59064 206.13437 317.3875Q205.66562 317.16876 205.43124 316.85626Q205.19687 316.52814 205.10312 316.0594Q205.04062 315.7625 205.04062 315.075L205.04062 311.23126L206.10312 311.23126L206.10312 314.6844Q206.10312 315.4969 206.16562 315.79376Q206.25937 316.2 206.57187 316.45Q206.9 316.6844 207.38437 316.6844Q207.85312 316.6844 208.25937 316.45Q208.68124 316.2 208.85312 315.77814Q209.04062 315.35626 209.04062 314.5594L209.04062 311.23126L210.0875 311.23126L210.0875 317.45L209.15 317.45ZM211.86874 317.96564L212.9 318.1219Q212.9625 318.59064 213.25937 318.8094Q213.65 319.10626 214.32187 319.10626Q215.05624 319.10626 215.44687 318.8094Q215.85312 318.5125 215.99374 317.9969Q216.0875 317.66876 216.07187 316.6375Q215.38437 317.45 214.35312 317.45Q213.07187 317.45 212.36874 316.52814Q211.66562 315.59064 211.66562 314.3094Q211.66562 313.41876 211.97812 312.66876Q212.30624 311.90314 212.91562 311.4969Q213.525 311.09064 214.35312 311.09064Q215.4625 311.09064 216.18124 311.98126L216.18124 311.23126L217.15 311.23126L217.15 316.60626Q217.15 318.0594 216.85312 318.66876Q216.55624 319.27814 215.91562 319.6219Q215.275 319.98126 214.3375 319.98126Q213.22812 319.98126 212.54062 319.48126Q211.85312 318.98126 211.86874 317.96564ZM212.74374 314.23126Q212.74374 315.45 213.22812 316.0125Q213.7125 316.575 214.44687 316.575Q215.18124 316.575 215.66562 316.0125Q216.16562 315.45 216.16562 314.2625Q216.16562 313.1219 215.65 312.54376Q215.15 311.96564 214.43124 311.96564Q213.72812 311.96564 213.22812 312.54376Q212.74374 313.10626 212.74374 314.23126ZM223.15 317.45L223.15 316.52814Q222.41562 317.59064 221.16562 317.59064Q220.61874 317.59064 220.13437 317.3875Q219.66562 317.16876 219.43124 316.85626Q219.19687 316.52814 219.10312 316.0594Q219.04062 315.7625 219.04062 315.075L219.04062 311.23126L220.10312 311.23126L220.10312 314.6844Q220.10312 315.4969 220.16562 315.79376Q220.25937 316.2 220.57187 316.45Q220.9 316.6844 221.38437 316.6844Q221.85312 316.6844 222.25937 316.45Q222.68124 316.2 222.85312 315.77814Q223.04062 315.35626 223.04062 314.5594L223.04062 311.23126L224.0875 311.23126L224.0875 317.45L223.15 317.45ZM225.65 315.59064L226.68124 315.4344Q226.775 316.0594 227.16562 316.3875Q227.57187 316.71564 228.30624 316.71564Q229.025 316.71564 229.36874 316.4344Q229.72812 316.1375 229.72812 315.73126Q229.72812 315.3719 229.41562 315.16876Q229.19687 315.02814 228.3375 314.8094Q227.18124 314.5125 226.72812 314.3094Q226.29062 314.09064 226.05624 313.71564Q225.82187 313.34064 225.82187 312.8719Q225.82187 312.46564 226.00937 312.10626Q226.19687 311.7469 226.525 311.5125Q226.775 311.34064 227.19687 311.21564Q227.61874 311.09064 228.11874 311.09064Q228.8375 311.09064 229.38437 311.3094Q229.94687 311.5125 230.2125 311.8719Q230.47812 312.23126 230.57187 312.825L229.54062 312.96564Q229.47812 312.4969 229.13437 312.23126Q228.80624 311.95 228.18124 311.95Q227.4625 311.95 227.15 312.2Q226.8375 312.4344 226.8375 312.7625Q226.8375 312.96564 226.9625 313.1219Q227.10312 313.29376 227.36874 313.40314Q227.525 313.46564 228.30624 313.66876Q229.43124 313.98126 229.86874 314.16876Q230.30624 314.35626 230.55624 314.71564Q230.80624 315.075 230.80624 315.6219Q230.80624 316.15314 230.49374 316.6219Q230.19687 317.075 229.61874 317.34064Q229.04062 317.59064 228.30624 317.59064Q227.0875 317.59064 226.44687 317.09064Q225.82187 316.575 225.65 315.59064ZM235.36874 316.5125L235.525 317.4344Q235.07187 317.52814 234.72812 317.52814Q234.15 317.52814 233.8375 317.35626Q233.525 317.16876 233.38437 316.8719Q233.25937 316.575 233.25937 315.6219L233.25937 312.04376L232.49374 312.04376L232.49374 311.23126L233.25937 311.23126L233.25937 309.6844L234.30624 309.0594L234.30624 311.23126L235.36874 311.23126L235.36874 312.04376L234.30624 312.04376L234.30624 315.6844Q234.30624 316.1375 234.35312 316.2625Q234.41562 316.3875 234.54062 316.46564Q234.66562 316.54376 234.9 316.54376Q235.0875 316.54376 235.36874 316.5125Z" fill-rule="nonzero"/><path fill="#000000" d="M267.47186 314.6844L268.53436 314.59064Q268.6125 315.2469 268.89374 315.65314Q269.175 316.0594 269.7531 316.325Q270.34686 316.575 271.08124 316.575Q271.72186 316.575 272.22186 316.3875Q272.72186 316.1844 272.95624 315.85626Q273.20624 315.5125 273.20624 315.1219Q273.20624 314.71564 272.97186 314.41876Q272.7375 314.10626 272.20624 313.90314Q271.84686 313.7625 270.65936 313.48126Q269.4875 313.2 269.01874 312.95Q268.39374 312.6219 268.09686 312.15314Q267.8 311.66876 267.8 311.075Q267.8 310.4344 268.15936 309.8719Q268.53436 309.29376 269.2375 309.0125Q269.95624 308.71564 270.8156 308.71564Q271.76874 308.71564 272.5031 309.02814Q273.2375 309.325 273.6281 309.9344Q274.01874 310.52814 274.05 311.27814L272.95624 311.35626Q272.8625 310.54376 272.34686 310.1375Q271.84686 309.71564 270.8625 309.71564Q269.83124 309.71564 269.3625 310.09064Q268.89374 310.46564 268.89374 310.9969Q268.89374 311.46564 269.22186 311.7625Q269.55 312.0594 270.925 312.3719Q272.3156 312.6844 272.83124 312.91876Q273.58124 313.27814 273.9406 313.8094Q274.3 314.325 274.3 315.02814Q274.3 315.71564 273.90936 316.325Q273.51874 316.91876 272.78436 317.2625Q272.05 317.59064 271.1281 317.59064Q269.95624 317.59064 269.15936 317.2625Q268.3781 316.91876 267.925 316.23126Q267.4875 315.54376 267.47186 314.6844ZM279.97186 315.45L281.0656 315.575Q280.8156 316.52814 280.1125 317.0594Q279.40936 317.59064 278.33124 317.59064Q276.97186 317.59064 276.15936 316.7469Q275.3625 315.90314 275.3625 314.3875Q275.3625 312.825 276.175 311.96564Q276.9875 311.09064 278.26874 311.09064Q279.51874 311.09064 280.3 311.9344Q281.09686 312.77814 281.09686 314.325Q281.09686 314.41876 281.09686 314.60626L276.45624 314.60626Q276.51874 315.6375 277.03436 316.1844Q277.55 316.71564 278.33124 316.71564Q278.90936 316.71564 279.3156 316.41876Q279.7375 316.10626 279.97186 315.45ZM276.51874 313.7469L279.9875 313.7469Q279.925 312.95 279.59686 312.5594Q279.08124 311.95 278.28436 311.95Q277.55 311.95 277.05 312.4344Q276.5656 312.91876 276.51874 313.7469ZM282.72186 319.84064L282.72186 311.23126L283.675 311.23126L283.675 312.02814Q284.01874 311.5594 284.4406 311.325Q284.8781 311.09064 285.4875 311.09064Q286.28436 311.09064 286.89374 311.4969Q287.5031 311.90314 287.8 312.65314Q288.1125 313.40314 288.1125 314.29376Q288.1125 315.2469 287.76874 316.0125Q287.4406 316.77814 286.78436 317.1844Q286.1281 317.59064 285.40936 317.59064Q284.8781 317.59064 284.45624 317.3719Q284.03436 317.1375 283.76874 316.8094L283.76874 319.84064L282.72186 319.84064ZM283.675 314.3719Q283.675 315.575 284.15936 316.15314Q284.64374 316.71564 285.33124 316.71564Q286.03436 316.71564 286.53436 316.1219Q287.03436 315.52814 287.03436 314.27814Q287.03436 313.09064 286.55 312.5125Q286.0656 311.91876 285.3781 311.91876Q284.70624 311.91876 284.1906 312.54376Q283.675 313.16876 283.675 314.3719ZM292.01874 316.5125L292.175 317.4344Q291.72186 317.52814 291.3781 317.52814Q290.8 317.52814 290.4875 317.35626Q290.175 317.16876 290.03436 316.8719Q289.90936 316.575 289.90936 315.6219L289.90936 312.04376L289.14374 312.04376L289.14374 311.23126L289.90936 311.23126L289.90936 309.6844L290.95624 309.0594L290.95624 311.23126L292.01874 311.23126L292.01874 312.04376L290.95624 312.04376L290.95624 315.6844Q290.95624 316.1375 291.0031 316.2625Q291.0656 316.3875 291.1906 316.46564Q291.3156 316.54376 291.55 316.54376Q291.7375 316.54376 292.01874 316.5125ZM296.97186 315.45L298.0656 315.575Q297.8156 316.52814 297.1125 317.0594Q296.40936 317.59064 295.33124 317.59064Q293.97186 317.59064 293.15936 316.7469Q292.3625 315.90314 292.3625 314.3875Q292.3625 312.825 293.175 311.96564Q293.9875 311.09064 295.26874 311.09064Q296.51874 311.09064 297.3 311.9344Q298.09686 312.77814 298.09686 314.325Q298.09686 314.41876 298.09686 314.60626L293.45624 314.60626Q293.51874 315.6375 294.03436 316.1844Q294.55 316.71564 295.33124 316.71564Q295.90936 316.71564 296.3156 316.41876Q296.7375 316.10626 296.97186 315.45ZM293.51874 313.7469L296.9875 313.7469Q296.925 312.95 296.59686 312.5594Q296.08124 311.95 295.28436 311.95Q294.55 311.95 294.05 312.4344Q293.5656 312.91876 293.51874 313.7469ZM299.72186 317.45L299.72186 311.23126L300.65936 311.23126L300.65936 312.10626Q300.95624 311.6375 301.4406 311.3719Q301.925 311.09064 302.55 311.09064Q303.2375 311.09064 303.675 311.3719Q304.1281 311.65314 304.3 312.16876Q305.05 311.09064 306.22186 311.09064Q307.15936 311.09064 307.64374 311.60626Q308.14374 312.10626 308.14374 313.1844L308.14374 317.45L307.09686 317.45L307.09686 313.52814Q307.09686 312.90314 306.9875 312.6219Q306.89374 312.34064 306.6281 312.16876Q306.3625 311.9969 305.9875 311.9969Q305.33124 311.9969 304.89374 312.4344Q304.47186 312.8719 304.47186 313.84064L304.47186 317.45L303.40936 317.45L303.40936 313.40314Q303.40936 312.7 303.14374 312.35626Q302.89374 311.9969 302.3156 311.9969Q301.8625 311.9969 301.4875 312.23126Q301.1125 312.46564 300.9406 312.91876Q300.76874 313.3719 300.76874 314.21564L300.76874 317.45L299.72186 317.45ZM311.6906 317.45L310.70624 317.45L310.70624 308.85626L311.76874 308.85626L311.76874 311.91876Q312.4406 311.09064 313.47186 311.09064Q314.05 311.09064 314.55 311.325Q315.0656 311.54376 315.39374 311.96564Q315.7375 312.3875 315.925 312.98126Q316.1125 313.575 316.1125 314.2469Q316.1125 315.84064 315.3156 316.71564Q314.51874 317.59064 313.425 317.59064Q312.3156 317.59064 311.6906 316.66876L311.6906 317.45ZM311.675 314.29376Q311.675 315.40314 311.9875 315.90314Q312.4875 316.71564 313.33124 316.71564Q314.01874 316.71564 314.51874 316.1219Q315.03436 315.52814 315.03436 314.325Q315.03436 313.10626 314.55 312.52814Q314.0656 311.95 313.3781 311.95Q312.6906 311.95 312.175 312.5594Q311.675 313.15314 311.675 314.29376ZM321.97186 315.45L323.0656 315.575Q322.8156 316.52814 322.1125 317.0594Q321.40936 317.59064 320.33124 317.59064Q318.97186 317.59064 318.15936 316.7469Q317.3625 315.90314 317.3625 314.3875Q317.3625 312.825 318.175 311.96564Q318.9875 311.09064 320.26874 311.09064Q321.51874 311.09064 322.3 311.9344Q323.09686 312.77814 323.09686 314.325Q323.09686 314.41876 323.09686 314.60626L318.45624 314.60626Q318.51874 315.6375 319.03436 316.1844Q319.55 316.71564 320.33124 316.71564Q320.90936 316.71564 321.3156 316.41876Q321.7375 316.10626 321.97186 315.45ZM318.51874 313.7469L321.9875 313.7469Q321.925 312.95 321.59686 312.5594Q321.08124 311.95 320.28436 311.95Q319.55 311.95 319.05 312.4344Q318.5656 312.91876 318.51874 313.7469ZM324.70624 317.45L324.70624 311.23126L325.65936 311.23126L325.65936 312.16876Q326.01874 311.5125 326.3156 311.3094Q326.6281 311.09064 327.0031 311.09064Q327.53436 311.09064 328.08124 311.41876L327.72186 312.40314Q327.33124 312.16876 326.95624 312.16876Q326.59686 312.16876 326.3156 312.3875Q326.05 312.59064 325.9406 312.96564Q325.7531 313.52814 325.7531 314.1844L325.7531 317.45L324.70624 317.45Z" fill-rule="nonzero"/><path fill="#000000" d="M357.65314 313.2625Q357.65314 311.1219 358.79376 309.91876Q359.95 308.7 361.7625 308.7Q362.96564 308.7 363.91876 309.27814Q364.8719 309.84064 365.3719 310.85626Q365.8719 311.8719 365.8719 313.16876Q365.8719 314.46564 365.34064 315.4969Q364.8094 316.52814 363.84064 317.0594Q362.8875 317.59064 361.7625 317.59064Q360.54376 317.59064 359.59064 317.0125Q358.6375 316.41876 358.1375 315.41876Q357.65314 314.40314 357.65314 313.2625ZM358.825 313.27814Q358.825 314.84064 359.65314 315.73126Q360.4969 316.6219 361.7625 316.6219Q363.04376 316.6219 363.8719 315.73126Q364.7 314.825 364.7 313.15314Q364.7 312.10626 364.34064 311.325Q363.9969 310.54376 363.3094 310.1219Q362.6219 309.6844 361.77814 309.6844Q360.575 309.6844 359.7 310.5125Q358.825 311.34064 358.825 313.27814ZM370.9344 315.16876L371.96564 315.3094Q371.79376 316.3719 371.09064 316.98126Q370.3875 317.59064 369.3719 317.59064Q368.09064 317.59064 367.3094 316.7625Q366.54376 315.91876 366.54376 314.35626Q366.54376 313.35626 366.8719 312.60626Q367.21564 311.84064 367.8875 311.46564Q368.575 311.09064 369.3875 311.09064Q370.3875 311.09064 371.02814 311.60626Q371.6844 312.10626 371.8719 313.0594L370.84064 313.21564Q370.7 312.59064 370.325 312.27814Q369.95 311.95 369.41876 311.95Q368.6219 311.95 368.1219 312.52814Q367.6219 313.09064 367.6219 314.325Q367.6219 315.59064 368.10626 316.15314Q368.59064 316.71564 369.35626 316.71564Q369.98126 316.71564 370.3875 316.34064Q370.8094 315.96564 370.9344 315.16876ZM375.16876 316.5125L375.325 317.4344Q374.8719 317.52814 374.52814 317.52814Q373.95 317.52814 373.6375 317.35626Q373.325 317.16876 373.1844 316.8719Q373.0594 316.575 373.0594 315.6219L373.0594 312.04376L372.29376 312.04376L372.29376 311.23126L373.0594 311.23126L373.0594 309.6844L374.10626 309.0594L374.10626 311.23126L375.16876 311.23126L375.16876 312.04376L374.10626 312.04376L374.10626 315.6844Q374.10626 316.1375 374.15314 316.2625Q374.21564 316.3875 374.34064 316.46564Q374.46564 316.54376 374.7 316.54376Q374.8875 316.54376 375.16876 316.5125ZM375.48126 314.34064Q375.48126 312.60626 376.4344 311.77814Q377.23126 311.09064 378.3875 311.09064Q379.66876 311.09064 380.48126 311.9344Q381.3094 312.7625 381.3094 314.2469Q381.3094 315.45 380.95 316.1375Q380.59064 316.825 379.8875 317.21564Q379.2 317.59064 378.3875 317.59064Q377.09064 317.59064 376.27814 316.7625Q375.48126 315.91876 375.48126 314.34064ZM376.5594 314.34064Q376.5594 315.52814 377.075 316.1219Q377.60626 316.71564 378.3875 316.71564Q379.1844 316.71564 379.7 316.1219Q380.21564 315.52814 380.21564 314.3094Q380.21564 313.15314 379.6844 312.5594Q379.16876 311.96564 378.3875 311.96564Q377.60626 311.96564 377.075 312.5594Q376.5594 313.1375 376.5594 314.34064ZM383.84064 317.45L382.85626 317.45L382.85626 308.85626L383.91876 308.85626L383.91876 311.91876Q384.59064 311.09064 385.6219 311.09064Q386.2 311.09064 386.7 311.325Q387.21564 311.54376 387.54376 311.96564Q387.8875 312.3875 388.075 312.98126Q388.2625 313.575 388.2625 314.2469Q388.2625 315.84064 387.46564 316.71564Q386.66876 317.59064 385.575 317.59064Q384.46564 317.59064 383.84064 316.66876L383.84064 317.45ZM383.825 314.29376Q383.825 315.40314 384.1375 315.90314Q384.6375 316.71564 385.48126 316.71564Q386.16876 316.71564 386.66876 316.1219Q387.1844 315.52814 387.1844 314.325Q387.1844 313.10626 386.7 312.52814Q386.21564 311.95 385.52814 311.95Q384.84064 311.95 384.325 312.5594Q383.825 313.15314 383.825 314.29376ZM394.1219 315.45L395.21564 315.575Q394.96564 316.52814 394.2625 317.0594Q393.5594 317.59064 392.48126 317.59064Q391.1219 317.59064 390.3094 316.7469Q389.5125 315.90314 389.5125 314.3875Q389.5125 312.825 390.325 311.96564Q391.1375 311.09064 392.41876 311.09064Q393.66876 311.09064 394.45 311.9344Q395.2469 312.77814 395.2469 314.325Q395.2469 314.41876 395.2469 314.60626L390.60626 314.60626Q390.66876 315.6375 391.1844 316.1844Q391.7 316.71564 392.48126 316.71564Q393.0594 316.71564 393.46564 316.41876Q393.8875 316.10626 394.1219 315.45ZM390.66876 313.7469L394.1375 313.7469Q394.075 312.95 393.7469 312.5594Q393.23126 311.95 392.4344 311.95Q391.7 311.95 391.2 312.4344Q390.71564 312.91876 390.66876 313.7469ZM396.85626 317.45L396.85626 311.23126L397.8094 311.23126L397.8094 312.16876Q398.16876 311.5125 398.46564 311.3094Q398.77814 311.09064 399.15314 311.09064Q399.6844 311.09064 400.23126 311.41876L399.8719 312.40314Q399.48126 312.16876 399.10626 312.16876Q398.7469 312.16876 398.46564 312.3875Q398.2 312.59064 398.09064 312.96564Q397.90314 313.52814 397.90314 314.1844L397.90314 317.45L396.85626 317.45Z" fill-rule="nonzero"/><path fill="#000000" d="M432.14688 317.45L432.14688 308.85626L433.30313 308.85626L437.81876 315.60626L437.81876 308.85626L438.9125 308.85626L438.9125 317.45L437.74063 317.45L433.225 310.7L433.225 317.45L432.14688 317.45ZM440.63126 314.34064Q440.63126 312.60626 441.58438 311.77814Q442.38126 311.09064 443.5375 311.09064Q444.81876 311.09064 445.63126 311.9344Q446.45938 312.7625 446.45938 314.2469Q446.45938 315.45 446.1 316.1375Q445.74063 316.825 445.0375 317.21564Q444.35 317.59064 443.5375 317.59064Q442.24063 317.59064 441.42813 316.7625Q440.63126 315.91876 440.63126 314.34064ZM441.70938 314.34064Q441.70938 315.52814 442.225 316.1219Q442.75626 316.71564 443.5375 316.71564Q444.33438 316.71564 444.85 316.1219Q445.36563 315.52814 445.36563 314.3094Q445.36563 313.15314 444.83438 312.5594Q444.31876 311.96564 443.5375 311.96564Q442.75626 311.96564 442.225 312.5594Q441.70938 313.1375 441.70938 314.34064ZM449.74063 317.45L447.38126 311.23126L448.49063 311.23126L449.83438 314.95Q450.0375 315.5594 450.225 316.2Q450.36563 315.71564 450.61563 315.02814L452.00626 311.23126L453.08438 311.23126L450.725 317.45L449.74063 317.45ZM457.27188 315.45L458.36563 315.575Q458.11563 316.52814 457.4125 317.0594Q456.70938 317.59064 455.63126 317.59064Q454.27188 317.59064 453.45938 316.7469Q452.6625 315.90314 452.6625 314.3875Q452.6625 312.825 453.475 311.96564Q454.2875 311.09064 455.56876 311.09064Q456.81876 311.09064 457.6 311.9344Q458.39688 312.77814 458.39688 314.325Q458.39688 314.41876 458.39688 314.60626L453.75626 314.60626Q453.81876 315.6375 454.33438 316.1844Q454.85 316.71564 455.63126 316.71564Q456.20938 316.71564 456.61563 316.41876Q457.0375 316.10626 457.27188 315.45ZM453.81876 313.7469L457.2875 313.7469Q457.225 312.95 456.89688 312.5594Q456.38126 311.95 455.58438 311.95Q454.85 311.95 454.35 312.4344Q453.86563 312.91876 453.81876 313.7469ZM460.02188 317.45L460.02188 311.23126L460.95938 311.23126L460.95938 312.10626Q461.25626 311.6375 461.74063 311.3719Q462.225 311.09064 462.85 311.09064Q463.5375 311.09064 463.975 311.3719Q464.42813 311.65314 464.6 312.16876Q465.35 311.09064 466.52188 311.09064Q467.45938 311.09064 467.94376 311.60626Q468.44376 312.10626 468.44376 313.1844L468.44376 317.45L467.39688 317.45L467.39688 313.52814Q467.39688 312.90314 467.2875 312.6219Q467.19376 312.34064 466.92813 312.16876Q466.6625 311.9969 466.2875 311.9969Q465.63126 311.9969 465.19376 312.4344Q464.77188 312.8719 464.77188 313.84064L464.77188 317.45L463.70938 317.45L463.70938 313.40314Q463.70938 312.7 463.44376 312.35626Q463.19376 311.9969 462.61563 311.9969Q462.1625 311.9969 461.7875 312.23126Q461.4125 312.46564 461.24063 312.91876Q461.06876 313.3719 461.06876 314.21564L461.06876 317.45L460.02188 317.45ZM471.99063 317.45L471.00626 317.45L471.00626 308.85626L472.06876 308.85626L472.06876 311.91876Q472.74063 311.09064 473.77188 311.09064Q474.35 311.09064 474.85 311.325Q475.36563 311.54376 475.69376 311.96564Q476.0375 312.3875 476.225 312.98126Q476.4125 313.575 476.4125 314.2469Q476.4125 315.84064 475.61563 316.71564Q474.81876 317.59064 473.725 317.59064Q472.61563 317.59064 471.99063 316.66876L471.99063 317.45ZM471.975 314.29376Q471.975 315.40314 472.2875 315.90314Q472.7875 316.71564 473.63126 316.71564Q474.31876 316.71564 474.81876 316.1219Q475.33438 315.52814 475.33438 314.325Q475.33438 313.10626 474.85 312.52814Q474.36563 311.95 473.67813 311.95Q472.99063 311.95 472.475 312.5594Q471.975 313.15314 471.975 314.29376ZM482.27188 315.45L483.36563 315.575Q483.11563 316.52814 482.4125 317.0594Q481.70938 317.59064 480.63126 317.59064Q479.27188 317.59064 478.45938 316.7469Q477.6625 315.90314 477.6625 314.3875Q477.6625 312.825 478.475 311.96564Q479.2875 311.09064 480.56876 311.09064Q481.81876 311.09064 482.6 311.9344Q483.39688 312.77814 483.39688 314.325Q483.39688 314.41876 483.39688 314.60626L478.75626 314.60626Q478.81876 315.6375 479.33438 316.1844Q479.85 316.71564 480.63126 316.71564Q481.20938 316.71564 481.61563 316.41876Q482.0375 316.10626 482.27188 315.45ZM478.81876 313.7469L482.2875 313.7469Q482.225 312.95 481.89688 312.5594Q481.38126 311.95 480.58438 311.95Q479.85 311.95 479.35 312.4344Q478.86563 312.91876 478.81876 313.7469ZM485.00626 317.45L485.00626 311.23126L485.95938 311.23126L485.95938 312.16876Q486.31876 311.5125 486.61563 311.3094Q486.92813 311.09064 487.30313 311.09064Q487.83438 311.09064 488.38126 311.41876L488.02188 312.40314Q487.63126 312.16876 487.25626 312.16876Q486.89688 312.16876 486.61563 312.3875Q486.35 312.59064 486.24063 312.96564Q486.05313 313.52814 486.05313 314.1844L486.05313 317.45L485.00626 317.45Z" fill-rule="nonzero"/><path fill="#000000" d="M512.7969 317.45L512.7969 308.85626L515.7656 308.85626Q516.7656 308.85626 517.2969 308.98126Q518.03125 309.15314 518.5469 309.59064Q519.2344 310.16876 519.5625 311.075Q519.90625 311.96564 519.90625 313.10626Q519.90625 314.09064 519.6719 314.84064Q519.4531 315.59064 519.09375 316.09064Q518.7344 316.59064 518.2969 316.8719Q517.875 317.15314 517.28125 317.3094Q516.6875 317.45 515.90625 317.45L512.7969 317.45ZM513.9375 316.4344L515.7656 316.4344Q516.625 316.4344 517.1094 316.27814Q517.59375 316.1219 517.875 315.825Q518.28125 315.4344 518.5 314.7469Q518.7344 314.0594 518.7344 313.09064Q518.7344 311.7469 518.28125 311.02814Q517.84375 310.29376 517.21875 310.04376Q516.75 309.8719 515.75 309.8719L513.9375 309.8719L513.9375 316.4344ZM525.9219 315.45L527.0156 315.575Q526.7656 316.52814 526.0625 317.0594Q525.3594 317.59064 524.28125 317.59064Q522.9219 317.59064 522.1094 316.7469Q521.3125 315.90314 521.3125 314.3875Q521.3125 312.825 522.125 311.96564Q522.9375 311.09064 524.21875 311.09064Q525.46875 311.09064 526.25 311.9344Q527.0469 312.77814 527.0469 314.325Q527.0469 314.41876 527.0469 314.60626L522.40625 314.60626Q522.46875 315.6375 522.9844 316.1844Q523.5 316.71564 524.28125 316.71564Q524.8594 316.71564 525.2656 316.41876Q525.6875 316.10626 525.9219 315.45ZM522.46875 313.7469L525.9375 313.7469Q525.875 312.95 525.5469 312.5594Q525.03125 311.95 524.2344 311.95Q523.5 311.95 523.0 312.4344Q522.5156 312.91876 522.46875 313.7469ZM532.7344 315.16876L533.7656 315.3094Q533.59375 316.3719 532.8906 316.98126Q532.1875 317.59064 531.1719 317.59064Q529.8906 317.59064 529.1094 316.7625Q528.34375 315.91876 528.34375 314.35626Q528.34375 313.35626 528.6719 312.60626Q529.0156 311.84064 529.6875 311.46564Q530.375 311.09064 531.1875 311.09064Q532.1875 311.09064 532.8281 311.60626Q533.4844 312.10626 533.6719 313.0594L532.6406 313.21564Q532.5 312.59064 532.125 312.27814Q531.75 311.95 531.21875 311.95Q530.4219 311.95 529.9219 312.52814Q529.4219 313.09064 529.4219 314.325Q529.4219 315.59064 529.90625 316.15314Q530.3906 316.71564 531.15625 316.71564Q531.78125 316.71564 532.1875 316.34064Q532.6094 315.96564 532.7344 315.16876ZM538.9219 315.45L540.0156 315.575Q539.7656 316.52814 539.0625 317.0594Q538.3594 317.59064 537.28125 317.59064Q535.9219 317.59064 535.1094 316.7469Q534.3125 315.90314 534.3125 314.3875Q534.3125 312.825 535.125 311.96564Q535.9375 311.09064 537.21875 311.09064Q538.46875 311.09064 539.25 311.9344Q540.0469 312.77814 540.0469 314.325Q540.0469 314.41876 540.0469 314.60626L535.40625 314.60626Q535.46875 315.6375 535.9844 316.1844Q536.5 316.71564 537.28125 316.71564Q537.8594 316.71564 538.2656 316.41876Q538.6875 316.10626 538.9219 315.45ZM535.46875 313.7469L538.9375 313.7469Q538.875 312.95 538.5469 312.5594Q538.03125 311.95 537.2344 311.95Q536.5 311.95 536.0 312.4344Q535.5156 312.91876 535.46875 313.7469ZM541.6719 317.45L541.6719 311.23126L542.6094 311.23126L542.6094 312.10626Q542.90625 311.6375 543.3906 311.3719Q543.875 311.09064 544.5 311.09064Q545.1875 311.09064 545.625 311.3719Q546.0781 311.65314 546.25 312.16876Q547.0 311.09064 548.1719 311.09064Q549.1094 311.09064 549.59375 311.60626Q550.09375 312.10626 550.09375 313.1844L550.09375 317.45L549.0469 317.45L549.0469 313.52814Q549.0469 312.90314 548.9375 312.6219Q548.84375 312.34064 548.5781 312.16876Q548.3125 311.9969 547.9375 311.9969Q547.28125 311.9969 546.84375 312.4344Q546.4219 312.8719 546.4219 313.84064L546.4219 317.45L545.3594 317.45L545.3594 313.40314Q545.3594 312.7 545.09375 312.35626Q544.84375 311.9969 544.2656 311.9969Q543.8125 311.9969 543.4375 312.23126Q543.0625 312.46564 542.8906 312.91876Q542.71875 313.3719 542.71875 314.21564L542.71875 317.45L541.6719 317.45ZM553.6406 317.45L552.65625 317.45L552.65625 308.85626L553.71875 308.85626L553.71875 311.91876Q554.3906 311.09064 555.4219 311.09064Q556.0 311.09064 556.5 311.325Q557.0156 311.54376 557.34375 311.96564Q557.6875 312.3875 557.875 312.98126Q558.0625 313.575 558.0625 314.2469Q558.0625 315.84064 557.2656 316.71564Q556.46875 317.59064 555.375 317.59064Q554.2656 317.59064 553.6406 316.66876L553.6406 317.45ZM553.625 314.29376Q553.625 315.40314 553.9375 315.90314Q554.4375 316.71564 555.28125 316.71564Q555.96875 316.71564 556.46875 316.1219Q556.9844 315.52814 556.9844 314.325Q556.9844 313.10626 556.5 312.52814Q556.0156 311.95 555.3281 311.95Q554.6406 311.95 554.125 312.5594Q553.625 313.15314 553.625 314.29376ZM563.9219 315.45L565.0156 315.575Q564.7656 316.52814 564.0625 317.0594Q563.3594 317.59064 562.28125 317.59064Q560.9219 317.59064 560.1094 316.7469Q559.3125 315.90314 559.3125 314.3875Q559.3125 312.825 560.125 311.96564Q560.9375 311.09064 562.21875 311.09064Q563.46875 311.09064 564.25 311.9344Q565.0469 312.77814 565.0469 314.325Q565.0469 314.41876 565.0469 314.60626L560.40625 314.60626Q560.46875 315.6375 560.9844 316.1844Q561.5 316.71564 562.28125 316.71564Q562.8594 316.71564 563.2656 316.41876Q563.6875 316.10626 563.9219 315.45ZM560.46875 313.7469L563.9375 313.7469Q563.875 312.95 563.5469 312.5594Q563.03125 311.95 562.2344 311.95Q561.5 311.95 561.0 312.4344Q560.5156 312.91876 560.46875 313.7469ZM566.65625 317.45L566.65625 311.23126L567.6094 311.23126L567.6094 312.16876Q567.96875 311.5125 568.2656 311.3094Q568.5781 311.09064 568.9531 311.09064Q569.4844 311.09064 570.03125 311.41876L569.6719 312.40314Q569.28125 312.16876 568.90625 312.16876Q568.5469 312.16876 568.2656 312.3875Q568.0 312.59064 567.8906 312.96564Q567.7031 313.52814 567.7031 314.1844L567.7031 317.45L566.65625 317.45Z" fill-rule="nonzero"/><path fill="#757575" d="M23.7375 37.55L23.7375 24.925L19.01875 24.925L19.01875 23.2375L30.3625 23.2375L30.3625 24.925L25.628124 24.925L25.628124 37.55L23.7375 37.55ZM31.221874 32.3625Q31.221874 29.4875 32.815624 28.096874Q34.159374 26.940624 36.08125 26.940624Q38.221874 26.940624 39.565624 28.346874Q40.925 29.753124 40.925 32.221874Q40.925 34.221874 40.33125 35.378124Q39.7375 36.51875 38.58125 37.159374Q37.440624 37.784374 36.08125 37.784374Q33.89375 37.784374 32.55 36.39375Q31.221874 34.9875 31.221874 32.3625ZM33.01875 32.3625Q33.01875 34.3625 33.878124 35.346874Q34.753124 36.33125 36.08125 36.33125Q37.39375 36.33125 38.253124 35.346874Q39.128124 34.346874 39.128124 32.3Q39.128124 30.378124 38.253124 29.39375Q37.378124 28.39375 36.08125 28.39375Q34.753124 28.39375 33.878124 29.39375Q33.01875 30.378124 33.01875 32.3625ZM46.70625 35.971874L46.95625 37.534374Q46.221874 37.690624 45.628124 37.690624Q44.675 37.690624 44.14375 37.39375Q43.628124 37.08125 43.409374 36.596874Q43.190624 36.096874 43.190624 34.51875L43.190624 28.55L41.909374 28.55L41.909374 27.175L43.190624 27.175L43.190624 24.6125L44.940624 23.55L44.940624 27.175L46.70625 27.175L46.70625 28.55L44.940624 28.55L44.940624 34.6125Q44.940624 35.3625 45.034374 35.58125Q45.128124 35.784374 45.33125 35.925Q45.55 36.05 45.940624 36.05Q46.221874 36.05 46.70625 35.971874ZM55.64375 36.26875Q54.659374 37.096874 53.753124 37.440624Q52.846874 37.784374 51.815624 37.784374Q50.1125 37.784374 49.190624 36.95625Q48.26875 36.1125 48.26875 34.815624Q48.26875 34.05 48.6125 33.425Q48.971874 32.8 49.534374 32.425Q50.096874 32.034374 50.8 31.83125Q51.315624 31.70625 52.3625 31.565624Q54.4875 31.315624 55.4875 30.971874Q55.503124 30.6125 55.503124 30.503124Q55.503124 29.440624 55.003124 28.9875Q54.33125 28.39375 53.003124 28.39375Q51.753124 28.39375 51.159374 28.83125Q50.58125 29.26875 50.3 30.378124L48.58125 30.14375Q48.815624 29.034374 49.346874 28.3625Q49.878124 27.675 50.89375 27.315624Q51.909374 26.940624 53.253124 26.940624Q54.58125 26.940624 55.409374 27.253124Q56.2375 27.565624 56.628124 28.05Q57.01875 28.51875 57.175 29.2375Q57.26875 29.690624 57.26875 30.8625L57.26875 33.20625Q57.26875 35.659374 57.378124 36.315624Q57.4875 36.95625 57.83125 37.55L55.9875 37.55Q55.721874 37.003124 55.64375 36.26875ZM55.4875 32.346874Q54.534374 32.7375 52.6125 33.003124Q51.534374 33.159374 51.08125 33.3625Q50.64375 33.55 50.39375 33.925Q50.14375 34.3 50.14375 34.76875Q50.14375 35.471874 50.675 35.940624Q51.20625 36.409374 52.2375 36.409374Q53.253124 36.409374 54.034374 35.971874Q54.83125 35.51875 55.20625 34.753124Q55.4875 34.14375 55.4875 32.9875L55.4875 32.346874ZM59.83125 37.55L59.83125 23.2375L61.58125 23.2375L61.58125 37.55L59.83125 37.55ZM68.51875 37.55L74.01875 23.2375L76.06563 23.2375L81.925 37.55L79.76875 37.55L78.09688 33.20625L72.1125 33.20625L70.53438 37.55L68.51875 37.55ZM72.65938 31.675L77.50313 31.675L76.01875 27.70625Q75.33125 25.89375 75.00313 24.7375Q74.72188 26.1125 74.22188 27.471874L72.65938 31.675ZM89.64375 33.753124L91.3625 33.971874Q91.08125 35.76875 89.90938 36.784374Q88.75313 37.784374 87.05 37.784374Q84.925 37.784374 83.62813 36.39375Q82.33125 35.003124 82.33125 32.409374Q82.33125 30.721874 82.87813 29.471874Q83.44063 28.20625 84.58125 27.58125Q85.72188 26.940624 87.06563 26.940624Q88.75313 26.940624 89.81563 27.8Q90.89375 28.659374 91.20625 30.221874L89.4875 30.4875Q89.25313 29.440624 88.62813 28.925Q88.00313 28.39375 87.12813 28.39375Q85.8 28.39375 84.97188 29.346874Q84.14375 30.3 84.14375 32.346874Q84.14375 34.440624 84.94063 35.39375Q85.7375 36.33125 87.03438 36.33125Q88.06563 36.33125 88.75313 35.70625Q89.45625 35.065624 89.64375 33.753124ZM96.70625 35.971874L96.95625 37.534374Q96.22188 37.690624 95.62813 37.690624Q94.675 37.690624 94.14375 37.39375Q93.62813 37.08125 93.40938 36.596874Q93.19063 36.096874 93.19063 34.51875L93.19063 28.55L91.90938 28.55L91.90938 27.175L93.19063 27.175L93.19063 24.6125L94.94063 23.55L94.94063 27.175L96.70625 27.175L96.70625 28.55L94.94063 28.55L94.94063 34.6125Q94.94063 35.3625 95.03438 35.58125Q95.12813 35.784374 95.33125 35.925Q95.55 36.05 95.94063 36.05Q96.22188 36.05 96.70625 35.971874ZM98.87813 25.253124L98.87813 23.2375L100.64375 23.2375L100.64375 25.253124L98.87813 25.253124ZM98.87813 37.55L98.87813 27.175L100.64375 27.175L100.64375 37.55L98.87813 37.55ZM105.75313 37.55L101.8 27.175L103.65938 27.175L105.89375 33.39375Q106.25313 34.39375 106.55 35.471874Q106.78438 34.659374 107.20625 33.503124L109.50313 27.175L111.31563 27.175L107.39375 37.55L105.75313 37.55ZM118.97188 34.20625L120.78438 34.440624Q120.3625 36.01875 119.19063 36.909374Q118.03438 37.784374 116.22188 37.784374Q113.95625 37.784374 112.6125 36.39375Q111.28438 34.9875 111.28438 32.45625Q111.28438 29.83125 112.62813 28.39375Q113.97188 26.940624 116.12813 26.940624Q118.20625 26.940624 119.51875 28.3625Q120.84688 29.76875 120.84688 32.346874Q120.84688 32.503124 120.83125 32.815624L113.09688 32.815624Q113.19063 34.51875 114.06563 35.425Q114.94063 36.33125 116.2375 36.33125Q117.20625 36.33125 117.87813 35.83125Q118.56563 35.315624 118.97188 34.20625ZM113.19063 31.3625L118.9875 31.3625Q118.87813 30.065624 118.33125 29.409374Q117.4875 28.39375 116.14375 28.39375Q114.94063 28.39375 114.1125 29.20625Q113.28438 30.003124 113.19063 31.3625ZM128.45625 32.95625L130.2375 32.8Q130.3625 33.8625 130.81563 34.55Q131.28438 35.2375 132.25313 35.675Q133.2375 36.096874 134.47188 36.096874Q135.55 36.096874 136.37813 35.784374Q137.20625 35.45625 137.6125 34.89375Q138.01875 34.33125 138.01875 33.659374Q138.01875 32.9875 137.62813 32.4875Q137.2375 31.9875 136.34688 31.64375Q135.76875 31.409374 133.78438 30.940624Q131.81563 30.471874 131.03438 30.05Q130.00313 29.51875 129.50313 28.721874Q129.00313 27.925 129.00313 26.940624Q129.00313 25.846874 129.6125 24.909374Q130.22188 23.971874 131.40938 23.4875Q132.59688 22.9875 134.03438 22.9875Q135.62813 22.9875 136.84688 23.503124Q138.06563 24.01875 138.70625 25.01875Q139.3625 26.003124 139.40938 27.26875L137.59688 27.409374Q137.45625 26.05 136.6125 25.3625Q135.76875 24.659374 134.1125 24.659374Q132.39375 24.659374 131.59688 25.3Q130.81563 25.925 130.81563 26.8Q130.81563 27.58125 131.37813 28.08125Q131.925 28.58125 134.2375 29.096874Q136.55 29.6125 137.40938 30.003124Q138.65938 30.58125 139.25313 31.471874Q139.84688 32.346874 139.84688 33.503124Q139.84688 34.64375 139.19063 35.659374Q138.53438 36.675 137.3 37.2375Q136.08125 37.8 134.55 37.8Q132.6125 37.8 131.3 37.2375Q129.9875 36.659374 129.2375 35.51875Q128.4875 34.378124 128.45625 32.95625ZM145.70625 35.971874L145.95625 37.534374Q145.22188 37.690624 144.62813 37.690624Q143.675 37.690624 143.14375 37.39375Q142.62813 37.08125 142.40938 36.596874Q142.19063 36.096874 142.19063 34.51875L142.19063 28.55L140.90938 28.55L140.90938 27.175L142.19063 27.175L142.19063 24.6125L143.94063 23.55L143.94063 27.175L145.70625 27.175L145.70625 28.55L143.94063 28.55L143.94063 34.6125Q143.94063 35.3625 144.03438 35.58125Q144.12813 35.784374 144.33125 35.925Q144.55 36.05 144.94063 36.05Q145.22188 36.05 145.70625 35.971874ZM154.64375 36.26875Q153.65938 37.096874 152.75313 37.440624Q151.84688 37.784374 150.81563 37.784374Q149.1125 37.784374 148.19063 36.95625Q147.26875 36.1125 147.26875 34.815624Q147.26875 34.05 147.6125 33.425Q147.97188 32.8 148.53438 32.425Q149.09688 32.034374 149.8 31.83125Q150.31563 31.70625 151.3625 31.565624Q153.4875 31.315624 154.4875 30.971874Q154.50313 30.6125 154.50313 30.503124Q154.50313 29.440624 154.00313 28.9875Q153.33125 28.39375 152.00313 28.39375Q150.75313 28.39375 150.15938 28.83125Q149.58125 29.26875 149.3 30.378124L147.58125 30.14375Q147.81563 29.034374 148.34688 28.3625Q148.87813 27.675 149.89375 27.315624Q150.90938 26.940624 152.25313 26.940624Q153.58125 26.940624 154.40938 27.253124Q155.2375 27.565624 155.62813 28.05Q156.01875 28.51875 156.175 29.2375Q156.26875 29.690624 156.26875 30.8625L156.26875 33.20625Q156.26875 35.659374 156.37813 36.315624Q156.4875 36.95625 156.83125 37.55L154.9875 37.55Q154.72188 37.003124 154.64375 36.26875ZM154.4875 32.346874Q153.53438 32.7375 151.6125 33.003124Q150.53438 33.159374 150.08125 33.3625Q149.64375 33.55 149.39375 33.925Q149.14375 34.3 149.14375 34.76875Q149.14375 35.471874 149.675 35.940624Q150.20625 36.409374 151.2375 36.409374Q152.25313 36.409374 153.03438 35.971874Q153.83125 35.51875 154.20625 34.753124Q154.4875 34.14375 154.4875 32.9875L154.4875 32.346874ZM158.87813 37.55L158.87813 23.2375L160.64375 23.2375L160.64375 31.39375L164.8 27.175L167.06563 27.175L163.1125 31.01875L167.47188 37.55L165.3 37.55L161.87813 32.253124L160.64375 33.440624L160.64375 37.55L158.87813 37.55ZM168.87813 25.253124L168.87813 23.2375L170.64375 23.2375L170.64375 25.253124L168.87813 25.253124ZM168.87813 37.55L168.87813 27.175L170.64375 27.175L170.64375 37.55L168.87813 37.55ZM172.8625 37.55L172.8625 27.175L174.45625 27.175L174.45625 28.659374Q175.59688 26.940624 177.75313 26.940624Q178.69063 26.940624 179.47188 27.284374Q180.26875 27.6125 180.65938 28.159374Q181.05 28.70625 181.20625 29.45625Q181.3 29.95625 181.3 31.175L181.3 37.55L179.53438 37.55L179.53438 31.2375Q179.53438 30.159374 179.33125 29.628124Q179.12813 29.096874 178.59688 28.784374Q178.08125 28.471874 177.37813 28.471874Q176.25313 28.471874 175.44063 29.190624Q174.62813 29.89375 174.62813 31.878124L174.62813 37.55L172.8625 37.55ZM182.55 38.409374L184.25313 38.659374Q184.3625 39.45625 184.84688 39.815624Q185.50313 40.3 186.64375 40.3Q187.8625 40.3 188.51875 39.815624Q189.19063 39.33125 189.425 38.45625Q189.56563 37.909374 189.55 36.190624Q188.39375 37.55 186.675 37.55Q184.53438 37.55 183.3625 36.003124Q182.19063 34.45625 182.19063 32.3Q182.19063 30.815624 182.72188 29.565624Q183.26875 28.315624 184.28438 27.628124Q185.31563 26.940624 186.69063 26.940624Q188.51875 26.940624 189.72188 28.425L189.72188 27.175L191.33125 27.175L191.33125 36.14375Q191.33125 38.565624 190.83125 39.565624Q190.34688 40.58125 189.26875 41.159374Q188.20625 41.753124 186.64375 41.753124Q184.8 41.753124 183.64375 40.925Q182.50313 40.096874 182.55 38.409374ZM184.00313 32.175Q184.00313 34.221874 184.81563 35.159374Q185.62813 36.096874 186.84688 36.096874Q188.05 36.096874 188.8625 35.159374Q189.69063 34.221874 189.69063 32.2375Q189.69063 30.33125 188.84688 29.3625Q188.00313 28.39375 186.81563 28.39375Q185.64375 28.39375 184.81563 29.346874Q184.00313 30.3 184.00313 32.175ZM200.08125 37.55L200.08125 23.2375L202.01875 23.2375L209.53438 34.471874L209.53438 23.2375L211.34688 23.2375L211.34688 37.55L209.40938 37.55L201.89375 26.3L201.89375 37.55L200.08125 37.55ZM212.22188 32.3625Q212.22188 29.4875 213.81563 28.096874Q215.15938 26.940624 217.08125 26.940624Q219.22188 26.940624 220.56563 28.346874Q221.925 29.753124 221.925 32.221874Q221.925 34.221874 221.33125 35.378124Q220.7375 36.51875 219.58125 37.159374Q218.44063 37.784374 217.08125 37.784374Q214.89375 37.784374 213.55 36.39375Q212.22188 34.9875 212.22188 32.3625ZM214.01875 32.3625Q214.01875 34.3625 214.87813 35.346874Q215.75313 36.33125 217.08125 36.33125Q218.39375 36.33125 219.25313 35.346874Q220.12813 34.346874 220.12813 32.3Q220.12813 30.378124 219.25313 29.39375Q218.37813 28.39375 217.08125 28.39375Q215.75313 28.39375 214.87813 29.39375Q214.01875 30.378124 214.01875 32.3625ZM230.59688 37.55L230.59688 36.2375Q229.6125 37.784374 227.69063 37.784374Q226.45625 37.784374 225.40938 37.096874Q224.37813 36.409374 223.8 35.190624Q223.2375 33.971874 223.2375 32.378124Q223.2375 30.815624 223.75313 29.55Q224.26875 28.284374 225.3 27.6125Q226.34688 26.940624 227.6125 26.940624Q228.55 26.940624 229.28438 27.346874Q230.01875 27.7375 230.4875 28.3625L230.4875 23.2375L232.22188 23.2375L232.22188 37.55L230.59688 37.55ZM225.03438 32.378124Q225.03438 34.3625 225.87813 35.346874Q226.72188 36.33125 227.8625 36.33125Q229.01875 36.33125 229.81563 35.39375Q230.62813 34.45625 230.62813 32.51875Q230.62813 30.39375 229.8 29.39375Q228.9875 28.39375 227.78438 28.39375Q226.6125 28.39375 225.81563 29.3625Q225.03438 30.315624 225.03438 32.378124ZM241.97188 34.20625L243.78438 34.440624Q243.3625 36.01875 242.19063 36.909374Q241.03438 37.784374 239.22188 37.784374Q236.95625 37.784374 235.6125 36.39375Q234.28438 34.9875 234.28438 32.45625Q234.28438 29.83125 235.62813 28.39375Q236.97188 26.940624 239.12813 26.940624Q241.20625 26.940624 242.51875 28.3625Q243.84688 29.76875 243.84688 32.346874Q243.84688 32.503124 243.83125 32.815624L236.09688 32.815624Q236.19063 34.51875 237.06563 35.425Q237.94063 36.33125 239.2375 36.33125Q240.20625 36.33125 240.87813 35.83125Q241.56563 35.315624 241.97188 34.20625ZM236.19063 31.3625L241.9875 31.3625Q241.87813 30.065624 241.33125 29.409374Q240.4875 28.39375 239.14375 28.39375Q237.94063 28.39375 237.1125 29.20625Q236.28438 30.003124 236.19063 31.3625ZM245.15938 34.45625L246.90938 34.175Q247.05 35.221874 247.72188 35.784374Q248.39375 36.33125 249.59688 36.33125Q250.8 36.33125 251.37813 35.846874Q251.97188 35.346874 251.97188 34.690624Q251.97188 34.096874 251.45625 33.753124Q251.09688 33.51875 249.65938 33.159374Q247.72188 32.659374 246.97188 32.315624Q246.2375 31.95625 245.84688 31.33125Q245.45625 30.690624 245.45625 29.925Q245.45625 29.2375 245.76875 28.64375Q246.09688 28.05 246.64375 27.659374Q247.05 27.3625 247.75313 27.159374Q248.47188 26.940624 249.28438 26.940624Q250.50313 26.940624 251.425 27.3Q252.34688 27.64375 252.78438 28.253124Q253.22188 28.846874 253.39375 29.846874L251.675 30.08125Q251.55 29.284374 250.9875 28.846874Q250.425 28.39375 249.40938 28.39375Q248.19063 28.39375 247.675 28.8Q247.15938 29.190624 247.15938 29.721874Q247.15938 30.065624 247.37813 30.346874Q247.58125 30.628124 248.05 30.815624Q248.31563 30.909374 249.59688 31.253124Q251.47188 31.753124 252.20625 32.08125Q252.94063 32.39375 253.3625 33.003124Q253.78438 33.596874 253.78438 34.503124Q253.78438 35.378124 253.26875 36.159374Q252.75313 36.940624 251.78438 37.3625Q250.81563 37.784374 249.59688 37.784374Q247.58125 37.784374 246.51875 36.940624Q245.45625 36.096874 245.15938 34.45625ZM264.7531 37.55L260.8 27.175L262.65936 27.175L264.89374 33.39375Q265.2531 34.39375 265.55 35.471874Q265.78436 34.659374 266.20624 33.503124L268.5031 27.175L270.3156 27.175L266.39374 37.55L264.7531 37.55ZM270.15936 34.45625L271.90936 34.175Q272.05 35.221874 272.72186 35.784374Q273.39374 36.33125 274.59686 36.33125Q275.8 36.33125 276.3781 35.846874Q276.97186 35.346874 276.97186 34.690624Q276.97186 34.096874 276.45624 33.753124Q276.09686 33.51875 274.65936 33.159374Q272.72186 32.659374 271.97186 32.315624Q271.2375 31.95625 270.84686 31.33125Q270.45624 30.690624 270.45624 29.925Q270.45624 29.2375 270.76874 28.64375Q271.09686 28.05 271.64374 27.659374Q272.05 27.3625 272.7531 27.159374Q273.47186 26.940624 274.28436 26.940624Q275.5031 26.940624 276.425 27.3Q277.34686 27.64375 277.78436 28.253124Q278.22186 28.846874 278.39374 29.846874L276.675 30.08125Q276.55 29.284374 275.9875 28.846874Q275.425 28.39375 274.40936 28.39375Q273.1906 28.39375 272.675 28.8Q272.15936 29.190624 272.15936 29.721874Q272.15936 30.065624 272.3781 30.346874Q272.58124 30.628124 273.05 30.815624Q273.3156 30.909374 274.59686 31.253124Q276.47186 31.753124 277.20624 32.08125Q277.9406 32.39375 278.3625 33.003124Q278.78436 33.596874 278.78436 34.503124Q278.78436 35.378124 278.26874 36.159374Q277.7531 36.940624 276.78436 37.3625Q275.8156 37.784374 274.59686 37.784374Q272.58124 37.784374 271.51874 36.940624Q270.45624 36.096874 270.15936 34.45625ZM281.3625 37.55L281.3625 35.55L283.3625 35.55L283.3625 37.55L281.3625 37.55ZM293.03436 37.55L293.03436 23.2375L295.89374 23.2375L299.26874 33.3625Q299.7375 34.784374 299.95624 35.4875Q300.20624 34.70625 300.72186 33.190624L304.14374 23.2375L306.6906 23.2375L306.6906 37.55L304.8781 37.55L304.8781 25.565624L300.70624 37.55L299.0031 37.55L294.8625 25.3625L294.8625 37.55L293.03436 37.55ZM309.22186 32.3625Q309.22186 29.4875 310.8156 28.096874Q312.15936 26.940624 314.08124 26.940624Q316.22186 26.940624 317.5656 28.346874Q318.925 29.753124 318.925 32.221874Q318.925 34.221874 318.33124 35.378124Q317.7375 36.51875 316.58124 37.159374Q315.4406 37.784374 314.08124 37.784374Q311.89374 37.784374 310.55 36.39375Q309.22186 34.9875 309.22186 32.3625ZM311.01874 32.3625Q311.01874 34.3625 311.8781 35.346874Q312.7531 36.33125 314.08124 36.33125Q315.39374 36.33125 316.2531 35.346874Q317.1281 34.346874 317.1281 32.3Q317.1281 30.378124 316.2531 29.39375Q315.3781 28.39375 314.08124 28.39375Q312.7531 28.39375 311.8781 29.39375Q311.01874 30.378124 311.01874 32.3625ZM320.8625 37.55L320.8625 27.175L322.45624 27.175L322.45624 28.659374Q323.59686 26.940624 325.7531 26.940624Q326.6906 26.940624 327.47186 27.284374Q328.26874 27.6125 328.65936 28.159374Q329.05 28.70625 329.20624 29.45625Q329.3 29.95625 329.3 31.175L329.3 37.55L327.53436 37.55L327.53436 31.2375Q327.53436 30.159374 327.33124 29.628124Q327.1281 29.096874 326.59686 28.784374Q326.08124 28.471874 325.3781 28.471874Q324.2531 28.471874 323.4406 29.190624Q322.6281 29.89375 322.6281 31.878124L322.6281 37.55L320.8625 37.55ZM334.70624 35.971874L334.95624 37.534374Q334.22186 37.690624 333.6281 37.690624Q332.675 37.690624 332.14374 37.39375Q331.6281 37.08125 331.40936 36.596874Q331.1906 36.096874 331.1906 34.51875L331.1906 28.55L329.90936 28.55L329.90936 27.175L331.1906 27.175L331.1906 24.6125L332.9406 23.55L332.9406 27.175L334.70624 27.175L334.70624 28.55L332.9406 28.55L332.9406 34.6125Q332.9406 35.3625 333.03436 35.58125Q333.1281 35.784374 333.33124 35.925Q333.55 36.05 333.9406 36.05Q334.22186 36.05 334.70624 35.971874ZM336.8625 37.55L336.8625 23.2375L338.6281 23.2375L338.6281 28.3625Q339.8625 26.940624 341.7375 26.940624Q342.8781 26.940624 343.72186 27.39375Q344.58124 27.846874 344.9406 28.659374Q345.3156 29.45625 345.3156 30.971874L345.3156 37.55L343.5656 37.55L343.5656 30.971874Q343.5656 29.659374 342.9875 29.065624Q342.40936 28.45625 341.3781 28.45625Q340.59686 28.45625 339.89374 28.8625Q339.20624 29.26875 338.90936 29.971874Q338.6281 30.659374 338.6281 31.878124L338.6281 37.55L336.8625 37.55Z" fill-rule="nonzero"/></svg>