<svg version="1.1" viewBox="0.0 0.0 600.0 371.0" fill="none" stroke="none" stroke-linecap="square" stroke-miterlimit="10" width="600" height="371" xmlns:xlink="http://www.w3.org/1999/xlink" xmlns="http://www.w3.org/2000/svg"><path fill="#ffffff" d="M0 0L600.0 0L600.0 371.0L0 371.0L0 0Z" fill-rule="nonzero"/><path stroke="#333333" stroke-width="1.0" stroke-linecap="butt" d="M94.5 300.5L581.5 300.5" fill-rule="nonzero"/><path stroke="#cccccc" stroke-width="1.0" stroke-linecap="butt" d="M94.5 252.5L581.5 252.5" fill-rule="nonzero"/><path stroke="#cccccc" stroke-width="1.0" stroke-linecap="butt" d="M94.5 205.5L581.5 205.5" fill-rule="nonzero"/><path stroke="#cccccc" stroke-width="1.0" stroke-linecap="butt" d="M94.5 157.5L581.5 157.5" fill-rule="nonzero"/><path stroke="#cccccc" stroke-width="1.0" stroke-linecap="butt" d="M94.5 109.5L581.5 109.5" fill-rule="nonzero"/><path stroke="#cccccc" stroke-width="1.0" stroke-linecap="butt" d="M94.5 61.5L581.5 61.5" fill-rule="nonzero"/><clipPath id="id_0"><path d="M94.55 61.916668L581.45 61.916668L581.45 300.45L94.55 300.45L94.55 61.916668Z" clip-rule="nonzero"/></clipPath><path stroke="#4285f4" stroke-width="2.0" stroke-linecap="butt" clip-path="url(#id_0)" d="M135.125 101.055214L216.275 69.85506L297.425 123.08615L378.575 155.36449L459.725 166.15573L540.875 157.26321" fill-rule="nonzero"/><path fill="#000000" fill-opacity="0.0" clip-path="url(#id_0)" d="M138.125 101.055214C138.125 102.71207 136.78186 104.055214 135.125 104.055214C133.46814 104.055214 132.125 102.71207 132.125 101.055214C132.125 99.39836 133.46814 98.055214 135.125 98.055214C136.78186 98.055214 138.125 99.39836 138.125 101.055214Z" fill-rule="nonzero"/><path fill="#000000" fill-opacity="0.0" clip-path="url(#id_0)" d="M219.275 69.85506C219.275 71.51191 217.93185 72.85506 216.275 72.85506C214.61815 72.85506 213.275 71.51191 213.275 69.85506C213.275 68.198204 214.61815 66.85506 216.275 66.85506C217.93185 66.85506 219.275 68.198204 219.275 69.85506Z" fill-rule="nonzero"/><path fill="#000000" fill-opacity="0.0" clip-path="url(#id_0)" d="M300.425 123.08615C300.425 124.74301 299.08185 126.08615 297.425 126.08615C295.76816 126.08615 294.425 124.74301 294.425 123.08615C294.425 121.4293 295.76816 120.08615 297.425 120.08615C299.08185 120.08615 300.425 121.4293 300.425 123.08615Z" fill-rule="nonzero"/><path fill="#000000" fill-opacity="0.0" clip-path="url(#id_0)" d="M381.575 155.36449C381.575 157.02135 380.23184 158.36449 378.575 158.36449C376.91815 158.36449 375.575 157.02135 375.575 155.36449C375.575 153.70763 376.91815 152.36449 378.575 152.36449C380.23184 152.36449 381.575 153.70763 381.575 155.36449Z" fill-rule="nonzero"/><path fill="#000000" fill-opacity="0.0" clip-path="url(#id_0)" d="M462.725 166.15573C462.725 167.81259 461.38187 169.15573 459.725 169.15573C458.06815 169.15573 456.725 167.81259 456.725 166.15573C456.725 164.49889 458.06815 163.15573 459.725 163.15573C461.38187 163.15573 462.725 164.49889 462.725 166.15573Z" fill-rule="nonzero"/><path fill="#000000" fill-opacity="0.0" clip-path="url(#id_0)" d="M543.875 157.26321C543.875 158.92006 542.53186 160.26321 540.875 160.26321C539.21814 160.26321 537.875 158.92006 537.875 157.26321C537.875 155.60635 539.21814 154.26321 540.875 154.26321C542.53186 154.26321 543.875 155.60635 543.875 157.26321Z" fill-rule="nonzero"/><path fill="#000000" d="M322.39062 349.45L322.39062 340.85626L324.10938 340.85626L326.14062 346.9344Q326.42188 347.79376 326.54688 348.21564Q326.6875 347.7469 327.0 346.84064L329.0625 340.85626L330.59375 340.85626L330.59375 349.45L329.5 349.45L329.5 342.2625L327.0 349.45L325.96875 349.45L323.48438 342.1375L323.48438 349.45L322.39062 349.45ZM330.90625 346.34064Q330.90625 344.60626 331.85938 343.77814Q332.65625 343.09064 333.8125 343.09064Q335.09375 343.09064 335.90625 343.9344Q336.73438 344.7625 336.73438 346.2469Q336.73438 347.45 336.375 348.1375Q336.01562 348.825 335.3125 349.21564Q334.625 349.59064 333.8125 349.59064Q332.51562 349.59064 331.70312 348.7625Q330.90625 347.91876 330.90625 346.34064ZM331.98438 346.34064Q331.98438 347.52814 332.5 348.1219Q333.03125 348.71564 333.8125 348.71564Q334.60938 348.71564 335.125 348.1219Q335.64062 347.52814 335.64062 346.3094Q335.64062 345.15314 335.10938 344.5594Q334.59375 343.96564 333.8125 343.96564Q333.03125 343.96564 332.5 344.5594Q331.98438 345.1375 331.98438 346.34064ZM338.29688 349.45L338.29688 343.23126L339.23438 343.23126L339.23438 344.10626Q339.92188 343.09064 341.21875 343.09064Q341.78125 343.09064 342.25 343.29376Q342.73438 343.4969 342.96875 343.825Q343.20312 344.15314 343.29688 344.59064Q343.34375 344.8875 343.34375 345.6219L343.34375 349.45L342.29688 349.45L342.29688 345.66876Q342.29688 345.0125 342.17188 344.7Q342.04688 344.3875 341.73438 344.2Q341.42188 343.9969 341.0 343.9969Q340.32812 343.9969 339.82812 344.4344Q339.34375 344.85626 339.34375 346.04376L339.34375 349.45L338.29688 349.45ZM347.59375 348.5125L347.75 349.4344Q347.29688 349.52814 346.95312 349.52814Q346.375 349.52814 346.0625 349.35626Q345.75 349.16876 345.60938 348.8719Q345.48438 348.575 345.48438 347.6219L345.48438 344.04376L344.71875 344.04376L344.71875 343.23126L345.48438 343.23126L345.48438 341.6844L346.53125 341.0594L346.53125 343.23126L347.59375 343.23126L347.59375 344.04376L346.53125 344.04376L346.53125 347.6844Q346.53125 348.1375 346.57812 348.2625Q346.64062 348.3875 346.76562 348.46564Q346.89062 348.54376 347.125 348.54376Q347.3125 348.54376 347.59375 348.5125ZM348.29688 349.45L348.29688 340.85626L349.34375 340.85626L349.34375 343.9344Q350.07812 343.09064 351.20312 343.09064Q351.90625 343.09064 352.40625 343.3719Q352.92188 343.6375 353.14062 344.1219Q353.35938 344.59064 353.35938 345.5125L353.35938 349.45L352.3125 349.45L352.3125 345.5125Q352.3125 344.71564 351.96875 344.35626Q351.625 343.9969 351.0 343.9969Q350.53125 343.9969 350.10938 344.2469Q349.70312 344.48126 349.51562 344.90314Q349.34375 345.3094 349.34375 346.04376L349.34375 349.45L348.29688 349.45Z" fill-rule="nonzero"/><path fill="#000000" d="M29.550013 261.07397L21.971888 261.07397L21.971888 263.9021L20.956263 263.9021L20.956263 257.0896L21.971888 257.0896L21.971888 259.93335L29.550013 259.93335L29.550013 261.07397ZM26.440638 256.7771Q24.706263 256.7771 23.878138 255.82396Q23.190638 255.02708 23.190638 253.87083Q23.190638 252.58958 24.034388 251.77708Q24.862513 250.94896 26.346888 250.94896Q27.550013 250.94896 28.237513 251.30833Q28.925013 251.66771 29.315638 252.37083Q29.690638 253.05833 29.690638 253.87083Q29.690638 255.16771 28.862513 255.98021Q28.018763 256.7771 26.440638 256.7771ZM26.440638 255.69896Q27.628138 255.69896 28.221888 255.18333Q28.815638 254.65208 28.815638 253.87083Q28.815638 253.07396 28.221888 252.55833Q27.628138 252.04271 26.409388 252.04271Q25.253138 252.04271 24.659388 252.57396Q24.065638 253.08958 24.065638 253.87083Q24.065638 254.65208 24.659388 255.18333Q25.237513 255.69896 26.440638 255.69896ZM28.612513 247.08958L29.534388 246.93333Q29.628138 247.38646 29.628138 247.73021Q29.628138 248.30833 29.456263 248.62083Q29.268763 248.93333 28.971888 249.07396Q28.675013 249.19896 27.721888 249.19896L24.143763 249.19896L24.143763 249.96458L23.331263 249.96458L23.331263 249.19896L21.784388 249.19896L21.159388 248.15208L23.331263 248.15208L23.331263 247.08958L24.143763 247.08958L24.143763 248.15208L27.784388 248.15208Q28.237513 248.15208 28.362513 248.10521Q28.487513 248.04271 28.565638 247.91771Q28.643763 247.79271 28.643763 247.55833Q28.643763 247.37083 28.612513 247.08958ZM28.784388 242.32396Q29.284388 242.91771 29.487513 243.46458Q29.690638 243.99583 29.690638 244.62083Q29.690638 245.65208 29.190638 246.19896Q28.690638 246.74583 27.909388 246.74583Q27.456263 246.74583 27.081263 246.54271Q26.690638 246.33958 26.471888 245.99583Q26.237513 245.65208 26.128138 245.23021Q26.034388 244.93333 25.956263 244.29271Q25.815638 243.02708 25.596888 242.41771Q25.378138 242.41771 25.331263 242.41771Q24.675013 242.41771 24.409388 242.71458Q24.065638 243.12083 24.065638 243.91771Q24.065638 244.65208 24.331263 245.01146Q24.581263 245.37083 25.237513 245.54271L25.096888 246.57396Q24.440638 246.43333 24.034388 246.10521Q23.628138 245.77708 23.409388 245.16771Q23.190638 244.55833 23.190638 243.76146Q23.190638 242.96458 23.378138 242.46458Q23.565638 241.96458 23.846888 241.73021Q24.128138 241.49583 24.565638 241.40208Q24.831263 241.35521 25.534388 241.35521L26.940638 241.35521Q28.409388 241.35521 28.800013 241.29271Q29.190638 241.21458 29.550013 241.01146L29.550013 242.12083Q29.221888 242.27708 28.784388 242.32396ZM26.425013 242.41771Q26.659388 242.99583 26.831263 244.13646Q26.925013 244.79271 27.050013 245.05833Q27.159388 245.32396 27.378138 245.48021Q27.596888 245.62083 27.878138 245.62083Q28.300013 245.62083 28.581263 245.30833Q28.862513 244.98021 28.862513 244.37083Q28.862513 243.76146 28.596888 243.29271Q28.331263 242.80833 27.862513 242.58958Q27.503138 242.41771 26.815638 242.41771L26.425013 242.41771ZM29.550013 239.41771L20.956263 239.41771L20.956263 238.35521L29.550013 238.35521L29.550013 239.41771ZM29.550013 233.24583L20.956263 233.24583L20.956263 229.43333Q20.956263 228.27708 21.190638 227.68333Q21.425013 227.08958 22.018763 226.73021Q22.596888 226.37083 23.300013 226.37083Q24.221888 226.37083 24.846888 226.96458Q25.471888 227.55833 25.643763 228.79271Q25.862513 228.33958 26.065638 228.10521Q26.518763 227.60521 27.206263 227.16771L29.550013 225.66771L29.550013 227.10521L27.768763 228.23021Q26.987513 228.73021 26.581263 229.05833Q26.175013 229.37083 26.018763 229.63646Q25.846888 229.88646 25.768763 230.15208Q25.737513 230.33958 25.737513 230.77708L25.737513 232.10521L29.550013 232.10521L29.550013 233.24583ZM24.753138 232.10521L24.753138 229.65208Q24.753138 228.88646 24.596888 228.44896Q24.425013 227.99583 24.081263 227.77708Q23.721888 227.54271 23.300013 227.54271Q22.690638 227.54271 22.300013 227.99583Q21.909388 228.43333 21.909388 229.38646L21.909388 232.10521L24.753138 232.10521ZM27.550013 220.13646L27.675013 219.04271Q28.628138 219.29271 29.159388 219.99583Q29.690638 220.69896 29.690638 221.77708Q29.690638 223.13646 28.846888 223.94896Q28.003138 224.74583 26.487513 224.74583Q24.925013 224.74583 24.065638 223.93333Q23.190638 223.12083 23.190638 221.83958Q23.190638 220.58958 24.034388 219.80833Q24.878138 219.01146 26.425013 219.01146Q26.518763 219.01146 26.706263 219.01146L26.706263 223.65208Q27.737513 223.58958 28.284388 223.07396Q28.815638 222.55833 28.815638 221.77708Q28.815638 221.19896 28.518763 220.79271Q28.206263 220.37083 27.550013 220.13646ZM25.846888 223.58958L25.846888 220.12083Q25.050013 220.18333 24.659388 220.51146Q24.050013 221.02708 24.050013 221.82396Q24.050013 222.55833 24.534388 223.05833Q25.018763 223.54271 25.846888 223.58958ZM28.784388 213.32396Q29.284388 213.91771 29.487513 214.46458Q29.690638 214.99583 29.690638 215.62083Q29.690638 216.65208 29.190638 217.19896Q28.690638 217.74583 27.909388 217.74583Q27.456263 217.74583 27.081263 217.54271Q26.690638 217.33958 26.471888 216.99583Q26.237513 216.65208 26.128138 216.23021Q26.034388 215.93333 25.956263 215.29271Q25.815638 214.02708 25.596888 213.41771Q25.378138 213.41771 25.331263 213.41771Q24.675013 213.41771 24.409388 213.71458Q24.065638 214.12083 24.065638 214.91771Q24.065638 215.65208 24.331263 216.01146Q24.581263 216.37083 25.237513 216.54271L25.096888 217.57396Q24.440638 217.43333 24.034388 217.10521Q23.628138 216.77708 23.409388 216.16771Q23.190638 215.55833 23.190638 214.76146Q23.190638 213.96458 23.378138 213.46458Q23.565638 212.96458 23.846888 212.73021Q24.128138 212.49583 24.565638 212.40208Q24.831263 212.35521 25.534388 212.35521L26.940638 212.35521Q28.409388 212.35521 28.800013 212.29271Q29.190638 212.21458 29.550013 212.01146L29.550013 213.12083Q29.221888 213.27708 28.784388 213.32396ZM26.425013 213.41771Q26.659388 213.99583 26.831263 215.13646Q26.925013 215.79271 27.050013 216.05833Q27.159388 216.32396 27.378138 216.48021Q27.596888 216.62083 27.878138 216.62083Q28.300013 216.62083 28.581263 216.30833Q28.862513 215.98021 28.862513 215.37083Q28.862513 214.76146 28.596888 214.29271Q28.331263 213.80833 27.862513 213.58958Q27.503138 213.41771 26.815638 213.41771L26.425013 213.41771ZM27.268763 206.32396L27.409388 205.29271Q28.471888 205.46458 29.081263 206.16771Q29.690638 206.87083 29.690638 207.88646Q29.690638 209.16771 28.862513 209.94896Q28.018763 210.71458 26.456263 210.71458Q25.456263 210.71458 24.706263 210.38646Q23.940638 210.04271 23.565638 209.37083Q23.190638 208.68333 23.190638 207.87083Q23.190638 206.87083 23.706263 206.23021Q24.206263 205.57396 25.159388 205.38646L25.315638 206.41771Q24.690638 206.55833 24.378138 206.93333Q24.050013 207.30833 24.050013 207.83958Q24.050013 208.63646 24.628138 209.13646Q25.190638 209.63646 26.425013 209.63646Q27.690638 209.63646 28.253138 209.15208Q28.815638 208.66771 28.815638 207.90208Q28.815638 207.27708 28.440638 206.87083Q28.065638 206.44896 27.268763 206.32396ZM29.550013 204.38646L20.956263 204.38646L20.956263 203.33958L24.034388 203.33958Q23.190638 202.60521 23.190638 201.48021Q23.190638 200.77708 23.471888 200.27708Q23.737513 199.76146 24.221888 199.54271Q24.690638 199.32396 25.612513 199.32396L29.550013 199.32396L29.550013 200.37083L25.612513 200.37083Q24.815638 200.37083 24.456263 200.71458Q24.096888 201.05833 24.096888 201.68333Q24.096888 202.15208 24.346888 202.57396Q24.581263 202.98021 25.003138 203.16771Q25.409388 203.33958 26.143763 203.33958L29.550013 203.33958L29.550013 204.38646ZM28.784388 193.32396Q29.284388 193.91771 29.487513 194.46458Q29.690638 194.99583 29.690638 195.62083Q29.690638 196.65208 29.190638 197.19896Q28.690638 197.74583 27.909388 197.74583Q27.456263 197.74583 27.081263 197.54271Q26.690638 197.33958 26.471888 196.99583Q26.237513 196.65208 26.128138 196.23021Q26.034388 195.93333 25.956263 195.29271Q25.815638 194.02708 25.596888 193.41771Q25.378138 193.41771 25.331263 193.41771Q24.675013 193.41771 24.409388 193.71458Q24.065638 194.12083 24.065638 194.91771Q24.065638 195.65208 24.331263 196.01146Q24.581263 196.37083 25.237513 196.54271L25.096888 197.57396Q24.440638 197.43333 24.034388 197.10521Q23.628138 196.77708 23.409388 196.16771Q23.190638 195.55833 23.190638 194.76146Q23.190638 193.96458 23.378138 193.46458Q23.565638 192.96458 23.846888 192.73021Q24.128138 192.49583 24.565638 192.40208Q24.831263 192.35521 25.534388 192.35521L26.940638 192.35521Q28.409388 192.35521 28.800013 192.29271Q29.190638 192.21458 29.550013 192.01146L29.550013 193.12083Q29.221888 193.27708 28.784388 193.32396ZM26.425013 193.41771Q26.659388 193.99583 26.831263 195.13646Q26.925013 195.79271 27.050013 196.05833Q27.159388 196.32396 27.378138 196.48021Q27.596888 196.62083 27.878138 196.62083Q28.300013 196.62083 28.581263 196.30833Q28.862513 195.98021 28.862513 195.37083Q28.862513 194.76146 28.596888 194.29271Q28.331263 193.80833 27.862513 193.58958Q27.503138 193.41771 26.815638 193.41771L26.425013 193.41771ZM29.550013 189.41771L29.550013 190.40208L20.956263 190.40208L20.956263 189.33958L24.018763 189.33958Q23.190638 188.66771 23.190638 187.63646Q23.190638 187.05833 23.425013 186.55833Q23.643763 186.04271 24.065638 185.71458Q24.487513 185.37083 25.081263 185.18333Q25.675013 184.99583 26.346888 184.99583Q27.940638 184.99583 28.815638 185.79271Q29.690638 186.58958 29.690638 187.68333Q29.690638 188.79271 28.768763 189.41771L29.550013 189.41771ZM26.393763 189.43333Q27.503138 189.43333 28.003138 189.12083Q28.815638 188.62083 28.815638 187.77708Q28.815638 187.08958 28.221888 186.58958Q27.628138 186.07396 26.425013 186.07396Q25.206263 186.07396 24.628138 186.55833Q24.050013 187.04271 24.050013 187.73021Q24.050013 188.41771 24.659388 188.93333Q25.253138 189.43333 26.393763 189.43333ZM29.550013 183.41771L20.956263 183.41771L20.956263 182.35521L29.550013 182.35521L29.550013 183.41771ZM27.550013 176.13646L27.675013 175.04271Q28.628138 175.29271 29.159388 175.99583Q29.690638 176.69896 29.690638 177.77708Q29.690638 179.13646 28.846888 179.94896Q28.003138 180.74583 26.487513 180.74583Q24.925013 180.74583 24.065638 179.93333Q23.190638 179.12083 23.190638 177.83958Q23.190638 176.58958 24.034388 175.80833Q24.878138 175.01146 26.425013 175.01146Q26.518763 175.01146 26.706263 175.01146L26.706263 179.65208Q27.737513 179.58958 28.284388 179.07396Q28.815638 178.55833 28.815638 177.77708Q28.815638 177.19896 28.518763 176.79271Q28.206263 176.37083 27.550013 176.13646ZM25.846888 179.58958L25.846888 176.12083Q25.050013 176.18333 24.659388 176.51146Q24.050013 177.02708 24.050013 177.82396Q24.050013 178.55833 24.534388 179.05833Q25.018763 179.54271 25.846888 179.58958ZM29.550013 170.19896L20.956263 170.19896L20.956263 164.40208L21.971888 164.40208L21.971888 169.05833L24.628138 169.05833L24.628138 165.02708L25.643763 165.02708L25.643763 169.05833L29.550013 169.05833L29.550013 170.19896ZM29.550013 159.30833L28.628138 159.30833Q29.690638 160.04271 29.690638 161.29271Q29.690638 161.83958 29.487513 162.32396Q29.268763 162.79271 28.956263 163.02708Q28.628138 163.26146 28.159388 163.35521Q27.862513 163.41771 27.175013 163.41771L23.331263 163.41771L23.331263 162.35521L26.784388 162.35521Q27.596888 162.35521 27.893763 162.29271Q28.300013 162.19896 28.550013 161.88646Q28.784388 161.55833 28.784388 161.07396Q28.784388 160.60521 28.550013 160.19896Q28.300013 159.77708 27.878138 159.60521Q27.456263 159.41771 26.659388 159.41771L23.331263 159.41771L23.331263 158.37083L29.550013 158.37083L29.550013 159.30833ZM29.550013 156.41771L20.956263 156.41771L20.956263 155.35521L29.550013 155.35521L29.550013 156.41771ZM29.550013 153.41771L20.956263 153.41771L20.956263 152.35521L29.550013 152.35521L29.550013 153.41771ZM29.550013 147.26146L20.956263 147.26146L20.956263 146.10521L27.706263 141.58958L20.956263 141.58958L20.956263 140.49583L29.550013 140.49583L29.550013 141.66771L22.800013 146.18333L29.550013 146.18333L29.550013 147.26146ZM26.440638 138.77708Q24.706263 138.77708 23.878138 137.82396Q23.190638 137.02708 23.190638 135.87083Q23.190638 134.58958 24.034388 133.77708Q24.862513 132.94896 26.346888 132.94896Q27.550013 132.94896 28.237513 133.30833Q28.925013 133.66771 29.315638 134.37083Q29.690638 135.05833 29.690638 135.87083Q29.690638 137.16771 28.862513 137.98021Q28.018763 138.77708 26.440638 138.77708ZM26.440638 137.69896Q27.628138 137.69896 28.221888 137.18333Q28.815638 136.65208 28.815638 135.87083Q28.815638 135.07396 28.221888 134.55833Q27.628138 134.04271 26.409388 134.04271Q25.253138 134.04271 24.659388 134.57396Q24.065638 135.08958 24.065638 135.87083Q24.065638 136.65208 24.659388 137.18333Q25.237513 137.69896 26.440638 137.69896ZM29.550013 127.35521L28.768763 127.35521Q29.690638 127.94896 29.690638 129.08958Q29.690638 129.83958 29.284388 130.46458Q28.862513 131.08958 28.128138 131.43333Q27.393763 131.77708 26.440638 131.77708Q25.518763 131.77708 24.753138 131.46458Q23.987513 131.15208 23.596888 130.52708Q23.190638 129.90208 23.190638 129.13646Q23.190638 128.57396 23.425013 128.13646Q23.659388 127.69896 24.034388 127.41771L20.956263 127.41771L20.956263 126.370834L29.550013 126.370834L29.550013 127.35521ZM26.440638 130.68333Q27.643763 130.68333 28.237513 130.18333Q28.815638 129.68333 28.815638 128.99583Q28.815638 128.30833 28.253138 127.82396Q27.690638 127.339584 26.534388 127.339584Q25.253138 127.339584 24.659388 127.839584Q24.065638 128.32396 24.065638 129.04271Q24.065638 129.74583 24.643763 130.21458Q25.206263 130.68333 26.440638 130.68333ZM27.550013 120.13646L27.675013 119.04271Q28.628138 119.29271 29.159388 119.995834Q29.690638 120.69896 29.690638 121.777084Q29.690638 123.13646 28.846888 123.94896Q28.003138 124.745834 26.487513 124.745834Q24.925013 124.745834 24.065638 123.933334Q23.190638 123.120834 23.190638 121.839584Q23.190638 120.589584 24.034388 119.808334Q24.878138 119.01146 26.425013 119.01146Q26.518763 119.01146 26.706263 119.01146L26.706263 123.652084Q27.737513 123.589584 28.284388 123.07396Q28.815638 122.558334 28.815638 121.777084Q28.815638 121.19896 28.518763 120.79271Q28.206263 120.370834 27.550013 120.13646ZM25.846888 123.589584L25.846888 120.120834Q25.050013 120.183334 24.659388 120.51146Q24.050013 121.027084 24.050013 121.82396Q24.050013 122.558334 24.534388 123.058334Q25.018763 123.54271 25.846888 123.589584ZM27.690638 117.808334L27.534388 116.777084Q28.159388 116.683334 28.487513 116.29271Q28.815638 115.88646 28.815638 115.152084Q28.815638 114.433334 28.534388 114.089584Q28.237513 113.73021 27.831263 113.73021Q27.471888 113.73021 27.268763 114.04271Q27.128138 114.26146 26.909388 115.120834Q26.612513 116.277084 26.409388 116.73021Q26.190638 117.16771 25.815638 117.402084Q25.440638 117.63646 24.971888 117.63646Q24.565638 117.63646 24.206263 117.44896Q23.846888 117.26146 23.612513 116.933334Q23.440638 116.683334 23.315638 116.26146Q23.190638 115.839584 23.190638 115.339584Q23.190638 114.620834 23.409388 114.07396Q23.612513 113.51146 23.971888 113.245834Q24.331263 112.98021 24.925013 112.88646L25.065638 113.91771Q24.596888 113.98021 24.331263 114.32396Q24.050013 114.652084 24.050013 115.277084Q24.050013 115.995834 24.300013 116.308334Q24.534388 116.620834 24.862513 116.620834Q25.065638 116.620834 25.221888 116.495834Q25.393763 116.35521 25.503138 116.089584Q25.565638 115.933334 25.768763 115.152084Q26.081263 114.027084 26.268763 113.589584Q26.456263 113.152084 26.815638 112.902084Q27.175013 112.652084 27.721888 112.652084Q28.253138 112.652084 28.721888 112.964584Q29.175013 113.26146 29.440638 113.839584Q29.690638 114.41771 29.690638 115.152084Q29.690638 116.370834 29.190638 117.01146Q28.675013 117.63646 27.690638 117.808334Z" fill-rule="nonzero"/><path fill="#000000" d="M82.05 300.21564Q82.05 298.6844 82.3625 297.7625Q82.675 296.825 83.28438 296.325Q83.90938 295.825 84.84688 295.825Q85.53438 295.825 86.05 296.10626Q86.58125 296.3875 86.925 296.91876Q87.26875 297.4344 87.45625 298.1844Q87.64375 298.9344 87.64375 300.21564Q87.64375 301.73126 87.33125 302.65314Q87.03438 303.575 86.40938 304.09064Q85.8 304.59064 84.84688 304.59064Q83.6125 304.59064 82.89375 303.7Q82.05 302.6375 82.05 300.21564ZM83.12813 300.21564Q83.12813 302.325 83.62813 303.02814Q84.12813 303.73126 84.84688 303.73126Q85.58125 303.73126 86.06563 303.02814Q86.56563 302.325 86.56563 300.21564Q86.56563 298.09064 86.06563 297.40314Q85.58125 296.7 84.83125 296.7Q84.1125 296.7 83.675 297.3094Q83.12813 298.09064 83.12813 300.21564Z" fill-rule="nonzero"/><path fill="#000000" d="M58.05 254.49335L59.159374 254.3996Q59.284374 255.2121 59.721874 255.61835Q60.175 256.0246 60.815624 256.0246Q61.565624 256.0246 62.096874 255.44647Q62.628124 254.86835 62.628124 253.93085Q62.628124 253.0246 62.1125 252.50897Q61.6125 251.97772 60.784374 251.97772Q60.284374 251.97772 59.8625 252.2121Q59.45625 252.44647 59.221874 252.80585L58.2375 252.68085L59.065624 248.2746L63.346874 248.2746L63.346874 249.2746L59.909374 249.2746L59.45625 251.5871Q60.221874 251.04022 61.065624 251.04022Q62.190624 251.04022 62.95625 251.82147Q63.7375 252.60272 63.7375 253.8371Q63.7375 254.99335 63.065624 255.85272Q62.2375 256.88397 60.815624 256.88397Q59.64375 256.88397 58.89375 256.22772Q58.159374 255.57147 58.05 254.49335ZM65.6125 256.74335L65.6125 255.54022L66.81563 255.54022L66.81563 256.74335Q66.81563 257.3996 66.58125 257.80585Q66.34688 258.22772 65.84688 258.44647L65.55 257.99335Q65.87813 257.85272 66.03438 257.55585Q66.19063 257.2746 66.22188 256.74335L65.6125 256.74335ZM68.05 252.50897Q68.05 250.97772 68.3625 250.05585Q68.675 249.11835 69.28438 248.61835Q69.90938 248.11835 70.84688 248.11835Q71.53438 248.11835 72.05 248.3996Q72.58125 248.68085 72.925 249.2121Q73.26875 249.72772 73.45625 250.47772Q73.64375 251.22772 73.64375 252.50897Q73.64375 254.0246 73.33125 254.94647Q73.03438 255.86835 72.40938 256.38397Q71.8 256.88397 70.84688 256.88397Q69.6125 256.88397 68.89375 255.99335Q68.05 254.93085 68.05 252.50897ZM69.12813 252.50897Q69.12813 254.61835 69.62813 255.32147Q70.12813 256.0246 70.84688 256.0246Q71.58125 256.0246 72.06563 255.32147Q72.56563 254.61835 72.56563 252.50897Q72.56563 250.38397 72.06563 249.69647Q71.58125 248.99335 70.83125 248.99335Q70.1125 248.99335 69.675 249.60272Q69.12813 250.38397 69.12813 252.50897ZM75.05 252.50897Q75.05 250.97772 75.3625 250.05585Q75.675 249.11835 76.28438 248.61835Q76.90938 248.11835 77.84688 248.11835Q78.53438 248.11835 79.05 248.3996Q79.58125 248.68085 79.925 249.2121Q80.26875 249.72772 80.45625 250.47772Q80.64375 251.22772 80.64375 252.50897Q80.64375 254.0246 80.33125 254.94647Q80.03438 255.86835 79.40938 256.38397Q78.8 256.88397 77.84688 256.88397Q76.6125 256.88397 75.89375 255.99335Q75.05 254.93085 75.05 252.50897ZM76.12813 252.50897Q76.12813 254.61835 76.62813 255.32147Q77.12813 256.0246 77.84688 256.0246Q78.58125 256.0246 79.06563 255.32147Q79.56563 254.61835 79.56563 252.50897Q79.56563 250.38397 79.06563 249.69647Q78.58125 248.99335 77.83125 248.99335Q77.1125 248.99335 76.675 249.60272Q76.12813 250.38397 76.12813 252.50897ZM82.05 252.50897Q82.05 250.97772 82.3625 250.05585Q82.675 249.11835 83.28438 248.61835Q83.90938 248.11835 84.84688 248.11835Q85.53438 248.11835 86.05 248.3996Q86.58125 248.68085 86.925 249.2121Q87.26875 249.72772 87.45625 250.47772Q87.64375 251.22772 87.64375 252.50897Q87.64375 254.0246 87.33125 254.94647Q87.03438 255.86835 86.40938 256.38397Q85.8 256.88397 84.84688 256.88397Q83.6125 256.88397 82.89375 255.99335Q82.05 254.93085 82.05 252.50897ZM83.12813 252.50897Q83.12813 254.61835 83.62813 255.32147Q84.12813 256.0246 84.84688 256.0246Q85.58125 256.0246 86.06563 255.32147Q86.56563 254.61835 86.56563 252.50897Q86.56563 250.38397 86.06563 249.69647Q85.58125 248.99335 84.83125 248.99335Q84.1125 248.99335 83.675 249.60272Q83.12813 250.38397 83.12813 252.50897Z" fill-rule="nonzero"/><path fill="#000000" d="M55.01875 209.03667L53.971874 209.03667L53.971874 202.31792Q53.58125 202.67729 52.95625 203.05229Q52.346874 203.41167 51.8625 203.58354L51.8625 202.56792Q52.7375 202.14604 53.39375 201.56792Q54.065624 200.97417 54.346874 200.41167L55.01875 200.41167L55.01875 209.03667ZM58.05 204.80229Q58.05 203.27104 58.3625 202.34917Q58.675 201.41167 59.284374 200.91167Q59.909374 200.41167 60.846874 200.41167Q61.534374 200.41167 62.05 200.69292Q62.58125 200.97417 62.925 201.50542Q63.26875 202.02104 63.45625 202.77104Q63.64375 203.52104 63.64375 204.80229Q63.64375 206.31792 63.33125 207.23979Q63.034374 208.16167 62.409374 208.67729Q61.8 209.17729 60.846874 209.17729Q59.6125 209.17729 58.89375 208.28667Q58.05 207.22417 58.05 204.80229ZM59.128124 204.80229Q59.128124 206.91167 59.628124 207.61479Q60.128124 208.31792 60.846874 208.31792Q61.58125 208.31792 62.065624 207.61479Q62.565624 206.91167 62.565624 204.80229Q62.565624 202.67729 62.065624 201.98979Q61.58125 201.28667 60.83125 201.28667Q60.1125 201.28667 59.675 201.89604Q59.128124 202.67729 59.128124 204.80229ZM65.6125 209.03667L65.6125 207.83354L66.81563 207.83354L66.81563 209.03667Q66.81563 209.69292 66.58125 210.09917Q66.34688 210.52104 65.84688 210.73979L65.55 210.28667Q65.87813 210.14604 66.03438 209.84917Q66.19063 209.56792 66.22188 209.03667L65.6125 209.03667ZM68.05 204.80229Q68.05 203.27104 68.3625 202.34917Q68.675 201.41167 69.28438 200.91167Q69.90938 200.41167 70.84688 200.41167Q71.53438 200.41167 72.05 200.69292Q72.58125 200.97417 72.925 201.50542Q73.26875 202.02104 73.45625 202.77104Q73.64375 203.52104 73.64375 204.80229Q73.64375 206.31792 73.33125 207.23979Q73.03438 208.16167 72.40938 208.67729Q71.8 209.17729 70.84688 209.17729Q69.6125 209.17729 68.89375 208.28667Q68.05 207.22417 68.05 204.80229ZM69.12813 204.80229Q69.12813 206.91167 69.62813 207.61479Q70.12813 208.31792 70.84688 208.31792Q71.58125 208.31792 72.06563 207.61479Q72.56563 206.91167 72.56563 204.80229Q72.56563 202.67729 72.06563 201.98979Q71.58125 201.28667 70.83125 201.28667Q70.1125 201.28667 69.675 201.89604Q69.12813 202.67729 69.12813 204.80229ZM75.05 204.80229Q75.05 203.27104 75.3625 202.34917Q75.675 201.41167 76.28438 200.91167Q76.90938 200.41167 77.84688 200.41167Q78.53438 200.41167 79.05 200.69292Q79.58125 200.97417 79.925 201.50542Q80.26875 202.02104 80.45625 202.77104Q80.64375 203.52104 80.64375 204.80229Q80.64375 206.31792 80.33125 207.23979Q80.03438 208.16167 79.40938 208.67729Q78.8 209.17729 77.84688 209.17729Q76.6125 209.17729 75.89375 208.28667Q75.05 207.22417 75.05 204.80229ZM76.12813 204.80229Q76.12813 206.91167 76.62813 207.61479Q77.12813 208.31792 77.84688 208.31792Q78.58125 208.31792 79.06563 207.61479Q79.56563 206.91167 79.56563 204.80229Q79.56563 202.67729 79.06563 201.98979Q78.58125 201.28667 77.83125 201.28667Q77.1125 201.28667 76.675 201.89604Q76.12813 202.67729 76.12813 204.80229ZM82.05 204.80229Q82.05 203.27104 82.3625 202.34917Q82.675 201.41167 83.28438 200.91167Q83.90938 200.41167 84.84688 200.41167Q85.53438 200.41167 86.05 200.69292Q86.58125 200.97417 86.925 201.50542Q87.26875 202.02104 87.45625 202.77104Q87.64375 203.52104 87.64375 204.80229Q87.64375 206.31792 87.33125 207.23979Q87.03438 208.16167 86.40938 208.67729Q85.8 209.17729 84.84688 209.17729Q83.6125 209.17729 82.89375 208.28667Q82.05 207.22417 82.05 204.80229ZM83.12813 204.80229Q83.12813 206.91167 83.62813 207.61479Q84.12813 208.31792 84.84688 208.31792Q85.58125 208.31792 86.06563 207.61479Q86.56563 206.91167 86.56563 204.80229Q86.56563 202.67729 86.06563 201.98979Q85.58125 201.28667 84.83125 201.28667Q84.1125 201.28667 83.675 201.89604Q83.12813 202.67729 83.12813 204.80229Z" fill-rule="nonzero"/><path fill="#000000" d="M55.01875 161.33L53.971874 161.33L53.971874 154.61125Q53.58125 154.97063 52.95625 155.34563Q52.346874 155.705 51.8625 155.87688L51.8625 154.86125Q52.7375 154.43938 53.39375 153.86125Q54.065624 153.2675 54.346874 152.705L55.01875 152.705L55.01875 161.33ZM58.05 159.08L59.159374 158.98625Q59.284374 159.79875 59.721874 160.205Q60.175 160.61125 60.815624 160.61125Q61.565624 160.61125 62.096874 160.03313Q62.628124 159.455 62.628124 158.5175Q62.628124 157.61125 62.1125 157.09563Q61.6125 156.56438 60.784374 156.56438Q60.284374 156.56438 59.8625 156.79875Q59.45625 157.03313 59.221874 157.3925L58.2375 157.2675L59.065624 152.86125L63.346874 152.86125L63.346874 153.86125L59.909374 153.86125L59.45625 156.17375Q60.221874 155.62688 61.065624 155.62688Q62.190624 155.62688 62.95625 156.40813Q63.7375 157.18938 63.7375 158.42375Q63.7375 159.58 63.065624 160.43938Q62.2375 161.47063 60.815624 161.47063Q59.64375 161.47063 58.89375 160.81438Q58.159374 160.15813 58.05 159.08ZM65.6125 161.33L65.6125 160.12688L66.81563 160.12688L66.81563 161.33Q66.81563 161.98625 66.58125 162.3925Q66.34688 162.81438 65.84688 163.03313L65.55 162.58Q65.87813 162.43938 66.03438 162.1425Q66.19063 161.86125 66.22188 161.33L65.6125 161.33ZM68.05 157.09563Q68.05 155.56438 68.3625 154.6425Q68.675 153.705 69.28438 153.205Q69.90938 152.705 70.84688 152.705Q71.53438 152.705 72.05 152.98625Q72.58125 153.2675 72.925 153.79875Q73.26875 154.31438 73.45625 155.06438Q73.64375 155.81438 73.64375 157.09563Q73.64375 158.61125 73.33125 159.53313Q73.03438 160.455 72.40938 160.97063Q71.8 161.47063 70.84688 161.47063Q69.6125 161.47063 68.89375 160.58Q68.05 159.5175 68.05 157.09563ZM69.12813 157.09563Q69.12813 159.205 69.62813 159.90813Q70.12813 160.61125 70.84688 160.61125Q71.58125 160.61125 72.06563 159.90813Q72.56563 159.205 72.56563 157.09563Q72.56563 154.97063 72.06563 154.28313Q71.58125 153.58 70.83125 153.58Q70.1125 153.58 69.675 154.18938Q69.12813 154.97063 69.12813 157.09563ZM75.05 157.09563Q75.05 155.56438 75.3625 154.6425Q75.675 153.705 76.28438 153.205Q76.90938 152.705 77.84688 152.705Q78.53438 152.705 79.05 152.98625Q79.58125 153.2675 79.925 153.79875Q80.26875 154.31438 80.45625 155.06438Q80.64375 155.81438 80.64375 157.09563Q80.64375 158.61125 80.33125 159.53313Q80.03438 160.455 79.40938 160.97063Q78.8 161.47063 77.84688 161.47063Q76.6125 161.47063 75.89375 160.58Q75.05 159.5175 75.05 157.09563ZM76.12813 157.09563Q76.12813 159.205 76.62813 159.90813Q77.12813 160.61125 77.84688 160.61125Q78.58125 160.61125 79.06563 159.90813Q79.56563 159.205 79.56563 157.09563Q79.56563 154.97063 79.06563 154.28313Q78.58125 153.58 77.83125 153.58Q77.1125 153.58 76.675 154.18938Q76.12813 154.97063 76.12813 157.09563ZM82.05 157.09563Q82.05 155.56438 82.3625 154.6425Q82.675 153.705 83.28438 153.205Q83.90938 152.705 84.84688 152.705Q85.53438 152.705 86.05 152.98625Q86.58125 153.2675 86.925 153.79875Q87.26875 154.31438 87.45625 155.06438Q87.64375 155.81438 87.64375 157.09563Q87.64375 158.61125 87.33125 159.53313Q87.03438 160.455 86.40938 160.97063Q85.8 161.47063 84.84688 161.47063Q83.6125 161.47063 82.89375 160.58Q82.05 159.5175 82.05 157.09563ZM83.12813 157.09563Q83.12813 159.205 83.62813 159.90813Q84.12813 160.61125 84.84688 160.61125Q85.58125 160.61125 86.06563 159.90813Q86.56563 159.205 86.56563 157.09563Q86.56563 154.97063 86.06563 154.28313Q85.58125 153.58 84.83125 153.58Q84.1125 153.58 83.675 154.18938Q83.12813 154.97063 83.12813 157.09563Z" fill-rule="nonzero"/><path fill="#000000" d="M56.596874 112.60771L56.596874 113.62334L50.909374 113.62334Q50.909374 113.24834 51.034374 112.88896Q51.253124 112.31084 51.721874 111.74834Q52.20625 111.18584 53.1125 110.45146Q54.51875 109.29521 55.003124 108.62334Q55.503124 107.95146 55.503124 107.35771Q55.503124 106.73271 55.05 106.31084Q54.596874 105.87334 53.878124 105.87334Q53.1125 105.87334 52.659374 106.32646Q52.20625 106.77959 52.190624 107.59209L51.1125 107.48271Q51.221874 106.26396 51.940624 105.63896Q52.675 104.99834 53.909374 104.99834Q55.14375 104.99834 55.8625 105.68584Q56.58125 106.37334 56.58125 107.38896Q56.58125 107.90459 56.3625 108.40459Q56.159374 108.88896 55.659374 109.45146Q55.175 109.99834 54.05 110.95146Q53.096874 111.74834 52.815624 112.04521Q52.55 112.32646 52.378124 112.60771L56.596874 112.60771ZM58.05 109.38896Q58.05 107.85771 58.3625 106.93584Q58.675 105.99834 59.284374 105.49834Q59.909374 104.99834 60.846874 104.99834Q61.534374 104.99834 62.05 105.27959Q62.58125 105.56084 62.925 106.09209Q63.26875 106.60771 63.45625 107.35771Q63.64375 108.10771 63.64375 109.38896Q63.64375 110.90459 63.33125 111.82646Q63.034374 112.74834 62.409374 113.26396Q61.8 113.76396 60.846874 113.76396Q59.6125 113.76396 58.89375 112.87334Q58.05 111.81084 58.05 109.38896ZM59.128124 109.38896Q59.128124 111.49834 59.628124 112.20146Q60.128124 112.90459 60.846874 112.90459Q61.58125 112.90459 62.065624 112.20146Q62.565624 111.49834 62.565624 109.38896Q62.565624 107.26396 62.065624 106.57646Q61.58125 105.87334 60.83125 105.87334Q60.1125 105.87334 59.675 106.48271Q59.128124 107.26396 59.128124 109.38896ZM65.6125 113.62334L65.6125 112.42021L66.81563 112.42021L66.81563 113.62334Q66.81563 114.27959 66.58125 114.68584Q66.34688 115.10771 65.84688 115.32646L65.55 114.87334Q65.87813 114.73271 66.03438 114.43584Q66.19063 114.15459 66.22188 113.62334L65.6125 113.62334ZM68.05 109.38896Q68.05 107.85771 68.3625 106.93584Q68.675 105.99834 69.28438 105.49834Q69.90938 104.99834 70.84688 104.99834Q71.53438 104.99834 72.05 105.27959Q72.58125 105.56084 72.925 106.09209Q73.26875 106.60771 73.45625 107.35771Q73.64375 108.10771 73.64375 109.38896Q73.64375 110.90459 73.33125 111.82646Q73.03438 112.74834 72.40938 113.26396Q71.8 113.76396 70.84688 113.76396Q69.6125 113.76396 68.89375 112.87334Q68.05 111.81084 68.05 109.38896ZM69.12813 109.38896Q69.12813 111.49834 69.62813 112.20146Q70.12813 112.90459 70.84688 112.90459Q71.58125 112.90459 72.06563 112.20146Q72.56563 111.49834 72.56563 109.38896Q72.56563 107.26396 72.06563 106.57646Q71.58125 105.87334 70.83125 105.87334Q70.1125 105.87334 69.675 106.48271Q69.12813 107.26396 69.12813 109.38896ZM75.05 109.38896Q75.05 107.85771 75.3625 106.93584Q75.675 105.99834 76.28438 105.49834Q76.90938 104.99834 77.84688 104.99834Q78.53438 104.99834 79.05 105.27959Q79.58125 105.56084 79.925 106.09209Q80.26875 106.60771 80.45625 107.35771Q80.64375 108.10771 80.64375 109.38896Q80.64375 110.90459 80.33125 111.82646Q80.03438 112.74834 79.40938 113.26396Q78.8 113.76396 77.84688 113.76396Q76.6125 113.76396 75.89375 112.87334Q75.05 111.81084 75.05 109.38896ZM76.12813 109.38896Q76.12813 111.49834 76.62813 112.20146Q77.12813 112.90459 77.84688 112.90459Q78.58125 112.90459 79.06563 112.20146Q79.56563 111.49834 79.56563 109.38896Q79.56563 107.26396 79.06563 106.57646Q78.58125 105.87334 77.83125 105.87334Q77.1125 105.87334 76.675 106.48271Q76.12813 107.26396 76.12813 109.38896ZM82.05 109.38896Q82.05 107.85771 82.3625 106.93584Q82.675 105.99834 83.28438 105.49834Q83.90938 104.99834 84.84688 104.99834Q85.53438 104.99834 86.05 105.27959Q86.58125 105.56084 86.925 106.09209Q87.26875 106.60771 87.45625 107.35771Q87.64375 108.10771 87.64375 109.38896Q87.64375 110.90459 87.33125 111.82646Q87.03438 112.74834 86.40938 113.26396Q85.8 113.76396 84.84688 113.76396Q83.6125 113.76396 82.89375 112.87334Q82.05 111.81084 82.05 109.38896ZM83.12813 109.38896Q83.12813 111.49834 83.62813 112.20146Q84.12813 112.90459 84.84688 112.90459Q85.58125 112.90459 86.06563 112.20146Q86.56563 111.49834 86.56563 109.38896Q86.56563 107.26396 86.06563 106.57646Q85.58125 105.87334 84.83125 105.87334Q84.1125 105.87334 83.675 106.48271Q83.12813 107.26396 83.12813 109.38896Z" fill-rule="nonzero"/><path fill="#000000" d="M56.596874 64.90104L56.596874 65.916664L50.909374 65.916664Q50.909374 65.541664 51.034374 65.18229Q51.253124 64.604164 51.721874 64.041664Q52.20625 63.479164 53.1125 62.74479Q54.51875 61.58854 55.003124 60.916664Q55.503124 60.24479 55.503124 59.65104Q55.503124 59.02604 55.05 58.604164Q54.596874 58.166664 53.878124 58.166664Q53.1125 58.166664 52.659374 58.61979Q52.20625 59.072914 52.190624 59.885414L51.1125 59.77604Q51.221874 58.55729 51.940624 57.93229Q52.675 57.291664 53.909374 57.291664Q55.14375 57.291664 55.8625 57.979164Q56.58125 58.666664 56.58125 59.68229Q56.58125 60.197914 56.3625 60.697914Q56.159374 61.18229 55.659374 61.74479Q55.175 62.291664 54.05 63.24479Q53.096874 64.041664 52.815624 64.33854Q52.55 64.61979 52.378124 64.90104L56.596874 64.90104ZM58.05 63.666664L59.159374 63.572914Q59.284374 64.385414 59.721874 64.791664Q60.175 65.197914 60.815624 65.197914Q61.565624 65.197914 62.096874 64.61979Q62.628124 64.041664 62.628124 63.104164Q62.628124 62.197914 62.1125 61.68229Q61.6125 61.15104 60.784374 61.15104Q60.284374 61.15104 59.8625 61.385414Q59.45625 61.61979 59.221874 61.979164L58.2375 61.854164L59.065624 57.447914L63.346874 57.447914L63.346874 58.447914L59.909374 58.447914L59.45625 60.760414Q60.221874 60.21354 61.065624 60.21354Q62.190624 60.21354 62.95625 60.99479Q63.7375 61.77604 63.7375 63.010414Q63.7375 64.166664 63.065624 65.02604Q62.2375 66.05729 60.815624 66.05729Q59.64375 66.05729 58.89375 65.40104Q58.159374 64.74479 58.05 63.666664ZM65.6125 65.916664L65.6125 64.71354L66.81563 64.71354L66.81563 65.916664Q66.81563 66.572914 66.58125 66.979164Q66.34688 67.40104 65.84688 67.61979L65.55 67.166664Q65.87813 67.02604 66.03438 66.729164Q66.19063 66.447914 66.22188 65.916664L65.6125 65.916664ZM68.05 61.68229Q68.05 60.15104 68.3625 59.229164Q68.675 58.291664 69.28438 57.791664Q69.90938 57.291664 70.84688 57.291664Q71.53438 57.291664 72.05 57.572914Q72.58125 57.854164 72.925 58.385414Q73.26875 58.90104 73.45625 59.65104Q73.64375 60.40104 73.64375 61.68229Q73.64375 63.197914 73.33125 64.11979Q73.03438 65.041664 72.40938 65.55729Q71.8 66.05729 70.84688 66.05729Q69.6125 66.05729 68.89375 65.166664Q68.05 64.104164 68.05 61.68229ZM69.12813 61.68229Q69.12813 63.791664 69.62813 64.49479Q70.12813 65.197914 70.84688 65.197914Q71.58125 65.197914 72.06563 64.49479Q72.56563 63.791664 72.56563 61.68229Q72.56563 59.55729 72.06563 58.86979Q71.58125 58.166664 70.83125 58.166664Q70.1125 58.166664 69.675 58.77604Q69.12813 59.55729 69.12813 61.68229ZM75.05 61.68229Q75.05 60.15104 75.3625 59.229164Q75.675 58.291664 76.28438 57.791664Q76.90938 57.291664 77.84688 57.291664Q78.53438 57.291664 79.05 57.572914Q79.58125 57.854164 79.925 58.385414Q80.26875 58.90104 80.45625 59.65104Q80.64375 60.40104 80.64375 61.68229Q80.64375 63.197914 80.33125 64.11979Q80.03438 65.041664 79.40938 65.55729Q78.8 66.05729 77.84688 66.05729Q76.6125 66.05729 75.89375 65.166664Q75.05 64.104164 75.05 61.68229ZM76.12813 61.68229Q76.12813 63.791664 76.62813 64.49479Q77.12813 65.197914 77.84688 65.197914Q78.58125 65.197914 79.06563 64.49479Q79.56563 63.791664 79.56563 61.68229Q79.56563 59.55729 79.06563 58.86979Q78.58125 58.166664 77.83125 58.166664Q77.1125 58.166664 76.675 58.77604Q76.12813 59.55729 76.12813 61.68229ZM82.05 61.68229Q82.05 60.15104 82.3625 59.229164Q82.675 58.291664 83.28438 57.791664Q83.90938 57.291664 84.84688 57.291664Q85.53438 57.291664 86.05 57.572914Q86.58125 57.854164 86.925 58.385414Q87.26875 58.90104 87.45625 59.65104Q87.64375 60.40104 87.64375 61.68229Q87.64375 63.197914 87.33125 64.11979Q87.03438 65.041664 86.40938 65.55729Q85.8 66.05729 84.84688 66.05729Q83.6125 66.05729 82.89375 65.166664Q82.05 64.104164 82.05 61.68229ZM83.12813 61.68229Q83.12813 63.791664 83.62813 64.49479Q84.12813 65.197914 84.84688 65.197914Q85.58125 65.197914 86.06563 64.49479Q86.56563 63.791664 86.56563 61.68229Q86.56563 59.55729 86.06563 58.86979Q85.58125 58.166664 84.83125 58.166664Q84.1125 58.166664 83.675 58.77604Q83.12813 59.55729 83.12813 61.68229Z" fill-rule="nonzero"/><path fill="#000000" d="M124.96875 315.0125L126.0 314.8719Q126.03125 315.85626 126.359375 316.21564Q126.6875 316.575 127.28125 316.575Q127.703125 316.575 128.01562 316.3875Q128.32812 316.1844 128.4375 315.85626Q128.5625 315.5125 128.5625 314.77814L128.5625 308.85626L129.6875 308.85626L129.6875 314.71564Q129.6875 315.79376 129.42188 316.3875Q129.17188 316.98126 128.60938 317.29376Q128.04688 317.59064 127.28125 317.59064Q126.15625 317.59064 125.546875 316.95Q124.953125 316.29376 124.96875 315.0125ZM135.5 317.45L135.5 316.52814Q134.76562 317.59064 133.51562 317.59064Q132.96875 317.59064 132.48438 317.3875Q132.01562 317.16876 131.78125 316.85626Q131.54688 316.52814 131.45312 316.0594Q131.39062 315.7625 131.39062 315.075L131.39062 311.23126L132.45312 311.23126L132.45312 314.6844Q132.45312 315.4969 132.51562 315.79376Q132.60938 316.2 132.92188 316.45Q133.25 316.6844 133.73438 316.6844Q134.20312 316.6844 134.60938 316.45Q135.03125 316.2 135.20312 315.77814Q135.39062 315.35626 135.39062 314.5594L135.39062 311.23126L136.4375 311.23126L136.4375 317.45L135.5 317.45ZM138.39062 317.45L138.39062 308.85626L139.45312 308.85626L139.45312 317.45L138.39062 317.45ZM141.375 319.84064L141.25 318.85626Q141.59375 318.95 141.85938 318.95Q142.20312 318.95 142.40625 318.825Q142.625 318.71564 142.76562 318.5125Q142.85938 318.34064 143.09375 317.71564Q143.10938 317.6375 143.1875 317.46564L140.8125 311.23126L141.95312 311.23126L143.25 314.825Q143.5 315.5125 143.70312 316.27814Q143.89062 315.54376 144.14062 314.85626L145.46875 311.23126L146.51562 311.23126L144.15625 317.5594Q143.76562 318.575 143.5625 318.96564Q143.28125 319.4969 142.90625 319.73126Q142.54688 319.98126 142.04688 319.98126Q141.75 319.98126 141.375 319.84064Z" fill-rule="nonzero"/><path fill="#000000" d="M197.25937 317.45L200.55624 308.85626L201.775 308.85626L205.29062 317.45L204.00937 317.45L202.99374 314.84064L199.41562 314.84064L198.4625 317.45L197.25937 317.45ZM199.74374 313.91876L202.65 313.91876L201.75937 311.54376Q201.3375 310.46564 201.15 309.7625Q200.97812 310.59064 200.68124 311.40314L199.74374 313.91876ZM209.15 317.45L209.15 316.52814Q208.41562 317.59064 207.16562 317.59064Q206.61874 317.59064 206.13437 317.3875Q205.66562 317.16876 205.43124 316.85626Q205.19687 316.52814 205.10312 316.0594Q205.04062 315.7625 205.04062 315.075L205.04062 311.23126L206.10312 311.23126L206.10312 314.6844Q206.10312 315.4969 206.16562 315.79376Q206.25937 316.2 206.57187 316.45Q206.9 316.6844 207.38437 316.6844Q207.85312 316.6844 208.25937 316.45Q208.68124 316.2 208.85312 315.77814Q209.04062 315.35626 209.04062 314.5594L209.04062 311.23126L210.0875 311.23126L210.0875 317.45L209.15 317.45ZM211.86874 317.96564L212.9 318.1219Q212.9625 318.59064 213.25937 318.8094Q213.65 319.10626 214.32187 319.10626Q215.05624 319.10626 215.44687 318.8094Q215.85312 318.5125 215.99374 317.9969Q216.0875 317.66876 216.07187 316.6375Q215.38437 317.45 214.35312 317.45Q213.07187 317.45 212.36874 316.52814Q211.66562 315.59064 211.66562 314.3094Q211.66562 313.41876 211.97812 312.66876Q212.30624 311.90314 212.91562 311.4969Q213.525 311.09064 214.35312 311.09064Q215.4625 311.09064 216.18124 311.98126L216.18124 311.23126L217.15 311.23126L217.15 316.60626Q217.15 318.0594 216.85312 318.66876Q216.55624 319.27814 215.91562 319.6219Q215.275 319.98126 214.3375 319.98126Q213.22812 319.98126 212.54062 319.48126Q211.85312 318.98126 211.86874 317.96564ZM212.74374 314.23126Q212.74374 315.45 213.22812 316.0125Q213.7125 316.575 214.44687 316.575Q215.18124 316.575 215.66562 316.0125Q216.16562 315.45 216.16562 314.2625Q216.16562 313.1219 215.65 312.54376Q215.15 311.96564 214.43124 311.96564Q213.72812 311.96564 213.22812 312.54376Q212.74374 313.10626 212.74374 314.23126ZM223.15 317.45L223.15 316.52814Q222.41562 317.59064 221.16562 317.59064Q220.61874 317.59064 220.13437 317.3875Q219.66562 317.16876 219.43124 316.85626Q219.19687 316.52814 219.10312 316.0594Q219.04062 315.7625 219.04062 315.075L219.04062 311.23126L220.10312 311.23126L220.10312 314.6844Q220.10312 315.4969 220.16562 315.79376Q220.25937 316.2 220.57187 316.45Q220.9 316.6844 221.38437 316.6844Q221.85312 316.6844 222.25937 316.45Q222.68124 316.2 222.85312 315.77814Q223.04062 315.35626 223.04062 314.5594L223.04062 311.23126L224.0875 311.23126L224.0875 317.45L223.15 317.45ZM225.65 315.59064L226.68124 315.4344Q226.775 316.0594 227.16562 316.3875Q227.57187 316.71564 228.30624 316.71564Q229.025 316.71564 229.36874 316.4344Q229.72812 316.1375 229.72812 315.73126Q229.72812 315.3719 229.41562 315.16876Q229.19687 315.02814 228.3375 314.8094Q227.18124 314.5125 226.72812 314.3094Q226.29062 314.09064 226.05624 313.71564Q225.82187 313.34064 225.82187 312.8719Q225.82187 312.46564 226.00937 312.10626Q226.19687 311.7469 226.525 311.5125Q226.775 311.34064 227.19687 311.21564Q227.61874 311.09064 228.11874 311.09064Q228.8375 311.09064 229.38437 311.3094Q229.94687 311.5125 230.2125 311.8719Q230.47812 312.23126 230.57187 312.825L229.54062 312.96564Q229.47812 312.4969 229.13437 312.23126Q228.80624 311.95 228.18124 311.95Q227.4625 311.95 227.15 312.2Q226.8375 312.4344 226.8375 312.7625Q226.8375 312.96564 226.9625 313.1219Q227.10312 313.29376 227.36874 313.40314Q227.525 313.46564 228.30624 313.66876Q229.43124 313.98126 229.86874 314.16876Q230.30624 314.35626 230.55624 314.71564Q230.80624 315.075 230.80624 315.6219Q230.80624 316.15314 230.49374 316.6219Q230.19687 317.075 229.61874 317.34064Q229.04062 317.59064 228.30624 317.59064Q227.0875 317.59064 226.44687 317.09064Q225.82187 316.575 225.65 315.59064ZM235.36874 316.5125L235.525 317.4344Q235.07187 317.52814 234.72812 317.52814Q234.15 317.52814 233.8375 317.35626Q233.525 317.16876 233.38437 316.8719Q233.25937 316.575 233.25937 315.6219L233.25937 312.04376L232.49374 312.04376L232.49374 311.23126L233.25937 311.23126L233.25937 309.6844L234.30624 309.0594L234.30624 311.23126L235.36874 311.23126L235.36874 312.04376L234.30624 312.04376L234.30624 315.6844Q234.30624 316.1375 234.35312 316.2625Q234.41562 316.3875 234.54062 316.46564Q234.66562 316.54376 234.9 316.54376Q235.0875 316.54376 235.36874 316.5125Z" fill-rule="nonzero"/><path fill="#000000" d="M267.47186 314.6844L268.53436 314.59064Q268.6125 315.2469 268.89374 315.65314Q269.175 316.0594 269.7531 316.325Q270.34686 316.575 271.08124 316.575Q271.72186 316.575 272.22186 316.3875Q272.72186 316.1844 272.95624 315.85626Q273.20624 315.5125 273.20624 315.1219Q273.20624 314.71564 272.97186 314.41876Q272.7375 314.10626 272.20624 313.90314Q271.84686 313.7625 270.65936 313.48126Q269.4875 313.2 269.01874 312.95Q268.39374 312.6219 268.09686 312.15314Q267.8 311.66876 267.8 311.075Q267.8 310.4344 268.15936 309.8719Q268.53436 309.29376 269.2375 309.0125Q269.95624 308.71564 270.8156 308.71564Q271.76874 308.71564 272.5031 309.02814Q273.2375 309.325 273.6281 309.9344Q274.01874 310.52814 274.05 311.27814L272.95624 311.35626Q272.8625 310.54376 272.34686 310.1375Q271.84686 309.71564 270.8625 309.71564Q269.83124 309.71564 269.3625 310.09064Q268.89374 310.46564 268.89374 310.9969Q268.89374 311.46564 269.22186 311.7625Q269.55 312.0594 270.925 312.3719Q272.3156 312.6844 272.83124 312.91876Q273.58124 313.27814 273.9406 313.8094Q274.3 314.325 274.3 315.02814Q274.3 315.71564 273.90936 316.325Q273.51874 316.91876 272.78436 317.2625Q272.05 317.59064 271.1281 317.59064Q269.95624 317.59064 269.15936 317.2625Q268.3781 316.91876 267.925 316.23126Q267.4875 315.54376 267.47186 314.6844ZM279.97186 315.45L281.0656 315.575Q280.8156 316.52814 280.1125 317.0594Q279.40936 317.59064 278.33124 317.59064Q276.97186 317.59064 276.15936 316.7469Q275.3625 315.90314 275.3625 314.3875Q275.3625 312.825 276.175 311.96564Q276.9875 311.09064 278.26874 311.09064Q279.51874 311.09064 280.3 311.9344Q281.09686 312.77814 281.09686 314.325Q281.09686 314.41876 281.09686 314.60626L276.45624 314.60626Q276.51874 315.6375 277.03436 316.1844Q277.55 316.71564 278.33124 316.71564Q278.90936 316.71564 279.3156 316.41876Q279.7375 316.10626 279.97186 315.45ZM276.51874 313.7469L279.9875 313.7469Q279.925 312.95 279.59686 312.5594Q279.08124 311.95 278.28436 311.95Q277.55 311.95 277.05 312.4344Q276.5656 312.91876 276.51874 313.7469ZM282.72186 319.84064L282.72186 311.23126L283.675 311.23126L283.675 312.02814Q284.01874 311.5594 284.4406 311.325Q284.8781 311.09064 285.4875 311.09064Q286.28436 311.09064 286.89374 311.4969Q287.5031 311.90314 287.8 312.65314Q288.1125 313.40314 288.1125 314.29376Q288.1125 315.2469 287.76874 316.0125Q287.4406 316.77814 286.78436 317.1844Q286.1281 317.59064 285.40936 317.59064Q284.8781 317.59064 284.45624 317.3719Q284.03436 317.1375 283.76874 316.8094L283.76874 319.84064L282.72186 319.84064ZM283.675 314.3719Q283.675 315.575 284.15936 316.15314Q284.64374 316.71564 285.33124 316.71564Q286.03436 316.71564 286.53436 316.1219Q287.03436 315.52814 287.03436 314.27814Q287.03436 313.09064 286.55 312.5125Q286.0656 311.91876 285.3781 311.91876Q284.70624 311.91876 284.1906 312.54376Q283.675 313.16876 283.675 314.3719ZM292.01874 316.5125L292.175 317.4344Q291.72186 317.52814 291.3781 317.52814Q290.8 317.52814 290.4875 317.35626Q290.175 317.16876 290.03436 316.8719Q289.90936 316.575 289.90936 315.6219L289.90936 312.04376L289.14374 312.04376L289.14374 311.23126L289.90936 311.23126L289.90936 309.6844L290.95624 309.0594L290.95624 311.23126L292.01874 311.23126L292.01874 312.04376L290.95624 312.04376L290.95624 315.6844Q290.95624 316.1375 291.0031 316.2625Q291.0656 316.3875 291.1906 316.46564Q291.3156 316.54376 291.55 316.54376Q291.7375 316.54376 292.01874 316.5125ZM296.97186 315.45L298.0656 315.575Q297.8156 316.52814 297.1125 317.0594Q296.40936 317.59064 295.33124 317.59064Q293.97186 317.59064 293.15936 316.7469Q292.3625 315.90314 292.3625 314.3875Q292.3625 312.825 293.175 311.96564Q293.9875 311.09064 295.26874 311.09064Q296.51874 311.09064 297.3 311.9344Q298.09686 312.77814 298.09686 314.325Q298.09686 314.41876 298.09686 314.60626L293.45624 314.60626Q293.51874 315.6375 294.03436 316.1844Q294.55 316.71564 295.33124 316.71564Q295.90936 316.71564 296.3156 316.41876Q296.7375 316.10626 296.97186 315.45ZM293.51874 313.7469L296.9875 313.7469Q296.925 312.95 296.59686 312.5594Q296.08124 311.95 295.28436 311.95Q294.55 311.95 294.05 312.4344Q293.5656 312.91876 293.51874 313.7469ZM299.72186 317.45L299.72186 311.23126L300.65936 311.23126L300.65936 312.10626Q300.95624 311.6375 301.4406 311.3719Q301.925 311.09064 302.55 311.09064Q303.2375 311.09064 303.675 311.3719Q304.1281 311.65314 304.3 312.16876Q305.05 311.09064 306.22186 311.09064Q307.15936 311.09064 307.64374 311.60626Q308.14374 312.10626 308.14374 313.1844L308.14374 317.45L307.09686 317.45L307.09686 313.52814Q307.09686 312.90314 306.9875 312.6219Q306.89374 312.34064 306.6281 312.16876Q306.3625 311.9969 305.9875 311.9969Q305.33124 311.9969 304.89374 312.4344Q304.47186 312.8719 304.47186 313.84064L304.47186 317.45L303.40936 317.45L303.40936 313.40314Q303.40936 312.7 303.14374 312.35626Q302.89374 311.9969 302.3156 311.9969Q301.8625 311.9969 301.4875 312.23126Q301.1125 312.46564 300.9406 312.91876Q300.76874 313.3719 300.76874 314.21564L300.76874 317.45L299.72186 317.45ZM311.6906 317.45L310.70624 317.45L310.70624 308.85626L311.76874 308.85626L311.76874 311.91876Q312.4406 311.09064 313.47186 311.09064Q314.05 311.09064 314.55 311.325Q315.0656 311.54376 315.39374 311.96564Q315.7375 312.3875 315.925 312.98126Q316.1125 313.575 316.1125 314.2469Q316.1125 315.84064 315.3156 316.71564Q314.51874 317.59064 313.425 317.59064Q312.3156 317.59064 311.6906 316.66876L311.6906 317.45ZM311.675 314.29376Q311.675 315.40314 311.9875 315.90314Q312.4875 316.71564 313.33124 316.71564Q314.01874 316.71564 314.51874 316.1219Q315.03436 315.52814 315.03436 314.325Q315.03436 313.10626 314.55 312.52814Q314.0656 311.95 313.3781 311.95Q312.6906 311.95 312.175 312.5594Q311.675 313.15314 311.675 314.29376ZM321.97186 315.45L323.0656 315.575Q322.8156 316.52814 322.1125 317.0594Q321.40936 317.59064 320.33124 317.59064Q318.97186 317.59064 318.15936 316.7469Q317.3625 315.90314 317.3625 314.3875Q317.3625 312.825 318.175 311.96564Q318.9875 311.09064 320.26874 311.09064Q321.51874 311.09064 322.3 311.9344Q323.09686 312.77814 323.09686 314.325Q323.09686 314.41876 323.09686 314.60626L318.45624 314.60626Q318.51874 315.6375 319.03436 316.1844Q319.55 316.71564 320.33124 316.71564Q320.90936 316.71564 321.3156 316.41876Q321.7375 316.10626 321.97186 315.45ZM318.51874 313.7469L321.9875 313.7469Q321.925 312.95 321.59686 312.5594Q321.08124 311.95 320.28436 311.95Q319.55 311.95 319.05 312.4344Q318.5656 312.91876 318.51874 313.7469ZM324.70624 317.45L324.70624 311.23126L325.65936 311.23126L325.65936 312.16876Q326.01874 311.5125 326.3156 311.3094Q326.6281 311.09064 327.0031 311.09064Q327.53436 311.09064 328.08124 311.41876L327.72186 312.40314Q327.33124 312.16876 326.95624 312.16876Q326.59686 312.16876 326.3156 312.3875Q326.05 312.59064 325.9406 312.96564Q325.7531 313.52814 325.7531 314.1844L325.7531 317.45L324.70624 317.45Z" fill-rule="nonzero"/><path fill="#000000" d="M357.65314 313.2625Q357.65314 311.1219 358.79376 309.91876Q359.95 308.7 361.7625 308.7Q362.96564 308.7 363.91876 309.27814Q364.8719 309.84064 365.3719 310.85626Q365.8719 311.8719 365.8719 313.16876Q365.8719 314.46564 365.34064 315.4969Q364.8094 316.52814 363.84064 317.0594Q362.8875 317.59064 361.7625 317.59064Q360.54376 317.59064 359.59064 317.0125Q358.6375 316.41876 358.1375 315.41876Q357.65314 314.40314 357.65314 313.2625ZM358.825 313.27814Q358.825 314.84064 359.65314 315.73126Q360.4969 316.6219 361.7625 316.6219Q363.04376 316.6219 363.8719 315.73126Q364.7 314.825 364.7 313.15314Q364.7 312.10626 364.34064 311.325Q363.9969 310.54376 363.3094 310.1219Q362.6219 309.6844 361.77814 309.6844Q360.575 309.6844 359.7 310.5125Q358.825 311.34064 358.825 313.27814ZM370.9344 315.16876L371.96564 315.3094Q371.79376 316.3719 371.09064 316.98126Q370.3875 317.59064 369.3719 317.59064Q368.09064 317.59064 367.3094 316.7625Q366.54376 315.91876 366.54376 314.35626Q366.54376 313.35626 366.8719 312.60626Q367.21564 311.84064 367.8875 311.46564Q368.575 311.09064 369.3875 311.09064Q370.3875 311.09064 371.02814 311.60626Q371.6844 312.10626 371.8719 313.0594L370.84064 313.21564Q370.7 312.59064 370.325 312.27814Q369.95 311.95 369.41876 311.95Q368.6219 311.95 368.1219 312.52814Q367.6219 313.09064 367.6219 314.325Q367.6219 315.59064 368.10626 316.15314Q368.59064 316.71564 369.35626 316.71564Q369.98126 316.71564 370.3875 316.34064Q370.8094 315.96564 370.9344 315.16876ZM375.16876 316.5125L375.325 317.4344Q374.8719 317.52814 374.52814 317.52814Q373.95 317.52814 373.6375 317.35626Q373.325 317.16876 373.1844 316.8719Q373.0594 316.575 373.0594 315.6219L373.0594 312.04376L372.29376 312.04376L372.29376 311.23126L373.0594 311.23126L373.0594 309.6844L374.10626 309.0594L374.10626 311.23126L375.16876 311.23126L375.16876 312.04376L374.10626 312.04376L374.10626 315.6844Q374.10626 316.1375 374.15314 316.2625Q374.21564 316.3875 374.34064 316.46564Q374.46564 316.54376 374.7 316.54376Q374.8875 316.54376 375.16876 316.5125ZM375.48126 314.34064Q375.48126 312.60626 376.4344 311.77814Q377.23126 311.09064 378.3875 311.09064Q379.66876 311.09064 380.48126 311.9344Q381.3094 312.7625 381.3094 314.2469Q381.3094 315.45 380.95 316.1375Q380.59064 316.825 379.8875 317.21564Q379.2 317.59064 378.3875 317.59064Q377.09064 317.59064 376.27814 316.7625Q375.48126 315.91876 375.48126 314.34064ZM376.5594 314.34064Q376.5594 315.52814 377.075 316.1219Q377.60626 316.71564 378.3875 316.71564Q379.1844 316.71564 379.7 316.1219Q380.21564 315.52814 380.21564 314.3094Q380.21564 313.15314 379.6844 312.5594Q379.16876 311.96564 378.3875 311.96564Q377.60626 311.96564 377.075 312.5594Q376.5594 313.1375 376.5594 314.34064ZM383.84064 317.45L382.85626 317.45L382.85626 308.85626L383.91876 308.85626L383.91876 311.91876Q384.59064 311.09064 385.6219 311.09064Q386.2 311.09064 386.7 311.325Q387.21564 311.54376 387.54376 311.96564Q387.8875 312.3875 388.075 312.98126Q388.2625 313.575 388.2625 314.2469Q388.2625 315.84064 387.46564 316.71564Q386.66876 317.59064 385.575 317.59064Q384.46564 317.59064 383.84064 316.66876L383.84064 317.45ZM383.825 314.29376Q383.825 315.40314 384.1375 315.90314Q384.6375 316.71564 385.48126 316.71564Q386.16876 316.71564 386.66876 316.1219Q387.1844 315.52814 387.1844 314.325Q387.1844 313.10626 386.7 312.52814Q386.21564 311.95 385.52814 311.95Q384.84064 311.95 384.325 312.5594Q383.825 313.15314 383.825 314.29376ZM394.1219 315.45L395.21564 315.575Q394.96564 316.52814 394.2625 317.0594Q393.5594 317.59064 392.48126 317.59064Q391.1219 317.59064 390.3094 316.7469Q389.5125 315.90314 389.5125 314.3875Q389.5125 312.825 390.325 311.96564Q391.1375 311.09064 392.41876 311.09064Q393.66876 311.09064 394.45 311.9344Q395.2469 312.77814 395.2469 314.325Q395.2469 314.41876 395.2469 314.60626L390.60626 314.60626Q390.66876 315.6375 391.1844 316.1844Q391.7 316.71564 392.48126 316.71564Q393.0594 316.71564 393.46564 316.41876Q393.8875 316.10626 394.1219 315.45ZM390.66876 313.7469L394.1375 313.7469Q394.075 312.95 393.7469 312.5594Q393.23126 311.95 392.4344 311.95Q391.7 311.95 391.2 312.4344Q390.71564 312.91876 390.66876 313.7469ZM396.85626 317.45L396.85626 311.23126L397.8094 311.23126L397.8094 312.16876Q398.16876 311.5125 398.46564 311.3094Q398.77814 311.09064 399.15314 311.09064Q399.6844 311.09064 400.23126 311.41876L399.8719 312.40314Q399.48126 312.16876 399.10626 312.16876Q398.7469 312.16876 398.46564 312.3875Q398.2 312.59064 398.09064 312.96564Q397.90314 313.52814 397.90314 314.1844L397.90314 317.45L396.85626 317.45Z" fill-rule="nonzero"/><path fill="#000000" d="M432.14688 317.45L432.14688 308.85626L433.30313 308.85626L437.81876 315.60626L437.81876 308.85626L438.9125 308.85626L438.9125 317.45L437.74063 317.45L433.225 310.7L433.225 317.45L432.14688 317.45ZM440.63126 314.34064Q440.63126 312.60626 441.58438 311.77814Q442.38126 311.09064 443.5375 311.09064Q444.81876 311.09064 445.63126 311.9344Q446.45938 312.7625 446.45938 314.2469Q446.45938 315.45 446.1 316.1375Q445.74063 316.825 445.0375 317.21564Q444.35 317.59064 443.5375 317.59064Q442.24063 317.59064 441.42813 316.7625Q440.63126 315.91876 440.63126 314.34064ZM441.70938 314.34064Q441.70938 315.52814 442.225 316.1219Q442.75626 316.71564 443.5375 316.71564Q444.33438 316.71564 444.85 316.1219Q445.36563 315.52814 445.36563 314.3094Q445.36563 313.15314 444.83438 312.5594Q444.31876 311.96564 443.5375 311.96564Q442.75626 311.96564 442.225 312.5594Q441.70938 313.1375 441.70938 314.34064ZM449.74063 317.45L447.38126 311.23126L448.49063 311.23126L449.83438 314.95Q450.0375 315.5594 450.225 316.2Q450.36563 315.71564 450.61563 315.02814L452.00626 311.23126L453.08438 311.23126L450.725 317.45L449.74063 317.45ZM457.27188 315.45L458.36563 315.575Q458.11563 316.52814 457.4125 317.0594Q456.70938 317.59064 455.63126 317.59064Q454.27188 317.59064 453.45938 316.7469Q452.6625 315.90314 452.6625 314.3875Q452.6625 312.825 453.475 311.96564Q454.2875 311.09064 455.56876 311.09064Q456.81876 311.09064 457.6 311.9344Q458.39688 312.77814 458.39688 314.325Q458.39688 314.41876 458.39688 314.60626L453.75626 314.60626Q453.81876 315.6375 454.33438 316.1844Q454.85 316.71564 455.63126 316.71564Q456.20938 316.71564 456.61563 316.41876Q457.0375 316.10626 457.27188 315.45ZM453.81876 313.7469L457.2875 313.7469Q457.225 312.95 456.89688 312.5594Q456.38126 311.95 455.58438 311.95Q454.85 311.95 454.35 312.4344Q453.86563 312.91876 453.81876 313.7469ZM460.02188 317.45L460.02188 311.23126L460.95938 311.23126L460.95938 312.10626Q461.25626 311.6375 461.74063 311.3719Q462.225 311.09064 462.85 311.09064Q463.5375 311.09064 463.975 311.3719Q464.42813 311.65314 464.6 312.16876Q465.35 311.09064 466.52188 311.09064Q467.45938 311.09064 467.94376 311.60626Q468.44376 312.10626 468.44376 313.1844L468.44376 317.45L467.39688 317.45L467.39688 313.52814Q467.39688 312.90314 467.2875 312.6219Q467.19376 312.34064 466.92813 312.16876Q466.6625 311.9969 466.2875 311.9969Q465.63126 311.9969 465.19376 312.4344Q464.77188 312.8719 464.77188 313.84064L464.77188 317.45L463.70938 317.45L463.70938 313.40314Q463.70938 312.7 463.44376 312.35626Q463.19376 311.9969 462.61563 311.9969Q462.1625 311.9969 461.7875 312.23126Q461.4125 312.46564 461.24063 312.91876Q461.06876 313.3719 461.06876 314.21564L461.06876 317.45L460.02188 317.45ZM471.99063 317.45L471.00626 317.45L471.00626 308.85626L472.06876 308.85626L472.06876 311.91876Q472.74063 311.09064 473.77188 311.09064Q474.35 311.09064 474.85 311.325Q475.36563 311.54376 475.69376 311.96564Q476.0375 312.3875 476.225 312.98126Q476.4125 313.575 476.4125 314.2469Q476.4125 315.84064 475.61563 316.71564Q474.81876 317.59064 473.725 317.59064Q472.61563 317.59064 471.99063 316.66876L471.99063 317.45ZM471.975 314.29376Q471.975 315.40314 472.2875 315.90314Q472.7875 316.71564 473.63126 316.71564Q474.31876 316.71564 474.81876 316.1219Q475.33438 315.52814 475.33438 314.325Q475.33438 313.10626 474.85 312.52814Q474.36563 311.95 473.67813 311.95Q472.99063 311.95 472.475 312.5594Q471.975 313.15314 471.975 314.29376ZM482.27188 315.45L483.36563 315.575Q483.11563 316.52814 482.4125 317.0594Q481.70938 317.59064 480.63126 317.59064Q479.27188 317.59064 478.45938 316.7469Q477.6625 315.90314 477.6625 314.3875Q477.6625 312.825 478.475 311.96564Q479.2875 311.09064 480.56876 311.09064Q481.81876 311.09064 482.6 311.9344Q483.39688 312.77814 483.39688 314.325Q483.39688 314.41876 483.39688 314.60626L478.75626 314.60626Q478.81876 315.6375 479.33438 316.1844Q479.85 316.71564 480.63126 316.71564Q481.20938 316.71564 481.61563 316.41876Q482.0375 316.10626 482.27188 315.45ZM478.81876 313.7469L482.2875 313.7469Q482.225 312.95 481.89688 312.5594Q481.38126 311.95 480.58438 311.95Q479.85 311.95 479.35 312.4344Q478.86563 312.91876 478.81876 313.7469ZM485.00626 317.45L485.00626 311.23126L485.95938 311.23126L485.95938 312.16876Q486.31876 311.5125 486.61563 311.3094Q486.92813 311.09064 487.30313 311.09064Q487.83438 311.09064 488.38126 311.41876L488.02188 312.40314Q487.63126 312.16876 487.25626 312.16876Q486.89688 312.16876 486.61563 312.3875Q486.35 312.59064 486.24063 312.96564Q486.05313 313.52814 486.05313 314.1844L486.05313 317.45L485.00626 317.45Z" fill-rule="nonzero"/><path fill="#000000" d="M512.7969 317.45L512.7969 308.85626L515.7656 308.85626Q516.7656 308.85626 517.2969 308.98126Q518.03125 309.15314 518.5469 309.59064Q519.2344 310.16876 519.5625 311.075Q519.90625 311.96564 519.90625 313.10626Q519.90625 314.09064 519.6719 314.84064Q519.4531 315.59064 519.09375 316.09064Q518.7344 316.59064 518.2969 316.8719Q517.875 317.15314 517.28125 317.3094Q516.6875 317.45 515.90625 317.45L512.7969 317.45ZM513.9375 316.4344L515.7656 316.4344Q516.625 316.4344 517.1094 316.27814Q517.59375 316.1219 517.875 315.825Q518.28125 315.4344 518.5 314.7469Q518.7344 314.0594 518.7344 313.09064Q518.7344 311.7469 518.28125 311.02814Q517.84375 310.29376 517.21875 310.04376Q516.75 309.8719 515.75 309.8719L513.9375 309.8719L513.9375 316.4344ZM525.9219 315.45L527.0156 315.575Q526.7656 316.52814 526.0625 317.0594Q525.3594 317.59064 524.28125 317.59064Q522.9219 317.59064 522.1094 316.7469Q521.3125 315.90314 521.3125 314.3875Q521.3125 312.825 522.125 311.96564Q522.9375 311.09064 524.21875 311.09064Q525.46875 311.09064 526.25 311.9344Q527.0469 312.77814 527.0469 314.325Q527.0469 314.41876 527.0469 314.60626L522.40625 314.60626Q522.46875 315.6375 522.9844 316.1844Q523.5 316.71564 524.28125 316.71564Q524.8594 316.71564 525.2656 316.41876Q525.6875 316.10626 525.9219 315.45ZM522.46875 313.7469L525.9375 313.7469Q525.875 312.95 525.5469 312.5594Q525.03125 311.95 524.2344 311.95Q523.5 311.95 523.0 312.4344Q522.5156 312.91876 522.46875 313.7469ZM532.7344 315.16876L533.7656 315.3094Q533.59375 316.3719 532.8906 316.98126Q532.1875 317.59064 531.1719 317.59064Q529.8906 317.59064 529.1094 316.7625Q528.34375 315.91876 528.34375 314.35626Q528.34375 313.35626 528.6719 312.60626Q529.0156 311.84064 529.6875 311.46564Q530.375 311.09064 531.1875 311.09064Q532.1875 311.09064 532.8281 311.60626Q533.4844 312.10626 533.6719 313.0594L532.6406 313.21564Q532.5 312.59064 532.125 312.27814Q531.75 311.95 531.21875 311.95Q530.4219 311.95 529.9219 312.52814Q529.4219 313.09064 529.4219 314.325Q529.4219 315.59064 529.90625 316.15314Q530.3906 316.71564 531.15625 316.71564Q531.78125 316.71564 532.1875 316.34064Q532.6094 315.96564 532.7344 315.16876ZM538.9219 315.45L540.0156 315.575Q539.7656 316.52814 539.0625 317.0594Q538.3594 317.59064 537.28125 317.59064Q535.9219 317.59064 535.1094 316.7469Q534.3125 315.90314 534.3125 314.3875Q534.3125 312.825 535.125 311.96564Q535.9375 311.09064 537.21875 311.09064Q538.46875 311.09064 539.25 311.9344Q540.0469 312.77814 540.0469 314.325Q540.0469 314.41876 540.0469 314.60626L535.40625 314.60626Q535.46875 315.6375 535.9844 316.1844Q536.5 316.71564 537.28125 316.71564Q537.8594 316.71564 538.2656 316.41876Q538.6875 316.10626 538.9219 315.45ZM535.46875 313.7469L538.9375 313.7469Q538.875 312.95 538.5469 312.5594Q538.03125 311.95 537.2344 311.95Q536.5 311.95 536.0 312.4344Q535.5156 312.91876 535.46875 313.7469ZM541.6719 317.45L541.6719 311.23126L542.6094 311.23126L542.6094 312.10626Q542.90625 311.6375 543.3906 311.3719Q543.875 311.09064 544.5 311.09064Q545.1875 311.09064 545.625 311.3719Q546.0781 311.65314 546.25 312.16876Q547.0 311.09064 548.1719 311.09064Q549.1094 311.09064 549.59375 311.60626Q550.09375 312.10626 550.09375 313.1844L550.09375 317.45L549.0469 317.45L549.0469 313.52814Q549.0469 312.90314 548.9375 312.6219Q548.84375 312.34064 548.5781 312.16876Q548.3125 311.9969 547.9375 311.9969Q547.28125 311.9969 546.84375 312.4344Q546.4219 312.8719 546.4219 313.84064L546.4219 317.45L545.3594 317.45L545.3594 313.40314Q545.3594 312.7 545.09375 312.35626Q544.84375 311.9969 544.2656 311.9969Q543.8125 311.9969 543.4375 312.23126Q543.0625 312.46564 542.8906 312.91876Q542.71875 313.3719 542.71875 314.21564L542.71875 317.45L541.6719 317.45ZM553.6406 317.45L552.65625 317.45L552.65625 308.85626L553.71875 308.85626L553.71875 311.91876Q554.3906 311.09064 555.4219 311.09064Q556.0 311.09064 556.5 311.325Q557.0156 311.54376 557.34375 311.96564Q557.6875 312.3875 557.875 312.98126Q558.0625 313.575 558.0625 314.2469Q558.0625 315.84064 557.2656 316.71564Q556.46875 317.59064 555.375 317.59064Q554.2656 317.59064 553.6406 316.66876L553.6406 317.45ZM553.625 314.29376Q553.625 315.40314 553.9375 315.90314Q554.4375 316.71564 555.28125 316.71564Q555.96875 316.71564 556.46875 316.1219Q556.9844 315.52814 556.9844 314.325Q556.9844 313.10626 556.5 312.52814Q556.0156 311.95 555.3281 311.95Q554.6406 311.95 554.125 312.5594Q553.625 313.15314 553.625 314.29376ZM563.9219 315.45L565.0156 315.575Q564.7656 316.52814 564.0625 317.0594Q563.3594 317.59064 562.28125 317.59064Q560.9219 317.59064 560.1094 316.7469Q559.3125 315.90314 559.3125 314.3875Q559.3125 312.825 560.125 311.96564Q560.9375 311.09064 562.21875 311.09064Q563.46875 311.09064 564.25 311.9344Q565.0469 312.77814 565.0469 314.325Q565.0469 314.41876 565.0469 314.60626L560.40625 314.60626Q560.46875 315.6375 560.9844 316.1844Q561.5 316.71564 562.28125 316.71564Q562.8594 316.71564 563.2656 316.41876Q563.6875 316.10626 563.9219 315.45ZM560.46875 313.7469L563.9375 313.7469Q563.875 312.95 563.5469 312.5594Q563.03125 311.95 562.2344 311.95Q561.5 311.95 561.0 312.4344Q560.5156 312.91876 560.46875 313.7469ZM566.65625 317.45L566.65625 311.23126L567.6094 311.23126L567.6094 312.16876Q567.96875 311.5125 568.2656 311.3094Q568.5781 311.09064 568.9531 311.09064Q569.4844 311.09064 570.03125 311.41876L569.6719 312.40314Q569.28125 312.16876 568.90625 312.16876Q568.5469 312.16876 568.2656 312.3875Q568.0 312.59064 567.8906 312.96564Q567.7031 313.52814 567.7031 314.1844L567.7031 317.45L566.65625 317.45Z" fill-rule="nonzero"/><path fill="#757575" d="M23.7375 37.55L23.7375 24.925L19.01875 24.925L19.01875 23.2375L30.3625 23.2375L30.3625 24.925L25.628124 24.925L25.628124 37.55L23.7375 37.55ZM31.221874 32.3625Q31.221874 29.4875 32.815624 28.096874Q34.159374 26.940624 36.08125 26.940624Q38.221874 26.940624 39.565624 28.346874Q40.925 29.753124 40.925 32.221874Q40.925 34.221874 40.33125 35.378124Q39.7375 36.51875 38.58125 37.159374Q37.440624 37.784374 36.08125 37.784374Q33.89375 37.784374 32.55 36.39375Q31.221874 34.9875 31.221874 32.3625ZM33.01875 32.3625Q33.01875 34.3625 33.878124 35.346874Q34.753124 36.33125 36.08125 36.33125Q37.39375 36.33125 38.253124 35.346874Q39.128124 34.346874 39.128124 32.3Q39.128124 30.378124 38.253124 29.39375Q37.378124 28.39375 36.08125 28.39375Q34.753124 28.39375 33.878124 29.39375Q33.01875 30.378124 33.01875 32.3625ZM46.70625 35.971874L46.95625 37.534374Q46.221874 37.690624 45.628124 37.690624Q44.675 37.690624 44.14375 37.39375Q43.628124 37.08125 43.409374 36.596874Q43.190624 36.096874 43.190624 34.51875L43.190624 28.55L41.909374 28.55L41.909374 27.175L43.190624 27.175L43.190624 24.6125L44.940624 23.55L44.940624 27.175L46.70625 27.175L46.70625 28.55L44.940624 28.55L44.940624 34.6125Q44.940624 35.3625 45.034374 35.58125Q45.128124 35.784374 45.33125 35.925Q45.55 36.05 45.940624 36.05Q46.221874 36.05 46.70625 35.971874ZM55.64375 36.26875Q54.659374 37.096874 53.753124 37.440624Q52.846874 37.784374 51.815624 37.784374Q50.1125 37.784374 49.190624 36.95625Q48.26875 36.1125 48.26875 34.815624Q48.26875 34.05 48.6125 33.425Q48.971874 32.8 49.534374 32.425Q50.096874 32.034374 50.8 31.83125Q51.315624 31.70625 52.3625 31.565624Q54.4875 31.315624 55.4875 30.971874Q55.503124 30.6125 55.503124 30.503124Q55.503124 29.440624 55.003124 28.9875Q54.33125 28.39375 53.003124 28.39375Q51.753124 28.39375 51.159374 28.83125Q50.58125 29.26875 50.3 30.378124L48.58125 30.14375Q48.815624 29.034374 49.346874 28.3625Q49.878124 27.675 50.89375 27.315624Q51.909374 26.940624 53.253124 26.940624Q54.58125 26.940624 55.409374 27.253124Q56.2375 27.565624 56.628124 28.05Q57.01875 28.51875 57.175 29.2375Q57.26875 29.690624 57.26875 30.8625L57.26875 33.20625Q57.26875 35.659374 57.378124 36.315624Q57.4875 36.95625 57.83125 37.55L55.9875 37.55Q55.721874 37.003124 55.64375 36.26875ZM55.4875 32.346874Q54.534374 32.7375 52.6125 33.003124Q51.534374 33.159374 51.08125 33.3625Q50.64375 33.55 50.39375 33.925Q50.14375 34.3 50.14375 34.76875Q50.14375 35.471874 50.675 35.940624Q51.20625 36.409374 52.2375 36.409374Q53.253124 36.409374 54.034374 35.971874Q54.83125 35.51875 55.20625 34.753124Q55.4875 34.14375 55.4875 32.9875L55.4875 32.346874ZM59.83125 37.55L59.83125 23.2375L61.58125 23.2375L61.58125 37.55L59.83125 37.55ZM70.12813 37.55L70.12813 23.2375L76.47188 23.2375Q78.37813 23.2375 79.37813 23.628124Q80.37813 24.003124 80.97188 24.9875Q81.56563 25.95625 81.56563 27.14375Q81.56563 28.659374 80.58125 29.70625Q79.59688 30.753124 77.53438 31.034374Q78.28438 31.39375 78.675 31.753124Q79.50313 32.503124 80.25313 33.659374L82.7375 37.55L80.3625 37.55L78.45625 34.565624Q77.62813 33.284374 77.09688 32.596874Q76.56563 31.909374 76.12813 31.64375Q75.70625 31.3625 75.26875 31.253124Q74.94063 31.190624 74.22188 31.190624L72.01875 31.190624L72.01875 37.55L70.12813 37.55ZM72.01875 29.55L76.09688 29.55Q77.39375 29.55 78.1125 29.284374Q78.84688 29.01875 79.22188 28.425Q79.6125 27.83125 79.6125 27.14375Q79.6125 26.128124 78.87813 25.471874Q78.14375 24.815624 76.55 24.815624L72.01875 24.815624L72.01875 29.55ZM90.97188 34.20625L92.78438 34.440624Q92.3625 36.01875 91.19063 36.909374Q90.03438 37.784374 88.22188 37.784374Q85.95625 37.784374 84.6125 36.39375Q83.28438 34.9875 83.28438 32.45625Q83.28438 29.83125 84.62813 28.39375Q85.97188 26.940624 88.12813 26.940624Q90.20625 26.940624 91.51875 28.3625Q92.84688 29.76875 92.84688 32.346874Q92.84688 32.503124 92.83125 32.815624L85.09688 32.815624Q85.19063 34.51875 86.06563 35.425Q86.94063 36.33125 88.2375 36.33125Q89.20625 36.33125 89.87813 35.83125Q90.56563 35.315624 90.97188 34.20625ZM85.19063 31.3625L90.9875 31.3625Q90.87813 30.065624 90.33125 29.409374Q89.4875 28.39375 88.14375 28.39375Q86.94063 28.39375 86.1125 29.20625Q85.28438 30.003124 85.19063 31.3625ZM101.64375 36.26875Q100.65938 37.096874 99.75313 37.440624Q98.84688 37.784374 97.81563 37.784374Q96.1125 37.784374 95.19063 36.95625Q94.26875 36.1125 94.26875 34.815624Q94.26875 34.05 94.6125 33.425Q94.97188 32.8 95.53438 32.425Q96.09688 32.034374 96.8 31.83125Q97.31563 31.70625 98.3625 31.565624Q100.4875 31.315624 101.4875 30.971874Q101.50313 30.6125 101.50313 30.503124Q101.50313 29.440624 101.00313 28.9875Q100.33125 28.39375 99.00313 28.39375Q97.75313 28.39375 97.15938 28.83125Q96.58125 29.26875 96.3 30.378124L94.58125 30.14375Q94.81563 29.034374 95.34688 28.3625Q95.87813 27.675 96.89375 27.315624Q97.90938 26.940624 99.25313 26.940624Q100.58125 26.940624 101.40938 27.253124Q102.2375 27.565624 102.62813 28.05Q103.01875 28.51875 103.175 29.2375Q103.26875 29.690624 103.26875 30.8625L103.26875 33.20625Q103.26875 35.659374 103.37813 36.315624Q103.4875 36.95625 103.83125 37.55L101.9875 37.55Q101.72188 37.003124 101.64375 36.26875ZM101.4875 32.346874Q100.53438 32.7375 98.6125 33.003124Q97.53438 33.159374 97.08125 33.3625Q96.64375 33.55 96.39375 33.925Q96.14375 34.3 96.14375 34.76875Q96.14375 35.471874 96.675 35.940624Q97.20625 36.409374 98.2375 36.409374Q99.25313 36.409374 100.03438 35.971874Q100.83125 35.51875 101.20625 34.753124Q101.4875 34.14375 101.4875 32.9875L101.4875 32.346874ZM112.64375 33.753124L114.3625 33.971874Q114.08125 35.76875 112.90938 36.784374Q111.75313 37.784374 110.05 37.784374Q107.925 37.784374 106.62813 36.39375Q105.33125 35.003124 105.33125 32.409374Q105.33125 30.721874 105.87813 29.471874Q106.44063 28.20625 107.58125 27.58125Q108.72188 26.940624 110.06563 26.940624Q111.75313 26.940624 112.81563 27.8Q113.89375 28.659374 114.20625 30.221874L112.4875 30.4875Q112.25313 29.440624 111.62813 28.925Q111.00313 28.39375 110.12813 28.39375Q108.8 28.39375 107.97188 29.346874Q107.14375 30.3 107.14375 32.346874Q107.14375 34.440624 107.94063 35.39375Q108.7375 36.33125 110.03438 36.33125Q111.06563 36.33125 111.75313 35.70625Q112.45625 35.065624 112.64375 33.753124ZM115.8625 37.55L115.8625 23.2375L117.62813 23.2375L117.62813 28.3625Q118.8625 26.940624 120.7375 26.940624Q121.87813 26.940624 122.72188 27.39375Q123.58125 27.846874 123.94063 28.659374Q124.31563 29.45625 124.31563 30.971874L124.31563 37.55L122.56563 37.55L122.56563 30.971874Q122.56563 29.659374 121.9875 29.065624Q121.40938 28.45625 120.37813 28.45625Q119.59688 28.45625 118.89375 28.8625Q118.20625 29.26875 117.90938 29.971874Q117.62813 30.659374 117.62813 31.878124L117.62813 37.55L115.8625 37.55ZM132.64375 36.26875Q131.65938 37.096874 130.75313 37.440624Q129.84688 37.784374 128.81563 37.784374Q127.1125 37.784374 126.19063 36.95625Q125.26875 36.1125 125.26875 34.815624Q125.26875 34.05 125.6125 33.425Q125.97188 32.8 126.53438 32.425Q127.09688 32.034374 127.8 31.83125Q128.31563 31.70625 129.3625 31.565624Q131.4875 31.315624 132.4875 30.971874Q132.50313 30.6125 132.50313 30.503124Q132.50313 29.440624 132.00313 28.9875Q131.33125 28.39375 130.00313 28.39375Q128.75313 28.39375 128.15938 28.83125Q127.58125 29.26875 127.3 30.378124L125.58125 30.14375Q125.81563 29.034374 126.34688 28.3625Q126.87813 27.675 127.89375 27.315624Q128.90938 26.940624 130.25313 26.940624Q131.58125 26.940624 132.40938 27.253124Q133.2375 27.565624 133.62813 28.05Q134.01875 28.51875 134.175 29.2375Q134.26875 29.690624 134.26875 30.8625L134.26875 33.20625Q134.26875 35.659374 134.37813 36.315624Q134.4875 36.95625 134.83125 37.55L132.9875 37.55Q132.72188 37.003124 132.64375 36.26875ZM132.4875 32.346874Q131.53438 32.7375 129.6125 33.003124Q128.53438 33.159374 128.08125 33.3625Q127.64375 33.55 127.39375 33.925Q127.14375 34.3 127.14375 34.76875Q127.14375 35.471874 127.675 35.940624Q128.20625 36.409374 129.2375 36.409374Q130.25313 36.409374 131.03438 35.971874Q131.83125 35.51875 132.20625 34.753124Q132.4875 34.14375 132.4875 32.9875L132.4875 32.346874ZM138.4875 37.55L136.8625 37.55L136.8625 23.2375L138.6125 23.2375L138.6125 28.346874Q139.7375 26.940624 141.45625 26.940624Q142.40938 26.940624 143.26875 27.33125Q144.12813 27.721874 144.675 28.425Q145.22188 29.1125 145.53438 30.096874Q145.84688 31.08125 145.84688 32.20625Q145.84688 34.878124 144.53438 36.33125Q143.22188 37.784374 141.37813 37.784374Q139.53438 37.784374 138.4875 36.253124L138.4875 37.55ZM138.47188 32.284374Q138.47188 34.14375 138.97188 34.9875Q139.81563 36.33125 141.22188 36.33125Q142.37813 36.33125 143.20625 35.33125Q144.05 34.33125 144.05 32.346874Q144.05 30.315624 143.2375 29.3625Q142.44063 28.39375 141.3 28.39375Q140.14375 28.39375 139.3 29.39375Q138.47188 30.39375 138.47188 32.284374ZM147.83125 37.55L147.83125 23.2375L149.58125 23.2375L149.58125 37.55L147.83125 37.55ZM158.97188 34.20625L160.78438 34.440624Q160.3625 36.01875 159.19063 36.909374Q158.03438 37.784374 156.22188 37.784374Q153.95625 37.784374 152.6125 36.39375Q151.28438 34.9875 151.28438 32.45625Q151.28438 29.83125 152.62813 28.39375Q153.97188 26.940624 156.12813 26.940624Q158.20625 26.940624 159.51875 28.3625Q160.84688 29.76875 160.84688 32.346874Q160.84688 32.503124 160.83125 32.815624L153.09688 32.815624Q153.19063 34.51875 154.06563 35.425Q154.94063 36.33125 156.2375 36.33125Q157.20625 36.33125 157.87813 35.83125Q158.56563 35.315624 158.97188 34.20625ZM153.19063 31.3625L158.9875 31.3625Q158.87813 30.065624 158.33125 29.409374Q157.4875 28.39375 156.14375 28.39375Q154.94063 28.39375 154.1125 29.20625Q153.28438 30.003124 153.19063 31.3625ZM169.19063 37.55L169.19063 23.2375L178.84688 23.2375L178.84688 24.925L171.08125 24.925L171.08125 29.3625L177.8 29.3625L177.8 31.05L171.08125 31.05L171.08125 37.55L169.19063 37.55ZM187.65938 37.55L187.65938 36.01875Q186.45625 37.784374 184.37813 37.784374Q183.45625 37.784374 182.65938 37.440624Q181.8625 37.08125 181.47188 36.55Q181.09688 36.01875 180.94063 35.2375Q180.83125 34.721874 180.83125 33.596874L180.83125 27.175L182.58125 27.175L182.58125 32.925Q182.58125 34.3 182.69063 34.784374Q182.8625 35.471874 183.39375 35.878124Q183.94063 36.26875 184.72188 36.26875Q185.51875 36.26875 186.20625 35.8625Q186.90938 35.45625 187.19063 34.76875Q187.4875 34.065624 187.4875 32.7375L187.4875 27.175L189.2375 27.175L189.2375 37.55L187.65938 37.55ZM190.83125 37.55L190.83125 23.2375L192.58125 23.2375L192.58125 37.55L190.83125 37.55ZM194.83125 37.55L194.83125 23.2375L196.58125 23.2375L196.58125 37.55L194.83125 37.55ZM205.08125 37.55L205.08125 23.2375L207.01875 23.2375L214.53438 34.471874L214.53438 23.2375L216.34688 23.2375L216.34688 37.55L214.40938 37.55L206.89375 26.3L206.89375 37.55L205.08125 37.55ZM217.22188 32.3625Q217.22188 29.4875 218.81563 28.096874Q220.15938 26.940624 222.08125 26.940624Q224.22188 26.940624 225.56563 28.346874Q226.925 29.753124 226.925 32.221874Q226.925 34.221874 226.33125 35.378124Q225.7375 36.51875 224.58125 37.159374Q223.44063 37.784374 222.08125 37.784374Q219.89375 37.784374 218.55 36.39375Q217.22188 34.9875 217.22188 32.3625ZM219.01875 32.3625Q219.01875 34.3625 219.87813 35.346874Q220.75313 36.33125 222.08125 36.33125Q223.39375 36.33125 224.25313 35.346874Q225.12813 34.346874 225.12813 32.3Q225.12813 30.378124 224.25313 29.39375Q223.37813 28.39375 222.08125 28.39375Q220.75313 28.39375 219.87813 29.39375Q219.01875 30.378124 219.01875 32.3625ZM235.59688 37.55L235.59688 36.2375Q234.6125 37.784374 232.69063 37.784374Q231.45625 37.784374 230.40938 37.096874Q229.37813 36.409374 228.8 35.190624Q228.2375 33.971874 228.2375 32.378124Q228.2375 30.815624 228.75313 29.55Q229.26875 28.284374 230.3 27.6125Q231.34688 26.940624 232.6125 26.940624Q233.55 26.940624 234.28438 27.346874Q235.01875 27.7375 235.4875 28.3625L235.4875 23.2375L237.22188 23.2375L237.22188 37.55L235.59688 37.55ZM230.03438 32.378124Q230.03438 34.3625 230.87813 35.346874Q231.72188 36.33125 232.8625 36.33125Q234.01875 36.33125 234.81563 35.39375Q235.62813 34.45625 235.62813 32.51875Q235.62813 30.39375 234.8 29.39375Q233.9875 28.39375 232.78438 28.39375Q231.6125 28.39375 230.81563 29.3625Q230.03438 30.315624 230.03438 32.378124ZM246.97188 34.20625L248.78438 34.440624Q248.3625 36.01875 247.19063 36.909374Q246.03438 37.784374 244.22188 37.784374Q241.95625 37.784374 240.6125 36.39375Q239.28438 34.9875 239.28438 32.45625Q239.28438 29.83125 240.62813 28.39375Q241.97188 26.940624 244.12813 26.940624Q246.20625 26.940624 247.51875 28.3625Q248.84688 29.76875 248.84688 32.346874Q248.84688 32.503124 248.83125 32.815624L241.09688 32.815624Q241.19063 34.51875 242.06563 35.425Q242.94063 36.33125 244.2375 36.33125Q245.20625 36.33125 245.87813 35.83125Q246.56563 35.315624 246.97188 34.20625ZM241.19063 31.3625L246.9875 31.3625Q246.87813 30.065624 246.33125 29.409374Q245.4875 28.39375 244.14375 28.39375Q242.94063 28.39375 242.1125 29.20625Q241.28438 30.003124 241.19063 31.3625ZM250.15938 34.45625L251.90938 34.175Q252.05 35.221874 252.72188 35.784374Q253.39375 36.33125 254.59688 36.33125Q255.8 36.33125 256.3781 35.846874Q256.97186 35.346874 256.97186 34.690624Q256.97186 34.096874 256.45624 33.753124Q256.09686 33.51875 254.65938 33.159374Q252.72188 32.659374 251.97188 32.315624Q251.2375 31.95625 250.84688 31.33125Q250.45625 30.690624 250.45625 29.925Q250.45625 29.2375 250.76875 28.64375Q251.09688 28.05 251.64375 27.659374Q252.05 27.3625 252.75313 27.159374Q253.47188 26.940624 254.28438 26.940624Q255.50313 26.940624 256.425 27.3Q257.34686 27.64375 257.78436 28.253124Q258.22186 28.846874 258.39374 29.846874L256.675 30.08125Q256.55 29.284374 255.9875 28.846874Q255.425 28.39375 254.40938 28.39375Q253.19063 28.39375 252.675 28.8Q252.15938 29.190624 252.15938 29.721874Q252.15938 30.065624 252.37813 30.346874Q252.58125 30.628124 253.05 30.815624Q253.31563 30.909374 254.59688 31.253124Q256.47186 31.753124 257.20624 32.08125Q257.9406 32.39375 258.3625 33.003124Q258.78436 33.596874 258.78436 34.503124Q258.78436 35.378124 258.26874 36.159374Q257.7531 36.940624 256.78436 37.3625Q255.81563 37.784374 254.59688 37.784374Q252.58125 37.784374 251.51875 36.940624Q250.45625 36.096874 250.15938 34.45625ZM269.7531 37.55L265.8 27.175L267.65936 27.175L269.89374 33.39375Q270.2531 34.39375 270.55 35.471874Q270.78436 34.659374 271.20624 33.503124L273.5031 27.175L275.3156 27.175L271.39374 37.55L269.7531 37.55ZM275.15936 34.45625L276.90936 34.175Q277.05 35.221874 277.72186 35.784374Q278.39374 36.33125 279.59686 36.33125Q280.8 36.33125 281.3781 35.846874Q281.97186 35.346874 281.97186 34.690624Q281.97186 34.096874 281.45624 33.753124Q281.09686 33.51875 279.65936 33.159374Q277.72186 32.659374 276.97186 32.315624Q276.2375 31.95625 275.84686 31.33125Q275.45624 30.690624 275.45624 29.925Q275.45624 29.2375 275.76874 28.64375Q276.09686 28.05 276.64374 27.659374Q277.05 27.3625 277.7531 27.159374Q278.47186 26.940624 279.28436 26.940624Q280.5031 26.940624 281.425 27.3Q282.34686 27.64375 282.78436 28.253124Q283.22186 28.846874 283.39374 29.846874L281.675 30.08125Q281.55 29.284374 280.9875 28.846874Q280.425 28.39375 279.40936 28.39375Q278.1906 28.39375 277.675 28.8Q277.15936 29.190624 277.15936 29.721874Q277.15936 30.065624 277.3781 30.346874Q277.58124 30.628124 278.05 30.815624Q278.3156 30.909374 279.59686 31.253124Q281.47186 31.753124 282.20624 32.08125Q282.9406 32.39375 283.3625 33.003124Q283.78436 33.596874 283.78436 34.503124Q283.78436 35.378124 283.26874 36.159374Q282.7531 36.940624 281.78436 37.3625Q280.8156 37.784374 279.59686 37.784374Q277.58124 37.784374 276.51874 36.940624Q275.45624 36.096874 275.15936 34.45625ZM286.3625 37.55L286.3625 35.55L288.3625 35.55L288.3625 37.55L286.3625 37.55ZM298.03436 37.55L298.03436 23.2375L300.89374 23.2375L304.26874 33.3625Q304.7375 34.784374 304.95624 35.4875Q305.20624 34.70625 305.72186 33.190624L309.14374 23.2375L311.6906 23.2375L311.6906 37.55L309.8781 37.55L309.8781 25.565624L305.70624 37.55L304.0031 37.55L299.8625 25.3625L299.8625 37.55L298.03436 37.55ZM314.22186 32.3625Q314.22186 29.4875 315.8156 28.096874Q317.15936 26.940624 319.08124 26.940624Q321.22186 26.940624 322.5656 28.346874Q323.925 29.753124 323.925 32.221874Q323.925 34.221874 323.33124 35.378124Q322.7375 36.51875 321.58124 37.159374Q320.4406 37.784374 319.08124 37.784374Q316.89374 37.784374 315.55 36.39375Q314.22186 34.9875 314.22186 32.3625ZM316.01874 32.3625Q316.01874 34.3625 316.8781 35.346874Q317.7531 36.33125 319.08124 36.33125Q320.39374 36.33125 321.2531 35.346874Q322.1281 34.346874 322.1281 32.3Q322.1281 30.378124 321.2531 29.39375Q320.3781 28.39375 319.08124 28.39375Q317.7531 28.39375 316.8781 29.39375Q316.01874 30.378124 316.01874 32.3625ZM325.8625 37.55L325.8625 27.175L327.45624 27.175L327.45624 28.659374Q328.59686 26.940624 330.7531 26.940624Q331.6906 26.940624 332.47186 27.284374Q333.26874 27.6125 333.65936 28.159374Q334.05 28.70625 334.20624 29.45625Q334.3 29.95625 334.3 31.175L334.3 37.55L332.53436 37.55L332.53436 31.2375Q332.53436 30.159374 332.33124 29.628124Q332.1281 29.096874 331.59686 28.784374Q331.08124 28.471874 330.3781 28.471874Q329.2531 28.471874 328.4406 29.190624Q327.6281 29.89375 327.6281 31.878124L327.6281 37.55L325.8625 37.55ZM339.70624 35.971874L339.95624 37.534374Q339.22186 37.690624 338.6281 37.690624Q337.675 37.690624 337.14374 37.39375Q336.6281 37.08125 336.40936 36.596874Q336.1906 36.096874 336.1906 34.51875L336.1906 28.55L334.90936 28.55L334.90936 27.175L336.1906 27.175L336.1906 24.6125L337.9406 23.55L337.9406 27.175L339.70624 27.175L339.70624 28.55L337.9406 28.55L337.9406 34.6125Q337.9406 35.3625 338.03436 35.58125Q338.1281 35.784374 338.33124 35.925Q338.55 36.05 338.9406 36.05Q339.22186 36.05 339.70624 35.971874ZM341.8625 37.55L341.8625 23.2375L343.6281 23.2375L343.6281 28.3625Q344.8625 26.940624 346.7375 26.940624Q347.8781 26.940624 348.72186 27.39375Q349.58124 27.846874 349.9406 28.659374Q350.3156 29.45625 350.3156 30.971874L350.3156 37.55L348.5656 37.55L348.5656 30.971874Q348.5656 29.659374 347.9875 29.065624Q347.40936 28.45625 346.3781 28.45625Q345.59686 28.45625 344.89374 28.8625Q344.20624 29.26875 343.90936 29.971874Q343.6281 30.659374 343.6281 31.878124L343.6281 37.55L341.8625 37.55Z" fill-rule="nonzero"/></svg>