<svg version="1.1" viewBox="0.0 0.0 600.0 371.0" fill="none" stroke="none" stroke-linecap="square" stroke-miterlimit="10" width="600" height="371" xmlns:xlink="http://www.w3.org/1999/xlink" xmlns="http://www.w3.org/2000/svg"><path fill="#ffffff" d="M0 0L600.0 0L600.0 371.0L0 371.0L0 0Z" fill-rule="nonzero"/><path stroke="#333333" stroke-width="1.0" stroke-linecap="butt" d="M101.5 300.5L581.5 300.5" fill-rule="nonzero"/><path stroke="#cccccc" stroke-width="1.0" stroke-linecap="butt" d="M101.5 252.5L581.5 252.5" fill-rule="nonzero"/><path stroke="#cccccc" stroke-width="1.0" stroke-linecap="butt" d="M101.5 205.5L581.5 205.5" fill-rule="nonzero"/><path stroke="#cccccc" stroke-width="1.0" stroke-linecap="butt" d="M101.5 157.5L581.5 157.5" fill-rule="nonzero"/><path stroke="#cccccc" stroke-width="1.0" stroke-linecap="butt" d="M101.5 109.5L581.5 109.5" fill-rule="nonzero"/><path stroke="#cccccc" stroke-width="1.0" stroke-linecap="butt" d="M101.5 61.5L581.5 61.5" fill-rule="nonzero"/><clipPath id="id_0"><path d="M101.55 61.916668L581.45 61.916668L581.45 300.45L101.55 300.45L101.55 61.916668Z" clip-rule="nonzero"/></clipPath><path stroke="#4285f4" stroke-width="2.0" stroke-linecap="butt" clip-path="url(#id_0)" d="M141.54167 98.45043L221.525 181.95999L301.50833 111.294975L381.49167 130.1372L461.475 197.30246L541.4583 230.7582" fill-rule="nonzero"/><path fill="#000000" fill-opacity="0.0" clip-path="url(#id_0)" d="M144.54167 98.45043C144.54167 100.107285 143.19852 101.45043 141.54167 101.45043C139.88481 101.45043 138.54167 100.107285 138.54167 98.45043C138.54167 96.79358 139.88481 95.45043 141.54167 95.45043C143.19852 95.45043 144.54167 96.79358 144.54167 98.45043Z" fill-rule="nonzero"/><path fill="#000000" fill-opacity="0.0" clip-path="url(#id_0)" d="M224.525 181.95999C224.525 183.61685 223.18185 184.95999 221.525 184.95999C219.86815 184.95999 218.525 183.61685 218.525 181.95999C218.525 180.30315 219.86815 178.95999 221.525 178.95999C223.18185 178.95999 224.525 180.30315 224.525 181.95999Z" fill-rule="nonzero"/><path fill="#000000" fill-opacity="0.0" clip-path="url(#id_0)" d="M304.50833 111.294975C304.50833 112.95183 303.1652 114.294975 301.50833 114.294975C299.85147 114.294975 298.50833 112.95183 298.50833 111.294975C298.50833 109.63812 299.85147 108.294975 301.50833 108.294975C303.1652 108.294975 304.50833 109.63812 304.50833 111.294975Z" fill-rule="nonzero"/><path fill="#000000" fill-opacity="0.0" clip-path="url(#id_0)" d="M384.49167 130.1372C384.49167 131.79405 383.14853 133.1372 381.49167 133.1372C379.8348 133.1372 378.49167 131.79405 378.49167 130.1372C378.49167 128.48035 379.8348 127.1372 381.49167 127.1372C383.14853 127.1372 384.49167 128.48035 384.49167 130.1372Z" fill-rule="nonzero"/><path fill="#000000" fill-opacity="0.0" clip-path="url(#id_0)" d="M464.475 197.30246C464.475 198.95932 463.13187 200.30246 461.475 200.30246C459.81815 200.30246 458.475 198.95932 458.475 197.30246C458.475 195.64561 459.81815 194.30246 461.475 194.30246C463.13187 194.30246 464.475 195.64561 464.475 197.30246Z" fill-rule="nonzero"/><path fill="#000000" fill-opacity="0.0" clip-path="url(#id_0)" d="M544.4583 230.7582C544.4583 232.41505 543.1152 233.7582 541.4583 233.7582C539.80145 233.7582 538.4583 232.41505 538.4583 230.7582C538.4583 229.10133 539.80145 227.7582 541.4583 227.7582C543.1152 227.7582 544.4583 229.10133 544.4583 230.7582Z" fill-rule="nonzero"/><path fill="#000000" d="M325.89062 349.45L325.89062 340.85626L327.60938 340.85626L329.64062 346.9344Q329.92188 347.79376 330.04688 348.21564Q330.1875 347.7469 330.5 346.84064L332.5625 340.85626L334.09375 340.85626L334.09375 349.45L333.0 349.45L333.0 342.2625L330.5 349.45L329.46875 349.45L326.98438 342.1375L326.98438 349.45L325.89062 349.45ZM334.40625 346.34064Q334.40625 344.60626 335.35938 343.77814Q336.15625 343.09064 337.3125 343.09064Q338.59375 343.09064 339.40625 343.9344Q340.23438 344.7625 340.23438 346.2469Q340.23438 347.45 339.875 348.1375Q339.51562 348.825 338.8125 349.21564Q338.125 349.59064 337.3125 349.59064Q336.01562 349.59064 335.20312 348.7625Q334.40625 347.91876 334.40625 346.34064ZM335.48438 346.34064Q335.48438 347.52814 336.0 348.1219Q336.53125 348.71564 337.3125 348.71564Q338.10938 348.71564 338.625 348.1219Q339.14062 347.52814 339.14062 346.3094Q339.14062 345.15314 338.60938 344.5594Q338.09375 343.96564 337.3125 343.96564Q336.53125 343.96564 336.0 344.5594Q335.48438 345.1375 335.48438 346.34064ZM341.79688 349.45L341.79688 343.23126L342.73438 343.23126L342.73438 344.10626Q343.42188 343.09064 344.71875 343.09064Q345.28125 343.09064 345.75 343.29376Q346.23438 343.4969 346.46875 343.825Q346.70312 344.15314 346.79688 344.59064Q346.84375 344.8875 346.84375 345.6219L346.84375 349.45L345.79688 349.45L345.79688 345.66876Q345.79688 345.0125 345.67188 344.7Q345.54688 344.3875 345.23438 344.2Q344.92188 343.9969 344.5 343.9969Q343.82812 343.9969 343.32812 344.4344Q342.84375 344.85626 342.84375 346.04376L342.84375 349.45L341.79688 349.45ZM351.09375 348.5125L351.25 349.4344Q350.79688 349.52814 350.45312 349.52814Q349.875 349.52814 349.5625 349.35626Q349.25 349.16876 349.10938 348.8719Q348.98438 348.575 348.98438 347.6219L348.98438 344.04376L348.21875 344.04376L348.21875 343.23126L348.98438 343.23126L348.98438 341.6844L350.03125 341.0594L350.03125 343.23126L351.09375 343.23126L351.09375 344.04376L350.03125 344.04376L350.03125 347.6844Q350.03125 348.1375 350.07812 348.2625Q350.14062 348.3875 350.26562 348.46564Q350.39062 348.54376 350.625 348.54376Q350.8125 348.54376 351.09375 348.5125ZM351.79688 349.45L351.79688 340.85626L352.84375 340.85626L352.84375 343.9344Q353.57812 343.09064 354.70312 343.09064Q355.40625 343.09064 355.90625 343.3719Q356.42188 343.6375 356.64062 344.1219Q356.85938 344.59064 356.85938 345.5125L356.85938 349.45L355.8125 349.45L355.8125 345.5125Q355.8125 344.71564 355.46875 344.35626Q355.125 343.9969 354.5 343.9969Q354.03125 343.9969 353.60938 344.2469Q353.20312 344.48126 353.01562 344.90314Q352.84375 345.3094 352.84375 346.04376L352.84375 349.45L351.79688 349.45Z" fill-rule="nonzero"/><path fill="#000000" d="M29.550013 267.57397L21.971888 267.57397L21.971888 270.4021L20.956263 270.4021L20.956263 263.5896L21.971888 263.5896L21.971888 266.43335L29.550013 266.43335L29.550013 267.57397ZM26.440638 263.2771Q24.706263 263.2771 23.878138 262.32397Q23.190638 261.5271 23.190638 260.37085Q23.190638 259.0896 24.034388 258.2771Q24.862513 257.44897 26.346888 257.44897Q27.550013 257.44897 28.237513 257.80835Q28.925013 258.16772 29.315638 258.87085Q29.690638 259.55835 29.690638 260.37085Q29.690638 261.66772 28.862513 262.48022Q28.018763 263.2771 26.440638 263.2771ZM26.440638 262.19897Q27.628138 262.19897 28.221888 261.68335Q28.815638 261.1521 28.815638 260.37085Q28.815638 259.57397 28.221888 259.05835Q27.628138 258.54272 26.409388 258.54272Q25.253138 258.54272 24.659388 259.07397Q24.065638 259.5896 24.065638 260.37085Q24.065638 261.1521 24.659388 261.68335Q25.237513 262.19897 26.440638 262.19897ZM28.612513 253.58958L29.534388 253.43333Q29.628138 253.88646 29.628138 254.23021Q29.628138 254.80833 29.456263 255.12083Q29.268763 255.43333 28.971888 255.57396Q28.675013 255.69896 27.721888 255.69896L24.143763 255.69896L24.143763 256.4646L23.331263 256.4646L23.331263 255.69896L21.784388 255.69896L21.159388 254.65208L23.331263 254.65208L23.331263 253.58958L24.143763 253.58958L24.143763 254.65208L27.784388 254.65208Q28.237513 254.65208 28.362513 254.60521Q28.487513 254.54271 28.565638 254.41771Q28.643763 254.29271 28.643763 254.05833Q28.643763 253.87083 28.612513 253.58958ZM28.784388 248.82396Q29.284388 249.41771 29.487513 249.96458Q29.690638 250.49583 29.690638 251.12083Q29.690638 252.15208 29.190638 252.69896Q28.690638 253.24583 27.909388 253.24583Q27.456263 253.24583 27.081263 253.04271Q26.690638 252.83958 26.471888 252.49583Q26.237513 252.15208 26.128138 251.73021Q26.034388 251.43333 25.956263 250.79271Q25.815638 249.52708 25.596888 248.91771Q25.378138 248.91771 25.331263 248.91771Q24.675013 248.91771 24.409388 249.21458Q24.065638 249.62083 24.065638 250.41771Q24.065638 251.15208 24.331263 251.51146Q24.581263 251.87083 25.237513 252.04271L25.096888 253.07396Q24.440638 252.93333 24.034388 252.60521Q23.628138 252.27708 23.409388 251.66771Q23.190638 251.05833 23.190638 250.26146Q23.190638 249.46458 23.378138 248.96458Q23.565638 248.46458 23.846888 248.23021Q24.128138 247.99583 24.565638 247.90208Q24.831263 247.85521 25.534388 247.85521L26.940638 247.85521Q28.409388 247.85521 28.800013 247.79271Q29.190638 247.71458 29.550013 247.51146L29.550013 248.62083Q29.221888 248.77708 28.784388 248.82396ZM26.425013 248.91771Q26.659388 249.49583 26.831263 250.63646Q26.925013 251.29271 27.050013 251.55833Q27.159388 251.82396 27.378138 251.98021Q27.596888 252.12083 27.878138 252.12083Q28.300013 252.12083 28.581263 251.80833Q28.862513 251.48021 28.862513 250.87083Q28.862513 250.26146 28.596888 249.79271Q28.331263 249.30833 27.862513 249.08958Q27.503138 248.91771 26.815638 248.91771L26.425013 248.91771ZM29.550013 245.91771L20.956263 245.91771L20.956263 244.85521L29.550013 244.85521L29.550013 245.91771ZM29.550013 239.76146L20.956263 239.76146L20.956263 238.60521L27.706263 234.08958L20.956263 234.08958L20.956263 232.99583L29.550013 232.99583L29.550013 234.16771L22.800013 238.68333L29.550013 238.68333L29.550013 239.76146ZM27.550013 226.63646L27.675013 225.54271Q28.628138 225.79271 29.159388 226.49583Q29.690638 227.19896 29.690638 228.27708Q29.690638 229.63646 28.846888 230.44896Q28.003138 231.24583 26.487513 231.24583Q24.925013 231.24583 24.065638 230.43333Q23.190638 229.62083 23.190638 228.33958Q23.190638 227.08958 24.034388 226.30833Q24.878138 225.51146 26.425013 225.51146Q26.518763 225.51146 26.706263 225.51146L26.706263 230.15208Q27.737513 230.08958 28.284388 229.57396Q28.815638 229.05833 28.815638 228.27708Q28.815638 227.69896 28.518763 227.29271Q28.206263 226.87083 27.550013 226.63646ZM25.846888 230.08958L25.846888 226.62083Q25.050013 226.68333 24.659388 227.01146Q24.050013 227.52708 24.050013 228.32396Q24.050013 229.05833 24.534388 229.55833Q25.018763 230.04271 25.846888 230.08958ZM28.612513 221.58958L29.534388 221.43333Q29.628138 221.88646 29.628138 222.23021Q29.628138 222.80833 29.456263 223.12083Q29.268763 223.43333 28.971888 223.57396Q28.675013 223.69896 27.721888 223.69896L24.143763 223.69896L24.143763 224.46458L23.331263 224.46458L23.331263 223.69896L21.784388 223.69896L21.159388 222.65208L23.331263 222.65208L23.331263 221.58958L24.143763 221.58958L24.143763 222.65208L27.784388 222.65208Q28.237513 222.65208 28.362513 222.60521Q28.487513 222.54271 28.565638 222.41771Q28.643763 222.29271 28.643763 222.05833Q28.643763 221.87083 28.612513 221.58958ZM29.550013 219.74583L23.331263 221.65208L23.331263 220.55833L26.925013 219.57396L28.253138 219.19896Q28.159388 219.16771 26.971888 218.87083L23.331263 217.88646L23.331263 216.80833L26.940638 215.87083L28.128138 215.55833L26.925013 215.19896L23.331263 214.13646L23.331263 213.10521L29.550013 215.05833L29.550013 216.15208L25.815638 217.13646L24.768763 217.38646L29.550013 218.63646L29.550013 219.74583ZM26.440638 212.27708Q24.706263 212.27708 23.878138 211.32396Q23.190638 210.52708 23.190638 209.37083Q23.190638 208.08958 24.034388 207.27708Q24.862513 206.44896 26.346888 206.44896Q27.550013 206.44896 28.237513 206.80833Q28.925013 207.16771 29.315638 207.87083Q29.690638 208.55833 29.690638 209.37083Q29.690638 210.66771 28.862513 211.48021Q28.018763 212.27708 26.440638 212.27708ZM26.440638 211.19896Q27.628138 211.19896 28.221888 210.68333Q28.815638 210.15208 28.815638 209.37083Q28.815638 208.57396 28.221888 208.05833Q27.628138 207.54271 26.409388 207.54271Q25.253138 207.54271 24.659388 208.07396Q24.065638 208.58958 24.065638 209.37083Q24.065638 210.15208 24.659388 210.68333Q25.237513 211.19896 26.440638 211.19896ZM29.550013 204.90208L23.331263 204.90208L23.331263 203.94896L24.268763 203.94896Q23.612513 203.58958 23.409388 203.29271Q23.190638 202.98021 23.190638 202.60521Q23.190638 202.07396 23.518763 201.52708L24.503138 201.88646Q24.268763 202.27708 24.268763 202.65208Q24.268763 203.01146 24.487513 203.29271Q24.690638 203.55833 25.065638 203.66771Q25.628138 203.85521 26.284388 203.85521L29.550013 203.85521L29.550013 204.90208ZM29.550013 200.88646L20.956263 200.88646L20.956263 199.82396L25.862513 199.82396L23.331263 197.33958L23.331263 195.96458L25.628138 198.35521L29.550013 195.73021L29.550013 197.02708L26.362513 199.08958L27.081263 199.82396L29.550013 199.82396L29.550013 200.88646ZM29.550013 191.74583L20.956263 191.74583L20.956263 187.93333Q20.956263 186.77708 21.190638 186.18333Q21.425013 185.58958 22.018763 185.23021Q22.596888 184.87083 23.300013 184.87083Q24.221888 184.87083 24.846888 185.46458Q25.471888 186.05833 25.643763 187.29271Q25.862513 186.83958 26.065638 186.60521Q26.518763 186.10521 27.206263 185.66771L29.550013 184.16771L29.550013 185.60521L27.768763 186.73021Q26.987513 187.23021 26.581263 187.55833Q26.175013 187.87083 26.018763 188.13646Q25.846888 188.38646 25.768763 188.65208Q25.737513 188.83958 25.737513 189.27708L25.737513 190.60521L29.550013 190.60521L29.550013 191.74583ZM24.753138 190.60521L24.753138 188.15208Q24.753138 187.38646 24.596888 186.94896Q24.425013 186.49583 24.081263 186.27708Q23.721888 186.04271 23.300013 186.04271Q22.690638 186.04271 22.300013 186.49583Q21.909388 186.93333 21.909388 187.88646L21.909388 190.60521L24.753138 190.60521ZM27.550013 178.63646L27.675013 177.54271Q28.628138 177.79271 29.159388 178.49583Q29.690638 179.19896 29.690638 180.27708Q29.690638 181.63646 28.846888 182.44896Q28.003138 183.24583 26.487513 183.24583Q24.925013 183.24583 24.065638 182.43333Q23.190638 181.62083 23.190638 180.33958Q23.190638 179.08958 24.034388 178.30833Q24.878138 177.51146 26.425013 177.51146Q26.518763 177.51146 26.706263 177.51146L26.706263 182.15208Q27.737513 182.08958 28.284388 181.57396Q28.815638 181.05833 28.815638 180.27708Q28.815638 179.69896 28.518763 179.29271Q28.206263 178.87083 27.550013 178.63646ZM25.846888 182.08958L25.846888 178.62083Q25.050013 178.68333 24.659388 179.01146Q24.050013 179.52708 24.050013 180.32396Q24.050013 181.05833 24.534388 181.55833Q25.018763 182.04271 25.846888 182.08958ZM29.550013 174.74583L23.331263 176.65208L23.331263 175.55833L26.925013 174.57396L28.253138 174.19896Q28.159388 174.16771 26.971888 173.87083L23.331263 172.88646L23.331263 171.80833L26.940638 170.87083L28.128138 170.55833L26.925013 170.19896L23.331263 169.13646L23.331263 168.10521L29.550013 170.05833L29.550013 171.15208L25.815638 172.13646L24.768763 172.38646L29.550013 173.63646L29.550013 174.74583ZM28.784388 162.82396Q29.284388 163.41771 29.487513 163.96458Q29.690638 164.49583 29.690638 165.12083Q29.690638 166.15208 29.190638 166.69896Q28.690638 167.24583 27.909388 167.24583Q27.456263 167.24583 27.081263 167.04271Q26.690638 166.83958 26.471888 166.49583Q26.237513 166.15208 26.128138 165.73021Q26.034388 165.43333 25.956263 164.79271Q25.815638 163.52708 25.596888 162.91771Q25.378138 162.91771 25.331263 162.91771Q24.675013 162.91771 24.409388 163.21458Q24.065638 163.62083 24.065638 164.41771Q24.065638 165.15208 24.331263 165.51146Q24.581263 165.87083 25.237513 166.04271L25.096888 167.07396Q24.440638 166.93333 24.034388 166.60521Q23.628138 166.27708 23.409388 165.66771Q23.190638 165.05833 23.190638 164.26146Q23.190638 163.46458 23.378138 162.96458Q23.565638 162.46458 23.846888 162.23021Q24.128138 161.99583 24.565638 161.90208Q24.831263 161.85521 25.534388 161.85521L26.940638 161.85521Q28.409388 161.85521 28.800013 161.79271Q29.190638 161.71458 29.550013 161.51146L29.550013 162.62083Q29.221888 162.77708 28.784388 162.82396ZM26.425013 162.91771Q26.659388 163.49583 26.831263 164.63646Q26.925013 165.29271 27.050013 165.55833Q27.159388 165.82396 27.378138 165.98021Q27.596888 166.12083 27.878138 166.12083Q28.300013 166.12083 28.581263 165.80833Q28.862513 165.48021 28.862513 164.87083Q28.862513 164.26146 28.596888 163.79271Q28.331263 163.30833 27.862513 163.08958Q27.503138 162.91771 26.815638 162.91771L26.425013 162.91771ZM29.550013 159.90208L23.331263 159.90208L23.331263 158.94896L24.268763 158.94896Q23.612513 158.58958 23.409388 158.29271Q23.190638 157.98021 23.190638 157.60521Q23.190638 157.07396 23.518763 156.52708L24.503138 156.88646Q24.268763 157.27708 24.268763 157.65208Q24.268763 158.01146 24.487513 158.29271Q24.690638 158.55833 25.065638 158.66771Q25.628138 158.85521 26.284388 158.85521L29.550013 158.85521L29.550013 159.90208ZM29.550013 151.85521L28.768763 151.85521Q29.690638 152.44896 29.690638 153.58958Q29.690638 154.33958 29.284388 154.96458Q28.862513 155.58958 28.128138 155.93333Q27.393763 156.27708 26.440638 156.27708Q25.518763 156.27708 24.753138 155.96458Q23.987513 155.65208 23.596888 155.02708Q23.190638 154.40208 23.190638 153.63646Q23.190638 153.07396 23.425013 152.63646Q23.659388 152.19896 24.034388 151.91771L20.956263 151.91771L20.956263 150.87083L29.550013 150.87083L29.550013 151.85521ZM26.440638 155.18333Q27.643763 155.18333 28.237513 154.68333Q28.815638 154.18333 28.815638 153.49583Q28.815638 152.80833 28.253138 152.32396Q27.690638 151.83958 26.534388 151.83958Q25.253138 151.83958 24.659388 152.33958Q24.065638 152.82396 24.065638 153.54271Q24.065638 154.24583 24.643763 154.71458Q25.206263 155.18333 26.440638 155.18333ZM27.690638 149.30833L27.534388 148.27708Q28.159388 148.18333 28.487513 147.79271Q28.815638 147.38646 28.815638 146.65208Q28.815638 145.93333 28.534388 145.58958Q28.237513 145.23021 27.831263 145.23021Q27.471888 145.23021 27.268763 145.54271Q27.128138 145.76146 26.909388 146.62083Q26.612513 147.77708 26.409388 148.23021Q26.190638 148.66771 25.815638 148.90208Q25.440638 149.13646 24.971888 149.13646Q24.565638 149.13646 24.206263 148.94896Q23.846888 148.76146 23.612513 148.43333Q23.440638 148.18333 23.315638 147.76146Q23.190638 147.33958 23.190638 146.83958Q23.190638 146.12083 23.409388 145.57396Q23.612513 145.01146 23.971888 144.74583Q24.331263 144.48021 24.925013 144.38646L25.065638 145.41771Q24.596888 145.48021 24.331263 145.82396Q24.050013 146.15208 24.050013 146.77708Q24.050013 147.49583 24.300013 147.80833Q24.534388 148.12083 24.862513 148.12083Q25.065638 148.12083 25.221888 147.99583Q25.393763 147.85521 25.503138 147.58958Q25.565638 147.43333 25.768763 146.65208Q26.081263 145.52708 26.268763 145.08958Q26.456263 144.65208 26.815638 144.40208Q27.175013 144.15208 27.721888 144.15208Q28.253138 144.15208 28.721888 144.46458Q29.175013 144.76146 29.440638 145.33958Q29.690638 145.91771 29.690638 146.65208Q29.690638 147.87083 29.190638 148.51146Q28.675013 149.13646 27.690638 149.30833ZM32.08126 136.87083Q30.971888 137.74583 29.503138 138.35521Q28.018763 138.94896 26.440638 138.94896Q25.050013 138.94896 23.768763 138.51146Q22.284388 137.98021 20.815638 136.87083L20.815638 136.12083Q22.034388 136.82396 22.550013 137.05833Q23.362513 137.41771 24.237513 137.62083Q25.331263 137.87083 26.440638 137.87083Q29.268763 137.87083 32.08126 136.12083L32.08126 136.87083ZM29.550013 135.58958L26.315638 133.32396L23.331263 135.41771L23.331263 134.10521L24.784388 133.15208Q25.206263 132.88646 25.487513 132.71458Q25.096888 132.46458 24.800013 132.24583L23.331263 131.19896L23.331263 129.93333L26.253138 132.08958L29.550013 129.77708L29.550013 131.05833L27.612513 132.33958L27.096888 132.68333L29.550013 134.32396L29.550013 135.58958ZM29.550013 129.80833L20.956263 129.80833L20.956263 126.57396Q20.956263 125.589584 21.221888 124.995834Q21.487513 124.402084 22.034388 124.07396Q22.565638 123.73021 23.159388 123.73021Q23.706263 123.73021 24.190638 124.027084Q24.675013 124.32396 24.971888 124.933334Q25.206263 124.152084 25.768763 123.745834Q26.315638 123.32396 27.065638 123.32396Q27.659388 123.32396 28.190638 123.57396Q28.706263 123.82396 28.987513 124.19896Q29.268763 124.57396 29.409388 125.152084Q29.550013 125.714584 29.550013 126.527084L29.550013 129.80833ZM24.565638 128.66771L24.565638 126.808334Q24.565638 126.058334 24.471888 125.73021Q24.346888 125.29271 24.050013 125.07396Q23.737513 124.85521 23.284388 124.85521Q22.862513 124.85521 22.534388 125.058334Q22.206263 125.26146 22.096888 125.652084Q21.971888 126.027084 21.971888 126.94896L21.971888 128.66771L24.565638 128.66771ZM28.534388 128.66771L28.534388 126.527084Q28.534388 125.98021 28.487513 125.76146Q28.425013 125.35521 28.268763 125.10521Q28.096888 124.839584 27.784388 124.66771Q27.471888 124.495834 27.065638 124.495834Q26.581263 124.495834 26.221888 124.745834Q25.862513 124.98021 25.721888 125.41771Q25.581263 125.85521 25.581263 126.683334L25.581263 128.66771L28.534388 128.66771ZM29.550013 122.44896L28.487513 122.44896L22.987513 118.04271Q22.409388 117.57396 21.971888 117.152084L21.971888 121.94896L20.956263 121.94896L20.956263 115.79271L21.971888 115.79271L27.925013 120.620834L28.534388 121.13646L28.534388 115.652084L29.550013 115.652084L29.550013 122.44896ZM29.550013 115.44896L28.487513 115.44896L22.987513 111.04271Q22.409388 110.57396 21.971888 110.152084L21.971888 114.94896L20.956263 114.94896L20.956263 108.79271L21.971888 108.79271L27.925013 113.620834L28.534388 114.13646L28.534388 108.652084L29.550013 108.652084L29.550013 115.44896ZM32.08126 107.19896L32.08126 107.94896Q29.268763 106.19896 26.440638 106.19896Q25.346888 106.19896 24.253138 106.44896Q23.378138 106.652084 22.565638 107.01146Q22.050013 107.245834 20.815638 107.94896L20.815638 107.19896Q22.284388 106.10521 23.768763 105.57396Q25.050013 105.120834 26.440638 105.120834Q28.018763 105.120834 29.503138 105.73021Q30.971888 106.339584 32.08126 107.19896Z" fill-rule="nonzero"/><path fill="#000000" d="M89.05 300.21564Q89.05 298.6844 89.3625 297.7625Q89.675 296.825 90.28438 296.325Q90.90938 295.825 91.84688 295.825Q92.53438 295.825 93.05 296.10626Q93.58125 296.3875 93.925 296.91876Q94.26875 297.4344 94.45625 298.1844Q94.64375 298.9344 94.64375 300.21564Q94.64375 301.73126 94.33125 302.65314Q94.03438 303.575 93.40938 304.09064Q92.8 304.59064 91.84688 304.59064Q90.6125 304.59064 89.89375 303.7Q89.05 302.6375 89.05 300.21564ZM90.12813 300.21564Q90.12813 302.325 90.62813 303.02814Q91.12813 303.73126 91.84688 303.73126Q92.58125 303.73126 93.06563 303.02814Q93.56563 302.325 93.56563 300.21564Q93.56563 298.09064 93.06563 297.40314Q92.58125 296.7 91.83125 296.7Q91.1125 296.7 90.675 297.3094Q90.12813 298.09064 90.12813 300.21564Z" fill-rule="nonzero"/><path fill="#000000" d="M63.596874 255.72772L63.596874 256.74335L57.909374 256.74335Q57.909374 256.36835 58.034374 256.00897Q58.253124 255.43085 58.721874 254.86835Q59.20625 254.30585 60.1125 253.57147Q61.51875 252.41522 62.003124 251.74335Q62.503124 251.07147 62.503124 250.47772Q62.503124 249.85272 62.05 249.43085Q61.596874 248.99335 60.878124 248.99335Q60.1125 248.99335 59.659374 249.44647Q59.20625 249.8996 59.190624 250.7121L58.1125 250.60272Q58.221874 249.38397 58.940624 248.75897Q59.675 248.11835 60.909374 248.11835Q62.14375 248.11835 62.8625 248.80585Q63.58125 249.49335 63.58125 250.50897Q63.58125 251.0246 63.3625 251.5246Q63.159374 252.00897 62.659374 252.57147Q62.175 253.11835 61.05 254.07147Q60.096874 254.86835 59.815624 255.16522Q59.55 255.44647 59.378124 255.72772L63.596874 255.72772ZM65.05 254.49335L66.15938 254.3996Q66.28438 255.2121 66.72188 255.61835Q67.175 256.0246 67.81563 256.0246Q68.56563 256.0246 69.09688 255.44647Q69.62813 254.86835 69.62813 253.93085Q69.62813 253.0246 69.1125 252.50897Q68.6125 251.97772 67.78438 251.97772Q67.28438 251.97772 66.8625 252.2121Q66.45625 252.44647 66.22188 252.80585L65.2375 252.68085L66.06563 248.2746L70.34688 248.2746L70.34688 249.2746L66.90938 249.2746L66.45625 251.5871Q67.22188 251.04022 68.06563 251.04022Q69.19063 251.04022 69.95625 251.82147Q70.7375 252.60272 70.7375 253.8371Q70.7375 254.99335 70.06563 255.85272Q69.2375 256.88397 67.81563 256.88397Q66.64375 256.88397 65.89375 256.22772Q65.15938 255.57147 65.05 254.49335ZM72.6125 256.74335L72.6125 255.54022L73.81563 255.54022L73.81563 256.74335Q73.81563 257.3996 73.58125 257.80585Q73.34688 258.22772 72.84688 258.44647L72.55 257.99335Q72.87813 257.85272 73.03438 257.55585Q73.19063 257.2746 73.22188 256.74335L72.6125 256.74335ZM75.05 252.50897Q75.05 250.97772 75.3625 250.05585Q75.675 249.11835 76.28438 248.61835Q76.90938 248.11835 77.84688 248.11835Q78.53438 248.11835 79.05 248.3996Q79.58125 248.68085 79.925 249.2121Q80.26875 249.72772 80.45625 250.47772Q80.64375 251.22772 80.64375 252.50897Q80.64375 254.0246 80.33125 254.94647Q80.03438 255.86835 79.40938 256.38397Q78.8 256.88397 77.84688 256.88397Q76.6125 256.88397 75.89375 255.99335Q75.05 254.93085 75.05 252.50897ZM76.12813 252.50897Q76.12813 254.61835 76.62813 255.32147Q77.12813 256.0246 77.84688 256.0246Q78.58125 256.0246 79.06563 255.32147Q79.56563 254.61835 79.56563 252.50897Q79.56563 250.38397 79.06563 249.69647Q78.58125 248.99335 77.83125 248.99335Q77.1125 248.99335 76.675 249.60272Q76.12813 250.38397 76.12813 252.50897ZM82.05 252.50897Q82.05 250.97772 82.3625 250.05585Q82.675 249.11835 83.28438 248.61835Q83.90938 248.11835 84.84688 248.11835Q85.53438 248.11835 86.05 248.3996Q86.58125 248.68085 86.925 249.2121Q87.26875 249.72772 87.45625 250.47772Q87.64375 251.22772 87.64375 252.50897Q87.64375 254.0246 87.33125 254.94647Q87.03438 255.86835 86.40938 256.38397Q85.8 256.88397 84.84688 256.88397Q83.6125 256.88397 82.89375 255.99335Q82.05 254.93085 82.05 252.50897ZM83.12813 252.50897Q83.12813 254.61835 83.62813 255.32147Q84.12813 256.0246 84.84688 256.0246Q85.58125 256.0246 86.06563 255.32147Q86.56563 254.61835 86.56563 252.50897Q86.56563 250.38397 86.06563 249.69647Q85.58125 248.99335 84.83125 248.99335Q84.1125 248.99335 83.675 249.60272Q83.12813 250.38397 83.12813 252.50897ZM89.05 252.50897Q89.05 250.97772 89.3625 250.05585Q89.675 249.11835 90.28438 248.61835Q90.90938 248.11835 91.84688 248.11835Q92.53438 248.11835 93.05 248.3996Q93.58125 248.68085 93.925 249.2121Q94.26875 249.72772 94.45625 250.47772Q94.64375 251.22772 94.64375 252.50897Q94.64375 254.0246 94.33125 254.94647Q94.03438 255.86835 93.40938 256.38397Q92.8 256.88397 91.84688 256.88397Q90.6125 256.88397 89.89375 255.99335Q89.05 254.93085 89.05 252.50897ZM90.12813 252.50897Q90.12813 254.61835 90.62813 255.32147Q91.12813 256.0246 91.84688 256.0246Q92.58125 256.0246 93.06563 255.32147Q93.56563 254.61835 93.56563 252.50897Q93.56563 250.38397 93.06563 249.69647Q92.58125 248.99335 91.83125 248.99335Q91.1125 248.99335 90.675 249.60272Q90.12813 250.38397 90.12813 252.50897Z" fill-rule="nonzero"/><path fill="#000000" d="M58.05 206.78667L59.159374 206.69292Q59.284374 207.50542 59.721874 207.91167Q60.175 208.31792 60.815624 208.31792Q61.565624 208.31792 62.096874 207.73979Q62.628124 207.16167 62.628124 206.22417Q62.628124 205.31792 62.1125 204.80229Q61.6125 204.27104 60.784374 204.27104Q60.284374 204.27104 59.8625 204.50542Q59.45625 204.73979 59.221874 205.09917L58.2375 204.97417L59.065624 200.56792L63.346874 200.56792L63.346874 201.56792L59.909374 201.56792L59.45625 203.88042Q60.221874 203.33354 61.065624 203.33354Q62.190624 203.33354 62.95625 204.11479Q63.7375 204.89604 63.7375 206.13042Q63.7375 207.28667 63.065624 208.14604Q62.2375 209.17729 60.815624 209.17729Q59.64375 209.17729 58.89375 208.52104Q58.159374 207.86479 58.05 206.78667ZM65.05 204.80229Q65.05 203.27104 65.3625 202.34917Q65.675 201.41167 66.28438 200.91167Q66.90938 200.41167 67.84688 200.41167Q68.53438 200.41167 69.05 200.69292Q69.58125 200.97417 69.925 201.50542Q70.26875 202.02104 70.45625 202.77104Q70.64375 203.52104 70.64375 204.80229Q70.64375 206.31792 70.33125 207.23979Q70.03438 208.16167 69.40938 208.67729Q68.8 209.17729 67.84688 209.17729Q66.6125 209.17729 65.89375 208.28667Q65.05 207.22417 65.05 204.80229ZM66.12813 204.80229Q66.12813 206.91167 66.62813 207.61479Q67.12813 208.31792 67.84688 208.31792Q68.58125 208.31792 69.06563 207.61479Q69.56563 206.91167 69.56563 204.80229Q69.56563 202.67729 69.06563 201.98979Q68.58125 201.28667 67.83125 201.28667Q67.1125 201.28667 66.675 201.89604Q66.12813 202.67729 66.12813 204.80229ZM72.6125 209.03667L72.6125 207.83354L73.81563 207.83354L73.81563 209.03667Q73.81563 209.69292 73.58125 210.09917Q73.34688 210.52104 72.84688 210.73979L72.55 210.28667Q72.87813 210.14604 73.03438 209.84917Q73.19063 209.56792 73.22188 209.03667L72.6125 209.03667ZM75.05 204.80229Q75.05 203.27104 75.3625 202.34917Q75.675 201.41167 76.28438 200.91167Q76.90938 200.41167 77.84688 200.41167Q78.53438 200.41167 79.05 200.69292Q79.58125 200.97417 79.925 201.50542Q80.26875 202.02104 80.45625 202.77104Q80.64375 203.52104 80.64375 204.80229Q80.64375 206.31792 80.33125 207.23979Q80.03438 208.16167 79.40938 208.67729Q78.8 209.17729 77.84688 209.17729Q76.6125 209.17729 75.89375 208.28667Q75.05 207.22417 75.05 204.80229ZM76.12813 204.80229Q76.12813 206.91167 76.62813 207.61479Q77.12813 208.31792 77.84688 208.31792Q78.58125 208.31792 79.06563 207.61479Q79.56563 206.91167 79.56563 204.80229Q79.56563 202.67729 79.06563 201.98979Q78.58125 201.28667 77.83125 201.28667Q77.1125 201.28667 76.675 201.89604Q76.12813 202.67729 76.12813 204.80229ZM82.05 204.80229Q82.05 203.27104 82.3625 202.34917Q82.675 201.41167 83.28438 200.91167Q83.90938 200.41167 84.84688 200.41167Q85.53438 200.41167 86.05 200.69292Q86.58125 200.97417 86.925 201.50542Q87.26875 202.02104 87.45625 202.77104Q87.64375 203.52104 87.64375 204.80229Q87.64375 206.31792 87.33125 207.23979Q87.03438 208.16167 86.40938 208.67729Q85.8 209.17729 84.84688 209.17729Q83.6125 209.17729 82.89375 208.28667Q82.05 207.22417 82.05 204.80229ZM83.12813 204.80229Q83.12813 206.91167 83.62813 207.61479Q84.12813 208.31792 84.84688 208.31792Q85.58125 208.31792 86.06563 207.61479Q86.56563 206.91167 86.56563 204.80229Q86.56563 202.67729 86.06563 201.98979Q85.58125 201.28667 84.83125 201.28667Q84.1125 201.28667 83.675 201.89604Q83.12813 202.67729 83.12813 204.80229ZM89.05 204.80229Q89.05 203.27104 89.3625 202.34917Q89.675 201.41167 90.28438 200.91167Q90.90938 200.41167 91.84688 200.41167Q92.53438 200.41167 93.05 200.69292Q93.58125 200.97417 93.925 201.50542Q94.26875 202.02104 94.45625 202.77104Q94.64375 203.52104 94.64375 204.80229Q94.64375 206.31792 94.33125 207.23979Q94.03438 208.16167 93.40938 208.67729Q92.8 209.17729 91.84688 209.17729Q90.6125 209.17729 89.89375 208.28667Q89.05 207.22417 89.05 204.80229ZM90.12813 204.80229Q90.12813 206.91167 90.62813 207.61479Q91.12813 208.31792 91.84688 208.31792Q92.58125 208.31792 93.06563 207.61479Q93.56563 206.91167 93.56563 204.80229Q93.56563 202.67729 93.06563 201.98979Q92.58125 201.28667 91.83125 201.28667Q91.1125 201.28667 90.675 201.89604Q90.12813 202.67729 90.12813 204.80229Z" fill-rule="nonzero"/><path fill="#000000" d="M58.1125 153.86125L58.1125 152.84563L63.675 152.84563L63.675 153.67375Q62.8625 154.54875 62.05 156.00188Q61.253124 157.43938 60.815624 158.97063Q60.4875 160.04875 60.409374 161.33L59.315624 161.33Q59.33125 160.31438 59.70625 158.87688Q60.096874 157.43938 60.8 156.11125Q61.51875 154.78313 62.33125 153.86125L58.1125 153.86125ZM65.05 159.08L66.15938 158.98625Q66.28438 159.79875 66.72188 160.205Q67.175 160.61125 67.81563 160.61125Q68.56563 160.61125 69.09688 160.03313Q69.62813 159.455 69.62813 158.5175Q69.62813 157.61125 69.1125 157.09563Q68.6125 156.56438 67.78438 156.56438Q67.28438 156.56438 66.8625 156.79875Q66.45625 157.03313 66.22188 157.3925L65.2375 157.2675L66.06563 152.86125L70.34688 152.86125L70.34688 153.86125L66.90938 153.86125L66.45625 156.17375Q67.22188 155.62688 68.06563 155.62688Q69.19063 155.62688 69.95625 156.40813Q70.7375 157.18938 70.7375 158.42375Q70.7375 159.58 70.06563 160.43938Q69.2375 161.47063 67.81563 161.47063Q66.64375 161.47063 65.89375 160.81438Q65.15938 160.15813 65.05 159.08ZM72.6125 161.33L72.6125 160.12688L73.81563 160.12688L73.81563 161.33Q73.81563 161.98625 73.58125 162.3925Q73.34688 162.81438 72.84688 163.03313L72.55 162.58Q72.87813 162.43938 73.03438 162.1425Q73.19063 161.86125 73.22188 161.33L72.6125 161.33ZM75.05 157.09563Q75.05 155.56438 75.3625 154.6425Q75.675 153.705 76.28438 153.205Q76.90938 152.705 77.84688 152.705Q78.53438 152.705 79.05 152.98625Q79.58125 153.2675 79.925 153.79875Q80.26875 154.31438 80.45625 155.06438Q80.64375 155.81438 80.64375 157.09563Q80.64375 158.61125 80.33125 159.53313Q80.03438 160.455 79.40938 160.97063Q78.8 161.47063 77.84688 161.47063Q76.6125 161.47063 75.89375 160.58Q75.05 159.5175 75.05 157.09563ZM76.12813 157.09563Q76.12813 159.205 76.62813 159.90813Q77.12813 160.61125 77.84688 160.61125Q78.58125 160.61125 79.06563 159.90813Q79.56563 159.205 79.56563 157.09563Q79.56563 154.97063 79.06563 154.28313Q78.58125 153.58 77.83125 153.58Q77.1125 153.58 76.675 154.18938Q76.12813 154.97063 76.12813 157.09563ZM82.05 157.09563Q82.05 155.56438 82.3625 154.6425Q82.675 153.705 83.28438 153.205Q83.90938 152.705 84.84688 152.705Q85.53438 152.705 86.05 152.98625Q86.58125 153.2675 86.925 153.79875Q87.26875 154.31438 87.45625 155.06438Q87.64375 155.81438 87.64375 157.09563Q87.64375 158.61125 87.33125 159.53313Q87.03438 160.455 86.40938 160.97063Q85.8 161.47063 84.84688 161.47063Q83.6125 161.47063 82.89375 160.58Q82.05 159.5175 82.05 157.09563ZM83.12813 157.09563Q83.12813 159.205 83.62813 159.90813Q84.12813 160.61125 84.84688 160.61125Q85.58125 160.61125 86.06563 159.90813Q86.56563 159.205 86.56563 157.09563Q86.56563 154.97063 86.06563 154.28313Q85.58125 153.58 84.83125 153.58Q84.1125 153.58 83.675 154.18938Q83.12813 154.97063 83.12813 157.09563ZM89.05 157.09563Q89.05 155.56438 89.3625 154.6425Q89.675 153.705 90.28438 153.205Q90.90938 152.705 91.84688 152.705Q92.53438 152.705 93.05 152.98625Q93.58125 153.2675 93.925 153.79875Q94.26875 154.31438 94.45625 155.06438Q94.64375 155.81438 94.64375 157.09563Q94.64375 158.61125 94.33125 159.53313Q94.03438 160.455 93.40938 160.97063Q92.8 161.47063 91.84688 161.47063Q90.6125 161.47063 89.89375 160.58Q89.05 159.5175 89.05 157.09563ZM90.12813 157.09563Q90.12813 159.205 90.62813 159.90813Q91.12813 160.61125 91.84688 160.61125Q92.58125 160.61125 93.06563 159.90813Q93.56563 159.205 93.56563 157.09563Q93.56563 154.97063 93.06563 154.28313Q92.58125 153.58 91.83125 153.58Q91.1125 153.58 90.675 154.18938Q90.12813 154.97063 90.12813 157.09563Z" fill-rule="nonzero"/><path fill="#000000" d="M55.01875 113.62334L53.971874 113.62334L53.971874 106.90459Q53.58125 107.26396 52.95625 107.63896Q52.346874 107.99834 51.8625 108.17021L51.8625 107.15459Q52.7375 106.73271 53.39375 106.15459Q54.065624 105.56084 54.346874 104.99834L55.01875 104.99834L55.01875 113.62334ZM58.05 109.38896Q58.05 107.85771 58.3625 106.93584Q58.675 105.99834 59.284374 105.49834Q59.909374 104.99834 60.846874 104.99834Q61.534374 104.99834 62.05 105.27959Q62.58125 105.56084 62.925 106.09209Q63.26875 106.60771 63.45625 107.35771Q63.64375 108.10771 63.64375 109.38896Q63.64375 110.90459 63.33125 111.82646Q63.034374 112.74834 62.409374 113.26396Q61.8 113.76396 60.846874 113.76396Q59.6125 113.76396 58.89375 112.87334Q58.05 111.81084 58.05 109.38896ZM59.128124 109.38896Q59.128124 111.49834 59.628124 112.20146Q60.128124 112.90459 60.846874 112.90459Q61.58125 112.90459 62.065624 112.20146Q62.565624 111.49834 62.565624 109.38896Q62.565624 107.26396 62.065624 106.57646Q61.58125 105.87334 60.83125 105.87334Q60.1125 105.87334 59.675 106.48271Q59.128124 107.26396 59.128124 109.38896ZM65.05 109.38896Q65.05 107.85771 65.3625 106.93584Q65.675 105.99834 66.28438 105.49834Q66.90938 104.99834 67.84688 104.99834Q68.53438 104.99834 69.05 105.27959Q69.58125 105.56084 69.925 106.09209Q70.26875 106.60771 70.45625 107.35771Q70.64375 108.10771 70.64375 109.38896Q70.64375 110.90459 70.33125 111.82646Q70.03438 112.74834 69.40938 113.26396Q68.8 113.76396 67.84688 113.76396Q66.6125 113.76396 65.89375 112.87334Q65.05 111.81084 65.05 109.38896ZM66.12813 109.38896Q66.12813 111.49834 66.62813 112.20146Q67.12813 112.90459 67.84688 112.90459Q68.58125 112.90459 69.06563 112.20146Q69.56563 111.49834 69.56563 109.38896Q69.56563 107.26396 69.06563 106.57646Q68.58125 105.87334 67.83125 105.87334Q67.1125 105.87334 66.675 106.48271Q66.12813 107.26396 66.12813 109.38896ZM72.6125 113.62334L72.6125 112.42021L73.81563 112.42021L73.81563 113.62334Q73.81563 114.27959 73.58125 114.68584Q73.34688 115.10771 72.84688 115.32646L72.55 114.87334Q72.87813 114.73271 73.03438 114.43584Q73.19063 114.15459 73.22188 113.62334L72.6125 113.62334ZM75.05 109.38896Q75.05 107.85771 75.3625 106.93584Q75.675 105.99834 76.28438 105.49834Q76.90938 104.99834 77.84688 104.99834Q78.53438 104.99834 79.05 105.27959Q79.58125 105.56084 79.925 106.09209Q80.26875 106.60771 80.45625 107.35771Q80.64375 108.10771 80.64375 109.38896Q80.64375 110.90459 80.33125 111.82646Q80.03438 112.74834 79.40938 113.26396Q78.8 113.76396 77.84688 113.76396Q76.6125 113.76396 75.89375 112.87334Q75.05 111.81084 75.05 109.38896ZM76.12813 109.38896Q76.12813 111.49834 76.62813 112.20146Q77.12813 112.90459 77.84688 112.90459Q78.58125 112.90459 79.06563 112.20146Q79.56563 111.49834 79.56563 109.38896Q79.56563 107.26396 79.06563 106.57646Q78.58125 105.87334 77.83125 105.87334Q77.1125 105.87334 76.675 106.48271Q76.12813 107.26396 76.12813 109.38896ZM82.05 109.38896Q82.05 107.85771 82.3625 106.93584Q82.675 105.99834 83.28438 105.49834Q83.90938 104.99834 84.84688 104.99834Q85.53438 104.99834 86.05 105.27959Q86.58125 105.56084 86.925 106.09209Q87.26875 106.60771 87.45625 107.35771Q87.64375 108.10771 87.64375 109.38896Q87.64375 110.90459 87.33125 111.82646Q87.03438 112.74834 86.40938 113.26396Q85.8 113.76396 84.84688 113.76396Q83.6125 113.76396 82.89375 112.87334Q82.05 111.81084 82.05 109.38896ZM83.12813 109.38896Q83.12813 111.49834 83.62813 112.20146Q84.12813 112.90459 84.84688 112.90459Q85.58125 112.90459 86.06563 112.20146Q86.56563 111.49834 86.56563 109.38896Q86.56563 107.26396 86.06563 106.57646Q85.58125 105.87334 84.83125 105.87334Q84.1125 105.87334 83.675 106.48271Q83.12813 107.26396 83.12813 109.38896ZM89.05 109.38896Q89.05 107.85771 89.3625 106.93584Q89.675 105.99834 90.28438 105.49834Q90.90938 104.99834 91.84688 104.99834Q92.53438 104.99834 93.05 105.27959Q93.58125 105.56084 93.925 106.09209Q94.26875 106.60771 94.45625 107.35771Q94.64375 108.10771 94.64375 109.38896Q94.64375 110.90459 94.33125 111.82646Q94.03438 112.74834 93.40938 113.26396Q92.8 113.76396 91.84688 113.76396Q90.6125 113.76396 89.89375 112.87334Q89.05 111.81084 89.05 109.38896ZM90.12813 109.38896Q90.12813 111.49834 90.62813 112.20146Q91.12813 112.90459 91.84688 112.90459Q92.58125 112.90459 93.06563 112.20146Q93.56563 111.49834 93.56563 109.38896Q93.56563 107.26396 93.06563 106.57646Q92.58125 105.87334 91.83125 105.87334Q91.1125 105.87334 90.675 106.48271Q90.12813 107.26396 90.12813 109.38896Z" fill-rule="nonzero"/><path fill="#000000" d="M55.01875 65.916664L53.971874 65.916664L53.971874 59.197914Q53.58125 59.55729 52.95625 59.93229Q52.346874 60.291664 51.8625 60.46354L51.8625 59.447914Q52.7375 59.02604 53.39375 58.447914Q54.065624 57.854164 54.346874 57.291664L55.01875 57.291664L55.01875 65.916664ZM63.596874 64.90104L63.596874 65.916664L57.909374 65.916664Q57.909374 65.541664 58.034374 65.18229Q58.253124 64.604164 58.721874 64.041664Q59.20625 63.479164 60.1125 62.74479Q61.51875 61.58854 62.003124 60.916664Q62.503124 60.24479 62.503124 59.65104Q62.503124 59.02604 62.05 58.604164Q61.596874 58.166664 60.878124 58.166664Q60.1125 58.166664 59.659374 58.61979Q59.20625 59.072914 59.190624 59.885414L58.1125 59.77604Q58.221874 58.55729 58.940624 57.93229Q59.675 57.291664 60.909374 57.291664Q62.14375 57.291664 62.8625 57.979164Q63.58125 58.666664 63.58125 59.68229Q63.58125 60.197914 63.3625 60.697914Q63.159374 61.18229 62.659374 61.74479Q62.175 62.291664 61.05 63.24479Q60.096874 64.041664 59.815624 64.33854Q59.55 64.61979 59.378124 64.90104L63.596874 64.90104ZM65.05 63.666664L66.15938 63.572914Q66.28438 64.385414 66.72188 64.791664Q67.175 65.197914 67.81563 65.197914Q68.56563 65.197914 69.09688 64.61979Q69.62813 64.041664 69.62813 63.104164Q69.62813 62.197914 69.1125 61.68229Q68.6125 61.15104 67.78438 61.15104Q67.28438 61.15104 66.8625 61.385414Q66.45625 61.61979 66.22188 61.979164L65.2375 61.854164L66.06563 57.447914L70.34688 57.447914L70.34688 58.447914L66.90938 58.447914L66.45625 60.760414Q67.22188 60.21354 68.06563 60.21354Q69.19063 60.21354 69.95625 60.99479Q70.7375 61.77604 70.7375 63.010414Q70.7375 64.166664 70.06563 65.02604Q69.2375 66.05729 67.81563 66.05729Q66.64375 66.05729 65.89375 65.40104Q65.15938 64.74479 65.05 63.666664ZM72.6125 65.916664L72.6125 64.71354L73.81563 64.71354L73.81563 65.916664Q73.81563 66.572914 73.58125 66.979164Q73.34688 67.40104 72.84688 67.61979L72.55 67.166664Q72.87813 67.02604 73.03438 66.729164Q73.19063 66.447914 73.22188 65.916664L72.6125 65.916664ZM75.05 61.68229Q75.05 60.15104 75.3625 59.229164Q75.675 58.291664 76.28438 57.791664Q76.90938 57.291664 77.84688 57.291664Q78.53438 57.291664 79.05 57.572914Q79.58125 57.854164 79.925 58.385414Q80.26875 58.90104 80.45625 59.65104Q80.64375 60.40104 80.64375 61.68229Q80.64375 63.197914 80.33125 64.11979Q80.03438 65.041664 79.40938 65.55729Q78.8 66.05729 77.84688 66.05729Q76.6125 66.05729 75.89375 65.166664Q75.05 64.104164 75.05 61.68229ZM76.12813 61.68229Q76.12813 63.791664 76.62813 64.49479Q77.12813 65.197914 77.84688 65.197914Q78.58125 65.197914 79.06563 64.49479Q79.56563 63.791664 79.56563 61.68229Q79.56563 59.55729 79.06563 58.86979Q78.58125 58.166664 77.83125 58.166664Q77.1125 58.166664 76.675 58.77604Q76.12813 59.55729 76.12813 61.68229ZM82.05 61.68229Q82.05 60.15104 82.3625 59.229164Q82.675 58.291664 83.28438 57.791664Q83.90938 57.291664 84.84688 57.291664Q85.53438 57.291664 86.05 57.572914Q86.58125 57.854164 86.925 58.385414Q87.26875 58.90104 87.45625 59.65104Q87.64375 60.40104 87.64375 61.68229Q87.64375 63.197914 87.33125 64.11979Q87.03438 65.041664 86.40938 65.55729Q85.8 66.05729 84.84688 66.05729Q83.6125 66.05729 82.89375 65.166664Q82.05 64.104164 82.05 61.68229ZM83.12813 61.68229Q83.12813 63.791664 83.62813 64.49479Q84.12813 65.197914 84.84688 65.197914Q85.58125 65.197914 86.06563 64.49479Q86.56563 63.791664 86.56563 61.68229Q86.56563 59.55729 86.06563 58.86979Q85.58125 58.166664 84.83125 58.166664Q84.1125 58.166664 83.675 58.77604Q83.12813 59.55729 83.12813 61.68229ZM89.05 61.68229Q89.05 60.15104 89.3625 59.229164Q89.675 58.291664 90.28438 57.791664Q90.90938 57.291664 91.84688 57.291664Q92.53438 57.291664 93.05 57.572914Q93.58125 57.854164 93.925 58.385414Q94.26875 58.90104 94.45625 59.65104Q94.64375 60.40104 94.64375 61.68229Q94.64375 63.197914 94.33125 64.11979Q94.03438 65.041664 93.40938 65.55729Q92.8 66.05729 91.84688 66.05729Q90.6125 66.05729 89.89375 65.166664Q89.05 64.104164 89.05 61.68229ZM90.12813 61.68229Q90.12813 63.791664 90.62813 64.49479Q91.12813 65.197914 91.84688 65.197914Q92.58125 65.197914 93.06563 64.49479Q93.56563 63.791664 93.56563 61.68229Q93.56563 59.55729 93.06563 58.86979Q92.58125 58.166664 91.83125 58.166664Q91.1125 58.166664 90.675 58.77604Q90.12813 59.55729 90.12813 61.68229Z" fill-rule="nonzero"/><path fill="#000000" d="M131.38542 315.0125L132.41667 314.8719Q132.44792 315.85626 132.77605 316.21564Q133.10417 316.575 133.69792 316.575Q134.1198 316.575 134.4323 316.3875Q134.7448 316.1844 134.85417 315.85626Q134.97917 315.5125 134.97917 314.77814L134.97917 308.85626L136.10417 308.85626L136.10417 314.71564Q136.10417 315.79376 135.83855 316.3875Q135.58855 316.98126 135.02605 317.29376Q134.46355 317.59064 133.69792 317.59064Q132.57292 317.59064 131.96355 316.95Q131.3698 316.29376 131.38542 315.0125ZM141.91667 317.45L141.91667 316.52814Q141.1823 317.59064 139.9323 317.59064Q139.38542 317.59064 138.90105 317.3875Q138.4323 317.16876 138.19792 316.85626Q137.96355 316.52814 137.8698 316.0594Q137.8073 315.7625 137.8073 315.075L137.8073 311.23126L138.8698 311.23126L138.8698 314.6844Q138.8698 315.4969 138.9323 315.79376Q139.02605 316.2 139.33855 316.45Q139.66667 316.6844 140.15105 316.6844Q140.6198 316.6844 141.02605 316.45Q141.44792 316.2 141.6198 315.77814Q141.8073 315.35626 141.8073 314.5594L141.8073 311.23126L142.85417 311.23126L142.85417 317.45L141.91667 317.45ZM144.8073 317.45L144.8073 308.85626L145.8698 308.85626L145.8698 317.45L144.8073 317.45ZM147.79167 319.84064L147.66667 318.85626Q148.01042 318.95 148.27605 318.95Q148.6198 318.95 148.82292 318.825Q149.04167 318.71564 149.1823 318.5125Q149.27605 318.34064 149.51042 317.71564Q149.52605 317.6375 149.60417 317.46564L147.22917 311.23126L148.3698 311.23126L149.66667 314.825Q149.91667 315.5125 150.1198 316.27814Q150.3073 315.54376 150.5573 314.85626L151.88542 311.23126L152.9323 311.23126L150.57292 317.5594Q150.1823 318.575 149.97917 318.96564Q149.69792 319.4969 149.32292 319.73126Q148.96355 319.98126 148.46355 319.98126Q148.16667 319.98126 147.79167 319.84064Z" fill-rule="nonzero"/><path fill="#000000" d="M202.50937 317.45L205.80624 308.85626L207.025 308.85626L210.54062 317.45L209.25937 317.45L208.24374 314.84064L204.66562 314.84064L203.7125 317.45L202.50937 317.45ZM204.99374 313.91876L207.9 313.91876L207.00937 311.54376Q206.5875 310.46564 206.4 309.7625Q206.22812 310.59064 205.93124 311.40314L204.99374 313.91876ZM214.4 317.45L214.4 316.52814Q213.66562 317.59064 212.41562 317.59064Q211.86874 317.59064 211.38437 317.3875Q210.91562 317.16876 210.68124 316.85626Q210.44687 316.52814 210.35312 316.0594Q210.29062 315.7625 210.29062 315.075L210.29062 311.23126L211.35312 311.23126L211.35312 314.6844Q211.35312 315.4969 211.41562 315.79376Q211.50937 316.2 211.82187 316.45Q212.15 316.6844 212.63437 316.6844Q213.10312 316.6844 213.50937 316.45Q213.93124 316.2 214.10312 315.77814Q214.29062 315.35626 214.29062 314.5594L214.29062 311.23126L215.3375 311.23126L215.3375 317.45L214.4 317.45ZM217.11874 317.96564L218.15 318.1219Q218.2125 318.59064 218.50937 318.8094Q218.9 319.10626 219.57187 319.10626Q220.30624 319.10626 220.69687 318.8094Q221.10312 318.5125 221.24374 317.9969Q221.3375 317.66876 221.32187 316.6375Q220.63437 317.45 219.60312 317.45Q218.32187 317.45 217.61874 316.52814Q216.91562 315.59064 216.91562 314.3094Q216.91562 313.41876 217.22812 312.66876Q217.55624 311.90314 218.16562 311.4969Q218.775 311.09064 219.60312 311.09064Q220.7125 311.09064 221.43124 311.98126L221.43124 311.23126L222.4 311.23126L222.4 316.60626Q222.4 318.0594 222.10312 318.66876Q221.80624 319.27814 221.16562 319.6219Q220.525 319.98126 219.5875 319.98126Q218.47812 319.98126 217.79062 319.48126Q217.10312 318.98126 217.11874 317.96564ZM217.99374 314.23126Q217.99374 315.45 218.47812 316.0125Q218.9625 316.575 219.69687 316.575Q220.43124 316.575 220.91562 316.0125Q221.41562 315.45 221.41562 314.2625Q221.41562 313.1219 220.9 312.54376Q220.4 311.96564 219.68124 311.96564Q218.97812 311.96564 218.47812 312.54376Q217.99374 313.10626 217.99374 314.23126ZM228.4 317.45L228.4 316.52814Q227.66562 317.59064 226.41562 317.59064Q225.86874 317.59064 225.38437 317.3875Q224.91562 317.16876 224.68124 316.85626Q224.44687 316.52814 224.35312 316.0594Q224.29062 315.7625 224.29062 315.075L224.29062 311.23126L225.35312 311.23126L225.35312 314.6844Q225.35312 315.4969 225.41562 315.79376Q225.50937 316.2 225.82187 316.45Q226.15 316.6844 226.63437 316.6844Q227.10312 316.6844 227.50937 316.45Q227.93124 316.2 228.10312 315.77814Q228.29062 315.35626 228.29062 314.5594L228.29062 311.23126L229.3375 311.23126L229.3375 317.45L228.4 317.45ZM230.9 315.59064L231.93124 315.4344Q232.025 316.0594 232.41562 316.3875Q232.82187 316.71564 233.55624 316.71564Q234.275 316.71564 234.61874 316.4344Q234.97812 316.1375 234.97812 315.73126Q234.97812 315.3719 234.66562 315.16876Q234.44687 315.02814 233.5875 314.8094Q232.43124 314.5125 231.97812 314.3094Q231.54062 314.09064 231.30624 313.71564Q231.07187 313.34064 231.07187 312.8719Q231.07187 312.46564 231.25937 312.10626Q231.44687 311.7469 231.775 311.5125Q232.025 311.34064 232.44687 311.21564Q232.86874 311.09064 233.36874 311.09064Q234.0875 311.09064 234.63437 311.3094Q235.19687 311.5125 235.4625 311.8719Q235.72812 312.23126 235.82187 312.825L234.79062 312.96564Q234.72812 312.4969 234.38437 312.23126Q234.05624 311.95 233.43124 311.95Q232.7125 311.95 232.4 312.2Q232.0875 312.4344 232.0875 312.7625Q232.0875 312.96564 232.2125 313.1219Q232.35312 313.29376 232.61874 313.40314Q232.775 313.46564 233.55624 313.66876Q234.68124 313.98126 235.11874 314.16876Q235.55624 314.35626 235.80624 314.71564Q236.05624 315.075 236.05624 315.6219Q236.05624 316.15314 235.74374 316.6219Q235.44687 317.075 234.86874 317.34064Q234.29062 317.59064 233.55624 317.59064Q232.3375 317.59064 231.69687 317.09064Q231.07187 316.575 230.9 315.59064ZM240.61874 316.5125L240.775 317.4344Q240.32187 317.52814 239.97812 317.52814Q239.4 317.52814 239.0875 317.35626Q238.775 317.16876 238.63437 316.8719Q238.50937 316.575 238.50937 315.6219L238.50937 312.04376L237.74374 312.04376L237.74374 311.23126L238.50937 311.23126L238.50937 309.6844L239.55624 309.0594L239.55624 311.23126L240.61874 311.23126L240.61874 312.04376L239.55624 312.04376L239.55624 315.6844Q239.55624 316.1375 239.60312 316.2625Q239.66562 316.3875 239.79062 316.46564Q239.91562 316.54376 240.15 316.54376Q240.3375 316.54376 240.61874 316.5125Z" fill-rule="nonzero"/><path fill="#000000" d="M271.5552 314.6844L272.6177 314.59064Q272.69583 315.2469 272.97708 315.65314Q273.25833 316.0594 273.83646 316.325Q274.4302 316.575 275.16458 316.575Q275.8052 316.575 276.3052 316.3875Q276.8052 316.1844 277.03958 315.85626Q277.28958 315.5125 277.28958 315.1219Q277.28958 314.71564 277.0552 314.41876Q276.82083 314.10626 276.28958 313.90314Q275.9302 313.7625 274.7427 313.48126Q273.57083 313.2 273.10208 312.95Q272.47708 312.6219 272.1802 312.15314Q271.88333 311.66876 271.88333 311.075Q271.88333 310.4344 272.2427 309.8719Q272.6177 309.29376 273.32083 309.0125Q274.03958 308.71564 274.89896 308.71564Q275.85208 308.71564 276.58646 309.02814Q277.32083 309.325 277.71146 309.9344Q278.10208 310.52814 278.13333 311.27814L277.03958 311.35626Q276.94583 310.54376 276.4302 310.1375Q275.9302 309.71564 274.94583 309.71564Q273.91458 309.71564 273.44583 310.09064Q272.97708 310.46564 272.97708 310.9969Q272.97708 311.46564 273.3052 311.7625Q273.63333 312.0594 275.00833 312.3719Q276.39896 312.6844 276.91458 312.91876Q277.66458 313.27814 278.02396 313.8094Q278.38333 314.325 278.38333 315.02814Q278.38333 315.71564 277.9927 316.325Q277.60208 316.91876 276.8677 317.2625Q276.13333 317.59064 275.21146 317.59064Q274.03958 317.59064 273.2427 317.2625Q272.46146 316.91876 272.00833 316.23126Q271.57083 315.54376 271.5552 314.6844ZM284.0552 315.45L285.14896 315.575Q284.89896 316.52814 284.19583 317.0594Q283.4927 317.59064 282.41458 317.59064Q281.0552 317.59064 280.2427 316.7469Q279.44583 315.90314 279.44583 314.3875Q279.44583 312.825 280.25833 311.96564Q281.07083 311.09064 282.35208 311.09064Q283.60208 311.09064 284.38333 311.9344Q285.1802 312.77814 285.1802 314.325Q285.1802 314.41876 285.1802 314.60626L280.53958 314.60626Q280.60208 315.6375 281.1177 316.1844Q281.63333 316.71564 282.41458 316.71564Q282.9927 316.71564 283.39896 316.41876Q283.82083 316.10626 284.0552 315.45ZM280.60208 313.7469L284.07083 313.7469Q284.00833 312.95 283.6802 312.5594Q283.16458 311.95 282.3677 311.95Q281.63333 311.95 281.13333 312.4344Q280.64896 312.91876 280.60208 313.7469ZM286.8052 319.84064L286.8052 311.23126L287.75833 311.23126L287.75833 312.02814Q288.10208 311.5594 288.52396 311.325Q288.96146 311.09064 289.57083 311.09064Q290.3677 311.09064 290.97708 311.4969Q291.58646 311.90314 291.88333 312.65314Q292.19583 313.40314 292.19583 314.29376Q292.19583 315.2469 291.85208 316.0125Q291.52396 316.77814 290.8677 317.1844Q290.21146 317.59064 289.4927 317.59064Q288.96146 317.59064 288.53958 317.3719Q288.1177 317.1375 287.85208 316.8094L287.85208 319.84064L286.8052 319.84064ZM287.75833 314.3719Q287.75833 315.575 288.2427 316.15314Q288.72708 316.71564 289.41458 316.71564Q290.1177 316.71564 290.6177 316.1219Q291.1177 315.52814 291.1177 314.27814Q291.1177 313.09064 290.63333 312.5125Q290.14896 311.91876 289.46146 311.91876Q288.78958 311.91876 288.27396 312.54376Q287.75833 313.16876 287.75833 314.3719ZM296.10208 316.5125L296.25833 317.4344Q295.8052 317.52814 295.46146 317.52814Q294.88333 317.52814 294.57083 317.35626Q294.25833 317.16876 294.1177 316.8719Q293.9927 316.575 293.9927 315.6219L293.9927 312.04376L293.22708 312.04376L293.22708 311.23126L293.9927 311.23126L293.9927 309.6844L295.03958 309.0594L295.03958 311.23126L296.10208 311.23126L296.10208 312.04376L295.03958 312.04376L295.03958 315.6844Q295.03958 316.1375 295.08646 316.2625Q295.14896 316.3875 295.27396 316.46564Q295.39896 316.54376 295.63333 316.54376Q295.82083 316.54376 296.10208 316.5125ZM301.0552 315.45L302.14896 315.575Q301.89896 316.52814 301.19583 317.0594Q300.4927 317.59064 299.41458 317.59064Q298.0552 317.59064 297.2427 316.7469Q296.44583 315.90314 296.44583 314.3875Q296.44583 312.825 297.25833 311.96564Q298.07083 311.09064 299.35208 311.09064Q300.60208 311.09064 301.38333 311.9344Q302.1802 312.77814 302.1802 314.325Q302.1802 314.41876 302.1802 314.60626L297.53958 314.60626Q297.60208 315.6375 298.1177 316.1844Q298.63333 316.71564 299.41458 316.71564Q299.9927 316.71564 300.39896 316.41876Q300.82083 316.10626 301.0552 315.45ZM297.60208 313.7469L301.07083 313.7469Q301.00833 312.95 300.6802 312.5594Q300.16458 311.95 299.3677 311.95Q298.63333 311.95 298.13333 312.4344Q297.64896 312.91876 297.60208 313.7469ZM303.8052 317.45L303.8052 311.23126L304.7427 311.23126L304.7427 312.10626Q305.03958 311.6375 305.52396 311.3719Q306.00833 311.09064 306.63333 311.09064Q307.32083 311.09064 307.75833 311.3719Q308.21146 311.65314 308.38333 312.16876Q309.13333 311.09064 310.3052 311.09064Q311.2427 311.09064 311.72708 311.60626Q312.22708 312.10626 312.22708 313.1844L312.22708 317.45L311.1802 317.45L311.1802 313.52814Q311.1802 312.90314 311.07083 312.6219Q310.97708 312.34064 310.71146 312.16876Q310.44583 311.9969 310.07083 311.9969Q309.41458 311.9969 308.97708 312.4344Q308.5552 312.8719 308.5552 313.84064L308.5552 317.45L307.4927 317.45L307.4927 313.40314Q307.4927 312.7 307.22708 312.35626Q306.97708 311.9969 306.39896 311.9969Q305.94583 311.9969 305.57083 312.23126Q305.19583 312.46564 305.02396 312.91876Q304.85208 313.3719 304.85208 314.21564L304.85208 317.45L303.8052 317.45ZM315.77396 317.45L314.78958 317.45L314.78958 308.85626L315.85208 308.85626L315.85208 311.91876Q316.52396 311.09064 317.5552 311.09064Q318.13333 311.09064 318.63333 311.325Q319.14896 311.54376 319.47708 311.96564Q319.82083 312.3875 320.00833 312.98126Q320.19583 313.575 320.19583 314.2469Q320.19583 315.84064 319.39896 316.71564Q318.60208 317.59064 317.50833 317.59064Q316.39896 317.59064 315.77396 316.66876L315.77396 317.45ZM315.75833 314.29376Q315.75833 315.40314 316.07083 315.90314Q316.57083 316.71564 317.41458 316.71564Q318.10208 316.71564 318.60208 316.1219Q319.1177 315.52814 319.1177 314.325Q319.1177 313.10626 318.63333 312.52814Q318.14896 311.95 317.46146 311.95Q316.77396 311.95 316.25833 312.5594Q315.75833 313.15314 315.75833 314.29376ZM326.0552 315.45L327.14896 315.575Q326.89896 316.52814 326.19583 317.0594Q325.4927 317.59064 324.41458 317.59064Q323.0552 317.59064 322.2427 316.7469Q321.44583 315.90314 321.44583 314.3875Q321.44583 312.825 322.25833 311.96564Q323.07083 311.09064 324.35208 311.09064Q325.60208 311.09064 326.38333 311.9344Q327.1802 312.77814 327.1802 314.325Q327.1802 314.41876 327.1802 314.60626L322.53958 314.60626Q322.60208 315.6375 323.1177 316.1844Q323.63333 316.71564 324.41458 316.71564Q324.9927 316.71564 325.39896 316.41876Q325.82083 316.10626 326.0552 315.45ZM322.60208 313.7469L326.07083 313.7469Q326.00833 312.95 325.6802 312.5594Q325.16458 311.95 324.3677 311.95Q323.63333 311.95 323.13333 312.4344Q322.64896 312.91876 322.60208 313.7469ZM328.78958 317.45L328.78958 311.23126L329.7427 311.23126L329.7427 312.16876Q330.10208 311.5125 330.39896 311.3094Q330.71146 311.09064 331.08646 311.09064Q331.6177 311.09064 332.16458 311.41876L331.8052 312.40314Q331.41458 312.16876 331.03958 312.16876Q330.6802 312.16876 330.39896 312.3875Q330.13333 312.59064 330.02396 312.96564Q329.83646 313.52814 329.83646 314.1844L329.83646 317.45L328.78958 317.45Z" fill-rule="nonzero"/><path fill="#000000" d="M360.5698 313.2625Q360.5698 311.1219 361.71042 309.91876Q362.86667 308.7 364.67917 308.7Q365.8823 308.7 366.83542 309.27814Q367.78854 309.84064 368.28854 310.85626Q368.78854 311.8719 368.78854 313.16876Q368.78854 314.46564 368.2573 315.4969Q367.72604 316.52814 366.7573 317.0594Q365.80417 317.59064 364.67917 317.59064Q363.46042 317.59064 362.5073 317.0125Q361.55417 316.41876 361.05417 315.41876Q360.5698 314.40314 360.5698 313.2625ZM361.74167 313.27814Q361.74167 314.84064 362.5698 315.73126Q363.41354 316.6219 364.67917 316.6219Q365.96042 316.6219 366.78854 315.73126Q367.61667 314.825 367.61667 313.15314Q367.61667 312.10626 367.2573 311.325Q366.91354 310.54376 366.22604 310.1219Q365.53854 309.6844 364.6948 309.6844Q363.49167 309.6844 362.61667 310.5125Q361.74167 311.34064 361.74167 313.27814ZM373.85104 315.16876L374.8823 315.3094Q374.71042 316.3719 374.0073 316.98126Q373.30417 317.59064 372.28854 317.59064Q371.0073 317.59064 370.22604 316.7625Q369.46042 315.91876 369.46042 314.35626Q369.46042 313.35626 369.78854 312.60626Q370.1323 311.84064 370.80417 311.46564Q371.49167 311.09064 372.30417 311.09064Q373.30417 311.09064 373.9448 311.60626Q374.60104 312.10626 374.78854 313.0594L373.7573 313.21564Q373.61667 312.59064 373.24167 312.27814Q372.86667 311.95 372.33542 311.95Q371.53854 311.95 371.03854 312.52814Q370.53854 313.09064 370.53854 314.325Q370.53854 315.59064 371.02292 316.15314Q371.5073 316.71564 372.27292 316.71564Q372.89792 316.71564 373.30417 316.34064Q373.72604 315.96564 373.85104 315.16876ZM378.08542 316.5125L378.24167 317.4344Q377.78854 317.52814 377.4448 317.52814Q376.86667 317.52814 376.55417 317.35626Q376.24167 317.16876 376.10104 316.8719Q375.97604 316.575 375.97604 315.6219L375.97604 312.04376L375.21042 312.04376L375.21042 311.23126L375.97604 311.23126L375.97604 309.6844L377.02292 309.0594L377.02292 311.23126L378.08542 311.23126L378.08542 312.04376L377.02292 312.04376L377.02292 315.6844Q377.02292 316.1375 377.0698 316.2625Q377.1323 316.3875 377.2573 316.46564Q377.3823 316.54376 377.61667 316.54376Q377.80417 316.54376 378.08542 316.5125ZM378.39792 314.34064Q378.39792 312.60626 379.35104 311.77814Q380.14792 311.09064 381.30417 311.09064Q382.58542 311.09064 383.39792 311.9344Q384.22604 312.7625 384.22604 314.2469Q384.22604 315.45 383.86667 316.1375Q383.5073 316.825 382.80417 317.21564Q382.11667 317.59064 381.30417 317.59064Q380.0073 317.59064 379.1948 316.7625Q378.39792 315.91876 378.39792 314.34064ZM379.47604 314.34064Q379.47604 315.52814 379.99167 316.1219Q380.52292 316.71564 381.30417 316.71564Q382.10104 316.71564 382.61667 316.1219Q383.1323 315.52814 383.1323 314.3094Q383.1323 313.15314 382.60104 312.5594Q382.08542 311.96564 381.30417 311.96564Q380.52292 311.96564 379.99167 312.5594Q379.47604 313.1375 379.47604 314.34064ZM386.7573 317.45L385.77292 317.45L385.77292 308.85626L386.83542 308.85626L386.83542 311.91876Q387.5073 311.09064 388.53854 311.09064Q389.11667 311.09064 389.61667 311.325Q390.1323 311.54376 390.46042 311.96564Q390.80417 312.3875 390.99167 312.98126Q391.17917 313.575 391.17917 314.2469Q391.17917 315.84064 390.3823 316.71564Q389.58542 317.59064 388.49167 317.59064Q387.3823 317.59064 386.7573 316.66876L386.7573 317.45ZM386.74167 314.29376Q386.74167 315.40314 387.05417 315.90314Q387.55417 316.71564 388.39792 316.71564Q389.08542 316.71564 389.58542 316.1219Q390.10104 315.52814 390.10104 314.325Q390.10104 313.10626 389.61667 312.52814Q389.1323 311.95 388.4448 311.95Q387.7573 311.95 387.24167 312.5594Q386.74167 313.15314 386.74167 314.29376ZM397.03854 315.45L398.1323 315.575Q397.8823 316.52814 397.17917 317.0594Q396.47604 317.59064 395.39792 317.59064Q394.03854 317.59064 393.22604 316.7469Q392.42917 315.90314 392.42917 314.3875Q392.42917 312.825 393.24167 311.96564Q394.05417 311.09064 395.33542 311.09064Q396.58542 311.09064 397.36667 311.9344Q398.16354 312.77814 398.16354 314.325Q398.16354 314.41876 398.16354 314.60626L393.52292 314.60626Q393.58542 315.6375 394.10104 316.1844Q394.61667 316.71564 395.39792 316.71564Q395.97604 316.71564 396.3823 316.41876Q396.80417 316.10626 397.03854 315.45ZM393.58542 313.7469L397.05417 313.7469Q396.99167 312.95 396.66354 312.5594Q396.14792 311.95 395.35104 311.95Q394.61667 311.95 394.11667 312.4344Q393.6323 312.91876 393.58542 313.7469ZM399.77292 317.45L399.77292 311.23126L400.72604 311.23126L400.72604 312.16876Q401.08542 311.5125 401.3823 311.3094Q401.6948 311.09064 402.0698 311.09064Q402.60104 311.09064 403.14792 311.41876L402.78854 312.40314Q402.39792 312.16876 402.02292 312.16876Q401.66354 312.16876 401.3823 312.3875Q401.11667 312.59064 401.0073 312.96564Q400.8198 313.52814 400.8198 314.1844L400.8198 317.45L399.77292 317.45Z" fill-rule="nonzero"/><path fill="#000000" d="M433.89688 317.45L433.89688 308.85626L435.05313 308.85626L439.56876 315.60626L439.56876 308.85626L440.6625 308.85626L440.6625 317.45L439.49063 317.45L434.975 310.7L434.975 317.45L433.89688 317.45ZM442.38126 314.34064Q442.38126 312.60626 443.33438 311.77814Q444.13126 311.09064 445.2875 311.09064Q446.56876 311.09064 447.38126 311.9344Q448.20938 312.7625 448.20938 314.2469Q448.20938 315.45 447.85 316.1375Q447.49063 316.825 446.7875 317.21564Q446.1 317.59064 445.2875 317.59064Q443.99063 317.59064 443.17813 316.7625Q442.38126 315.91876 442.38126 314.34064ZM443.45938 314.34064Q443.45938 315.52814 443.975 316.1219Q444.50626 316.71564 445.2875 316.71564Q446.08438 316.71564 446.6 316.1219Q447.11563 315.52814 447.11563 314.3094Q447.11563 313.15314 446.58438 312.5594Q446.06876 311.96564 445.2875 311.96564Q444.50626 311.96564 443.975 312.5594Q443.45938 313.1375 443.45938 314.34064ZM451.49063 317.45L449.13126 311.23126L450.24063 311.23126L451.58438 314.95Q451.7875 315.5594 451.975 316.2Q452.11563 315.71564 452.36563 315.02814L453.75626 311.23126L454.83438 311.23126L452.475 317.45L451.49063 317.45ZM459.02188 315.45L460.11563 315.575Q459.86563 316.52814 459.1625 317.0594Q458.45938 317.59064 457.38126 317.59064Q456.02188 317.59064 455.20938 316.7469Q454.4125 315.90314 454.4125 314.3875Q454.4125 312.825 455.225 311.96564Q456.0375 311.09064 457.31876 311.09064Q458.56876 311.09064 459.35 311.9344Q460.14688 312.77814 460.14688 314.325Q460.14688 314.41876 460.14688 314.60626L455.50626 314.60626Q455.56876 315.6375 456.08438 316.1844Q456.6 316.71564 457.38126 316.71564Q457.95938 316.71564 458.36563 316.41876Q458.7875 316.10626 459.02188 315.45ZM455.56876 313.7469L459.0375 313.7469Q458.975 312.95 458.64688 312.5594Q458.13126 311.95 457.33438 311.95Q456.6 311.95 456.1 312.4344Q455.61563 312.91876 455.56876 313.7469ZM461.77188 317.45L461.77188 311.23126L462.70938 311.23126L462.70938 312.10626Q463.00626 311.6375 463.49063 311.3719Q463.975 311.09064 464.6 311.09064Q465.2875 311.09064 465.725 311.3719Q466.17813 311.65314 466.35 312.16876Q467.1 311.09064 468.27188 311.09064Q469.20938 311.09064 469.69376 311.60626Q470.19376 312.10626 470.19376 313.1844L470.19376 317.45L469.14688 317.45L469.14688 313.52814Q469.14688 312.90314 469.0375 312.6219Q468.94376 312.34064 468.67813 312.16876Q468.4125 311.9969 468.0375 311.9969Q467.38126 311.9969 466.94376 312.4344Q466.52188 312.8719 466.52188 313.84064L466.52188 317.45L465.45938 317.45L465.45938 313.40314Q465.45938 312.7 465.19376 312.35626Q464.94376 311.9969 464.36563 311.9969Q463.9125 311.9969 463.5375 312.23126Q463.1625 312.46564 462.99063 312.91876Q462.81876 313.3719 462.81876 314.21564L462.81876 317.45L461.77188 317.45ZM473.74063 317.45L472.75626 317.45L472.75626 308.85626L473.81876 308.85626L473.81876 311.91876Q474.49063 311.09064 475.52188 311.09064Q476.1 311.09064 476.6 311.325Q477.11563 311.54376 477.44376 311.96564Q477.7875 312.3875 477.975 312.98126Q478.1625 313.575 478.1625 314.2469Q478.1625 315.84064 477.36563 316.71564Q476.56876 317.59064 475.475 317.59064Q474.36563 317.59064 473.74063 316.66876L473.74063 317.45ZM473.725 314.29376Q473.725 315.40314 474.0375 315.90314Q474.5375 316.71564 475.38126 316.71564Q476.06876 316.71564 476.56876 316.1219Q477.08438 315.52814 477.08438 314.325Q477.08438 313.10626 476.6 312.52814Q476.11563 311.95 475.42813 311.95Q474.74063 311.95 474.225 312.5594Q473.725 313.15314 473.725 314.29376ZM484.02188 315.45L485.11563 315.575Q484.86563 316.52814 484.1625 317.0594Q483.45938 317.59064 482.38126 317.59064Q481.02188 317.59064 480.20938 316.7469Q479.4125 315.90314 479.4125 314.3875Q479.4125 312.825 480.225 311.96564Q481.0375 311.09064 482.31876 311.09064Q483.56876 311.09064 484.35 311.9344Q485.14688 312.77814 485.14688 314.325Q485.14688 314.41876 485.14688 314.60626L480.50626 314.60626Q480.56876 315.6375 481.08438 316.1844Q481.6 316.71564 482.38126 316.71564Q482.95938 316.71564 483.36563 316.41876Q483.7875 316.10626 484.02188 315.45ZM480.56876 313.7469L484.0375 313.7469Q483.975 312.95 483.64688 312.5594Q483.13126 311.95 482.33438 311.95Q481.6 311.95 481.1 312.4344Q480.61563 312.91876 480.56876 313.7469ZM486.75626 317.45L486.75626 311.23126L487.70938 311.23126L487.70938 312.16876Q488.06876 311.5125 488.36563 311.3094Q488.67813 311.09064 489.05313 311.09064Q489.58438 311.09064 490.13126 311.41876L489.77188 312.40314Q489.38126 312.16876 489.00626 312.16876Q488.64688 312.16876 488.36563 312.3875Q488.1 312.59064 487.99063 312.96564Q487.80313 313.52814 487.80313 314.1844L487.80313 317.45L486.75626 317.45Z" fill-rule="nonzero"/><path fill="#000000" d="M513.3802 317.45L513.3802 308.85626L516.34894 308.85626Q517.34894 308.85626 517.8802 308.98126Q518.61456 309.15314 519.1302 309.59064Q519.8177 310.16876 520.1458 311.075Q520.48956 311.96564 520.48956 313.10626Q520.48956 314.09064 520.2552 314.84064Q520.03644 315.59064 519.67706 316.09064Q519.3177 316.59064 518.8802 316.8719Q518.4583 317.15314 517.86456 317.3094Q517.2708 317.45 516.48956 317.45L513.3802 317.45ZM514.5208 316.4344L516.34894 316.4344Q517.2083 316.4344 517.6927 316.27814Q518.17706 316.1219 518.4583 315.825Q518.86456 315.4344 519.0833 314.7469Q519.3177 314.0594 519.3177 313.09064Q519.3177 311.7469 518.86456 311.02814Q518.42706 310.29376 517.80206 310.04376Q517.3333 309.8719 516.3333 309.8719L514.5208 309.8719L514.5208 316.4344ZM526.5052 315.45L527.59894 315.575Q527.34894 316.52814 526.6458 317.0594Q525.9427 317.59064 524.86456 317.59064Q523.5052 317.59064 522.6927 316.7469Q521.8958 315.90314 521.8958 314.3875Q521.8958 312.825 522.7083 311.96564Q523.5208 311.09064 524.80206 311.09064Q526.05206 311.09064 526.8333 311.9344Q527.6302 312.77814 527.6302 314.325Q527.6302 314.41876 527.6302 314.60626L522.98956 314.60626Q523.05206 315.6375 523.5677 316.1844Q524.0833 316.71564 524.86456 316.71564Q525.4427 316.71564 525.84894 316.41876Q526.2708 316.10626 526.5052 315.45ZM523.05206 313.7469L526.5208 313.7469Q526.4583 312.95 526.1302 312.5594Q525.61456 311.95 524.8177 311.95Q524.0833 311.95 523.5833 312.4344Q523.09894 312.91876 523.05206 313.7469ZM533.3177 315.16876L534.34894 315.3094Q534.17706 316.3719 533.47394 316.98126Q532.7708 317.59064 531.7552 317.59064Q530.47394 317.59064 529.6927 316.7625Q528.92706 315.91876 528.92706 314.35626Q528.92706 313.35626 529.2552 312.60626Q529.59894 311.84064 530.2708 311.46564Q530.9583 311.09064 531.7708 311.09064Q532.7708 311.09064 533.41144 311.60626Q534.0677 312.10626 534.2552 313.0594L533.22394 313.21564Q533.0833 312.59064 532.7083 312.27814Q532.3333 311.95 531.80206 311.95Q531.0052 311.95 530.5052 312.52814Q530.0052 313.09064 530.0052 314.325Q530.0052 315.59064 530.48956 316.15314Q530.97394 316.71564 531.73956 316.71564Q532.36456 316.71564 532.7708 316.34064Q533.1927 315.96564 533.3177 315.16876ZM539.5052 315.45L540.59894 315.575Q540.34894 316.52814 539.6458 317.0594Q538.9427 317.59064 537.86456 317.59064Q536.5052 317.59064 535.6927 316.7469Q534.8958 315.90314 534.8958 314.3875Q534.8958 312.825 535.7083 311.96564Q536.5208 311.09064 537.80206 311.09064Q539.05206 311.09064 539.8333 311.9344Q540.6302 312.77814 540.6302 314.325Q540.6302 314.41876 540.6302 314.60626L535.98956 314.60626Q536.05206 315.6375 536.5677 316.1844Q537.0833 316.71564 537.86456 316.71564Q538.4427 316.71564 538.84894 316.41876Q539.2708 316.10626 539.5052 315.45ZM536.05206 313.7469L539.5208 313.7469Q539.4583 312.95 539.1302 312.5594Q538.61456 311.95 537.8177 311.95Q537.0833 311.95 536.5833 312.4344Q536.09894 312.91876 536.05206 313.7469ZM542.2552 317.45L542.2552 311.23126L543.1927 311.23126L543.1927 312.10626Q543.48956 311.6375 543.97394 311.3719Q544.4583 311.09064 545.0833 311.09064Q545.7708 311.09064 546.2083 311.3719Q546.66144 311.65314 546.8333 312.16876Q547.5833 311.09064 548.7552 311.09064Q549.6927 311.09064 550.17706 311.60626Q550.67706 312.10626 550.67706 313.1844L550.67706 317.45L549.6302 317.45L549.6302 313.52814Q549.6302 312.90314 549.5208 312.6219Q549.42706 312.34064 549.16144 312.16876Q548.8958 311.9969 548.5208 311.9969Q547.86456 311.9969 547.42706 312.4344Q547.0052 312.8719 547.0052 313.84064L547.0052 317.45L545.9427 317.45L545.9427 313.40314Q545.9427 312.7 545.67706 312.35626Q545.42706 311.9969 544.84894 311.9969Q544.3958 311.9969 544.0208 312.23126Q543.6458 312.46564 543.47394 312.91876Q543.30206 313.3719 543.30206 314.21564L543.30206 317.45L542.2552 317.45ZM554.22394 317.45L553.23956 317.45L553.23956 308.85626L554.30206 308.85626L554.30206 311.91876Q554.97394 311.09064 556.0052 311.09064Q556.5833 311.09064 557.0833 311.325Q557.59894 311.54376 557.92706 311.96564Q558.2708 312.3875 558.4583 312.98126Q558.6458 313.575 558.6458 314.2469Q558.6458 315.84064 557.84894 316.71564Q557.05206 317.59064 555.9583 317.59064Q554.84894 317.59064 554.22394 316.66876L554.22394 317.45ZM554.2083 314.29376Q554.2083 315.40314 554.5208 315.90314Q555.0208 316.71564 555.86456 316.71564Q556.55206 316.71564 557.05206 316.1219Q557.5677 315.52814 557.5677 314.325Q557.5677 313.10626 557.0833 312.52814Q556.59894 311.95 555.91144 311.95Q555.22394 311.95 554.7083 312.5594Q554.2083 313.15314 554.2083 314.29376ZM564.5052 315.45L565.59894 315.575Q565.34894 316.52814 564.6458 317.0594Q563.9427 317.59064 562.86456 317.59064Q561.5052 317.59064 560.6927 316.7469Q559.8958 315.90314 559.8958 314.3875Q559.8958 312.825 560.7083 311.96564Q561.5208 311.09064 562.80206 311.09064Q564.05206 311.09064 564.8333 311.9344Q565.6302 312.77814 565.6302 314.325Q565.6302 314.41876 565.6302 314.60626L560.98956 314.60626Q561.05206 315.6375 561.5677 316.1844Q562.0833 316.71564 562.86456 316.71564Q563.4427 316.71564 563.84894 316.41876Q564.2708 316.10626 564.5052 315.45ZM561.05206 313.7469L564.5208 313.7469Q564.4583 312.95 564.1302 312.5594Q563.61456 311.95 562.8177 311.95Q562.0833 311.95 561.5833 312.4344Q561.09894 312.91876 561.05206 313.7469ZM567.23956 317.45L567.23956 311.23126L568.1927 311.23126L568.1927 312.16876Q568.55206 311.5125 568.84894 311.3094Q569.16144 311.09064 569.53644 311.09064Q570.0677 311.09064 570.61456 311.41876L570.2552 312.40314Q569.86456 312.16876 569.48956 312.16876Q569.1302 312.16876 568.84894 312.3875Q568.5833 312.59064 568.47394 312.96564Q568.28644 313.52814 568.28644 314.1844L568.28644 317.45L567.23956 317.45Z" fill-rule="nonzero"/><path fill="#757575" d="M23.7375 37.55L23.7375 24.925L19.01875 24.925L19.01875 23.2375L30.3625 23.2375L30.3625 24.925L25.628124 24.925L25.628124 37.55L23.7375 37.55ZM31.221874 32.3625Q31.221874 29.4875 32.815624 28.096874Q34.159374 26.940624 36.08125 26.940624Q38.221874 26.940624 39.565624 28.346874Q40.925 29.753124 40.925 32.221874Q40.925 34.221874 40.33125 35.378124Q39.7375 36.51875 38.58125 37.159374Q37.440624 37.784374 36.08125 37.784374Q33.89375 37.784374 32.55 36.39375Q31.221874 34.9875 31.221874 32.3625ZM33.01875 32.3625Q33.01875 34.3625 33.878124 35.346874Q34.753124 36.33125 36.08125 36.33125Q37.39375 36.33125 38.253124 35.346874Q39.128124 34.346874 39.128124 32.3Q39.128124 30.378124 38.253124 29.39375Q37.378124 28.39375 36.08125 28.39375Q34.753124 28.39375 33.878124 29.39375Q33.01875 30.378124 33.01875 32.3625ZM46.70625 35.971874L46.95625 37.534374Q46.221874 37.690624 45.628124 37.690624Q44.675 37.690624 44.14375 37.39375Q43.628124 37.08125 43.409374 36.596874Q43.190624 36.096874 43.190624 34.51875L43.190624 28.55L41.909374 28.55L41.909374 27.175L43.190624 27.175L43.190624 24.6125L44.940624 23.55L44.940624 27.175L46.70625 27.175L46.70625 28.55L44.940624 28.55L44.940624 34.6125Q44.940624 35.3625 45.034374 35.58125Q45.128124 35.784374 45.33125 35.925Q45.55 36.05 45.940624 36.05Q46.221874 36.05 46.70625 35.971874ZM55.64375 36.26875Q54.659374 37.096874 53.753124 37.440624Q52.846874 37.784374 51.815624 37.784374Q50.1125 37.784374 49.190624 36.95625Q48.26875 36.1125 48.26875 34.815624Q48.26875 34.05 48.6125 33.425Q48.971874 32.8 49.534374 32.425Q50.096874 32.034374 50.8 31.83125Q51.315624 31.70625 52.3625 31.565624Q54.4875 31.315624 55.4875 30.971874Q55.503124 30.6125 55.503124 30.503124Q55.503124 29.440624 55.003124 28.9875Q54.33125 28.39375 53.003124 28.39375Q51.753124 28.39375 51.159374 28.83125Q50.58125 29.26875 50.3 30.378124L48.58125 30.14375Q48.815624 29.034374 49.346874 28.3625Q49.878124 27.675 50.89375 27.315624Q51.909374 26.940624 53.253124 26.940624Q54.58125 26.940624 55.409374 27.253124Q56.2375 27.565624 56.628124 28.05Q57.01875 28.51875 57.175 29.2375Q57.26875 29.690624 57.26875 30.8625L57.26875 33.20625Q57.26875 35.659374 57.378124 36.315624Q57.4875 36.95625 57.83125 37.55L55.9875 37.55Q55.721874 37.003124 55.64375 36.26875ZM55.4875 32.346874Q54.534374 32.7375 52.6125 33.003124Q51.534374 33.159374 51.08125 33.3625Q50.64375 33.55 50.39375 33.925Q50.14375 34.3 50.14375 34.76875Q50.14375 35.471874 50.675 35.940624Q51.20625 36.409374 52.2375 36.409374Q53.253124 36.409374 54.034374 35.971874Q54.83125 35.51875 55.20625 34.753124Q55.4875 34.14375 55.4875 32.9875L55.4875 32.346874ZM59.83125 37.55L59.83125 23.2375L61.58125 23.2375L61.58125 37.55L59.83125 37.55ZM70.08125 37.55L70.08125 23.2375L72.01875 23.2375L79.53438 34.471874L79.53438 23.2375L81.34688 23.2375L81.34688 37.55L79.40938 37.55L71.89375 26.3L71.89375 37.55L70.08125 37.55ZM89.97188 34.20625L91.78438 34.440624Q91.3625 36.01875 90.19063 36.909374Q89.03438 37.784374 87.22188 37.784374Q84.95625 37.784374 83.6125 36.39375Q82.28438 34.9875 82.28438 32.45625Q82.28438 29.83125 83.62813 28.39375Q84.97188 26.940624 87.12813 26.940624Q89.20625 26.940624 90.51875 28.3625Q91.84688 29.76875 91.84688 32.346874Q91.84688 32.503124 91.83125 32.815624L84.09688 32.815624Q84.19063 34.51875 85.06563 35.425Q85.94063 36.33125 87.2375 36.33125Q88.20625 36.33125 88.87813 35.83125Q89.56563 35.315624 89.97188 34.20625ZM84.19063 31.3625L89.9875 31.3625Q89.87813 30.065624 89.33125 29.409374Q88.4875 28.39375 87.14375 28.39375Q85.94063 28.39375 85.1125 29.20625Q84.28438 30.003124 84.19063 31.3625ZM97.70625 35.971874L97.95625 37.534374Q97.22188 37.690624 96.62813 37.690624Q95.675 37.690624 95.14375 37.39375Q94.62813 37.08125 94.40938 36.596874Q94.19063 36.096874 94.19063 34.51875L94.19063 28.55L92.90938 28.55L92.90938 27.175L94.19063 27.175L94.19063 24.6125L95.94063 23.55L95.94063 27.175L97.70625 27.175L97.70625 28.55L95.94063 28.55L95.94063 34.6125Q95.94063 35.3625 96.03438 35.58125Q96.12813 35.784374 96.33125 35.925Q96.55 36.05 96.94063 36.05Q97.22188 36.05 97.70625 35.971874ZM101.78438 37.55L98.6125 27.175L100.425 27.175L102.08125 33.159374L102.69063 35.39375Q102.7375 35.221874 103.22188 33.253124L104.87813 27.175L106.69063 27.175L108.2375 33.190624L108.75313 35.175L109.34688 33.175L111.12813 27.175L112.83125 27.175L109.59688 37.55L107.76875 37.55L106.1125 31.33125L105.72188 29.565624L103.6125 37.55L101.78438 37.55ZM114.22188 32.3625Q114.22188 29.4875 115.81563 28.096874Q117.15938 26.940624 119.08125 26.940624Q121.22188 26.940624 122.56563 28.346874Q123.925 29.753124 123.925 32.221874Q123.925 34.221874 123.33125 35.378124Q122.7375 36.51875 121.58125 37.159374Q120.44063 37.784374 119.08125 37.784374Q116.89375 37.784374 115.55 36.39375Q114.22188 34.9875 114.22188 32.3625ZM116.01875 32.3625Q116.01875 34.3625 116.87813 35.346874Q117.75313 36.33125 119.08125 36.33125Q120.39375 36.33125 121.25313 35.346874Q122.12813 34.346874 122.12813 32.3Q122.12813 30.378124 121.25313 29.39375Q120.37813 28.39375 119.08125 28.39375Q117.75313 28.39375 116.87813 29.39375Q116.01875 30.378124 116.01875 32.3625ZM125.84688 37.55L125.84688 27.175L127.425 27.175L127.425 28.753124Q128.03438 27.64375 128.55 27.3Q129.06563 26.940624 129.675 26.940624Q130.56563 26.940624 131.4875 27.503124L130.87813 29.14375Q130.2375 28.753124 129.59688 28.753124Q129.01875 28.753124 128.55 29.1125Q128.09688 29.45625 127.89375 30.065624Q127.6125 31.003124 127.6125 32.1125L127.6125 37.55L125.84688 37.55ZM132.87813 37.55L132.87813 23.2375L134.64375 23.2375L134.64375 31.39375L138.8 27.175L141.06563 27.175L137.1125 31.01875L141.47188 37.55L139.3 37.55L135.87813 32.253124L134.64375 33.440624L134.64375 37.55L132.87813 37.55ZM149.12813 37.55L149.12813 23.2375L155.47188 23.2375Q157.37813 23.2375 158.37813 23.628124Q159.37813 24.003124 159.97188 24.9875Q160.56563 25.95625 160.56563 27.14375Q160.56563 28.659374 159.58125 29.70625Q158.59688 30.753124 156.53438 31.034374Q157.28438 31.39375 157.675 31.753124Q158.50313 32.503124 159.25313 33.659374L161.7375 37.55L159.3625 37.55L157.45625 34.565624Q156.62813 33.284374 156.09688 32.596874Q155.56563 31.909374 155.12813 31.64375Q154.70625 31.3625 154.26875 31.253124Q153.94063 31.190624 153.22188 31.190624L151.01875 31.190624L151.01875 37.55L149.12813 37.55ZM151.01875 29.55L155.09688 29.55Q156.39375 29.55 157.1125 29.284374Q157.84688 29.01875 158.22188 28.425Q158.6125 27.83125 158.6125 27.14375Q158.6125 26.128124 157.87813 25.471874Q157.14375 24.815624 155.55 24.815624L151.01875 24.815624L151.01875 29.55ZM169.97188 34.20625L171.78438 34.440624Q171.3625 36.01875 170.19063 36.909374Q169.03438 37.784374 167.22188 37.784374Q164.95625 37.784374 163.6125 36.39375Q162.28438 34.9875 162.28438 32.45625Q162.28438 29.83125 163.62813 28.39375Q164.97188 26.940624 167.12813 26.940624Q169.20625 26.940624 170.51875 28.3625Q171.84688 29.76875 171.84688 32.346874Q171.84688 32.503124 171.83125 32.815624L164.09688 32.815624Q164.19063 34.51875 165.06563 35.425Q165.94063 36.33125 167.2375 36.33125Q168.20625 36.33125 168.87813 35.83125Q169.56563 35.315624 169.97188 34.20625ZM164.19063 31.3625L169.9875 31.3625Q169.87813 30.065624 169.33125 29.409374Q168.4875 28.39375 167.14375 28.39375Q165.94063 28.39375 165.1125 29.20625Q164.28438 30.003124 164.19063 31.3625ZM175.78438 37.55L172.6125 27.175L174.425 27.175L176.08125 33.159374L176.69063 35.39375Q176.7375 35.221874 177.22188 33.253124L178.87813 27.175L180.69063 27.175L182.2375 33.190624L182.75313 35.175L183.34688 33.175L185.12813 27.175L186.83125 27.175L183.59688 37.55L181.76875 37.55L180.1125 31.33125L179.72188 29.565624L177.6125 37.55L175.78438 37.55ZM195.64375 36.26875Q194.65938 37.096874 193.75313 37.440624Q192.84688 37.784374 191.81563 37.784374Q190.1125 37.784374 189.19063 36.95625Q188.26875 36.1125 188.26875 34.815624Q188.26875 34.05 188.6125 33.425Q188.97188 32.8 189.53438 32.425Q190.09688 32.034374 190.8 31.83125Q191.31563 31.70625 192.3625 31.565624Q194.4875 31.315624 195.4875 30.971874Q195.50313 30.6125 195.50313 30.503124Q195.50313 29.440624 195.00313 28.9875Q194.33125 28.39375 193.00313 28.39375Q191.75313 28.39375 191.15938 28.83125Q190.58125 29.26875 190.3 30.378124L188.58125 30.14375Q188.81563 29.034374 189.34688 28.3625Q189.87813 27.675 190.89375 27.315624Q191.90938 26.940624 193.25313 26.940624Q194.58125 26.940624 195.40938 27.253124Q196.2375 27.565624 196.62813 28.05Q197.01875 28.51875 197.175 29.2375Q197.26875 29.690624 197.26875 30.8625L197.26875 33.20625Q197.26875 35.659374 197.37813 36.315624Q197.4875 36.95625 197.83125 37.55L195.9875 37.55Q195.72188 37.003124 195.64375 36.26875ZM195.4875 32.346874Q194.53438 32.7375 192.6125 33.003124Q191.53438 33.159374 191.08125 33.3625Q190.64375 33.55 190.39375 33.925Q190.14375 34.3 190.14375 34.76875Q190.14375 35.471874 190.675 35.940624Q191.20625 36.409374 192.2375 36.409374Q193.25313 36.409374 194.03438 35.971874Q194.83125 35.51875 195.20625 34.753124Q195.4875 34.14375 195.4875 32.9875L195.4875 32.346874ZM199.84688 37.55L199.84688 27.175L201.425 27.175L201.425 28.753124Q202.03438 27.64375 202.55 27.3Q203.06563 26.940624 203.675 26.940624Q204.56563 26.940624 205.4875 27.503124L204.87813 29.14375Q204.2375 28.753124 203.59688 28.753124Q203.01875 28.753124 202.55 29.1125Q202.09688 29.45625 201.89375 30.065624Q201.6125 31.003124 201.6125 32.1125L201.6125 37.55L199.84688 37.55ZM213.59688 37.55L213.59688 36.2375Q212.6125 37.784374 210.69063 37.784374Q209.45625 37.784374 208.40938 37.096874Q207.37813 36.409374 206.8 35.190624Q206.2375 33.971874 206.2375 32.378124Q206.2375 30.815624 206.75313 29.55Q207.26875 28.284374 208.3 27.6125Q209.34688 26.940624 210.6125 26.940624Q211.55 26.940624 212.28438 27.346874Q213.01875 27.7375 213.4875 28.3625L213.4875 23.2375L215.22188 23.2375L215.22188 37.55L213.59688 37.55ZM208.03438 32.378124Q208.03438 34.3625 208.87813 35.346874Q209.72188 36.33125 210.8625 36.33125Q212.01875 36.33125 212.81563 35.39375Q213.62813 34.45625 213.62813 32.51875Q213.62813 30.39375 212.8 29.39375Q211.9875 28.39375 210.78438 28.39375Q209.6125 28.39375 208.81563 29.3625Q208.03438 30.315624 208.03438 32.378124ZM217.15938 34.45625L218.90938 34.175Q219.05 35.221874 219.72188 35.784374Q220.39375 36.33125 221.59688 36.33125Q222.8 36.33125 223.37813 35.846874Q223.97188 35.346874 223.97188 34.690624Q223.97188 34.096874 223.45625 33.753124Q223.09688 33.51875 221.65938 33.159374Q219.72188 32.659374 218.97188 32.315624Q218.2375 31.95625 217.84688 31.33125Q217.45625 30.690624 217.45625 29.925Q217.45625 29.2375 217.76875 28.64375Q218.09688 28.05 218.64375 27.659374Q219.05 27.3625 219.75313 27.159374Q220.47188 26.940624 221.28438 26.940624Q222.50313 26.940624 223.425 27.3Q224.34688 27.64375 224.78438 28.253124Q225.22188 28.846874 225.39375 29.846874L223.675 30.08125Q223.55 29.284374 222.9875 28.846874Q222.425 28.39375 221.40938 28.39375Q220.19063 28.39375 219.675 28.8Q219.15938 29.190624 219.15938 29.721874Q219.15938 30.065624 219.37813 30.346874Q219.58125 30.628124 220.05 30.815624Q220.31563 30.909374 221.59688 31.253124Q223.47188 31.753124 224.20625 32.08125Q224.94063 32.39375 225.3625 33.003124Q225.78438 33.596874 225.78438 34.503124Q225.78438 35.378124 225.26875 36.159374Q224.75313 36.940624 223.78438 37.3625Q222.81563 37.784374 221.59688 37.784374Q219.58125 37.784374 218.51875 36.940624Q217.45625 36.096874 217.15938 34.45625ZM237.22188 41.753124Q235.76875 39.925 234.76875 37.471874Q233.76875 35.003124 233.76875 32.3625Q233.76875 30.034374 234.51875 27.909374Q235.39375 25.440624 237.22188 22.9875L238.4875 22.9875Q237.3 25.01875 236.925 25.89375Q236.33125 27.2375 235.9875 28.70625Q235.56563 30.534374 235.56563 32.378124Q235.56563 37.065624 238.4875 41.753124L237.22188 41.753124ZM239.69063 37.55L243.4875 32.159374L239.9875 27.175L242.175 27.175L243.76875 29.6125Q244.22188 30.3 244.4875 30.76875Q244.925 30.128124 245.28438 29.628124L247.03438 27.175L249.12813 27.175L245.55 32.065624L249.40938 37.55L247.25313 37.55L245.1125 34.33125L244.55 33.45625L241.83125 37.55L239.69063 37.55ZM250.01875 37.55L250.01875 23.2375L255.39375 23.2375Q257.03436 23.2375 258.01874 23.675Q259.0031 24.096874 259.5656 25.003124Q260.1281 25.909374 260.1281 26.89375Q260.1281 27.815624 259.6281 28.628124Q259.14374 29.440624 258.1281 29.925Q259.425 30.315624 260.1281 31.2375Q260.83124 32.14375 260.83124 33.39375Q260.83124 34.409374 260.39374 35.26875Q259.97186 36.128124 259.34686 36.596874Q258.72186 37.065624 257.78436 37.315624Q256.84686 37.55 255.47188 37.55L250.01875 37.55ZM251.90938 29.253124L255.00313 29.253124Q256.26874 29.253124 256.8156 29.08125Q257.53436 28.8625 257.89374 28.378124Q258.26874 27.878124 258.26874 27.1125Q258.26874 26.409374 257.925 25.8625Q257.58124 25.315624 256.9406 25.128124Q256.3156 24.925 254.76875 24.925L251.90938 24.925L251.90938 29.253124ZM251.90938 35.8625L255.47188 35.8625Q256.39374 35.8625 256.76874 35.784374Q257.425 35.675 257.8625 35.409374Q258.3 35.128124 258.58124 34.6125Q258.8625 34.08125 258.8625 33.39375Q258.8625 32.596874 258.45624 32.003124Q258.05 31.409374 257.3156 31.175Q256.58124 30.940624 255.22188 30.940624L251.90938 30.940624L251.90938 35.8625ZM261.95624 37.55L261.95624 35.784374L269.28436 26.628124Q270.0656 25.64375 270.76874 24.925L262.78436 24.925L262.78436 23.2375L273.03436 23.2375L273.03436 24.925L265.0031 34.846874L264.1281 35.8625L273.26874 35.8625L273.26874 37.55L261.95624 37.55ZM273.95624 37.55L273.95624 35.784374L281.28436 26.628124Q282.0656 25.64375 282.76874 24.925L274.78436 24.925L274.78436 23.2375L285.03436 23.2375L285.03436 24.925L277.0031 34.846874L276.1281 35.8625L285.26874 35.8625L285.26874 37.55L273.95624 37.55ZM288.01874 41.753124L286.76874 41.753124Q289.675 37.065624 289.675 32.378124Q289.675 30.534374 289.26874 28.7375Q288.925 27.26875 288.33124 25.925Q287.95624 25.034374 286.76874 22.9875L288.01874 22.9875Q289.8625 25.440624 290.7375 27.909374Q291.4875 30.034374 291.4875 32.3625Q291.4875 35.003124 290.47186 37.471874Q289.47186 39.925 288.01874 41.753124ZM302.7531 37.55L298.8 27.175L300.65936 27.175L302.89374 33.39375Q303.2531 34.39375 303.55 35.471874Q303.78436 34.659374 304.20624 33.503124L306.5031 27.175L308.3156 27.175L304.39374 37.55L302.7531 37.55ZM308.15936 34.45625L309.90936 34.175Q310.05 35.221874 310.72186 35.784374Q311.39374 36.33125 312.59686 36.33125Q313.8 36.33125 314.3781 35.846874Q314.97186 35.346874 314.97186 34.690624Q314.97186 34.096874 314.45624 33.753124Q314.09686 33.51875 312.65936 33.159374Q310.72186 32.659374 309.97186 32.315624Q309.2375 31.95625 308.84686 31.33125Q308.45624 30.690624 308.45624 29.925Q308.45624 29.2375 308.76874 28.64375Q309.09686 28.05 309.64374 27.659374Q310.05 27.3625 310.7531 27.159374Q311.47186 26.940624 312.28436 26.940624Q313.5031 26.940624 314.425 27.3Q315.34686 27.64375 315.78436 28.253124Q316.22186 28.846874 316.39374 29.846874L314.675 30.08125Q314.55 29.284374 313.9875 28.846874Q313.425 28.39375 312.40936 28.39375Q311.1906 28.39375 310.675 28.8Q310.15936 29.190624 310.15936 29.721874Q310.15936 30.065624 310.3781 30.346874Q310.58124 30.628124 311.05 30.815624Q311.3156 30.909374 312.59686 31.253124Q314.47186 31.753124 315.20624 32.08125Q315.9406 32.39375 316.3625 33.003124Q316.78436 33.596874 316.78436 34.503124Q316.78436 35.378124 316.26874 36.159374Q315.7531 36.940624 314.78436 37.3625Q313.8156 37.784374 312.59686 37.784374Q310.58124 37.784374 309.51874 36.940624Q308.45624 36.096874 308.15936 34.45625ZM319.3625 37.55L319.3625 35.55L321.3625 35.55L321.3625 37.55L319.3625 37.55ZM331.03436 37.55L331.03436 23.2375L333.89374 23.2375L337.26874 33.3625Q337.7375 34.784374 337.95624 35.4875Q338.20624 34.70625 338.72186 33.190624L342.14374 23.2375L344.6906 23.2375L344.6906 37.55L342.8781 37.55L342.8781 25.565624L338.70624 37.55L337.0031 37.55L332.8625 25.3625L332.8625 37.55L331.03436 37.55ZM347.22186 32.3625Q347.22186 29.4875 348.8156 28.096874Q350.15936 26.940624 352.08124 26.940624Q354.22186 26.940624 355.5656 28.346874Q356.925 29.753124 356.925 32.221874Q356.925 34.221874 356.33124 35.378124Q355.7375 36.51875 354.58124 37.159374Q353.4406 37.784374 352.08124 37.784374Q349.89374 37.784374 348.55 36.39375Q347.22186 34.9875 347.22186 32.3625ZM349.01874 32.3625Q349.01874 34.3625 349.8781 35.346874Q350.7531 36.33125 352.08124 36.33125Q353.39374 36.33125 354.2531 35.346874Q355.1281 34.346874 355.1281 32.3Q355.1281 30.378124 354.2531 29.39375Q353.3781 28.39375 352.08124 28.39375Q350.7531 28.39375 349.8781 29.39375Q349.01874 30.378124 349.01874 32.3625ZM358.8625 37.55L358.8625 27.175L360.45624 27.175L360.45624 28.659374Q361.59686 26.940624 363.7531 26.940624Q364.6906 26.940624 365.47186 27.284374Q366.26874 27.6125 366.65936 28.159374Q367.05 28.70625 367.20624 29.45625Q367.3 29.95625 367.3 31.175L367.3 37.55L365.53436 37.55L365.53436 31.2375Q365.53436 30.159374 365.33124 29.628124Q365.1281 29.096874 364.59686 28.784374Q364.08124 28.471874 363.3781 28.471874Q362.2531 28.471874 361.4406 29.190624Q360.6281 29.89375 360.6281 31.878124L360.6281 37.55L358.8625 37.55ZM372.70624 35.971874L372.95624 37.534374Q372.22186 37.690624 371.6281 37.690624Q370.675 37.690624 370.14374 37.39375Q369.6281 37.08125 369.40936 36.596874Q369.1906 36.096874 369.1906 34.51875L369.1906 28.55L367.90936 28.55L367.90936 27.175L369.1906 27.175L369.1906 24.6125L370.9406 23.55L370.9406 27.175L372.70624 27.175L372.70624 28.55L370.9406 28.55L370.9406 34.6125Q370.9406 35.3625 371.03436 35.58125Q371.1281 35.784374 371.33124 35.925Q371.55 36.05 371.9406 36.05Q372.22186 36.05 372.70624 35.971874ZM374.8625 37.55L374.8625 23.2375L376.6281 23.2375L376.6281 28.3625Q377.8625 26.940624 379.7375 26.940624Q380.8781 26.940624 381.72186 27.39375Q382.58124 27.846874 382.9406 28.659374Q383.3156 29.45625 383.3156 30.971874L383.3156 37.55L381.5656 37.55L381.5656 30.971874Q381.5656 29.659374 380.9875 29.065624Q380.40936 28.45625 379.3781 28.45625Q378.59686 28.45625 377.89374 28.8625Q377.20624 29.26875 376.90936 29.971874Q376.6281 30.659374 376.6281 31.878124L376.6281 37.55L374.8625 37.55Z" fill-rule="nonzero"/></svg>